<svg width="35" height="8" viewBox="0 0 35 8" fill="none" xmlns="http://www.w3.org/2000/svg">
<path d="M34.4935 7.45312C34.1833 7.45312 34.0282 7.29819 33.8731 6.98834C33.718 5.90389 33.5629 4.97434 33.0975 4.0448C32.6322 3.27019 31.7016 2.49558 30.3057 2.49558C29.5302 2.49558 28.7547 2.65051 27.669 3.11528C25.8078 4.04482 24.4119 5.59403 23.7914 7.14325C23.6363 7.29817 23.4812 7.45312 23.171 7.45312C22.8608 7.45312 22.7057 7.29819 22.7057 6.98834C22.3955 5.74896 21.9302 4.35465 21.1547 3.27019C20.3792 2.34065 18.9833 1.41114 17.2772 1.25622C15.7261 1.25622 14.1751 1.8759 13.2445 3.11528C12.3139 4.19974 11.8486 5.59403 11.6935 6.83341C11.6935 7.14326 11.3833 7.29818 11.0731 7.29818C10.7629 7.29818 10.6078 7.14326 10.4527 6.83341C10.1425 5.59403 9.67717 4.35465 8.90166 3.27019C8.12615 2.34065 6.57514 1.56604 5.02412 1.72097C2.85269 2.03081 1.76698 4.04481 1.14658 5.74896C0.991473 6.0588 0.68127 6.21372 0.371066 6.0588C0.0608627 5.90388 -0.0942579 5.59403 0.0608438 5.28419C0.836353 3.42512 2.07718 0.946357 4.86901 0.636512C6.57513 0.48159 8.59147 1.10128 9.83228 2.49558C10.4527 3.11527 10.7629 3.88988 11.0731 4.50957C11.3833 3.73496 11.6935 2.96035 12.3139 2.18574C13.5547 0.791435 15.4159 -0.13809 17.2772 0.016832C19.1384 0.016832 20.8445 0.946353 21.9302 2.49558C22.5506 3.42511 23.0159 4.35465 23.3261 5.28419C24.2567 3.88988 25.4976 2.80544 27.0486 2.03083C28.1343 1.41114 29.22 1.10129 30.1506 1.25622C31.7016 1.25622 33.0975 2.18574 33.8731 3.42512C34.6486 4.50958 34.8036 5.74895 34.9587 6.83341C35.1138 6.98833 34.8037 7.29819 34.4935 7.45312Z" fill="black"/>
</svg>
