<svg width="21" height="23" viewBox="0 0 21 23" fill="none" xmlns="http://www.w3.org/2000/svg">
<path d="M10.6355 23C8.3105 23 5.98551 22.071 4.12553 20.5229C1.95556 18.665 0.405526 15.8783 0.0955296 12.7819C-0.67946 6.43435 3.35051 0.706058 8.93043 0.0867828C14.6654 -0.687311 19.9353 3.80243 20.8653 10.15C21.3303 13.2464 20.5553 16.1879 18.8503 18.665C17.1454 21.1421 14.6654 22.6903 11.8754 23C11.4104 23 10.9455 23 10.6355 23ZM10.1704 1.17051C9.8604 1.17051 9.39549 1.17051 9.08549 1.17051C3.97056 1.78979 0.405545 6.89882 1.18053 12.6271C1.49053 15.4139 2.88555 17.891 4.90052 19.594C6.9155 21.297 9.39541 22.0711 11.7204 21.7614C14.2003 21.4518 16.3704 20.0584 17.7653 17.8909C19.3153 15.7235 19.9353 12.9368 19.4703 10.3048C18.8503 5.04099 14.8203 1.17051 10.1704 1.17051Z" fill="black"/>
</svg>
