<svg width="53" height="15" viewBox="0 0 53 15" fill="none" xmlns="http://www.w3.org/2000/svg">
<path d="M34.2764 14.1773C33.9744 14.1773 33.6723 13.8757 33.6723 13.574C33.6723 13.2724 33.9744 12.9707 34.2764 12.9707H52.396C52.698 12.9707 53 13.2724 53 13.574C53 13.8757 52.698 14.1773 52.396 14.1773H34.2764Z" fill="black"/>
<path d="M22.3476 14.1773C15.0997 14.1773 7.85184 14.0265 0.603979 13.8756C0.301985 13.8756 0 13.574 0 13.2724C0 12.9707 0.301985 12.669 0.603979 12.669C7.85184 12.9707 15.2507 12.9707 22.4986 12.9707C22.8006 12.9707 23.1025 13.2723 23.1025 13.574C23.1025 13.8756 22.8005 14.1773 22.3476 14.1773Z" fill="black"/>
<path d="M34.2764 1.50823C23.2536 1.3574 12.0797 1.20661 1.20796 1.20661C0.905961 1.20661 0.603976 0.904926 0.603976 0.603281C0.603976 0.301636 0.905961 0 1.20796 0C12.2307 0 23.4046 0.150841 34.2764 0.301664C34.5784 0.301664 34.8803 0.6033 34.8803 0.904945C34.7293 1.35741 34.5784 1.50823 34.2764 1.50823Z" fill="black"/>
</svg>
