<svg width="75" height="75" viewBox="0 0 75 75" fill="none" xmlns="http://www.w3.org/2000/svg">
<path d="M68.3339 34.627C66.5173 34.0222 64.7007 33.1149 63.4896 31.6028C61.8244 29.4859 61.3702 26.4617 62.1271 23.8911C62.884 21.3206 64.5492 18.9012 66.6686 17.2379C64.852 14.3649 62.8841 11.492 60.7647 8.92139C58.1911 10.7359 55.769 12.5504 52.8927 12.7016C50.1677 12.8528 47.5942 11.3407 45.7776 9.2238C44.1123 7.10687 43.204 4.3851 42.9012 1.66332C42.7498 1.3609 42.5985 1.36091 42.5985 1.36091C39.7222 1.2097 36.8459 0.907277 33.9696 0.756068C33.5154 3.47784 32.3043 5.74598 30.3363 7.5605C28.5197 9.22381 25.9462 10.2823 23.3727 10.2823C22.313 10.2823 21.2533 9.97985 20.345 9.82864C18.6797 9.52622 16.8631 9.07259 15.8034 7.71171C13.5327 9.2238 11.5646 10.8871 9.59661 12.5504C10.6563 13.3065 10.9591 14.2137 11.4132 15.121C12.1702 17.0867 12.7758 19.2036 12.3216 21.3206C11.8674 23.4375 10.2022 25.252 8.2342 26.3105C6.2662 27.369 4.1468 27.8226 1.87603 27.9738C1.27049 31.1492 0.967703 34.4758 0.816318 37.8024C2.63293 38.4073 4.44959 39.0121 5.96343 39.9194C7.47728 40.8266 8.99112 42.1875 9.74805 43.8508C10.505 45.8165 10.3535 47.9335 9.59661 49.8992C8.83968 51.8649 7.32587 53.377 5.66064 54.7379C7.62864 57.9133 9.44524 60.7863 11.4132 63.6593C14.4409 61.6935 18.0742 61.0887 21.4047 62.1472C22.1616 62.4496 23.0699 62.752 23.6754 63.3568C24.5838 63.9617 25.1893 64.8689 25.6434 65.9274C26.8545 68.1955 27.1573 70.7661 26.8545 73.3367C30.3363 74.0927 33.6668 74.3951 36.9973 74.6976C36.8459 71.2197 38.3598 67.7419 41.0847 65.7762C43.8096 63.8105 47.7456 63.6593 50.6219 65.625C51.9844 66.5323 52.8927 67.7419 53.9524 69.1028C56.9801 66.9859 60.0077 64.7177 62.7327 62.2984C61.2188 59.879 59.5535 57.4597 59.5535 54.7379C59.5535 51.8649 61.2188 49.1431 63.6409 47.631C66.0631 46.119 69.0908 45.6653 71.9671 45.9677C72.8754 42.6411 73.7837 39.3145 74.5406 36.1391C72.2699 35.3831 70.3019 35.2319 68.3339 34.627ZM50.4704 41.8851C49.2594 44.4556 47.4428 46.5726 45.172 48.2359C43.8095 49.1431 42.4471 50.0504 40.7819 50.504C34.4237 52.4698 27.0058 48.9919 23.9781 42.9436C21.8588 38.5585 21.8588 33.1149 24.2809 28.8811C26.5517 24.6472 31.0933 21.4718 35.9376 20.8669C40.3277 20.2621 45.7775 22.6815 48.9566 26.9153C51.9843 31.3004 52.5898 37.1976 50.4704 41.8851Z" fill="#ACD4F7"/>
<g opacity="0.1294">
<path d="M54.4065 34.9294C54.4065 34.4758 54.2551 33.871 54.1037 33.4174C54.1037 33.2661 53.9524 33.1149 53.9524 33.1149C53.0441 31.3004 51.9843 29.6371 50.7732 28.125C50.6219 28.2762 50.4705 28.4274 50.3191 28.7299C50.1677 29.6371 50.7733 30.3932 51.076 31.1492C51.8329 33.4174 52.2871 34.4758 52.1357 36.4415C52.1357 37.1976 50.9246 41.4315 50.4705 42.0363C50.0163 42.9436 49.4108 43.8508 48.8053 44.7581C48.6539 45.0605 48.5025 45.0605 48.5025 45.0605C48.1997 45.3629 47.897 45.6653 47.5942 45.8165C46.9887 46.4214 46.2318 46.875 45.6262 47.4798C45.4748 47.6311 45.172 47.7823 45.0206 48.0847C45.172 47.9335 44.8693 48.2359 44.5665 48.3871C44.4151 48.5383 43.8096 48.9919 43.3554 49.1432C41.0847 49.8992 38.6625 50.3528 37.3001 50.504C35.6348 50.6553 33.9695 50.2016 32.6071 49.8992C31.6988 49.5968 30.7905 48.6895 29.8822 48.8407C29.428 48.9919 29.1253 49.2944 28.9739 49.5968C29.1253 49.748 29.1252 49.748 29.2766 49.8992C29.5794 50.2016 30.0335 50.504 30.3363 50.8065C31.5474 51.5625 32.9099 52.4698 34.1209 53.2258C36.2403 53.8306 38.3598 53.9819 41.0847 53.377H40.9332C43.6582 52.7722 44.5665 52.4698 46.6858 51.4113C48.5025 50.3528 49.865 48.8407 51.076 47.0262C51.076 47.0262 51.076 46.875 51.2274 46.875C52.5898 45.2117 53.4981 43.3972 54.2551 41.4315C54.5578 39.617 54.5579 37.1976 54.4065 34.9294Z" fill="black"/>
</g>
<g opacity="0.1294">
<path d="M61.2189 57.7622C60.9161 57.7622 60.6133 57.9134 60.4619 57.9134C60.1592 58.0646 59.8564 58.367 59.705 58.8206C59.5536 59.1231 59.2508 59.2743 59.0994 59.5767C58.4939 60.3327 58.3425 60.6352 57.1315 61.8448C56.3745 62.6009 55.3148 63.0545 54.8607 63.9618C54.5579 64.113 54.4065 64.2642 54.1038 64.4154C53.6496 64.7178 52.8927 64.869 52.5899 65.3226C51.5302 66.5323 53.1954 68.498 54.5579 67.5908C56.0717 66.8347 57.4342 65.9275 58.6453 64.7178L58.7966 64.5666C59.705 63.8106 60.7647 62.9033 61.5216 62.1472C61.8244 61.8448 62.2785 61.3912 62.5813 60.9376C62.2785 60.3327 61.9758 59.5767 61.673 58.9718C61.5216 58.6694 61.3702 58.2158 61.2189 57.7622Z" fill="black"/>
</g>
<g opacity="0.1294">
<path d="M70.756 35.3831C70.1505 37.5 69.5449 39.617 68.9394 41.7339C68.6366 42.6412 68.3339 43.6996 68.0311 44.7581C68.3339 45.2117 69.0908 45.5141 69.6963 45.3629C69.6963 45.3629 69.6964 45.3629 69.8477 45.3629C70.3019 46.119 71.6643 45.9678 71.9671 45.0605C72.1185 44.6069 72.2698 44.1533 72.4212 43.6996C72.5726 43.6996 72.5726 43.5484 72.724 43.5484C73.3295 43.0948 73.4809 42.3387 73.7837 41.5827C74.0865 40.2218 74.2379 38.7097 74.3893 37.3488C74.3893 37.1976 74.3893 37.1976 74.3893 37.0464C73.0268 36.4416 71.9671 35.8367 70.756 35.3831Z" fill="black"/>
</g>
<path d="M36.9973 74.8488C33.364 74.5463 30.0336 74.0927 26.7031 73.4879C26.4004 73.4879 26.2489 73.1854 26.2489 72.883C26.5517 70.4637 26.2489 67.8931 25.0378 65.7762C24.5837 64.7177 23.9781 63.9617 23.2212 63.508C22.6157 63.0544 22.0102 62.752 21.1019 62.4496C18.0742 61.3911 14.441 61.9959 11.5647 63.8104C11.2619 63.9617 10.9591 63.9617 10.8077 63.6592C8.83975 60.7863 7.02306 57.9133 5.05506 54.7379C4.90367 54.4355 4.90373 54.133 5.2065 53.9818C7.02312 52.6209 8.23414 51.1088 8.83967 49.4455C9.5966 47.631 9.74804 45.5141 8.99111 43.8508C8.23419 42.0363 6.72036 40.8266 5.50929 40.2218C4.14683 39.4657 2.63294 38.8609 1.1191 38.4072L0.362173 38.1048C0.0594041 37.9536 -0.091999 37.8024 0.0593857 37.5C0.21077 33.871 0.513558 30.5443 1.1191 27.6714C1.1191 27.3689 1.42185 27.2177 1.57323 27.2177C3.99539 27.0665 6.11477 26.6129 7.62862 25.7056C9.59662 24.6472 10.9591 22.9839 11.4132 21.1693C11.8674 19.2036 11.2619 16.9355 10.505 15.2722C10.2022 14.3649 9.74804 13.6089 8.99111 13.004C8.83973 12.8528 8.68833 12.7016 8.68833 12.5504C8.68833 12.3992 8.68829 12.248 8.83967 12.0968C11.1104 10.131 13.0785 8.61895 15.1978 7.10685C15.5006 6.95564 15.8034 6.95564 15.9548 7.25806C17.0145 8.31653 18.5283 8.77016 20.1935 9.07258C21.2532 9.375 22.1615 9.5262 23.2212 9.5262C25.492 9.5262 27.9142 8.61895 29.7308 6.95564C31.3961 5.29233 32.6071 3.1754 33.2127 0.453628C33.2127 0.151208 33.5154 0 33.8181 0L42.4471 0.604841C42.5985 0.604841 43.0526 0.75605 43.204 1.36089V1.5121C43.5068 4.53629 44.5664 6.95564 45.9289 8.77016C47.5941 10.8871 50.1677 12.0968 52.4385 12.0968C55.1634 11.9456 57.5855 10.131 59.8563 8.46774C60.1591 8.31653 60.4618 8.31653 60.6132 8.61895C62.884 11.6431 64.852 14.3649 66.5173 16.9355C66.6686 17.2379 66.6686 17.5403 66.3658 17.6915C64.852 19.0524 62.884 21.1693 61.9757 24.0423C61.2188 26.6129 61.8243 29.4859 63.3381 31.3004C64.3978 32.5101 65.9117 33.5685 68.0311 34.1734C69.8477 34.7782 71.6643 34.9294 73.7837 35.0806C73.9351 35.0806 74.0865 35.2318 74.2378 35.2318C74.3892 35.3831 74.3893 35.5343 74.3893 35.6855C73.7837 38.8609 72.8754 42.1875 71.8157 45.6653C71.6643 45.9677 71.5129 46.1189 71.2102 46.1189C68.1825 45.8165 65.4575 46.4213 63.3381 47.7822C60.916 49.2943 59.4021 51.8649 59.5535 54.4355C59.5535 57.006 61.0674 59.2742 62.5812 61.6935V61.8447C62.7326 62.1472 62.7326 62.4496 62.4299 62.6008C59.5536 65.0201 56.3744 67.2883 53.4981 69.4052C53.1954 69.5564 52.8926 69.5564 52.7412 69.254C51.8329 68.0443 50.7732 66.8346 49.5622 65.9274C46.9886 64.2641 43.3554 64.2641 40.6304 66.0786C38.0569 67.8931 36.5431 71.0685 36.8458 74.5463C36.8458 74.6976 36.8459 74.8488 36.6945 75C37.3 74.8488 37.1487 74.8488 36.9973 74.8488ZM27.4601 72.4294C30.3364 73.0342 33.364 73.3367 36.3917 73.6391C36.3917 70.01 38.057 66.6834 40.7819 64.8689C43.8096 62.752 48.0484 62.752 50.9247 64.7177C52.1357 65.625 53.1954 66.6834 54.1037 67.8931C56.6772 66.0786 59.4022 63.9617 62.1271 61.8447C60.6132 59.5766 59.0994 57.006 59.0994 54.2843C59.0994 51.4113 60.7647 48.3871 63.4896 46.5726C65.7603 45.2117 68.6366 44.4556 71.6643 44.758C72.5726 41.7339 73.3295 38.8609 73.9351 35.9879C71.9671 35.8367 70.3019 35.6855 68.4852 35.0806C66.2145 34.4758 64.5492 33.2661 63.3381 31.9052C61.6729 29.7883 61.0674 26.6129 61.8243 23.5887C62.5812 20.5645 64.5493 18.4476 66.0631 16.9355C64.5493 14.5161 62.8841 12.0968 60.7647 9.5262C58.3425 11.1895 55.9203 13.004 53.044 13.1552C50.3191 13.3064 47.4428 11.9456 45.4748 9.5262C43.9609 7.56048 42.9012 4.98992 42.4471 1.81452L34.5751 1.20968C33.9695 3.93145 32.7585 6.04838 30.9419 7.71169C28.9739 9.5262 26.249 10.5847 23.6754 10.5847C22.6157 10.5847 21.556 10.2823 20.4963 10.131C18.8311 9.82863 17.1658 9.375 15.9548 8.31653C14.2895 9.52621 12.4729 10.8871 10.6563 12.3992C11.4132 13.1552 11.716 13.9113 12.0188 14.8185C12.7757 16.6331 13.3812 19.0524 12.9271 21.3206C12.4729 23.4375 10.8077 25.4032 8.68833 26.6129C7.0231 27.5201 5.0551 28.125 2.63294 28.2762C2.17879 30.8468 1.87606 33.8709 1.72467 37.1976L2.02737 37.3488C3.6926 37.9536 5.2065 38.4072 6.72035 39.3145C8.08281 40.0705 9.748 41.4314 10.6563 43.5484C11.4132 45.5141 11.4132 47.7822 10.3535 50.0504C9.5966 51.7137 8.38558 53.2258 6.72035 54.7379C8.53696 57.6109 10.2021 60.1814 11.8674 62.752C14.8951 60.9375 18.6797 60.4838 21.8588 61.5423C22.9185 61.8447 23.6754 62.2984 24.2809 62.752C25.0378 63.3568 25.7948 64.2641 26.4003 65.4738C27.1573 67.4395 27.6114 70.0101 27.4601 72.4294Z" fill="black"/>
<path d="M36.5432 44.7581C34.121 44.7581 31.5475 43.3972 30.185 41.129C28.6712 38.8609 28.5197 35.6855 29.5794 32.8125C30.3364 30.998 31.5475 29.3347 33.2127 28.4274C34.8779 27.369 36.9973 27.0665 38.8139 27.5202C40.9333 28.125 42.4471 29.0323 43.5068 30.242C44.7179 31.754 45.3235 33.871 45.3235 35.9879C45.3235 37.5 45.0206 38.7097 44.4151 39.7682C43.8096 40.6754 43.0527 41.4315 42.4471 41.8851C40.7819 43.3972 39.2681 44.1532 37.7542 44.4557C37.3001 44.7581 36.9973 44.7581 36.5432 44.7581ZM37.1487 28.4274C35.9376 28.4274 34.8779 28.7299 33.8182 29.3347C32.4557 30.242 31.3961 31.6028 30.6391 33.2661C29.7308 35.6855 29.8822 38.5585 31.0933 40.5242C32.4557 42.6411 35.0293 43.8508 37.4514 43.5484C38.8139 43.246 40.1764 42.6411 41.6902 41.2803C42.2957 40.8266 42.9013 40.2218 43.3555 39.3145C43.8096 38.4073 44.1124 37.3488 44.1124 36.1391C44.1124 34.1734 43.5068 32.3589 42.4471 30.998C41.5388 29.9395 40.1763 29.1835 38.3597 28.5786C38.057 28.5786 37.6028 28.4274 37.1487 28.4274Z" fill="black"/>
<path d="M37.1486 51.7138C31.6988 51.7138 26.0976 48.3872 23.524 43.246C21.2533 38.7097 21.4047 33.115 23.8268 28.5787C26.249 24.0424 30.7905 21.0182 35.9376 20.2622C40.6305 19.6573 46.2318 22.2279 49.4108 26.4618C52.7413 30.8469 53.3468 36.8952 51.076 42.0364C49.865 44.6069 48.0484 46.8751 45.6262 48.6896C44.1124 49.748 42.5985 50.5041 41.0847 50.9577C39.7222 51.5626 38.5111 51.7138 37.1486 51.7138ZM35.9376 21.6231C31.2447 22.2279 27.0059 25.1009 24.7351 29.3348C22.4643 33.4174 22.4644 38.7098 24.4324 42.9436C27.3087 48.8408 34.5751 52.1674 40.4791 50.2017C41.8416 49.748 43.3554 48.992 44.5665 48.0848C46.8373 46.4214 48.6539 44.3045 49.7135 41.8852C51.8329 37.3489 51.2274 31.6029 48.1997 27.5202C45.4748 23.4376 40.3277 21.0182 35.9376 21.6231Z" fill="black"/>
</svg>
