<svg width="32" height="34" viewBox="0 0 32 34" fill="none" xmlns="http://www.w3.org/2000/svg">
<path d="M15.5517 1.13002C9.74339 0.139959 3.75357 4.29819 1.57547 10.6346C-0.602639 16.971 1.21247 24.6934 5.56868 29.2477C10.1064 33.604 16.8222 34.5941 22.086 31.6239C26.4422 29.2477 29.8908 24.2974 30.4354 18.7531C31.1614 13.2088 28.8018 7.07034 24.6271 4.29817C22.449 2.31805 19.5449 1.72406 15.5517 1.13002Z" fill="white"/>
<path d="M15.5517 34C11.74 34 7.9283 32.614 5.20566 29.6438C0.486433 24.8915 -1.32863 16.7729 1.03098 10.2385C3.3906 3.50612 9.92488 -0.850098 15.9147 0.139963C20.0894 0.932012 22.9935 1.526 25.3532 3.30811C29.7094 6.27829 32.069 12.6147 31.5245 18.5551C30.7984 24.2974 27.3498 29.6438 22.6305 32.2179C20.2709 33.406 17.9113 34 15.5517 34ZM13.9181 1.72404C9.01738 1.72404 4.1166 5.48628 2.30151 10.8326C0.304913 16.773 1.9385 24.2974 6.11321 28.4557C10.2879 32.6139 16.6407 33.604 21.723 30.8319C25.8977 28.4557 29.1648 23.7034 29.7094 18.5551C30.2539 13.2087 28.0758 7.4664 24.2641 4.89224C22.086 3.30815 19.3634 2.71411 15.3702 1.92206C15.0072 1.72405 14.4626 1.72404 13.9181 1.72404Z" fill="black"/>
<g opacity="0.1294">
<path d="M30.2539 14.3968C30.2539 13.2088 28.8018 12.8128 28.4388 13.8028C28.0758 15.3869 28.2573 16.575 27.8943 18.1591C27.7128 19.1491 27.3497 19.9412 27.1682 20.7332C27.1682 20.9313 26.9867 21.1292 26.9867 21.1292C26.6237 21.7233 26.4422 22.1193 26.0792 22.5153C25.5346 23.3074 24.9901 23.9014 24.2641 24.4955C23.175 25.2875 20.0894 27.4657 18.0928 28.4557C16.0962 29.8418 11.9215 29.2478 9.19887 27.4657C8.29132 26.8716 8.2913 26.4756 7.02074 25.4855C5.75018 24.6935 4.47964 26.8716 5.56869 27.8617C7.02076 29.4458 8.83584 30.8319 10.8324 31.6239C12.829 32.218 15.0071 32.614 17.1852 32.2179C17.9113 32.0199 18.4558 31.8219 19.0003 31.6239C19.0003 31.8219 19.1818 32.2179 19.5448 32.2179C20.4524 32.614 21.3599 32.0199 22.2675 31.6239C24.6271 30.2378 26.6237 28.0597 27.8943 25.4855V25.2875C28.0758 25.0895 28.4388 24.0995 28.4388 23.9015C28.4388 23.9015 28.4388 23.9014 28.4388 23.7034C29.1649 22.5154 29.7094 21.1293 30.0724 19.5452C30.2539 18.5551 30.4354 17.5651 30.4354 16.773C30.4354 16.575 30.4354 16.179 30.4354 15.981C30.2539 14.9909 30.2539 14.9909 30.2539 14.3968Z" fill="black"/>
</g>
</svg>
