<svg width="86" height="36" viewBox="0 0 86 36" fill="none" xmlns="http://www.w3.org/2000/svg">
<path d="M11.3339 34.3993C30.8122 34.5501 50.2905 34.701 69.7688 34.8518C71.7317 34.8518 73.8457 34.8518 75.6576 34.2485C89.8511 29.4223 84.2643 17.9599 83.3583 15.6976C81.8484 11.9271 76.8655 10.8714 73.0907 12.2288C69.3158 13.5861 66.4469 16.7534 63.88 19.7698C64.937 12.9829 61.6151 5.59268 55.5753 2.27463C49.5355 -1.04341 41.2308 0.163163 36.852 5.44187C33.3791 9.51401 32.6241 15.0943 32.0202 20.373C30.5102 16.4517 28.5473 12.6812 25.0744 10.2681C21.7525 7.85496 16.6187 7.4025 13.5988 10.2681C10.2769 13.4353 10.5789 18.714 11.1829 23.3894C9.37093 20.6747 4.9921 20.2222 2.42519 22.4845C0.00927726 24.7468 -0.292721 28.819 1.51921 31.5337C3.33115 34.2485 6.80403 34.3993 11.3339 34.3993Z" fill="white"/>
<path d="M70.3728 35.455C70.2218 35.455 69.9198 35.455 69.7688 35.455L11.3338 35.0026C7.25699 35.0026 3.33116 35.0026 1.21723 31.8354C-0.745699 28.6681 -0.292743 24.2944 2.27417 22.0321C3.63312 20.8255 5.59605 20.2222 7.55898 20.5238C8.76694 20.6747 9.6729 21.1271 10.5789 21.7304C10.1259 17.2058 10.2769 12.6812 13.2968 9.96644C16.7697 6.79922 22.2055 7.55332 25.5273 9.96644C28.5472 12.0779 30.5102 15.5468 31.8691 18.4124C32.4731 14.0386 33.3791 9.06151 36.55 5.29101C41.0798 -0.138511 49.5355 -1.64673 56.0283 1.97295C61.6151 5.14017 65.0879 11.6255 64.7859 18.2615C67.0509 15.8484 69.6178 13.1336 73.0906 11.9271C77.0165 10.5697 82.4523 11.7763 84.1133 15.6976C84.1133 15.8484 84.2643 15.8484 84.2643 15.9992C85.0193 17.9599 87.2842 22.937 85.0193 27.7632C83.6603 30.9304 80.4894 33.3436 75.9596 34.8518C74.1476 35.3042 72.1847 35.455 70.3728 35.455ZM11.3338 33.796L69.7688 34.2485C71.7317 34.2485 73.6946 34.2485 75.5066 33.6452C79.7344 32.137 82.6033 30.0255 83.8113 27.1599C85.7742 22.7861 83.8113 18.1107 82.9053 16.3009C82.9053 16.15 82.7543 15.9992 82.7543 15.9992C81.3954 12.5304 76.7145 11.4746 73.2416 12.832C69.4668 14.1894 66.7489 17.3566 64.333 20.2222C64.182 20.373 63.88 20.5238 63.729 20.373C63.427 20.2222 63.427 20.0714 63.427 19.7697C64.333 13.1337 61.0111 6.0451 55.4243 2.87788C49.5355 -0.440161 41.5328 0.91722 37.4559 5.89428C33.9831 9.96643 33.3791 15.8484 32.7751 20.5238C32.7751 20.8255 32.4731 20.9763 32.3221 20.9763C32.0201 20.9763 31.8691 20.8255 31.7181 20.6747C30.5102 17.6583 28.5472 13.2845 25.0744 10.7205C22.0545 8.60906 17.2226 8.00578 14.2027 10.7205C11.1828 13.5861 11.3338 18.4123 12.0888 23.2386C12.0888 23.5402 11.9379 23.691 11.7869 23.8419C11.4849 23.9927 11.3338 23.8419 11.1828 23.6911C10.4279 22.6353 9.21993 21.8812 7.70998 21.7304C6.04904 21.5796 4.38811 22.0321 3.33115 22.937C1.21722 24.8976 0.764229 28.6681 2.42517 31.3829C3.78412 33.6452 6.65301 33.796 11.3338 33.796Z" fill="black"/>
<g opacity="0.1294">
<path d="M82.6033 27.1598C81.9994 27.1598 81.6974 27.4615 81.2444 27.9139C80.6404 28.3664 80.0364 28.668 79.2814 29.1205C75.3556 31.5336 71.5807 31.0811 64.333 30.327C59.0482 30.0254 53.7633 30.4778 48.4785 30.0254C45.9116 29.8746 43.3447 29.573 40.7778 29.7238C37.3049 29.8746 33.9831 29.8746 30.5102 29.8746C24.1684 30.0254 15.4107 31.3828 10.7299 30.6287C9.06893 30.327 7.40797 29.8746 5.89802 29.4221C4.99206 29.2713 4.0861 28.5172 3.02914 28.668C1.36819 28.8188 1.0662 31.3828 2.87813 31.8352C5.89802 33.0418 9.21993 33.9467 12.3908 34.0975C18.4306 34.2484 24.6214 33.3434 30.6612 33.3434C34.889 33.3434 38.9659 33.3434 43.1937 33.3434C46.0626 33.4943 48.7805 33.7959 51.6494 33.9467C54.8203 34.0975 57.8402 33.9467 61.0111 33.9467C63.427 33.9467 65.8429 33.7959 68.2588 34.0975C71.1277 34.2484 74.1476 34.2484 76.8655 33.3434C79.2814 32.4385 81.6973 31.0811 83.6603 29.2713C84.4152 28.668 83.6603 27.1598 82.6033 27.1598Z" fill="black"/>
</g>
</svg>
