<svg width="70" height="74" viewBox="0 0 70 74" fill="none" xmlns="http://www.w3.org/2000/svg">
<path d="M58.2064 31.3182L55.526 21.3763L61.2441 12.4092L47.3062 1.68757C45.5193 5.00151 43.7324 8.31546 41.9455 11.4345C41.7668 11.6294 41.7668 11.8243 41.5881 11.8243C41.4094 12.0193 41.052 12.0193 40.8734 12.0193C37.8356 12.0193 34.6192 11.8243 31.5814 11.8243C29.9732 8.5104 28.5437 5.58632 26.9355 2.46731C26.7568 2.27237 26.5781 1.88249 26.3994 1.88249C26.2207 1.88249 25.8633 1.8825 25.6846 2.07744C21.9321 4.61163 18.3583 6.9509 14.6058 9.48509C14.4271 9.48509 14.4271 9.68001 14.4271 9.68001C14.2484 9.87495 14.4271 10.2648 14.6058 10.6547C16.0353 13.3838 17.6435 15.9181 19.6091 18.2573C18.0009 21.7662 16.214 24.8852 14.2484 28.0042C13.7123 28.784 13.1763 29.5637 12.4615 29.7586C11.7467 29.9536 11.2107 29.7586 10.4959 29.5637C7.81552 28.7839 5.31387 27.8093 2.8122 26.8346C0.667907 32.4878 0.310514 39.1157 1.74004 44.9638C1.91873 45.3537 11.568 43.7942 11.568 43.7942L17.2861 54.9057L12.6402 63.288L23.183 71.8653L28.7224 62.8981L38.3717 63.0931L42.1242 72.4501L56.5981 66.7969L53.0243 57.05L58.2064 47.693L68.0344 46.9132L68.3918 33.6574L58.2064 31.3182ZM41.5881 36.3865C41.7668 36.7764 41.2308 37.7511 41.2308 38.141C41.0521 38.5309 40.8733 38.9208 40.6947 39.1157C40.3373 39.7005 39.8012 40.2853 39.4439 40.8701C38.3717 41.8448 37.2996 42.6246 35.87 43.2094C35.334 43.4043 34.7978 43.5993 34.2618 43.5993C33.7257 43.5993 33.3683 43.7942 32.8323 43.5993C32.4749 43.5993 32.2962 43.4043 31.9388 43.4043C32.8323 43.4043 31.9388 43.4043 31.5814 43.4043C30.1519 43.0144 28.7223 41.6499 28.0076 40.0904C27.6502 39.1157 27.1141 38.141 27.1141 37.1663C27.1141 36.1916 27.2929 35.2169 27.6502 34.4372C28.1863 33.2675 28.7224 31.903 29.2584 30.9283C29.9732 29.7587 31.0454 28.3941 32.2962 27.6143C33.547 26.8346 34.9765 26.8346 36.0487 27.4194C36.5848 27.2245 37.1209 27.0295 37.6569 27.2244C38.5504 27.6143 39.2651 28.0042 39.9799 28.9789C40.516 29.7587 41.052 30.5384 41.4094 31.5131C41.5881 31.903 41.5881 32.0979 41.7668 32.4878C41.7668 32.6827 41.7668 32.8777 41.9455 33.0726C41.9455 33.4625 41.9455 33.6574 42.1242 34.0473V33.8524C42.1242 33.6574 42.1242 33.6574 42.1242 33.8524C42.1242 34.2422 42.1242 34.4372 42.3029 34.8271C42.3029 35.022 42.3029 35.2169 42.3029 35.2169C41.7668 35.6068 41.7668 35.9967 41.5881 36.3865Z" fill="white"/>
<path d="M15.8567 43.0145C15.678 43.0145 15.4993 42.8195 15.678 42.6246C18.3583 32.0979 21.7534 21.5713 25.3273 11.4345C25.3273 11.2395 25.506 11.2395 25.6847 11.2395C25.8634 11.2395 25.8634 11.4345 25.8634 11.6294C22.2895 21.7662 18.8944 32.2928 16.2141 42.8195C16.0354 43.0144 15.8567 43.0145 15.8567 43.0145Z" fill="black"/>
<path d="M19.9665 44.7689C19.7879 44.7689 19.6092 44.574 19.7879 44.379C22.2896 34.4372 25.6847 24.6903 29.7945 15.5282C29.7945 15.3332 29.9733 15.3332 30.152 15.3332C30.3306 15.3332 30.3307 15.5282 30.3307 15.7231C26.2208 24.8852 22.8256 34.6321 20.3239 44.574C20.3239 44.7689 20.1452 44.7689 19.9665 44.7689Z" fill="black"/>
<path d="M18.537 63.8728C18.3583 63.8728 18.3583 63.8728 18.537 63.8728C18.3583 63.8728 18.1796 63.6779 18.3583 63.483L25.3273 44.574C25.3273 44.379 25.506 44.379 25.6847 44.379C25.8634 44.379 25.8634 44.5739 25.8634 44.7689L18.8944 63.6779C18.7157 63.6779 18.537 63.8728 18.537 63.8728Z" fill="black"/>
<path d="M27.6503 59.7791C27.4716 59.7791 27.2929 59.5842 27.4716 59.3892L31.4028 48.6677C31.4028 48.4727 31.5815 48.4727 31.7601 48.4727C31.9388 48.4727 31.9388 48.6677 31.9388 48.8626L28.0076 59.5842C27.8289 59.7791 27.829 59.7791 27.6503 59.7791Z" fill="black"/>
<path d="M34.9766 24.1055C34.7979 24.1055 34.6192 23.9105 34.7979 23.7156L36.5848 17.0877C36.5848 16.8927 36.7635 16.8927 36.9422 16.8927C37.1209 16.8927 37.1209 17.0877 37.1209 17.2826L35.334 23.9105C35.1553 24.1055 35.1553 24.1055 34.9766 24.1055Z" fill="black"/>
<path d="M42.3029 25.8599C42.1242 25.8599 41.9456 25.665 42.1243 25.47C44.0899 19.8168 46.2341 14.1636 48.5571 8.70533C48.5571 8.51039 48.7358 8.51041 48.9145 8.51041C49.0932 8.51041 49.0932 8.70534 49.0932 8.90028C46.7702 14.3585 44.4472 20.0117 42.6603 25.6649C42.4816 25.8599 42.4816 25.8599 42.3029 25.8599Z" fill="black"/>
<path d="M34.9766 59.7791C34.7979 59.7791 34.6192 59.5842 34.7979 59.3892L52.667 17.2826C52.667 17.0877 52.8457 17.0877 53.0244 17.0877C53.2031 17.0877 53.2031 17.2826 53.2031 17.4775L35.334 59.5842C35.1553 59.7791 34.9766 59.7791 34.9766 59.7791Z" fill="black"/>
<path d="M42.1243 61.5336C41.9456 61.5336 41.7669 61.3387 41.9456 61.1437L53.9178 32.4878C53.9178 32.2928 54.0965 32.2929 54.2752 32.2929C54.4539 32.2929 54.4539 32.4878 54.4539 32.6827L42.4816 61.3386C42.3029 61.5336 42.1243 61.5336 42.1243 61.5336Z" fill="black"/>
<path d="M54.8113 47.3031C54.6326 47.1082 54.4539 47.1082 54.6326 46.9132L59.8147 36.1916C59.8147 35.9967 59.9933 35.9967 60.172 35.9967C60.3507 35.9967 60.3507 36.1916 60.3507 36.3865L55.1687 47.1081C54.99 47.1081 54.8113 47.3031 54.8113 47.3031Z" fill="black"/>
<path d="M46.0554 67.3817C45.8767 67.3817 45.8767 67.3817 46.0554 67.3817C45.8767 67.3817 45.698 67.1868 45.8767 66.9919L48.1997 61.7285C48.1997 61.5336 48.3784 61.5336 48.5571 61.5336C48.7358 61.5336 48.7358 61.7285 48.7358 61.9235L46.4128 67.1868C46.2341 67.3817 46.0554 67.3817 46.0554 67.3817Z" fill="black"/>
<path d="M5.84995 40.6752C5.67126 40.6752 5.49255 40.4802 5.67124 40.2853L8.88772 32.8777C8.88772 32.6827 9.06637 32.6827 9.24506 32.6827C9.42376 32.6827 9.42377 32.8777 9.42377 33.0726L6.20735 40.4803C6.02866 40.4803 5.84995 40.6752 5.84995 40.6752Z" fill="black"/>
<path d="M19.4305 12.799C19.2518 12.799 19.2518 12.799 19.4305 12.799C19.2518 12.6041 19.0731 12.6041 19.2518 12.4092L21.5748 7.73063C21.5748 7.53569 21.7534 7.53571 21.9321 7.53571C22.1108 7.53571 22.1108 7.73064 22.1108 7.92558L19.7879 12.6041C19.6092 12.6041 19.4305 12.799 19.4305 12.799Z" fill="black"/>
<g opacity="0.1294">
<path d="M44.4472 38.3359C44.2685 36.5815 42.1242 36.5815 41.7669 38.141C41.2308 39.7005 41.4095 39.5056 39.9799 41.0651C38.5504 42.4296 39.0865 42.0397 36.7635 42.8195C34.6192 43.5993 35.5127 43.4043 33.7258 43.4043C33.5471 43.4043 33.1897 43.2094 33.011 43.2094C32.1175 42.8195 32.4749 43.0145 30.688 42.0398C29.9732 41.6499 29.4372 40.8701 28.5437 40.8701C26.2207 40.2853 24.9699 44.1841 27.1142 45.5487C30.8667 48.4727 34.6192 49.6423 39.0865 47.3031C41.2308 45.9385 43.0177 43.5993 43.7325 41.0651C44.0898 40.2853 44.4472 39.3106 44.4472 38.3359Z" fill="black"/>
</g>
<g opacity="0.1294">
<path d="M50.8801 65.0425C49.4506 65.6273 48.9145 66.0171 46.2341 66.602C44.9833 66.9918 43.375 66.7969 42.3029 67.7716C39.9799 69.526 41.9456 73.6198 44.6259 72.84C47.8424 72.0603 51.4161 71.8653 53.9178 69.3311C55.8834 66.7969 53.5605 63.6779 50.8801 65.0425Z" fill="black"/>
</g>
<g opacity="0.1294">
<path d="M70 42.6246C70 42.0398 69.8213 41.4549 69.6426 40.8701C68.5705 38.5309 65.354 38.9207 64.6393 41.26C64.6393 41.4549 64.4606 41.4549 64.4606 41.6499C64.2819 42.0398 64.1032 42.6246 63.9245 43.0144C63.7458 43.4043 63.5672 43.7942 63.3885 44.1841C63.0311 44.7689 63.0311 45.3537 63.0311 45.9385C63.0311 49.8373 68.0344 50.617 68.9279 46.9132C69.464 45.7436 69.8213 44.379 70 43.2094C69.8213 43.0144 69.8213 42.8195 70 42.6246Z" fill="black"/>
</g>
<path d="M41.7669 73.6197C41.4095 73.6197 41.2308 73.4248 41.0521 73.0349C39.98 70.1109 38.9078 67.1868 37.2996 64.0678C34.0831 64.4577 31.0454 64.2627 28.0076 63.8728C27.1142 65.6273 26.2207 67.3817 25.3273 69.3311C24.7912 70.3058 24.2551 71.4754 23.719 72.4501C23.5404 72.84 23.183 73.0349 22.8256 72.84C18.1796 70.8906 14.2484 67.5767 11.2107 63.483C11.032 63.288 11.032 62.8982 11.2107 62.5083C12.8189 59.9741 14.6058 57.4399 16.3927 54.3209C14.4271 51.5917 12.8189 48.2778 11.2107 44.1841C10.4959 44.379 9.60248 44.574 8.88772 44.7689C6.56473 45.3537 4.24175 45.7436 1.74008 46.1334C1.38269 46.1334 1.02531 45.9385 0.846622 45.5487C-0.582906 39.8954 -0.225557 33.2675 2.09743 26.2498C2.27612 25.8599 2.6335 25.6649 2.99088 25.6649C6.20732 26.6396 9.60247 27.4194 13.1763 28.3941C14.6058 25.0801 16.3927 21.9611 18.1796 18.6472C16.5714 16.3079 14.7845 13.5788 13.1763 10.4598C12.9976 10.0699 12.9976 9.68003 13.355 9.48509C16.7501 5.9762 21.2174 3.05212 26.2207 0.517923C26.5781 0.322985 26.9355 0.517917 27.1142 0.907794C28.7224 4.0268 30.152 7.34075 31.4028 10.6547C34.7979 10.0699 38.193 9.87496 41.5882 10.2648C43.0177 7.14582 44.6259 3.83186 46.5915 0.322973C46.7702 -0.0669034 47.1276 -0.0668856 47.485 0.128053C51.2375 2.27237 54.8113 4.80657 58.0277 7.92558C58.9212 8.70533 59.8146 9.68003 60.5294 10.4598C60.8868 10.8497 61.4229 11.2395 61.6016 12.0193C61.6016 12.2142 61.6015 12.4091 61.4229 12.6041C60.7081 13.7737 59.9934 14.9434 59.0999 16.3079C58.0278 18.0624 56.9556 19.8168 55.7047 21.7662C56.7769 24.4953 57.849 27.4194 58.7425 30.1485C61.4229 30.3435 64.9967 30.9283 68.9279 32.6827C69.1066 32.8777 69.2853 33.0726 69.464 33.4625C69.8213 38.7258 69.1066 43.5993 67.4983 48.2778C67.3196 48.6677 67.141 48.8626 66.7836 48.8626H65.7114C63.2098 48.6677 60.5294 48.6677 57.849 48.8626C56.7769 51.5917 55.1687 54.5158 52.8457 57.6348C54.2752 60.5589 55.8835 63.483 57.1343 66.9919C57.313 67.3817 57.1343 67.7716 56.7769 67.9666C51.9522 71.2805 46.9489 73.0349 41.7669 73.6197ZM37.657 62.7032C37.8357 62.7032 38.193 62.8982 38.193 63.0931C39.9799 66.2121 41.0521 69.1362 42.1243 72.0602C46.5915 71.4754 51.0588 69.9159 55.5261 67.3817C54.2752 64.0678 52.667 61.1437 51.2375 58.4146C51.0588 58.2196 51.0588 57.8297 51.2375 57.4399C53.7391 54.1259 55.5261 51.0069 56.4195 48.0828C56.5982 47.8879 56.7769 47.693 56.9556 47.498C59.9933 47.1082 62.8524 47.3031 65.5327 47.498H66.0688C67.4984 43.4043 68.0344 39.1157 67.8557 34.2422C64.1032 32.6827 60.7081 32.0979 58.0277 31.903C57.6704 31.903 57.4917 31.708 57.313 31.3182C56.2408 28.1992 55.1687 25.0801 54.0965 22.1561C54.0965 21.9611 54.0965 21.5712 54.0965 21.3763C55.3474 19.232 56.5982 17.2826 57.6703 15.5282C58.3851 14.3585 59.0999 13.3838 59.6359 12.2142C59.4573 12.0193 59.2786 11.8243 59.0999 11.8243C58.2064 11.0446 57.4916 10.0699 56.5982 9.29014C53.5604 6.56101 50.344 4.02682 46.9489 2.07743C45.162 5.39138 43.5538 8.51038 42.1243 11.6294C41.9456 11.8243 41.7668 12.0193 41.4094 12.0193C37.8356 11.6294 34.0832 11.8243 30.5093 12.4092C30.152 12.4092 29.7946 12.2142 29.6159 11.8243C28.365 8.51039 26.9355 5.39137 25.506 2.27235C21.0387 4.41668 17.1075 7.14582 14.0697 10.2648C15.678 13.3838 17.4649 15.9181 18.8944 18.2573C19.0731 18.4522 19.0731 18.8421 18.8944 19.232C16.7501 22.7409 14.9632 26.2498 13.355 29.9536C13.1763 30.3435 12.8189 30.5384 12.4615 30.3435C8.88772 29.3688 5.67127 28.589 2.45483 27.6143C0.66792 33.8523 0.310527 39.5056 1.38267 44.574C3.52696 44.1841 5.67127 43.7942 7.81556 43.2094C8.88771 43.0144 9.78117 42.8195 10.6746 42.6246C11.032 42.6246 11.3894 42.8195 11.5681 43.0145C13.1763 47.498 14.9632 51.0069 17.1075 53.7361C17.2862 53.931 17.2862 54.3209 17.1075 54.7107C15.3206 57.8298 13.7123 60.5589 11.9254 63.0931C14.6058 66.602 18.0009 69.3311 21.9321 71.2805C22.2895 70.5007 22.8256 69.526 23.183 68.7463C24.2551 66.602 25.1486 64.6526 26.0421 62.8981C26.2208 62.7032 26.3994 62.5083 26.7568 62.5083C30.688 62.8982 34.0832 63.0931 37.657 62.7032C37.4783 62.7032 37.4783 62.7032 37.657 62.7032Z" fill="black"/>
<path d="M33.1897 43.7942C31.9388 43.7942 30.688 43.5993 29.4371 43.0145C28.365 42.6246 27.6502 41.8448 27.2928 41.26C26.5781 40.2853 26.5781 39.1157 26.3994 38.141C26.2207 34.6321 26.9355 31.708 28.5437 29.3688C30.5093 26.6397 33.547 25.47 36.2274 26.4447C36.4061 26.4447 36.5848 26.6396 36.5848 26.8346H36.7635C39.6225 27.8093 41.5881 30.9283 41.7668 34.2422C41.9455 37.3613 40.3373 40.6752 37.8356 42.4296C36.4061 43.2094 34.7979 43.7942 33.1897 43.7942ZM34.2618 27.6143C32.6536 27.6143 30.688 28.589 29.6159 30.1485C28.1863 32.0979 27.6502 34.8271 27.8289 37.7511C27.8289 38.5309 28.0076 39.5056 28.365 40.0904C28.7224 40.6752 29.2584 41.0651 29.9732 41.4549C32.2962 42.6246 34.9765 42.4296 36.9421 41.0651C39.0864 39.7005 40.3373 36.9714 40.1586 34.2422C39.9799 31.5131 38.3717 28.9789 36.0487 28.1991H35.87C35.6913 28.1991 35.3339 28.0042 35.1552 27.8093C34.9765 27.6143 34.6192 27.6143 34.2618 27.6143Z" fill="black"/>
<path d="M15.8567 43.0145C15.678 43.0145 15.4993 42.8195 15.678 42.6246C18.3583 32.0979 21.7534 21.5713 25.3273 11.4345C25.3273 11.2395 25.506 11.2395 25.6847 11.2395C25.8634 11.2395 25.8634 11.4345 25.8634 11.6294C22.2895 21.7662 18.8944 32.2928 16.2141 42.8195C16.0354 43.0144 15.8567 43.0145 15.8567 43.0145Z" fill="black"/>
<path d="M19.9665 44.7689C19.7879 44.7689 19.6092 44.574 19.7879 44.379C22.2896 34.4372 25.6847 24.6903 29.7945 15.5282C29.7945 15.3332 29.9733 15.3332 30.152 15.3332C30.3306 15.3332 30.3307 15.5282 30.3307 15.7231C26.2208 24.8852 22.8256 34.6321 20.3239 44.574C20.3239 44.7689 20.1452 44.7689 19.9665 44.7689Z" fill="black"/>
<path d="M18.537 63.8728C18.3583 63.8728 18.3583 63.8728 18.537 63.8728C18.3583 63.8728 18.1796 63.6779 18.3583 63.483L25.3273 44.574C25.3273 44.379 25.506 44.379 25.6847 44.379C25.8634 44.379 25.8634 44.5739 25.8634 44.7689L18.8944 63.6779C18.7157 63.6779 18.537 63.8728 18.537 63.8728Z" fill="black"/>
<path d="M27.6503 59.7791C27.4716 59.7791 27.2929 59.5842 27.4716 59.3892L31.4028 48.6677C31.4028 48.4727 31.5815 48.4727 31.7601 48.4727C31.9388 48.4727 31.9388 48.6677 31.9388 48.8626L28.0076 59.5842C27.8289 59.7791 27.829 59.7791 27.6503 59.7791Z" fill="black"/>
<path d="M34.9766 24.1055C34.7979 24.1055 34.6192 23.9105 34.7979 23.7156L36.5848 17.0877C36.5848 16.8927 36.7635 16.8927 36.9422 16.8927C37.1209 16.8927 37.1209 17.0877 37.1209 17.2826L35.334 23.9105C35.1553 24.1055 35.1553 24.1055 34.9766 24.1055Z" fill="black"/>
<path d="M42.3029 25.8599C42.1242 25.8599 41.9456 25.665 42.1243 25.47C44.0899 19.8168 46.2341 14.1636 48.5571 8.70533C48.5571 8.51039 48.7358 8.51041 48.9145 8.51041C49.0932 8.51041 49.0932 8.70534 49.0932 8.90028C46.7702 14.3585 44.4472 20.0117 42.6603 25.6649C42.4816 25.8599 42.4816 25.8599 42.3029 25.8599Z" fill="black"/>
<path d="M34.9766 59.7791C34.7979 59.7791 34.6192 59.5842 34.7979 59.3892L52.667 17.2826C52.667 17.0877 52.8457 17.0877 53.0244 17.0877C53.2031 17.0877 53.2031 17.2826 53.2031 17.4775L35.334 59.5842C35.1553 59.7791 34.9766 59.7791 34.9766 59.7791Z" fill="black"/>
<path d="M42.1243 61.5336C41.9456 61.5336 41.7669 61.3387 41.9456 61.1437L53.9178 32.4878C53.9178 32.2928 54.0965 32.2929 54.2752 32.2929C54.4539 32.2929 54.4539 32.4878 54.4539 32.6827L42.4816 61.3386C42.3029 61.5336 42.1243 61.5336 42.1243 61.5336Z" fill="black"/>
<path d="M54.8113 47.3031C54.6326 47.1082 54.4539 47.1082 54.6326 46.9132L59.8147 36.1916C59.8147 35.9967 59.9933 35.9967 60.172 35.9967C60.3507 35.9967 60.3507 36.1916 60.3507 36.3865L55.1687 47.1081C54.99 47.1081 54.8113 47.3031 54.8113 47.3031Z" fill="black"/>
<path d="M46.0554 67.3817C45.8767 67.3817 45.8767 67.3817 46.0554 67.3817C45.8767 67.3817 45.698 67.1868 45.8767 66.9919L48.1997 61.7285C48.1997 61.5336 48.3784 61.5336 48.5571 61.5336C48.7358 61.5336 48.7358 61.7285 48.7358 61.9235L46.4128 67.1868C46.2341 67.3817 46.0554 67.3817 46.0554 67.3817Z" fill="black"/>
<path d="M5.84995 40.6752C5.67126 40.6752 5.49255 40.4802 5.67124 40.2853L8.88772 32.8777C8.88772 32.6827 9.06637 32.6827 9.24506 32.6827C9.42376 32.6827 9.42377 32.8777 9.42377 33.0726L6.20735 40.4803C6.02866 40.4803 5.84995 40.6752 5.84995 40.6752Z" fill="black"/>
<path d="M19.4305 12.799C19.2518 12.799 19.2518 12.799 19.4305 12.799C19.2518 12.6041 19.0731 12.6041 19.2518 12.4092L21.5748 7.73063C21.5748 7.53569 21.7534 7.53571 21.9321 7.53571C22.1108 7.53571 22.1108 7.73064 22.1108 7.92558L19.7879 12.6041C19.6092 12.6041 19.4305 12.799 19.4305 12.799Z" fill="black"/>
<g opacity="0.1294">
<path d="M44.4472 38.3359C44.2685 36.5815 42.1242 36.5815 41.7669 38.141C41.2308 39.7005 41.4095 39.5056 39.9799 41.0651C38.5504 42.4296 39.0865 42.0397 36.7635 42.8195C34.6192 43.5993 35.5127 43.4043 33.7258 43.4043C33.5471 43.4043 33.1897 43.2094 33.011 43.2094C32.1175 42.8195 32.4749 43.0145 30.688 42.0398C29.9732 41.6499 29.4372 40.8701 28.5437 40.8701C26.2207 40.2853 24.9699 44.1841 27.1142 45.5487C30.8667 48.4727 34.6192 49.6423 39.0865 47.3031C41.2308 45.9385 43.0177 43.5993 43.7325 41.0651C44.0898 40.2853 44.4472 39.3106 44.4472 38.3359Z" fill="black"/>
</g>
<g opacity="0.1294">
<path d="M50.8801 65.0425C49.4506 65.6273 48.9145 66.0171 46.2341 66.602C44.9833 66.9918 43.375 66.7969 42.3029 67.7716C39.9799 69.526 41.9456 73.6198 44.6259 72.84C47.8424 72.0603 51.4161 71.8653 53.9178 69.3311C55.8834 66.7969 53.5605 63.6779 50.8801 65.0425Z" fill="black"/>
</g>
<g opacity="0.1294">
<path d="M70 42.6246C70 42.0398 69.8213 41.4549 69.6426 40.8701C68.5705 38.5309 65.354 38.9207 64.6393 41.26C64.6393 41.4549 64.4606 41.4549 64.4606 41.6499C64.2819 42.0398 64.1032 42.6246 63.9245 43.0144C63.7458 43.4043 63.5672 43.7942 63.3885 44.1841C63.0311 44.7689 63.0311 45.3537 63.0311 45.9385C63.0311 49.8373 68.0344 50.617 68.9279 46.9132C69.464 45.7436 69.8213 44.379 70 43.2094C69.8213 43.0144 69.8213 42.8195 70 42.6246Z" fill="black"/>
</g>
<path d="M41.7669 73.6197C41.4095 73.6197 41.2308 73.4248 41.0521 73.0349C39.98 70.1109 38.9078 67.1868 37.2996 64.0678C34.0831 64.4577 31.0454 64.2627 28.0076 63.8728C27.1142 65.6273 26.2207 67.3817 25.3273 69.3311C24.7912 70.3058 24.2551 71.4754 23.719 72.4501C23.5404 72.84 23.183 73.0349 22.8256 72.84C18.1796 70.8906 14.2484 67.5767 11.2107 63.483C11.032 63.288 11.032 62.8982 11.2107 62.5083C12.8189 59.9741 14.6058 57.4399 16.3927 54.3209C14.4271 51.5917 12.8189 48.2778 11.2107 44.1841C10.4959 44.379 9.60248 44.574 8.88772 44.7689C6.56473 45.3537 4.24175 45.7436 1.74008 46.1334C1.38269 46.1334 1.02531 45.9385 0.846622 45.5487C-0.582906 39.8954 -0.225557 33.2675 2.09743 26.2498C2.27612 25.8599 2.6335 25.6649 2.99088 25.6649C6.20732 26.6396 9.60247 27.4194 13.1763 28.3941C14.6058 25.0801 16.3927 21.9611 18.1796 18.6472C16.5714 16.3079 14.7845 13.5788 13.1763 10.4598C12.9976 10.0699 12.9976 9.68003 13.355 9.48509C16.7501 5.9762 21.2174 3.05212 26.2207 0.517923C26.5781 0.322985 26.9355 0.517917 27.1142 0.907794C28.7224 4.0268 30.152 7.34075 31.4028 10.6547C34.7979 10.0699 38.193 9.87496 41.5882 10.2648C43.0177 7.14582 44.6259 3.83186 46.5915 0.322973C46.7702 -0.0669034 47.1276 -0.0668856 47.485 0.128053C51.2375 2.27237 54.8113 4.80657 58.0277 7.92558C58.9212 8.70533 59.8146 9.68003 60.5294 10.4598C60.8868 10.8497 61.4229 11.2395 61.6016 12.0193C61.6016 12.2142 61.6015 12.4091 61.4229 12.6041C60.7081 13.7737 59.9934 14.9434 59.0999 16.3079C58.0278 18.0624 56.9556 19.8168 55.7047 21.7662C56.7769 24.4953 57.849 27.4194 58.7425 30.1485C61.4229 30.3435 64.9967 30.9283 68.9279 32.6827C69.1066 32.8777 69.2853 33.0726 69.464 33.4625C69.8213 38.7258 69.1066 43.5993 67.4983 48.2778C67.3196 48.6677 67.141 48.8626 66.7836 48.8626H65.7114C63.2098 48.6677 60.5294 48.6677 57.849 48.8626C56.7769 51.5917 55.1687 54.5158 52.8457 57.6348C54.2752 60.5589 55.8835 63.483 57.1343 66.9919C57.313 67.3817 57.1343 67.7716 56.7769 67.9666C51.9522 71.2805 46.9489 73.0349 41.7669 73.6197ZM37.657 62.7032C37.8357 62.7032 38.193 62.8982 38.193 63.0931C39.9799 66.2121 41.0521 69.1362 42.1243 72.0602C46.5915 71.4754 51.0588 69.9159 55.5261 67.3817C54.2752 64.0678 52.667 61.1437 51.2375 58.4146C51.0588 58.2196 51.0588 57.8297 51.2375 57.4399C53.7391 54.1259 55.5261 51.0069 56.4195 48.0828C56.5982 47.8879 56.7769 47.693 56.9556 47.498C59.9933 47.1082 62.8524 47.3031 65.5327 47.498H66.0688C67.4984 43.4043 68.0344 39.1157 67.8557 34.2422C64.1032 32.6827 60.7081 32.0979 58.0277 31.903C57.6704 31.903 57.4917 31.708 57.313 31.3182C56.2408 28.1992 55.1687 25.0801 54.0965 22.1561C54.0965 21.9611 54.0965 21.5712 54.0965 21.3763C55.3474 19.232 56.5982 17.2826 57.6703 15.5282C58.3851 14.3585 59.0999 13.3838 59.6359 12.2142C59.4573 12.0193 59.2786 11.8243 59.0999 11.8243C58.2064 11.0446 57.4916 10.0699 56.5982 9.29014C53.5604 6.56101 50.344 4.02682 46.9489 2.07743C45.162 5.39138 43.5538 8.51038 42.1243 11.6294C41.9456 11.8243 41.7668 12.0193 41.4094 12.0193C37.8356 11.6294 34.0832 11.8243 30.5093 12.4092C30.152 12.4092 29.7946 12.2142 29.6159 11.8243C28.365 8.51039 26.9355 5.39137 25.506 2.27235C21.0387 4.41668 17.1075 7.14582 14.0697 10.2648C15.678 13.3838 17.4649 15.9181 18.8944 18.2573C19.0731 18.4522 19.0731 18.8421 18.8944 19.232C16.7501 22.7409 14.9632 26.2498 13.355 29.9536C13.1763 30.3435 12.8189 30.5384 12.4615 30.3435C8.88772 29.3688 5.67127 28.589 2.45483 27.6143C0.66792 33.8523 0.310527 39.5056 1.38267 44.574C3.52696 44.1841 5.67127 43.7942 7.81556 43.2094C8.88771 43.0144 9.78117 42.8195 10.6746 42.6246C11.032 42.6246 11.3894 42.8195 11.5681 43.0145C13.1763 47.498 14.9632 51.0069 17.1075 53.7361C17.2862 53.931 17.2862 54.3209 17.1075 54.7107C15.3206 57.8298 13.7123 60.5589 11.9254 63.0931C14.6058 66.602 18.0009 69.3311 21.9321 71.2805C22.2895 70.5007 22.8256 69.526 23.183 68.7463C24.2551 66.602 25.1486 64.6526 26.0421 62.8981C26.2208 62.7032 26.3994 62.5083 26.7568 62.5083C30.688 62.8982 34.0832 63.0931 37.657 62.7032C37.4783 62.7032 37.4783 62.7032 37.657 62.7032Z" fill="black"/>
<path d="M33.1897 43.7942C31.9388 43.7942 30.688 43.5993 29.4371 43.0145C28.365 42.6246 27.6502 41.8448 27.2928 41.26C26.5781 40.2853 26.5781 39.1157 26.3994 38.141C26.2207 34.6321 26.9355 31.708 28.5437 29.3688C30.5093 26.6397 33.547 25.47 36.2274 26.4447C36.4061 26.4447 36.5848 26.6396 36.5848 26.8346H36.7635C39.6225 27.8093 41.5881 30.9283 41.7668 34.2422C41.9455 37.3613 40.3373 40.6752 37.8356 42.4296C36.4061 43.2094 34.7979 43.7942 33.1897 43.7942ZM34.2618 27.6143C32.6536 27.6143 30.688 28.589 29.6159 30.1485C28.1863 32.0979 27.6502 34.8271 27.8289 37.7511C27.8289 38.5309 28.0076 39.5056 28.365 40.0904C28.7224 40.6752 29.2584 41.0651 29.9732 41.4549C32.2962 42.6246 34.9765 42.4296 36.9421 41.0651C39.0864 39.7005 40.3373 36.9714 40.1586 34.2422C39.9799 31.5131 38.3717 28.9789 36.0487 28.1991H35.87C35.6913 28.1991 35.3339 28.0042 35.1552 27.8093C34.9765 27.6143 34.6192 27.6143 34.2618 27.6143Z" fill="black"/>
</svg>
