<svg width="46" height="57" viewBox="0 0 46 57" fill="none" xmlns="http://www.w3.org/2000/svg">
<path d="M36.0129 27.5136C32.8219 26.603 29.4789 28.2725 27.5035 30.8527C25.5281 33.4329 24.7684 36.772 24.4645 39.9594C24.1606 42.9949 24.3125 46.1822 25.3762 49.066C26.4398 51.9498 28.7191 54.53 31.7582 55.4407C35.8609 56.6549 40.4195 54.53 42.8508 51.1909C45.282 47.7 45.8898 43.2985 45.434 39.0487C45.1301 36.1649 44.3703 33.433 42.6988 31.0045C41.0274 29.0314 38.4441 27.2101 36.0129 27.5136Z" fill="white"/>
<path d="M34.0375 56.5031C33.1258 56.5031 32.2141 56.3513 31.4543 56.0477C28.5672 55.1371 25.984 52.7086 24.7683 49.3695C23.7047 46.7893 23.4008 43.7538 23.7047 39.9593C24.0087 35.8613 25.0723 32.8258 26.8957 30.5491C29.175 27.6654 32.8219 26.1476 36.0129 26.9065C38.7481 26.6029 41.6352 28.7278 43.1547 30.8527C44.6743 32.9776 45.586 35.7096 45.8899 39.0487C46.1938 42.5395 46.0418 47.3964 43.1547 51.4944C41.0274 54.6817 37.5325 56.5031 34.0375 56.5031ZM34.3415 27.9689C32.0622 27.9689 29.4789 29.1831 27.9594 31.308C26.2879 33.4329 25.3762 36.3167 25.0723 40.1111C24.7684 43.602 25.0723 46.6375 25.984 48.9142C27.1997 51.9497 29.327 54.0746 31.9102 54.9853C35.4051 56.0477 39.8118 54.3782 42.395 50.8873C45.1301 47.0929 45.2821 42.3878 44.9782 39.2004C44.6743 36.0131 43.7625 33.4329 42.395 31.4598C40.7235 29.1831 38.2922 27.6654 36.1648 27.9689H36.0129C35.2531 27.9689 34.7973 27.9689 34.3415 27.9689Z" fill="black"/>
<path d="M0.607869 1.71148C4.10279 1.5597 14.2836 5.20236 17.0188 7.47902C21.7293 11.4252 26.288 15.8268 29.0231 21.5943C31.3024 26.603 32.0622 32.3705 32.8219 37.9863C33.1258 39.6558 33.2777 41.3254 34.1895 42.6914C34.9492 44.0574 36.4687 45.2716 37.9883 44.968C39.3559 44.6645 40.4195 43.4503 40.7234 42.0843C41.1793 40.7183 41.0273 39.0487 41.0273 37.6827C40.2676 28.1207 37.6844 18.407 31.9102 11.1217C26.1359 3.83636 9.72505 -1.7794 0.607869 1.71148Z" fill="white"/>
<path d="M37.3805 45.7269C35.709 45.7269 34.3414 44.5127 33.5817 43.1467C32.8219 41.6289 32.518 40.1111 32.2141 38.138C32.2141 37.6827 32.0622 37.0756 32.0622 36.6203C31.3024 31.6116 30.6945 26.4512 28.5672 21.8979C26.1359 16.5856 22.0332 12.4877 16.7148 7.93434C14.1316 5.65768 3.95082 2.01502 0.607849 2.16679C0.303943 2.16679 0.151953 2.01501 0 1.71146C0 1.4079 0.151972 1.10436 0.303925 1.10436C9.87697 -2.5383 26.4399 3.38101 32.2141 10.8181C38.9 19.1659 40.8754 30.0938 41.4832 37.6827C41.6351 39.2005 41.6352 40.87 41.1793 42.3878C40.5715 44.2091 39.3558 45.4233 37.9883 45.7269C37.8363 45.7269 37.6844 45.7269 37.3805 45.7269ZM3.64691 1.40791C8.2055 2.31857 15.1953 5.05056 17.4746 7.02366C22.1851 10.9699 26.8957 15.5232 29.6308 21.4425C31.7582 26.1476 32.518 31.4598 33.2778 36.4685C33.2778 36.9238 33.4297 37.5309 33.4297 37.9862C33.7336 39.6558 33.8855 41.3253 34.6453 42.5396C35.2531 43.602 36.4688 44.6644 37.8364 44.5127C38.9 44.3609 39.8117 43.2985 40.2676 41.9325C40.7234 40.5665 40.5715 39.0487 40.5715 37.6827C39.9637 30.2456 37.9882 19.6212 31.6062 11.4252C26.4398 5.3541 12.916 -0.109868 3.64691 1.40791Z" fill="black"/>
</svg>
