<svg width="76" height="84" viewBox="0 0 76 84" fill="none" xmlns="http://www.w3.org/2000/svg">
<path d="M37.9106 83.8856C36.3012 83.8856 34.6918 83.6905 33.0824 83.4954C32.7247 83.4954 32.367 83.1052 32.367 82.52C32.367 82.1298 32.7247 81.7397 33.2611 81.7397C35.2282 81.9347 37.0164 82.1298 38.9835 82.1298C39.3412 82.1298 39.6988 82.52 39.6988 82.9102C39.6988 83.3003 39.3412 83.6905 38.9835 83.6905C38.8047 83.8856 38.2683 83.8856 37.9106 83.8856ZM44.8847 83.1053C44.527 83.1053 44.1694 82.9102 44.1694 82.52C44.1694 82.1298 44.3482 81.7397 44.7059 81.5446C46.4941 81.1544 48.4611 80.5692 50.2494 79.9839C50.607 79.7888 50.9647 79.9839 51.1435 80.3741C51.3223 80.7643 51.1436 81.1544 50.7859 81.3495C48.9977 82.1298 47.0305 82.7151 44.8847 83.1053ZM27.5389 82.1298H27.36C25.3929 81.5446 23.6047 80.7642 21.8165 79.7888C21.4588 79.5938 21.28 79.2036 21.4588 78.8134C21.6376 78.4233 21.9953 78.2282 22.3529 78.4233C24.1412 79.3987 25.9294 79.9839 27.7176 80.5692C28.0753 80.7643 28.2541 81.1544 28.2541 81.5446C28.0753 81.9347 27.8965 82.1298 27.5389 82.1298ZM55.9717 78.8134C55.7929 78.8134 55.4353 78.6183 55.2565 78.4233C55.0777 78.0331 55.2564 77.6429 55.6141 77.2528C57.2235 76.2774 58.8329 75.1069 60.4423 73.7413C60.8 73.5462 61.1577 73.5462 61.5153 73.9364C61.6942 74.3265 61.6941 74.7167 61.3365 75.1069C59.727 76.4724 58.1177 77.6429 56.3294 78.6183C56.1506 78.8134 55.9717 78.8134 55.9717 78.8134ZM16.9882 76.6675C16.8094 76.6675 16.6306 76.6675 16.6306 76.4724C15.0212 75.3019 13.4118 73.9364 11.9812 72.3757C11.6236 71.9855 11.6236 71.5954 11.9812 71.2052C12.3388 70.815 12.6964 70.815 13.0541 71.2052C14.4847 72.5708 15.9153 73.9364 17.5247 75.1069C17.8823 75.3019 17.8824 75.8872 17.7036 76.2774C17.5248 76.6675 17.1671 76.6675 16.9882 76.6675ZM65.0918 71.0101C64.913 71.0101 64.7341 71.0101 64.5553 70.815C64.1976 70.4249 64.1976 70.0347 64.5553 69.6445C65.807 68.0839 67.0588 66.5232 68.1317 64.7675C68.3106 64.3773 68.8471 64.3773 69.2047 64.5724C69.5624 64.7675 69.5623 65.3527 69.3835 65.7429C68.3106 67.4986 67.0589 69.2544 65.6283 70.815C65.4494 70.815 65.2706 71.0101 65.0918 71.0101ZM8.58351 68.0839C8.40468 68.0839 8.22588 67.8888 8.04706 67.6937C6.79529 65.938 5.72238 64.1822 4.82826 62.2314C4.64943 61.8412 4.82828 61.4511 5.18593 61.0609C5.54357 60.8658 5.90118 61.0609 6.25882 61.4511C7.15294 63.2068 8.22586 64.9625 9.47763 66.7183C9.65645 67.1085 9.65649 67.4986 9.29885 67.8888C8.76238 67.8888 8.58351 68.0839 8.58351 68.0839ZM71.7082 60.4757C71.5294 60.4757 71.5295 60.4757 71.3506 60.4757C70.993 60.2806 70.8141 59.8904 70.993 59.5002C71.8871 57.5494 72.4235 55.5986 72.96 53.6478C73.1388 53.2576 73.4965 53.0625 73.8541 53.0625C74.2117 53.2576 74.3905 53.6478 74.3905 54.0379C73.8541 56.1838 73.1389 58.1347 72.2448 60.0855C72.2448 60.2806 71.887 60.4757 71.7082 60.4757ZM2.86113 56.7691C2.50349 56.7691 2.32473 56.574 2.1459 56.1838C1.43061 54.233 0.894096 52.0871 0.536449 49.9412C0.536449 49.551 0.71525 49.1608 1.0729 48.9658C1.43054 48.9658 1.78819 49.1608 1.96702 49.551C2.32466 51.5018 2.86118 53.6478 3.57647 55.5986C3.75529 55.9887 3.57645 56.3789 3.2188 56.574C3.03998 56.7691 3.03996 56.7691 2.86113 56.7691ZM74.9271 48.1854C74.3906 48.1854 74.2118 47.7953 74.2118 47.21C74.3906 45.4543 74.5694 43.5034 74.5694 41.7477C74.5694 41.5526 74.5694 41.1625 74.5694 40.9674C74.5694 40.5772 74.927 40.187 75.2847 40.187C75.6423 40.187 76 40.5772 76 40.9674C76 41.1625 76 41.5526 76 41.7477C76 43.6985 75.8212 45.4543 75.6423 47.4051C75.6423 47.9903 75.2848 48.1854 74.9271 48.1854ZM0.715338 44.2838C0.357691 44.2838 0 43.8936 0 43.5034C0 42.9182 0 42.3329 0 41.7477C0 39.6018 0.178802 37.4559 0.536449 35.31C0.536449 34.9198 0.894096 34.5296 1.43057 34.7247C1.78821 34.7247 2.14584 35.1149 1.96702 35.7001C1.60937 37.846 1.60946 39.7969 1.60946 41.9428C1.60946 42.528 1.60946 43.1133 1.60946 43.5034C1.43063 43.8936 1.07298 44.2838 0.715338 44.2838ZM74.7482 35.5051C74.3906 35.5051 74.033 35.31 74.033 34.9198C73.6753 32.7739 73.1388 30.8231 72.6023 28.8722C72.4235 28.4821 72.6024 28.0919 73.1389 27.8968C73.4965 27.7017 73.8542 27.8968 74.033 28.4821C74.7483 30.628 75.1059 32.5788 75.4636 34.7247C75.4636 34.9198 75.2847 35.5051 74.7482 35.5051ZM2.32468 30.0427H2.1459C1.78826 29.8476 1.60946 29.4575 1.60946 29.0673C2.14593 26.9214 3.04002 24.9706 3.93414 23.0198C4.11296 22.6296 4.47061 22.4345 4.82826 22.6296C5.1859 22.8247 5.36475 23.2148 5.18593 23.605C4.29181 25.5558 3.57649 27.5067 3.04002 29.4575C3.04002 29.8477 2.68233 30.0427 2.32468 30.0427ZM70.993 23.4099C70.8141 23.4099 70.4565 23.2148 70.2776 23.0198C69.3835 21.264 68.3106 19.3132 67.2376 17.7525C67.0588 17.3624 67.0589 16.9722 67.4165 16.582C67.7741 16.387 68.1318 16.3869 68.4894 16.7771C69.7412 18.5329 70.8141 20.2886 71.7082 22.2394C71.887 22.6296 71.7083 23.0198 71.3506 23.4099C71.1718 23.4099 71.1718 23.4099 70.993 23.4099ZM7.68939 18.7279C7.51057 18.7279 7.33172 18.7279 7.33172 18.5329C6.97407 18.3378 6.97412 17.7525 7.15294 17.3624C8.22588 15.6066 9.65643 13.8509 10.9082 12.2902C11.2658 11.9 11.6236 11.9 11.9812 12.2902C12.3388 12.6804 12.3388 13.0705 11.9812 13.4607C10.7294 15.0214 9.4776 16.582 8.22584 18.3378C8.04702 18.5328 7.86821 18.7279 7.68939 18.7279ZM64.0188 13.2656C63.84 13.2656 63.6612 13.2656 63.4824 13.0705C62.0518 11.5099 60.6212 10.3394 59.0118 8.9738C58.6541 8.77872 58.6542 8.19348 58.833 7.80331C59.0118 7.41314 59.5482 7.41313 59.9059 7.60822C61.5153 8.77871 63.1247 10.3394 64.5553 11.9C64.9129 12.2902 64.9129 12.6804 64.5553 13.0705C64.3764 13.0705 64.1976 13.2656 64.0188 13.2656ZM15.7364 9.55904C15.5576 9.55904 15.3788 9.36397 15.2 9.16888C15.0212 8.77872 15.0211 8.38856 15.3788 7.99839C16.9882 6.63281 18.5977 5.46231 20.3859 4.48689C20.7436 4.29181 21.1012 4.4869 21.4588 4.87707C21.6376 5.26723 21.4588 5.6574 21.1012 6.04756C19.4917 7.02298 17.7035 8.19347 16.2729 9.36396C16.0941 9.55905 15.9153 9.55904 15.7364 9.55904ZM54.5412 5.85248C54.3624 5.85248 54.3623 5.85248 54.1835 5.85248C52.3953 4.87707 50.607 4.09673 48.8188 3.51148C48.4612 3.3164 48.2824 2.92623 48.2824 2.53607C48.4612 2.1459 48.8188 1.95083 49.1765 1.95083C51.1435 2.53608 52.9317 3.51148 54.72 4.48689C55.0776 4.68198 55.2565 5.07214 55.0776 5.46231C55.0776 5.65739 54.8988 5.85248 54.5412 5.85248ZM26.1082 3.70656C25.7505 3.70656 25.5718 3.51149 25.393 3.12132C25.2141 2.73116 25.3929 2.34099 25.9294 2.14591C27.8965 1.36558 29.6847 0.975405 31.6518 0.585239C32.0094 0.585239 32.3671 0.780328 32.5459 1.17049C32.5459 1.56066 32.3671 1.95082 32.0095 2.14591C30.0424 2.53607 28.2541 2.92623 26.4659 3.70656C26.287 3.70656 26.1082 3.70656 26.1082 3.70656ZM43.4541 1.95083C41.6659 1.75574 39.8777 1.56065 37.9106 1.56065H37.5529C37.1953 1.56065 36.8376 1.17048 36.8376 0.780319C36.8376 0.390154 37.1953 0 37.5529 0H37.9106C39.6988 0 41.6659 0.195077 43.4541 0.39016C43.8117 0.39016 44.1694 0.780325 43.9905 1.36557C44.1694 1.75574 43.8117 1.95083 43.4541 1.95083Z" fill="black"/>
</svg>
