<svg width="28" height="25" viewBox="0 0 28 25" fill="none" xmlns="http://www.w3.org/2000/svg">
<path d="M27.268 14.9734C18.3007 17.7685 9.33335 20.5635 0.549029 23.7579C3.47714 15.9717 6.22226 8.38509 9.15036 0.598885C15.9216 5.19075 22.3268 9.58299 27.268 14.9734Z" fill="white"/>
<path d="M0.732016 24.7561C0.549009 24.7561 0.366025 24.7561 0.183018 24.5565C1.11671e-05 24.3568 0 23.9575 0 23.7579V23.5582C2.7451 15.9717 5.67323 8.18546 8.60134 0.399256C8.60134 0.19961 8.78432 0 9.15033 0C9.33334 0 9.51632 0 9.69933 0C16.8366 4.79151 23.0589 9.1837 27.817 14.5742C28 14.7738 28 15.1731 28 15.3727C28 15.5724 27.817 15.9717 27.451 15.9717C18.4837 18.5671 9.51634 21.5618 0.732016 24.7561ZM9.69933 1.7968C7.13724 8.78442 4.57518 15.772 2.01308 22.56C9.88237 19.765 17.9347 16.9699 25.987 14.5742C21.4118 9.98229 15.9216 6.18902 9.69933 1.7968Z" fill="black"/>
</svg>
