<svg width="54" height="29" viewBox="0 0 54 29" fill="none" xmlns="http://www.w3.org/2000/svg">
<path d="M6.21613 28.1433C16.9353 27.9904 27.6544 27.8374 38.3736 27.6845C41.7424 27.6845 45.4176 27.5315 48.3271 25.849C51.3897 24.0136 53.6866 20.4957 53.5334 16.8248C53.3803 13.1539 50.9303 9.63596 47.5614 8.56529C44.1925 7.49461 40.058 9.483 38.8329 13.0009C38.9861 6.57688 33.6265 0.611682 27.5012 0.611682C21.376 0.611682 16.0165 7.18868 17.0884 13.4598C16.0165 10.5537 12.6476 9.02416 9.73811 9.48302C6.82863 9.94188 4.37849 12.2362 2.69405 14.8364C1.31587 16.9777 0.397107 19.5779 0.703369 22.1781C1.00963 24.7784 2.54099 28.2963 6.21613 28.1433Z" fill="white"/>
<path d="M6.21609 28.7553C2.54095 28.7553 0.550255 25.5433 0.0908629 22.1783C-0.368529 19.1192 1.00963 16.2131 2.08154 14.3776C4.07224 11.3186 6.6754 9.33015 9.58489 8.87129C12.1881 8.41243 14.6382 9.33015 16.3227 11.1656C16.4758 8.71834 17.3946 6.27108 19.079 4.28268C21.2228 1.68247 24.2855 0 27.3481 0C30.2576 0 33.167 1.22362 35.464 3.67088C37.4547 5.81223 38.8329 8.41247 39.1392 11.0127C40.9767 8.56542 44.4987 7.1888 47.5614 8.10652C51.2365 9.1772 53.8396 12.8481 53.9928 16.8249C54.1459 20.6487 51.849 24.4726 48.4801 26.308C45.2644 28.1435 41.5892 28.1435 38.2203 28.1435L6.21609 28.7553ZM10.81 9.94198C10.5037 9.94198 10.0443 9.94199 9.73807 10.0949C7.28798 10.5538 4.83786 12.3892 3.00029 15.1424C1.92837 16.8249 0.703311 19.2722 1.1627 22.1783C1.46896 24.1667 2.69408 27.6846 6.21609 27.6846L38.3735 27.2257C41.5893 27.2257 45.1113 27.0728 48.0207 25.5433C51.0833 23.8608 53.0741 20.3428 52.9209 16.9779C52.7678 13.4599 50.4708 10.0949 47.2551 9.33018C44.0393 8.41246 40.3642 10.2479 39.1392 13.4599C38.986 13.7658 38.8329 13.9188 38.5266 13.7658C38.2204 13.7658 38.0672 13.4599 38.0672 13.154C38.2204 10.0949 36.8422 6.88291 34.5453 4.58861C32.5546 2.44726 29.9513 1.37657 27.3481 1.37657C24.5917 1.37657 21.8354 2.75316 19.8447 5.20041C17.854 7.64767 16.9352 10.7067 17.5477 13.6129C17.5477 13.9188 17.3946 14.2247 17.0883 14.2247C16.7821 14.3776 16.4758 14.0717 16.3227 13.9188C15.557 11.3186 13.107 9.94198 10.81 9.94198Z" fill="black"/>
<g opacity="0.1294">
<path d="M50.9302 20.8018C50.6239 20.8018 50.4708 21.1077 50.1645 21.2607C49.8583 21.4136 49.552 21.5666 49.3989 21.8725C48.7864 22.3313 48.1739 22.7902 47.4082 23.0961H47.2551C45.8769 23.555 44.4987 24.1668 43.1206 24.3197C42.2018 24.4727 38.6798 24.3197 36.6891 24.4727C32.4014 24.6256 28.1138 24.6257 23.8261 24.7786C20.4573 24.6257 17.0883 24.9316 13.7195 25.3904C9.4318 25.6963 8.05365 26.0022 4.8379 24.4727H4.991C4.22534 24.1668 3.61288 23.7079 2.84722 23.555C1.46905 23.2491 0.70334 25.3904 1.92838 26.1552C3.61282 27.0729 5.45039 27.9906 7.28796 28.2965C11.5756 29.0613 16.0164 27.6847 20.3041 27.8377C21.8354 27.8377 23.3667 27.9906 24.898 27.8377C26.8887 27.6847 29.0325 27.5318 31.0232 27.5318C34.0858 27.5318 37.3016 27.2259 39.5986 26.92C39.5986 27.6847 40.211 28.2965 40.9767 28.1436C43.4268 27.8377 45.8769 27.0729 48.0208 25.8493C48.4801 25.5434 48.9395 25.2374 49.5521 24.9315C49.8583 24.7786 50.1646 24.6256 50.3177 24.3197C50.4708 24.0138 50.624 23.8609 50.624 23.555C50.9303 23.2491 51.2365 23.0961 51.5427 22.7902C51.849 22.4843 52.1553 22.1784 52.1553 21.7195C52.3084 21.2607 51.5427 20.6489 50.9302 20.8018Z" fill="black"/>
</g>
</svg>
