<svg width="28" height="25" viewBox="0 0 28 25" fill="none" xmlns="http://www.w3.org/2000/svg">
<path d="M27.268 14.9736C18.3007 17.7686 9.33336 20.5637 0.549048 23.758C3.47715 15.9718 6.22225 8.38527 9.15035 0.599073C15.9216 4.99129 22.5098 9.58311 27.268 14.9736Z" fill="white"/>
<path d="M0.732015 24.5565C0.549009 24.5565 0.365996 24.5565 0.18299 24.3569C-1.67575e-05 24.1572 0 23.7579 0 23.5583C2.7451 15.9717 5.6732 8.18552 8.6013 0.399317C8.6013 0.199671 8.78432 0 9.15033 0C9.33334 0 9.51635 0 9.69936 0C16.8366 4.79151 23.0588 9.18376 27.817 14.5742C28 14.7739 28 15.1731 28 15.3728C28 15.5724 27.817 15.9717 27.451 15.9717C18.4837 18.5671 9.51633 21.5618 0.732015 24.7562C0.732015 24.5565 0.732015 24.5565 0.732015 24.5565ZM9.69936 1.79686C6.95426 8.78448 4.39214 15.7721 2.01306 22.5601C9.88234 19.765 17.9346 16.97 25.9869 14.5742C21.4118 9.98234 15.9216 5.98943 9.69936 1.79686Z" fill="black"/>
</svg>
