<svg width="105" height="33" viewBox="0 0 105 33" fill="none" xmlns="http://www.w3.org/2000/svg">
<path d="M84.4143 10.9352C74.4242 11.6911 41.4266 10.3304 27.3497 8.66733C26.5929 13.203 26.7442 18.6459 26.8956 23.0304C44.6053 22.1232 73.2133 22.8792 84.5657 23.6351C84.717 19.7042 84.8684 15.6221 84.4143 10.9352Z" fill="white"/>
<path d="M84.5657 24.2399C73.2133 23.484 44.6053 22.728 26.8956 23.6352C26.7443 23.6352 26.5929 23.6352 26.4416 23.484C26.2902 23.3328 26.2901 23.1816 26.2901 23.0304C26.2901 22.4256 26.2901 21.8209 26.2901 21.2161C26.2901 17.134 26.1388 12.5983 26.7443 8.51614C26.7443 8.21376 27.047 8.06258 27.3497 8.06258C41.7294 9.87686 74.727 11.0864 84.4144 10.3304C84.7171 10.3304 85.0198 10.4816 85.0198 10.784C85.4739 15.4709 85.3225 19.7042 85.1712 23.6352C85.1712 23.7863 85.1712 23.9375 85.0198 24.0887C84.8685 24.2399 84.717 24.2399 84.5657 24.2399ZM46.4218 22.1233C60.9528 22.1233 76.2406 22.5768 84.1116 23.1816C84.263 19.553 84.263 15.7733 83.9603 11.5399C73.5161 12.2959 42.4862 10.9352 27.8038 9.27209C27.1983 13.0518 27.3497 17.2852 27.3497 21.2161C27.3497 21.6697 27.3497 22.1233 27.3497 22.5768C32.9502 22.2744 39.6103 22.1233 46.4218 22.1233Z" fill="black"/>
<path d="M2.07171 6.24843C7.06676 2.77106 13.1214 0.200836 19.176 1.10798C27.5011 2.3175 31.2852 7.76033 31.1338 15.9246C30.9825 29.0781 22.3547 33.0091 15.2405 32.2531C11.0023 31.7996 2.37446 27.415 0.860812 24.3912C0.558082 23.7865 0.709465 23.0305 1.16356 22.577C1.46629 22.2746 2.07179 22.2746 2.52588 22.2746C6.61274 22.2746 10.6996 22.2746 14.7864 21.9722C15.2405 21.9722 15.846 21.9722 16.1487 21.6698C16.9056 21.2163 17.0569 20.3091 17.0569 19.5532C17.2083 17.7389 17.3596 16.0758 17.3596 14.2615C17.3596 13.052 17.2083 11.5401 16.1487 10.9353C15.5433 10.4818 14.7864 10.4818 14.1809 10.4818C10.8509 10.1794 7.36951 10.0282 3.88811 10.0282C3.13129 10.0282 2.2231 10.0282 1.61764 9.57462C1.31491 8.96986 0.406698 7.30676 2.07171 6.24843Z" fill="white"/>
<path d="M17.0569 32.8578C16.4515 32.8578 15.6947 32.8578 15.0892 32.7066C11.0023 32.253 1.92045 27.8685 0.255434 24.5424C-0.198661 23.7864 -0.0473142 22.7281 0.709511 22.1233C1.31497 21.6697 2.07182 21.6697 2.52591 21.6697C6.61277 21.6697 10.6996 21.6697 14.7864 21.3674C15.2405 21.3674 15.6946 21.3674 15.9973 21.065C16.4514 20.7626 16.6028 20.0067 16.7542 19.2507C16.9055 17.5876 17.0569 15.7733 17.0569 13.9591C17.0569 12.9007 17.057 11.6912 16.1488 11.0864C15.6947 10.7841 15.0892 10.7841 14.4837 10.6329C11.1537 10.3305 7.67225 10.1793 4.34222 10.1793C3.58539 10.1793 2.52591 10.1793 1.76909 9.57454C1.31499 9.27216 0.709511 8.36502 0.709511 7.60907C0.709511 7.00431 0.860858 6.24836 1.92041 5.49241C6.00727 2.4686 12.516 -0.857578 19.3274 0.200752C27.6525 1.41027 31.8907 6.70193 31.7393 15.6221C31.588 21.5186 29.7716 26.3566 26.4416 29.2293C23.8684 31.6483 20.5383 32.8578 17.0569 32.8578ZM2.22316 22.8793C1.92043 22.8793 1.61765 22.8793 1.31492 23.0305C1.01219 23.1817 1.01222 23.7864 1.16359 24.0888C2.52587 26.8102 11.0023 31.0435 15.0892 31.6483C19.0247 32.1019 22.8088 31.0435 25.382 28.7757C28.5607 26.0543 30.2257 21.6697 30.377 15.9245C30.5284 7.60907 26.5929 2.77099 18.8733 1.56147C12.3646 0.654325 6.15865 3.82932 2.22316 6.70193C1.76907 7.00431 1.46634 7.45788 1.46634 7.76026C1.46634 8.21383 1.76901 8.6674 2.07174 8.81859C2.52584 9.12097 3.28274 9.12097 4.03956 9.12097C7.52096 9.12097 10.851 9.27216 14.3324 9.57454C14.9378 9.57454 15.846 9.72574 16.6028 10.1793C17.8138 11.0864 17.9651 12.7495 17.9651 13.9591C17.9651 15.7733 17.8138 17.5876 17.6624 19.2507C17.6624 19.8555 17.511 21.2162 16.4514 21.8209C15.846 22.1233 15.2405 22.2745 14.7864 22.2745C10.6996 22.5769 6.46135 22.5769 2.37449 22.5769C2.37449 22.8793 2.22316 22.8793 2.22316 22.8793Z" fill="black"/>
<path d="M102.578 26.9615C98.34 29.8341 93.1935 31.6483 88.1985 30.7412C81.2357 29.5317 78.3598 24.6936 78.6625 17.89C79.268 6.85317 86.5335 3.67817 92.4367 4.7365C95.9181 5.34126 103.032 9.27221 104.092 11.6913C104.243 12.1448 104.243 12.9008 103.789 13.2032C103.486 13.5055 103.032 13.5055 102.578 13.5055C99.2481 13.3543 95.7668 13.2032 92.2854 13.3543C91.8313 13.3543 91.3772 13.3543 91.0745 13.6567C90.469 13.9591 90.3176 14.7151 90.1662 15.471C90.0149 16.9829 89.8635 18.4948 89.7121 19.8555C89.7121 20.9138 89.7121 22.1234 90.469 22.7281C90.9231 23.0305 91.5285 23.1817 92.1339 23.1817C95.0099 23.4841 97.7345 23.7865 100.61 23.9376C101.216 23.9376 101.973 24.0888 102.427 24.3912C103.335 24.6936 103.94 26.0543 102.578 26.9615Z" fill="white"/>
<path d="M90.923 31.4971C90.0148 31.4971 89.1067 31.4971 88.1985 31.1947C81.2357 29.9852 77.9057 25.2983 78.2084 17.7388C78.5112 12.5984 80.1762 8.66743 83.2035 6.39958C85.7767 4.43411 89.258 3.52697 92.7394 4.13173C96.2208 4.73649 103.638 8.66742 104.849 11.54C105.151 12.296 105 13.2031 104.395 13.6567C103.94 14.1103 103.184 14.1103 102.881 13.9591C99.5509 13.8079 96.0695 13.6567 92.7394 13.8079C92.2853 13.8079 91.9826 13.8079 91.8313 13.9591C91.5285 14.1103 91.3771 14.715 91.2258 15.3198C91.0744 16.8317 90.9231 18.1924 90.7717 19.7043C90.7717 20.6114 90.7716 21.6698 91.3771 22.1233C91.6798 22.4257 92.134 22.4257 92.7394 22.4257C95.464 22.7281 98.3399 23.0305 101.216 23.1817C101.821 23.1817 102.73 23.3329 103.335 23.7864C103.789 24.0888 104.243 24.8448 104.092 25.6007C104.092 26.0543 103.94 26.8102 103.032 27.415C100.005 29.3805 95.6153 31.4971 90.923 31.4971ZM90.6203 5.03887C88.1984 5.03887 85.7767 5.79482 83.9603 7.30672C81.2357 9.42338 79.7221 13.2031 79.4193 17.89C78.9652 24.8448 82.1439 29.0781 88.5012 30.1364C93.9504 31.1947 99.0968 28.6245 102.427 26.3567C102.73 26.0543 103.032 25.9031 103.032 25.4495C103.032 24.996 102.881 24.6936 102.729 24.5424C102.427 24.24 101.821 24.24 101.216 24.24C98.3399 24.0888 95.464 23.9376 92.7394 23.4841C92.134 23.4841 91.3772 23.3329 90.7717 22.8793C89.7122 22.1233 89.7121 20.6114 89.7121 19.5531C89.8635 18.0412 90.0148 16.5293 90.1662 15.0174C90.3176 14.4126 90.469 13.3543 91.2258 12.7496C91.6799 12.4472 92.2853 12.4472 92.7394 12.4472C96.2208 12.296 99.5508 12.4472 103.032 12.5984C103.335 12.5984 103.638 12.5984 103.789 12.4472C103.94 12.296 104.092 11.8424 103.94 11.6912C102.881 9.42338 96.0695 5.49244 92.7394 5.03887C91.8312 5.03887 91.2257 5.03887 90.6203 5.03887Z" fill="black"/>
<path d="M69.8834 19.4018H43.2431C43.0917 19.4018 43.0917 19.2507 43.0917 19.2507C43.0917 19.0995 43.2431 19.0995 43.2431 19.0995H69.8834C70.0347 19.0995 70.0347 19.2507 70.0347 19.2507C70.1861 19.2507 70.0347 19.4018 69.8834 19.4018Z" fill="black"/>
<path d="M70.186 15.4711C61.2555 15.0175 52.325 14.8663 43.3945 15.0175C43.2431 15.0175 43.2431 14.8663 43.2431 14.8663C43.2431 14.7151 43.3945 14.7151 43.3945 14.7151C52.325 14.5639 61.2555 14.7151 70.186 15.1687C70.3374 15.1687 70.3374 15.3199 70.3374 15.3199C70.3374 15.471 70.3374 15.4711 70.186 15.4711Z" fill="black"/>
<g opacity="0.1294">
<path d="M78.057 21.2162H77.9057C76.6948 20.9138 76.0893 20.9138 74.2729 20.7626C70.9429 20.309 67.7642 20.309 64.4342 20.309C57.9255 20.1578 51.4168 20.309 44.9081 20.1578C41.8808 20.1578 38.7021 20.0066 35.6748 20.1578C34.6152 20.309 33.4043 20.309 32.3448 20.4602C31.7393 20.6114 31.1339 20.4602 30.6798 20.9138C29.3175 21.9721 30.3771 24.24 32.0421 23.7864C37.9453 23.0304 47.6326 23.1816 55.0495 23.1816C57.6227 23.1816 60.196 23.1816 62.7692 23.1816C66.856 23.0304 70.9429 23.1816 75.0297 23.6352C75.9379 23.6352 76.6948 23.7864 77.6029 23.9376H77.7543C77.9056 23.9376 78.0571 23.9376 78.2084 24.0888C78.9653 24.0888 79.5707 23.484 79.5707 22.7281C79.5707 21.8209 78.8138 21.065 78.057 21.2162Z" fill="black"/>
</g>
</svg>
