<svg width="43" height="12" viewBox="0 0 43 12" fill="none" xmlns="http://www.w3.org/2000/svg">
<path d="M0.151446 9.247C0.454327 8.64194 1.06009 8.33941 1.66585 8.49067C1.81729 8.49067 2.87738 8.49066 3.18026 8.64193C4.84611 8.79319 6.51194 8.94445 8.17779 8.94445C11.358 8.79319 14.5383 8.94447 17.87 8.49067C21.8074 8.18814 25.1391 7.43181 29.5309 6.22169C33.4684 5.01156 36.1943 3.4989 39.9804 0.927384C40.5861 0.624853 41.1918 -0.131485 42.1005 0.0197806C43.1606 0.171046 43.312 1.68369 42.4034 2.13749C38.3145 4.86028 34.0741 7.58306 29.228 8.94445C26.5021 9.70078 23.6247 10.4571 20.7474 10.9109C18.4757 11.2134 16.0527 11.3647 13.7811 11.516C10.298 11.6673 6.81484 11.8185 3.18026 11.6672C2.5745 11.6672 2.12012 11.516 1.51436 11.516C1.21148 11.516 0.75719 11.3647 0.60575 11.2134C-1.37204e-05 10.7596 -0.151436 9.85207 0.151446 9.247Z" fill="black"/>
</svg>
