<svg width="24" height="27" viewBox="0 0 24 27" fill="none" xmlns="http://www.w3.org/2000/svg">
<path d="M15.9253 25.4481C11.0804 17.0307 5.87666 8.80895 0.672918 0.78301C8.02993 1.56603 15.5664 2.1533 23.1028 2.93632C21.129 10.7665 19.1552 18.7924 15.9253 25.4481Z" fill="white"/>
<path d="M15.9252 26.2311C15.7458 26.2311 15.3869 26.0354 15.3869 25.8396C10.5421 17.4222 5.33832 9.20045 0.13458 1.17451C-0.0448598 0.978755 -0.0448598 0.587258 0.13458 0.391503C0.314019 0.195749 0.493502 0 0.852381 0C8.2094 0.587264 15.7459 1.37026 23.2823 2.15328C23.4617 2.15328 23.6412 2.34903 23.8206 2.54479C24 2.74054 24 2.9363 24 3.13206C21.8467 11.7453 19.8729 19.3797 16.8224 25.8396C16.4635 26.0354 16.2841 26.2311 15.9252 26.2311ZM2.10837 1.56601C6.77379 8.80893 11.4393 16.2476 15.7458 23.6863C18.4374 17.8137 20.2318 10.9622 22.0262 3.52356C15.3869 2.74054 8.74763 2.15328 2.10837 1.56601Z" fill="black"/>
</svg>
