<svg width="377" height="271" viewBox="0 0 377 271" fill="none" xmlns="http://www.w3.org/2000/svg">
<path d="M1.00327 16.978C1.15442 11.2411 3.27048 5.50422 8.86287 2.93771C14.4553 0.3712 20.9545 0.522162 27.1515 0.522162C77.1807 1.42799 307.376 1.12605 357.405 2.03187C364.207 2.18284 371.31 4.14548 373.729 9.42947C377.356 17.28 376.147 39.9256 375.845 49.5877C375.089 70.4217 376.147 234.225 375.391 255.059C374.787 272.421 363.753 270.156 352.72 270.156C301.179 270.156 73.4021 270.006 19.2919 268.496C14.0018 267.892 8.56058 266.382 5.08423 262.608C1.15444 258.381 0.85212 252.191 0.85212 246.605C0.398682 220.94 0.0963999 44.4548 1.00327 16.978Z" fill="white"/>
<path d="M359.37 270.609C358.312 270.609 357.103 270.609 356.045 270.609C354.987 270.609 353.778 270.609 352.568 270.609C308.736 270.609 74.7624 270.458 19.1408 268.949C12.3392 268.043 7.50254 266.08 4.63077 262.91C0.700984 258.532 0.247556 252.342 0.247556 246.454C0.0964102 223.054 -0.357009 44.7567 0.549866 16.978C0.701012 9.8824 3.72392 4.74937 8.71173 2.4848C14.4553 -0.232674 21.2568 -0.0817005 27.3026 0.0692706C52.2417 0.522184 123.582 0.673155 192.354 0.824126C261.276 0.975097 332.466 1.12607 357.556 1.57898C361.637 1.57898 371.31 2.4848 374.333 9.2785C377.81 16.6761 377.054 36.4533 376.601 47.0213C376.601 47.9271 376.601 48.8329 376.449 49.5878C376.147 60.0048 376.147 106.957 376.147 152.248C376.147 197.69 376.298 244.642 375.845 255.059C375.24 269.1 367.834 270.609 359.37 270.609ZM352.568 269.251C353.778 269.251 354.836 269.251 356.045 269.251C365.718 269.402 374.182 269.704 374.787 254.757C375.089 244.34 375.089 197.388 375.089 152.097C375.089 106.655 374.938 59.7028 375.391 49.2858C375.391 48.531 375.391 47.6252 375.543 46.7193C375.996 36.1514 376.752 16.5251 373.427 9.42948C370.555 3.39064 361.486 2.4848 357.707 2.4848C332.617 2.03189 261.427 1.88092 192.505 1.72995C123.583 1.57898 52.3928 1.42801 27.4538 0.975095C21.5591 0.824124 15.0599 0.673153 9.46746 3.23966C3.27048 6.10811 2.06131 12.9018 1.91017 16.8271C1.00329 44.4548 1.45671 222.903 1.60786 246.152C1.60786 252.04 2.06131 257.777 5.68881 261.853C8.40944 264.872 12.9438 266.684 19.5942 267.59C74.9135 269.1 308.736 269.402 352.568 269.251Z" fill="black"/>
<path d="M375.24 24.0736C347.732 24.0736 266.718 23.6207 188.273 23.1678C109.677 22.7149 28.5118 22.262 1.00327 22.262C0.700979 22.262 0.398697 21.96 0.398697 21.6581C0.398697 21.3561 0.700979 21.0542 1.00327 21.0542C28.5118 21.0542 109.677 21.5071 188.273 21.96C266.718 22.4129 347.883 22.8659 375.24 22.8659C375.542 22.8659 375.845 23.1678 375.845 23.4697C375.845 23.9227 375.542 24.0736 375.24 24.0736Z" fill="black"/>
<g opacity="0.1294">
<path d="M372.822 24.0737C372.973 24.0737 372.973 24.0737 372.822 24.0737C372.671 24.0737 372.368 24.0737 372.217 24.0737C372.066 24.0737 371.915 24.0736 371.613 24.2246C371.462 24.2246 371.462 24.2246 371.462 24.2246C371.159 24.2246 370.857 24.2246 370.555 24.2246C364.055 23.7717 357.405 24.0736 350.906 23.9227C343.802 23.7717 336.698 24.2246 329.594 23.7717C325.816 23.4698 321.886 23.4698 318.107 23.4698C314.328 23.3188 310.701 23.0169 306.922 23.0169C296.191 22.8659 285.46 23.3188 274.879 23.3188C271.252 23.1678 267.624 22.7149 264.148 22.5639C261.125 22.5639 49.3699 22.413 46.347 22.413C44.0798 22.413 41.9638 22.8659 39.6966 22.8659C36.5225 22.8659 33.3484 22.5639 30.1744 22.5639C24.8843 22.5639 19.7453 22.111 14.4552 21.96C11.8858 21.6581 9.31627 21.6581 6.89794 21.6581C5.38648 21.6581 3.27046 21.0542 1.91015 21.6581C-0.659328 22.7149 0.0963731 26.6402 2.96814 26.6402C14.7575 27.0931 26.698 27.0931 38.4874 27.8479C40.7546 27.8479 43.0218 27.546 45.4401 27.395C48.0096 27.244 259.311 27.395 261.881 27.395C266.718 27.244 271.403 28.1499 276.24 28.1499C285.308 28.1499 294.226 27.697 303.295 27.697C307.98 27.395 312.817 27.8479 317.503 27.9989C322.49 27.9989 327.327 28.4518 332.315 28.7537C338.965 29.0557 345.616 28.7537 352.266 28.7537C358.161 28.4518 368.136 28.7538 371.764 28.6028C372.217 28.6028 372.52 28.6028 372.973 28.6028C373.275 28.6028 373.578 28.7538 373.729 28.6028C376.449 28.3008 375.845 23.7717 372.822 24.0737Z" fill="black"/>
</g>
<path d="M311.306 8.37265C309.189 7.91974 306.922 8.97655 306.015 10.7882C305.109 12.5999 305.864 15.0154 307.829 15.9212C309.643 16.978 312.364 16.3741 313.422 14.7135C314.48 13.0528 314.782 9.27848 311.306 8.37265Z" fill="white"/>
<path d="M309.794 16.978C309.038 16.978 308.132 16.827 307.527 16.3741C305.411 15.1664 304.504 12.5999 305.562 10.4863C306.469 8.52364 309.19 7.31587 311.457 7.76878C313.271 8.2217 314.177 9.42946 314.48 10.3353C315.084 11.996 314.631 13.9586 313.875 15.0154C312.968 16.3741 311.457 16.978 309.794 16.978ZM310.248 8.82558C308.736 8.82558 307.225 9.73142 306.469 10.9392C305.713 12.4489 306.469 14.5625 307.98 15.3173C309.643 16.2232 311.91 15.7703 312.817 14.2605C313.422 13.5057 313.724 11.996 313.27 10.6372C312.968 9.7314 312.212 9.12752 311.003 8.82558C310.852 8.82558 310.55 8.82558 310.248 8.82558Z" fill="black"/>
<path d="M334.884 8.37265C332.768 7.91974 330.501 8.97655 329.594 10.7882C328.687 12.5999 329.443 15.0154 331.408 15.9212C333.222 16.978 335.942 16.3741 337 14.7135C338.058 13.0528 338.361 9.27848 334.884 8.37265Z" fill="white"/>
<path d="M333.373 16.978C332.617 16.978 331.71 16.827 331.106 16.3741C328.99 15.1664 328.083 12.5999 329.141 10.4863C330.048 8.52364 332.768 7.31587 335.035 7.76878C336.849 8.2217 337.756 9.42946 338.058 10.3353C338.663 11.996 338.21 13.9586 337.454 15.0154C336.547 16.3741 334.884 16.978 333.373 16.978ZM333.826 8.82558C332.315 8.82558 330.803 9.73142 330.048 10.9392C329.292 12.4489 330.048 14.5625 331.559 15.3173C333.222 16.2232 335.489 15.7703 336.396 14.2605C337 13.5057 337.303 11.996 336.849 10.6372C336.547 9.7314 335.791 9.12752 334.582 8.82558C334.431 8.82558 334.129 8.82558 333.826 8.82558Z" fill="black"/>
<path d="M358.463 8.37265C356.347 7.91974 354.08 8.97655 353.173 10.7882C352.266 12.5999 353.022 15.0154 354.987 15.9212C356.8 16.978 359.521 16.3741 360.579 14.7135C361.637 13.0528 361.939 9.27848 358.463 8.37265Z" fill="#ACD4F7"/>
<path d="M356.952 16.978C356.196 16.978 355.289 16.827 354.533 16.3741C352.417 15.1664 351.51 12.5999 352.568 10.4863C353.475 8.52364 356.196 7.31587 358.463 7.76878C360.277 8.2217 361.184 9.42946 361.486 10.3353C362.091 11.996 361.637 13.9586 360.881 15.0154C360.126 16.3741 358.463 16.978 356.952 16.978ZM357.254 8.82558C355.742 8.82558 354.231 9.73142 353.475 10.9392C352.72 12.4489 353.475 14.5625 354.987 15.3173C356.649 16.2232 358.916 15.7703 359.823 14.2605C360.428 13.5057 360.73 11.996 360.277 10.6372C359.974 9.7314 359.219 9.12752 358.01 8.82558C358.01 8.82558 357.707 8.82558 357.254 8.82558Z" fill="black"/>
</svg>
