<svg width="86" height="36" viewBox="0 0 86 36" fill="none" xmlns="http://www.w3.org/2000/svg">
<path d="M11.334 34.5501C30.8123 34.7009 50.2906 34.8517 69.7689 35.0025C71.7319 35.0025 73.8458 35.0025 75.6577 34.3992C89.8512 29.573 84.2644 18.1107 83.3585 15.8484C81.8485 12.0779 76.8657 11.0221 73.0909 12.3795C69.316 13.7369 66.447 16.9041 63.8801 19.9205C64.9371 13.1336 61.6152 5.74341 55.5754 2.42536C49.5356 -0.89268 41.231 0.313885 36.8521 5.59259C33.3792 9.66473 32.6243 15.2451 32.0203 20.5238C30.5103 16.6025 28.5473 12.832 25.0745 10.4188C21.7526 8.00571 16.6188 7.55325 13.5989 10.4188C10.277 13.5861 10.579 18.8648 11.183 23.5402C9.37109 20.8254 4.99217 20.373 2.42526 22.6353C0.00934099 24.8976 -0.292612 28.9697 1.51932 31.6845C3.48226 34.3992 6.80414 34.5501 11.334 34.5501Z" fill="white"/>
<path d="M70.3728 35.455C70.2218 35.455 69.9198 35.455 69.7688 35.455L11.3339 35.0026C7.25702 35.0026 3.33114 35.0026 1.21721 31.8353C-0.745717 28.6681 -0.292714 24.2943 2.2742 22.032C3.63315 20.8255 5.59608 20.2222 7.55901 20.5238C8.76697 20.6747 9.67294 21.1271 10.5789 21.7304C10.1259 17.2058 10.2769 12.6812 13.2968 9.96642C16.7697 6.7992 22.2055 7.5533 25.5274 9.96642C28.5473 12.0779 30.5102 15.5468 31.8691 18.4123C32.4731 14.0386 33.3791 9.06151 36.55 5.291C41.0799 -0.138523 49.5355 -1.64673 56.0283 1.97296C61.6151 5.14018 65.088 11.6254 64.786 18.2615C67.051 15.8484 69.6179 13.1337 73.0907 11.9271C77.0166 10.5697 82.4524 11.7763 84.1133 15.6976C84.1133 15.8484 84.2643 15.8484 84.2643 15.9992C85.0193 17.9599 87.2842 22.937 85.0193 27.7632C83.6603 30.9304 80.4894 33.3435 75.9596 34.8517C74.1476 35.455 72.1847 35.455 70.3728 35.455ZM6.65308 21.5796C5.29413 21.5796 3.93514 22.032 3.02917 22.937C0.915244 24.8976 0.462296 28.6681 2.12324 31.3829C3.78418 33.796 6.65304 34.0976 11.3339 34.0976L69.7688 34.5501C71.7318 34.5501 73.6947 34.5501 75.5066 33.9468C79.7345 32.4386 82.6034 30.3271 83.8113 27.4616C85.7743 23.0878 83.8114 18.4124 82.9054 16.6025C82.9054 16.4517 82.7544 16.3009 82.7544 16.3009C81.3954 12.832 76.5636 11.9271 73.2417 13.1337C69.4668 14.491 66.7489 17.6583 64.333 20.5238C64.182 20.6747 63.8801 20.8255 63.7291 20.6747C63.4271 20.5238 63.427 20.373 63.427 20.0714C64.333 13.4353 61.0112 6.34674 55.4243 3.17952C49.5356 -0.138526 41.5328 1.21886 37.4559 6.19592C33.9831 10.2681 33.3791 16.1501 32.7751 20.8255C32.7751 21.1271 32.4732 21.2779 32.3222 21.2779C32.0202 21.2779 31.8692 21.1271 31.7182 20.9763C30.5102 17.9599 28.5472 13.5861 25.0744 11.0222C22.0545 8.91068 17.2227 8.3074 14.2028 11.0222C11.1829 13.8877 11.3339 18.714 12.0889 23.5402C12.0889 23.8419 11.9378 23.9927 11.7868 24.1435C11.4849 24.2943 11.3339 24.1435 11.1829 23.9927C10.4279 22.937 9.21992 22.1829 7.70997 22.032C7.10599 21.5796 6.95507 21.5796 6.65308 21.5796Z" fill="black"/>
<g opacity="0.1294">
<path d="M82.6035 27.3108C81.9995 27.3108 81.6975 27.6124 81.2445 28.0649C80.6405 28.5174 80.0365 28.819 79.2816 29.2715C75.3557 31.6846 71.5808 31.2321 64.3331 30.478C59.0482 30.1764 53.7634 30.6288 48.4786 30.1764C45.9117 30.0256 43.3448 29.7239 40.7779 29.8747C37.305 30.0256 33.9832 30.0256 30.5103 30.0256C24.1685 30.1764 15.4108 31.5338 10.7299 30.7797C9.069 30.478 7.40813 30.0256 5.89818 29.5731C4.99222 29.4223 4.08621 28.6682 3.02925 28.819C1.36831 28.9698 1.06635 31.5338 2.87829 31.9862C5.89818 33.1928 9.22005 34.0977 12.3909 34.2485C18.4307 34.3993 24.6215 33.4944 30.6613 33.4944C34.8891 33.4944 38.9659 33.4944 43.1938 33.4944C46.0627 33.6452 48.7807 33.9469 51.6496 34.0977C54.8204 34.2485 57.8404 34.0977 61.0112 34.0977C63.4272 34.0977 65.8431 33.9469 68.259 34.2485C71.1279 34.3993 74.1478 34.3993 76.8657 33.4944C79.2816 32.5895 81.6975 31.2321 83.6605 29.4223C84.4154 28.819 83.6604 27.3108 82.6035 27.3108Z" fill="black"/>
</g>
</svg>
