<svg width="28" height="48" viewBox="0 0 28 48" fill="none" xmlns="http://www.w3.org/2000/svg">
<path d="M1.06317 23.576C1.36693 15.8392 1.36689 12.6534 0.455622 3.85471C3.64506 2.33769 6.98637 1.27577 10.3277 0.668959C11.8465 0.365555 13.669 0.365568 14.7322 1.27578C15.4916 1.88259 15.7953 2.7928 16.251 3.55132C18.8329 9.4677 22.3261 16.446 24.908 22.3624C25.0599 22.8175 24.3005 22.2107 24.1486 22.6658C24.1486 23.4243 27.1861 30.5543 26.7305 31.0094C21.5666 36.6224 5.6195 68.7833 1.06317 23.576Z" fill="white"/>
<path d="M10.6314 48C10.1758 48 9.87208 48 9.41644 47.8483C5.01199 46.6347 2.12633 38.7461 0.607548 23.7276C0.607548 23.7276 0.607548 23.7276 0.607548 23.5759C0.911304 15.8391 0.759389 12.6534 0 4.00633C0 3.70292 0.151896 3.55123 0.303774 3.39953C3.49321 1.8825 6.83448 0.668878 10.3277 0.213771C11.8464 -0.0896333 13.8209 -0.241336 15.1878 0.972282C16.099 1.73079 16.5546 2.64102 16.8584 3.55124C18.0734 6.43358 19.5923 9.77102 21.1111 12.9568C22.6298 16.1425 24.1486 19.3283 25.3636 22.3623C25.5155 22.6657 25.3636 22.9691 25.3636 23.1208C25.2117 23.2725 25.0599 23.4242 24.908 23.4242C25.0599 24.031 25.5155 25.0929 25.8192 25.8515C27.4899 30.4025 27.7937 31.3127 27.1862 31.7678C26.4268 32.678 25.2117 34.1951 23.9967 36.0155C20.3516 41.0217 15.3397 48 10.6314 48ZM1.67062 23.5759C3.03752 37.8359 5.77139 45.7244 9.72022 46.6347C14.1247 47.8483 19.5923 40.1115 23.0854 35.1053C24.3005 33.2849 25.5155 31.7678 26.2748 30.8576C26.2748 30.0991 25.2117 27.6719 24.7561 26.0031C23.9967 23.8793 23.6929 23.1208 23.6929 22.6657C23.6929 22.3623 23.8448 22.2106 23.9967 22.0589L24.1486 21.9072C22.9336 19.1766 21.5667 16.1425 20.0479 13.1085C18.5291 9.92271 17.0104 6.73697 15.7953 3.70293C15.4916 2.94442 15.1878 2.03421 14.4284 1.5791C13.3652 0.820594 11.6946 0.820589 10.3277 1.12399C6.98636 1.5791 3.94879 2.64102 0.91123 4.15804C1.8225 12.8051 1.97437 15.8391 1.67062 23.5759Z" fill="black"/>
</svg>
