<svg width="13" height="22" viewBox="0 0 13 22" fill="none" xmlns="http://www.w3.org/2000/svg">
<path d="M6.29933 17.3176C5.98681 17.3176 5.83061 17.1615 5.67435 16.8494C5.36183 14.5082 5.20553 11.8549 7.39317 9.98192C7.86195 9.66976 8.3307 9.35761 8.64322 9.20153C8.95574 9.04545 9.26826 8.88939 9.42452 8.73331C11.2996 7.48468 12.081 5.29955 11.1434 3.58268C10.2059 1.86582 7.23689 0.773264 4.73674 1.2415C3.3304 1.55366 2.08037 2.33404 1.45533 3.42659C1.14281 3.89483 0.986588 4.67525 1.29911 5.45565C1.45537 5.7678 1.29909 6.07996 0.986569 6.23604C0.67405 6.39212 0.361532 6.23602 0.205272 5.92386C-0.107247 4.98739 -0.107228 3.89485 0.51781 2.95838C1.29911 1.55367 2.86166 0.617214 4.58052 0.148977C7.54945 -0.475338 10.9872 0.929362 12.2373 3.11446C13.4873 5.29957 12.5497 8.10897 10.2058 9.82583C9.8933 9.98191 9.58082 10.138 9.2683 10.4501C8.79952 10.7623 8.48702 10.9184 8.01824 11.2305C6.29939 12.6352 6.45561 14.8204 6.61187 17.0055C6.92439 17.0055 6.76811 17.3176 6.29933 17.3176C6.45559 17.3176 6.45559 17.3176 6.29933 17.3176Z" fill="black"/>
<path d="M6.61184 21.9999C6.29932 21.9999 5.98686 21.8438 5.98686 21.5316L5.83054 19.9708C5.83054 19.6587 5.98679 19.3465 6.2993 19.3465C6.61182 19.3465 6.92438 19.5026 6.92438 19.8148L7.0806 21.3755C7.23686 21.6877 6.92436 21.9999 6.61184 21.9999Z" fill="black"/>
</svg>
