<svg width="85" height="114" viewBox="0 0 85 114" fill="none" xmlns="http://www.w3.org/2000/svg">
<path d="M84.1358 112.944C82.4742 105.249 81.2658 102.382 77.3384 96.1964C67.218 80.5052 48.1855 77.9402 39.4245 79.2981C29.1529 80.9578 18.4283 83.8244 10.7246 92.7262C5.58888 98.4595 2.41682 106.305 0.604203 113.396C27.7935 113.396 55.1339 113.547 84.1358 112.944Z" fill="white"/>
<path d="M33.3824 114C22.3556 114 11.3289 114 0.604198 113.849C0.453146 113.849 0.302067 113.698 0.151015 113.698C-3.68801e-05 113.547 0 113.396 0 113.245C1.20841 108.417 4.07837 99.3648 10.1204 92.4245C18.1262 83.221 29.304 80.5052 39.1224 78.8455C48.7897 77.3368 67.6712 80.656 77.6406 96.0455C81.719 102.382 82.9274 105.4 84.589 112.944C84.589 113.095 84.589 113.245 84.4379 113.396C84.2869 113.547 84.1358 113.547 83.9847 113.547C66.7648 113.849 49.847 114 33.3824 114ZM1.35946 112.793C27.6425 112.944 54.8317 112.944 83.3805 112.491C81.87 105.4 80.6616 102.684 76.7343 96.649C67.0669 81.7122 48.6387 78.5438 39.2734 80.0525C29.6061 81.5613 18.7304 84.2771 11.0268 93.1789C5.43784 99.5157 2.56787 107.965 1.35946 112.793Z" fill="black"/>
<path d="M33.2314 61.6455C33.3824 68.2841 31.5698 82.1648 31.7209 83.5227C31.8719 84.5788 32.3251 85.4841 33.0803 86.2385C35.3461 88.9543 39.1224 90.6139 43.0497 90.7648C46.9771 90.9157 51.0555 89.4069 53.4723 86.842C54.3786 85.7859 55.1338 84.7297 55.436 83.5227C55.8891 81.5613 54.0765 67.9824 53.4723 61.1929C53.3212 60.1368 55.2849 58.9297 47.7323 58.7789C43.956 58.7789 38.2161 59.6841 33.2314 61.6455Z" fill="white"/>
<path d="M43.5029 91.3682C43.3518 91.3682 43.2008 91.3682 43.0497 91.3682C38.9713 91.2174 34.8929 89.4068 32.6271 86.691C31.7208 85.6349 31.2677 84.5787 31.1166 83.6735C31.1166 83.2209 31.2677 81.4103 31.5698 78.2419C32.023 73.4138 32.7782 66.0209 32.6271 61.9472C32.6271 61.6454 32.7782 61.4946 32.9293 61.3437C37.914 59.2314 43.956 58.477 47.5813 58.477C51.9618 58.477 53.1702 58.9297 53.7744 59.684C54.2275 60.1367 54.0765 60.7402 53.9254 61.0419C53.9254 61.1928 53.9254 61.3437 53.9254 61.3437C54.0765 63.3051 54.3786 65.87 54.6807 68.7367C55.587 76.7332 56.1912 82.4665 55.8891 83.8244C55.587 85.0314 54.9828 86.3893 53.7744 87.4454C51.3575 89.7086 47.4302 91.3682 43.5029 91.3682ZM33.8356 61.9472C33.9866 66.3226 33.2313 73.4139 32.7782 78.0911C32.4761 80.656 32.3251 82.9191 32.3251 83.3718C32.4761 84.1261 32.7782 85.0314 33.5335 85.7858C35.6482 88.3507 39.2734 90.0103 43.0497 90.0103C46.826 90.1612 50.7533 88.6524 53.0191 86.2384C53.9254 85.1823 54.6807 84.1261 54.8318 83.07C55.1339 81.863 54.2276 74.3191 53.6234 68.2841C53.3213 65.5683 53.0192 63.0033 52.8681 60.891C52.8681 60.5893 52.8681 60.4384 53.0191 60.1367C53.0191 59.8349 53.1702 59.8349 53.0191 59.684C52.8681 59.5332 52.1128 59.0805 47.7323 58.9297C44.2581 59.3823 38.6692 60.1367 33.8356 61.9472Z" fill="black"/>
<path d="M45.7687 12.6103C38.5182 11.4033 31.1166 15.3261 26.7361 21.2103C22.3556 27.0945 20.8451 34.6384 20.8451 41.8805C20.8451 64.663 33.5335 70.0945 44.1071 70.0945C69.9369 70.0945 69.1817 36.298 65.7075 27.3963C62.8375 20.1542 56.7954 14.4208 45.7687 12.6103Z" fill="white"/>
<path d="M44.1071 70.5472C39.5755 70.5472 33.2314 69.491 28.2466 64.8138C23.1109 59.9858 20.392 52.1402 20.392 41.7296C20.392 33.2805 22.5067 26.0384 26.4341 20.7577C31.1167 14.27 38.9713 10.7998 45.9197 12.0068C58.6081 14.1191 63.8949 21.3612 66.1606 27.0945C68.5775 33.4314 69.4838 50.9332 62.2333 61.4946C58.1549 67.5296 51.9618 70.5472 44.1071 70.5472ZM43.2008 12.9121C37.3097 12.9121 31.2677 16.0805 27.3403 21.5121C22.5067 27.9998 21.4493 36.1472 21.4493 41.8805C21.4493 51.9893 24.0172 59.5331 29.0019 64.0594C33.8356 68.4349 39.8776 69.491 44.1071 69.491C51.6597 69.491 57.3996 66.6243 61.327 60.891C68.2753 50.6314 67.5201 33.7332 65.1033 27.5472C62.0822 19.8525 55.436 14.8735 45.7687 13.2139C44.8623 13.063 43.956 12.9121 43.2008 12.9121Z" fill="black"/>
<path d="M38.2161 62.7017C34.1377 62.4 30.0593 62.0982 26.283 60.8912C21.9025 59.5333 18.5793 57.1193 16.7667 54.1017C14.652 50.6316 14.8031 46.7088 15.1052 42.9368C15.2562 40.3719 15.2562 37.6561 14.803 35.2421C14.803 34.9403 14.9541 34.6386 15.2562 34.4877C15.5583 34.4877 15.8604 34.6386 16.0114 34.9404C16.6157 37.5053 16.4646 40.221 16.4646 42.9368C16.3136 46.7088 16.1625 50.3298 17.9751 53.4982C19.6367 56.214 22.8088 58.4772 26.8872 59.6842C30.6635 60.8912 34.5908 61.193 38.5182 61.4947C38.8203 61.4947 39.1224 61.7965 38.9713 62.0982C38.6692 62.4 38.5182 62.7017 38.2161 62.7017Z" fill="black"/>
<path d="M46.826 60.5895C44.5603 60.1369 42.1434 59.986 39.7266 60.2878C38.8203 60.4386 37.7629 60.7404 37.3098 61.4948C36.8566 62.2492 37.3098 63.1544 38.065 63.758C38.8203 64.2106 39.7266 64.5123 40.784 64.5123C42.8987 64.8141 45.1644 64.6632 46.9771 63.6071C47.4302 63.3053 47.8834 63.0035 48.0344 62.5509C48.1855 62.0983 48.3366 61.193 46.826 60.5895Z" fill="white"/>
<path d="M42.5966 65.4175C41.9924 65.4175 41.3882 65.4176 40.784 65.2667C39.8777 65.1158 38.6692 64.9649 37.9139 64.3614C36.8566 63.607 36.4035 62.4 37.0077 61.3439C37.4608 60.5895 38.3671 59.986 39.8776 59.8351C42.2945 59.5333 44.7113 59.5333 47.1281 60.1368C49.2428 60.8912 48.7897 62.4 48.6386 62.8526C48.4876 63.4561 48.0344 63.9088 47.2792 64.2105C46.0708 64.9649 44.4092 65.4175 42.5966 65.4175ZM42.7476 60.7404C41.8413 60.7404 40.784 60.7403 39.8776 60.8912C38.8203 61.0421 38.065 61.3438 37.9139 61.7965C37.6118 62.2491 38.065 63.0035 38.5182 63.3052C39.1224 63.7579 40.0287 63.9088 40.935 64.0596C43.3518 64.3614 45.3155 64.0596 46.826 63.3052C47.4302 63.0035 47.5813 62.7017 47.5813 62.5509C47.7323 61.9474 47.8834 61.4947 46.826 61.193C45.4666 60.8912 44.1071 60.7404 42.7476 60.7404Z" fill="black"/>
<path d="M34.7419 2.9543C23.7151 5.97184 16.0114 23.7754 15.4072 35.6946C15.1051 40.221 30.3613 33.8841 37.3097 24.228C36.7055 29.6596 35.7992 31.3192 36.2524 32.6771C41.9924 31.0175 52.5659 25.435 55.4359 20.0034C56.4933 33.5824 72.6558 39.7683 73.109 35.242C74.0153 27.3964 73.26 19.0982 68.8795 12.4596C64.6501 5.82099 54.2275 -2.47727 34.7419 2.9543Z" fill="#ACD4F7"/>
<path d="M17.2199 37.807C16.7667 37.807 16.3135 37.8069 16.0114 37.6561C15.1051 37.3543 14.652 36.5999 14.803 35.6947C15.5583 24.228 22.9598 5.67013 34.5908 2.35084C56.1912 -3.68425 66.3117 7.02802 69.4838 12.007C73.4111 17.8912 74.9216 25.7368 73.8643 35.0912C73.7132 36.4491 72.6559 37.0526 70.9943 37.0526H70.8432C68.1243 37.0526 64.348 35.0912 61.327 32.5263C58.0038 29.5087 55.8891 25.5859 55.1339 21.5122C51.3576 26.6421 41.9923 31.4701 36.4034 33.1298C36.1013 33.2806 35.7992 33.1298 35.6482 32.828C35.3461 31.9228 35.4971 31.0175 35.7992 29.2069C35.9503 28.4526 36.1013 27.3964 36.2524 26.1894C30.6635 32.9789 21.4493 37.807 17.2199 37.807ZM46.675 1.74734C43.2008 1.74734 39.2734 2.19994 34.8929 3.55784C24.1682 6.57538 16.6157 24.3789 15.8604 35.8456C15.8604 36.2982 16.0115 36.4491 16.3136 36.6C19.1835 37.6561 30.6635 32.2245 36.7055 23.9262C36.8566 23.7754 37.1587 23.6245 37.3097 23.7754C37.6118 23.9263 37.7629 24.0771 37.6119 24.3789C37.3098 26.6421 37.0077 28.3017 36.8566 29.5087C36.7055 30.7157 36.5545 31.4701 36.5545 31.9228C42.5965 29.9614 52.2639 24.5298 54.8317 19.7017C54.9828 19.5508 55.1338 19.3999 55.4359 19.3999C55.738 19.3999 55.8891 19.7017 55.8891 19.8526C56.6444 30.414 66.6138 35.9964 70.6922 35.9964C71.4474 35.9964 72.5048 35.8456 72.5048 34.9403C73.5622 25.7368 72.2027 18.1929 68.4264 12.6105C66.0096 8.98941 59.5144 1.74734 46.675 1.74734Z" fill="black"/>
<path d="M15.7094 25.7368C16.1625 16.9859 22.0535 8.23505 29.9082 4.31225C37.7629 0.389443 47.2792 -0.364933 55.587 2.19998C68.2753 5.9719 72.2027 15.1754 74.9216 22.7193C75.5258 24.5298 75.8279 27.2456 73.8643 27.8491C72.0516 28.4526 70.3901 26.3403 69.7858 24.3789C66.1606 14.1193 60.2696 6.5754 45.3155 6.5754C32.174 6.5754 23.8661 13.214 21.6004 23.4737C21.2983 24.8315 21.1472 26.1894 20.543 27.2456C19.9388 28.4526 18.5794 29.3578 17.3709 29.207C16.0115 29.0561 15.7094 27.2456 15.7094 25.7368Z" fill="white"/>
<path d="M17.8241 29.9613C17.673 29.9613 17.522 29.9613 17.371 29.9613C15.7094 29.6596 15.1051 27.5473 15.2562 25.7368C15.7093 16.9859 21.6004 7.93328 29.7572 3.70872C37.6119 -0.214081 47.2792 -1.11934 55.8891 1.44557C69.6349 5.67013 73.5622 16.5333 75.5259 22.2666C75.979 23.6245 76.2811 25.5859 75.6769 26.9438C75.3748 27.5473 74.7706 28 74.1664 28.3017C72.0516 29.0561 70.239 26.7929 69.3327 24.5298C66.3117 15.9298 61.1759 7.17892 45.4665 7.17892C33.0803 7.17892 24.6214 13.214 22.3556 23.7754C22.3556 24.0772 22.2046 24.3789 22.2046 24.5298C22.0535 25.5859 21.7514 26.642 21.2983 27.6982C20.543 28.7543 19.1836 29.9613 17.8241 29.9613ZM16.3136 25.7368C16.3136 27.0947 16.6157 28.6035 17.522 28.7543C18.5793 28.9052 19.6367 27.9999 20.0899 27.0947C20.543 26.1894 20.6941 25.2842 20.9962 24.228C20.9962 23.9263 21.1472 23.6245 21.1472 23.4736C23.5641 12.4596 32.3251 6.12277 45.3155 6.12277C61.7802 6.12277 67.218 15.3263 70.2391 24.228C70.6922 25.7368 72.0516 27.6982 73.5622 27.2456C74.0153 27.0947 74.1664 26.9438 74.4685 26.4912C74.9216 25.435 74.6195 23.9263 74.3174 22.7192C71.5985 14.8736 67.6712 6.27366 55.436 2.65261C47.1281 0.0877009 37.7629 0.992954 30.2104 4.76488C22.3557 8.68769 16.7667 17.2877 16.3136 25.7368Z" fill="black"/>
<path d="M14.0478 24.9824C11.1778 26.9438 8.91205 29.8104 8.00574 33.1297C6.94838 36.449 6.79731 40.3718 7.70362 43.6911C8.30782 46.1052 12.0841 52.8947 17.2199 51.5368C21.4494 50.4806 20.2409 44.5964 20.392 42.3332C20.5431 39.4666 20.8451 36.4491 20.9962 33.5824C21.1472 32.6771 20.392 21.3613 14.0478 24.9824Z" fill="white"/>
<path d="M15.8605 52.2911C11.0268 52.2911 7.70363 46.256 7.09942 43.8419C6.19311 40.5226 6.34418 36.5998 7.40155 32.9788C8.45891 29.5086 10.7247 26.4911 13.7457 24.5297C15.4073 23.6244 16.9178 23.4735 18.2772 24.3788C21.2983 26.3402 21.7515 32.9788 21.7515 33.7332L21.1473 42.4841C21.1473 42.9367 21.1473 43.3893 21.1473 43.9928C21.2983 46.7086 21.4493 51.2349 17.522 52.1402C16.9178 52.1402 16.3136 52.2911 15.8605 52.2911ZM14.3499 25.4349C11.631 27.2454 9.51625 30.1121 8.60994 33.2805C7.55258 36.5998 7.55261 40.3718 8.30787 43.5402C8.76102 45.3507 11.782 51.2349 16.0115 51.2349C16.4646 51.2349 16.7668 51.2349 17.2199 51.084C19.9388 50.3296 20.0899 47.3121 19.9388 43.9928C19.9388 43.3893 19.9388 42.7858 19.9388 42.3332L20.543 33.5823C20.543 32.9788 20.2409 26.7928 17.673 25.2841C16.6157 24.6806 15.5583 24.6805 14.3499 25.4349Z" fill="black"/>
<path d="M73.7132 24.9824C76.5832 26.9438 78.849 29.8104 79.7553 33.1297C80.8127 36.449 80.9637 40.3718 80.0574 43.6911C79.4532 46.1052 75.6769 52.8947 70.5411 51.5368C66.3117 50.4806 67.5201 44.5964 67.369 42.3332C67.218 39.4666 66.9159 36.4491 66.7648 33.5824C66.6138 32.6771 67.218 21.3613 73.7132 24.9824Z" fill="white"/>
<path d="M71.7496 52.2912C71.2964 52.2912 70.8433 52.2912 70.239 52.1403C66.3117 51.0842 66.4627 46.5579 66.6138 43.993C66.6138 43.3895 66.6138 42.9368 66.6138 42.4842L66.0096 33.7333C66.0096 32.9789 66.3117 26.3403 69.4838 24.3789C70.6922 23.6246 72.2027 23.6246 74.0153 24.5298C77.0364 26.4912 79.3021 29.6596 80.3595 32.9789C81.4168 36.6 81.5679 40.5228 80.6616 43.8421C79.9063 46.1052 76.5832 52.2912 71.7496 52.2912ZM71.2964 24.8316C70.8432 24.8316 70.3901 24.9824 69.9369 25.1333C67.369 26.793 67.0669 32.8281 67.0669 33.4316L67.6711 42.1824C67.6711 42.635 67.6711 43.2386 67.6711 43.8421C67.5201 47.1614 67.6711 50.1789 70.3901 50.9333C75.3748 52.1403 78.6979 45.5017 79.3021 43.3895C80.2085 40.221 80.0574 36.6 79 33.1298C78.0937 29.9614 75.979 27.0947 73.2601 25.2842C72.6559 24.9825 71.9006 24.8316 71.2964 24.8316Z" fill="black"/>
<path d="M15.8604 48.8208C15.7094 48.8208 15.7094 48.67 15.7094 48.5191C17.673 41.4279 17.522 33.884 15.5583 26.6419C15.5583 26.4911 15.5583 26.491 15.7094 26.3402C15.8604 26.3402 15.8604 26.3402 16.0115 26.491C18.1262 33.7331 18.1262 41.277 16.1625 48.5191C16.0115 48.8209 16.0115 48.8208 15.8604 48.8208Z" fill="black"/>
<path d="M72.3538 48.9718C72.2027 48.9718 72.2027 48.9718 72.2027 48.821C70.239 41.7297 70.9943 33.8841 71.5985 27.0947C71.5985 26.9438 71.7496 26.9438 71.7496 26.9438C71.9006 26.9438 71.9006 27.0947 71.9006 27.0947C71.2964 34.1859 70.5412 41.7298 72.5048 48.6701C72.5048 48.821 72.5048 48.9718 72.3538 48.9718Z" fill="black"/>
<g opacity="0.1294">
<path d="M50.9044 68.2842C50.7534 68.2842 50.7534 68.435 50.6023 68.435C50.6023 68.435 50.6023 68.435 50.4513 68.435C48.0345 69.1894 47.7324 69.1894 45.3155 69.1894C42.4455 69.1894 39.4245 68.7368 38.6692 68.435C37.7629 68.1333 36.8566 67.228 35.7992 67.5298C34.2887 67.8315 34.1377 69.9438 35.3461 70.6982C36.8566 71.6034 38.6692 72.207 40.4819 72.3578C43.3518 72.6596 46.2218 72.6596 49.0918 72.2069C51.2065 71.7543 53.3213 71.3017 53.3213 69.6421C53.4723 68.2842 51.8107 67.5298 50.9044 68.2842Z" fill="black"/>
</g>
<g opacity="0.1294">
<path d="M77.6406 44.5963C76.2811 46.1051 75.5258 47.0103 74.1663 47.6139C73.8642 47.7647 72.6558 48.2173 71.1453 48.0665C70.9943 48.0665 70.6921 47.9156 70.39 47.9156C69.9369 47.7647 70.0879 47.463 69.0306 47.0104C67.369 46.5577 66.3117 48.8209 67.8222 49.7261C69.3327 51.084 71.4474 51.2349 73.2601 50.7823C74.9216 50.4805 76.4321 49.5753 77.4895 48.5191C78.0937 47.9156 78.849 47.3121 79.3021 46.5577C79.6042 46.2559 79.7553 45.9542 79.7553 45.5016C80.0574 44.2946 78.3958 43.691 77.6406 44.5963Z" fill="black"/>
</g>
<g opacity="0.1294">
<path d="M20.0899 47.7647C19.7878 47.0103 19.0325 46.7085 18.4283 46.8594C17.3709 47.312 17.9751 47.3121 17.0688 47.7647C16.6157 47.9156 16.3136 48.0664 15.8604 48.0664H15.7094C15.5583 48.0664 14.652 48.2173 14.3499 48.0664C13.1415 48.0664 12.9904 47.9155 11.782 47.312C11.1778 47.0103 10.5736 46.5577 9.96937 46.4068C8.6099 46.105 7.85468 48.2173 9.0631 48.8208C11.631 50.3296 14.803 51.5366 17.8241 50.4805C18.8814 50.1787 20.6941 49.2735 20.0899 47.7647Z" fill="black"/>
</g>
<g opacity="0.1294">
<path d="M46.8261 62.249C46.524 62.0981 46.0708 62.249 45.7687 62.3998C44.4092 62.7016 44.7113 62.7016 43.5029 62.7016C42.1434 62.7016 40.935 62.5507 39.5755 62.3998C39.1224 62.3998 38.8203 62.249 38.3671 62.3998C37.1587 62.8525 37.4608 64.8139 38.8203 64.8139C41.3882 65.1156 44.1071 65.5683 46.675 64.663C48.0345 64.3613 48.0345 62.5508 46.8261 62.249Z" fill="black"/>
</g>
<path d="M43.2007 95.7438C36.4034 95.7438 29.6061 91.6702 26.434 85.7859C26.434 85.6351 26.434 85.6351 26.5851 85.4842C26.7361 85.4842 26.7361 85.4842 26.8872 85.6351C30.0593 91.5193 36.7055 95.4421 43.3518 95.4421C49.9981 95.4421 56.6443 91.3684 59.8164 85.4842C59.8164 85.3333 59.9675 85.3333 60.1186 85.3333C60.2696 85.3333 60.2696 85.4842 60.2696 85.6351C56.7954 91.6702 49.9981 95.7438 43.2007 95.7438Z" fill="black"/>
</svg>
