<svg width="89" height="81" viewBox="0 0 89 81" fill="none" xmlns="http://www.w3.org/2000/svg">
<path d="M83.1633 51.3588C89.7023 44.5236 88.6378 33.8911 87.4213 24.9294C86.5089 18.5499 85.9005 11.4109 80.7302 7.00602C74.6474 1.84165 61.8737 0.930282 53.5099 0.474602C43.1692 0.0189223 32.6764 0.474593 22.4878 1.84163C17.1653 2.6011 11.3867 3.66435 7.58501 7.1579C4.39156 10.0439 2.87085 14.145 1.95844 18.2461C0.133606 26.4483 0.133616 35.1063 2.11051 43.4604C2.71879 46.3464 3.78328 49.2323 6.06432 51.2069C8.49742 53.4853 12.6033 56.6751 15.9488 57.2827C23.4002 58.6497 30.6995 56.9789 38.303 57.2827C43.9295 57.5865 49.8602 57.5865 54.2702 60.6243C59.5926 64.1179 62.1778 76.8769 67.9564 79.9148C69.7813 75.8137 66.5878 64.8773 68.2606 60.7762C70.0854 55.6118 78.7533 55.9156 83.1633 51.3588Z" fill="white"/>
<path d="M67.8043 80.5224C67.6523 80.5224 67.6523 80.5224 67.5003 80.5224C64.4589 78.8516 62.1778 74.5986 60.0488 70.3456C58.224 66.7001 56.2472 62.9028 53.814 61.232C49.7082 58.4979 44.2336 58.1941 38.9112 58.0422H38.1509C35.1095 57.8903 32.0682 58.0422 29.1788 58.1941C24.7688 58.4979 20.3589 58.6498 15.7968 57.8903C13.0595 57.4346 9.56194 55.3081 5.60814 51.8146C3.17504 49.6881 2.2626 46.4983 1.50226 43.7642C-0.474641 35.4101 -0.47465 26.6003 1.35018 18.3981C2.11052 14.7526 3.63124 10.1958 7.12883 7.00608C11.0826 3.51253 16.7092 2.29738 22.3357 1.53791C32.6764 0.170872 43.1692 -0.284798 53.5099 0.170881C63.2423 0.626561 75.1037 1.68982 81.0344 6.7023C85.9006 10.9553 86.813 17.4867 87.7254 23.4106C87.8775 24.0181 87.8775 24.4738 88.0296 25.0814C89.3982 34.4987 90.3106 44.9794 83.6195 51.9665C81.4906 54.093 78.6013 55.1562 75.8641 56.2195C72.6706 57.4346 69.6292 58.4979 68.5647 61.232C67.8043 63.2066 68.1085 66.852 68.5647 70.3456C68.8688 74.4467 69.3251 78.244 68.2606 80.3705C68.2606 80.5224 68.1085 80.6743 67.9564 80.6743C67.8044 80.5224 67.8043 80.5224 67.8043 80.5224ZM35.7178 56.6752C36.4781 56.6752 37.2384 56.6752 38.1509 56.6752H38.9112C44.3857 56.979 50.0123 57.1308 54.4223 60.0168C57.0074 61.8395 58.9843 65.485 60.9612 69.5861C62.9381 73.3834 64.915 77.1807 67.3481 79.0035C67.9564 76.877 67.6523 73.5353 67.3481 70.0418C67.044 66.2444 66.5878 62.599 67.5003 60.3206C68.7168 57.2827 71.9102 56.0676 75.4078 54.7005C78.145 53.6373 80.8823 52.7259 82.7072 50.7513C88.942 44.2199 88.0295 33.8912 86.813 24.9295C86.6609 24.3219 86.661 23.8662 86.5089 23.2587C85.5965 17.3348 84.8361 11.1072 80.274 7.30986C74.6475 2.44928 62.9382 1.38603 53.5099 0.930348C43.1692 0.474668 32.8285 0.930338 22.4878 2.29738C17.0133 3.05684 11.5388 4.12011 7.88918 7.46176C4.54366 10.4996 3.17503 14.7526 2.41468 18.2462C0.589852 26.4484 0.589861 34.9544 2.56676 43.1567C3.17504 45.7389 4.08739 48.6248 6.21636 50.5994C10.0181 53.9411 13.3636 56.0676 15.9488 56.5233C20.3588 57.2827 24.6167 56.979 29.0267 56.8271C31.1557 56.8271 33.4368 56.6752 35.7178 56.6752Z" fill="black"/>
<path d="M19.7506 39.8149C19.5985 39.8149 19.2944 39.663 19.2944 39.5111C19.1423 39.3592 19.2944 39.0554 19.2944 38.9036C21.1192 36.777 22.944 34.4986 24.4647 32.0684C25.5291 30.5494 26.5937 28.8786 27.0499 26.904C27.6581 24.9294 27.506 22.9547 26.7457 21.5877C26.4416 21.132 26.2895 20.8283 25.9854 20.6764C25.225 20.2207 24.1606 20.2207 23.4003 20.3726C22.6399 20.5245 21.5754 20.6764 21.2713 21.4358C20.663 22.1953 20.9671 23.4104 22.0316 25.0813C22.1837 25.385 22.1837 25.6888 21.8796 25.8407C21.5754 25.9926 21.2713 25.9926 21.1192 25.6888C20.2068 24.3218 19.2944 22.3472 20.3589 20.6764C21.1192 19.6131 22.3357 19.3093 23.2481 19.1574C24.3126 19.0055 25.6812 18.8536 26.7457 19.6131C27.2019 19.9169 27.5061 20.3726 27.8102 20.9801C28.7226 22.8029 28.8747 24.9294 28.2664 27.2078C27.6581 29.1824 26.5937 31.0051 25.3771 32.6759C24.0085 34.6505 22.4878 36.6252 20.8151 38.5998L29.483 38.4479C29.7872 38.4479 30.0912 38.7516 30.0912 39.0554C30.0912 39.3592 29.7872 39.663 29.483 39.663L19.7506 39.8149Z" fill="black"/>
<path d="M40.8882 31.7647C38.6072 31.4609 36.3261 31.309 34.0451 31.4609C33.893 31.4609 33.7409 31.4609 33.5888 31.309C33.4367 31.1571 33.4368 31.0052 33.4368 30.8533C34.5013 27.2078 34.8054 23.4105 34.5013 19.6132C34.5013 19.3094 34.6533 19.0056 34.9575 19.0056C35.2616 19.0056 35.5658 19.1575 35.5658 19.4613C35.8699 23.1067 35.7178 26.9041 34.6533 30.3976C36.7823 30.3976 38.7592 30.3976 40.8882 30.7014C41.1923 30.7014 41.3444 31.0052 41.3444 31.309C41.4964 31.6128 41.1923 31.7647 40.8882 31.7647Z" fill="black"/>
<path d="M41.1922 39.8147C40.8881 39.8147 40.584 39.511 40.584 39.2072L40.4319 24.3216C40.4319 24.0179 40.7361 23.7141 41.0402 23.7141C41.3443 23.7141 41.6485 24.0179 41.6485 24.3216L41.8005 39.2072C41.8005 39.6629 41.6484 39.8147 41.1922 39.8147Z" fill="black"/>
<path d="M48.1875 45.5868C47.7313 45.4349 47.5792 45.1311 47.5792 44.8273C49.8602 35.7137 52.2933 26.6001 54.7264 17.4866C54.8785 17.1828 55.1826 17.0309 55.4868 17.0309C55.7909 17.1828 55.943 17.4865 55.943 17.7903C53.5098 26.752 51.0767 36.0175 48.7957 44.9792C48.6436 45.4349 48.4916 45.5868 48.1875 45.5868Z" fill="black"/>
<path d="M62.7861 40.2705C62.4819 40.2705 62.1779 39.9667 62.1779 39.663C62.1779 33.1315 64.3068 26.4482 67.9565 20.9801L60.2009 20.8282C59.8967 20.8282 59.5927 20.5244 59.5927 20.2206C59.5927 19.9168 59.8967 19.613 60.2009 19.613L69.021 19.7649C69.173 19.7649 69.4772 19.9168 69.4772 20.0687C69.6292 20.2206 69.6292 20.5244 69.4772 20.6763C65.5234 26.1445 63.3944 32.8278 63.3944 39.663C63.3944 40.1186 63.0902 40.2705 62.7861 40.2705Z" fill="black"/>
<path d="M68.7168 31.3088C66.1316 31.0051 63.3944 30.8532 60.8092 31.1569C60.5051 31.1569 60.2009 31.005 60.2009 30.7013C60.2009 30.3975 60.353 30.0937 60.6572 30.0937C63.3944 29.7899 65.9796 29.7899 68.7168 30.2456C69.0209 30.2456 69.173 30.5494 69.173 30.8532C69.3251 31.0051 69.0209 31.3088 68.7168 31.3088Z" fill="black"/>
<g opacity="0.1294">
<path d="M4.84779 47.4096C5.15193 47.5615 5.304 48.0172 5.60814 48.3209C5.60814 48.3209 5.6081 48.4728 5.76017 48.4728C6.06431 48.9285 6.5205 49.3842 6.97671 49.688C7.43291 50.1437 8.04124 50.4475 8.64952 50.7512C8.80159 50.7512 8.80161 50.9031 8.95368 50.9031C8.49747 50.4474 8.9536 50.9031 9.25774 51.055C9.86602 51.5107 10.4743 52.1183 11.0826 52.574C11.0826 52.574 11.2347 52.5739 11.2347 52.7258C13.5157 54.0929 13.8198 53.941 16.405 54.3967C18.0778 54.8524 20.8151 54.5486 23.4002 54.5486C25.2251 54.5486 26.4416 54.0929 28.8747 54.0929C30.3954 53.941 31.764 54.0929 33.2847 54.0929C34.9575 54.0929 36.7823 53.941 38.455 53.941C41.8005 54.2448 45.1461 54.8524 48.3395 55.6118C49.7081 55.9156 50.9247 56.3713 52.1412 56.827C52.5974 56.9789 53.2058 57.1308 53.5099 57.5864C54.1182 58.4978 53.2057 59.7129 52.1412 59.4092C49.7081 58.4978 47.123 57.8902 44.5378 57.2826C41.9526 56.6751 41.0402 56.6751 38.455 56.3713C36.6302 56.3713 34.9574 56.5232 33.1326 56.5232C30.5474 56.5232 26.8978 56.6751 25.3771 56.827C24.3126 56.9789 23.0961 56.9789 22.0316 56.9789C20.9671 56.9789 19.7505 57.1308 18.686 57.1308C15.3405 56.9789 11.843 56.0675 9.10571 53.941C7.58502 52.5739 6.82466 52.4221 4.99983 50.7512C4.23948 49.9918 3.47916 49.3842 3.17503 48.3209C3.02296 47.7134 4.08745 46.9539 4.84779 47.4096Z" fill="black"/>
</g>
<g opacity="0.1294">
<path d="M5.60816 48.321C5.76023 48.4729 5.76023 48.4729 5.60816 48.321V48.321Z" fill="black"/>
</g>
</svg>
