<svg width="66" height="63" viewBox="0 0 66 63" fill="none" xmlns="http://www.w3.org/2000/svg">
<path d="M4.38238 19.6224C6.80024 20.5281 12.996 20.679 15.565 17.5093C19.1918 13.132 18.2851 7.99994 17.0762 5.28299C19.9474 3.92452 25.3875 2.41511 30.8277 0.905697C30.5255 2.11323 33.0945 6.49052 36.419 8.30182C44.2771 12.3772 49.5661 7.54713 51.2284 5.58489C54.8552 9.20749 58.1797 13.1319 61.0509 17.2074C57.5753 19.7734 55.7619 24.3016 56.6686 28.528C57.5753 32.7543 61.2021 36.226 65.4334 37.2826C64.0733 41.8108 62.2599 46.0372 59.9932 49.8107C57.122 48.6032 53.9485 47.3957 51.0773 48.3013C48.8106 49.056 47.1483 51.1692 46.2416 53.4333C45.3349 55.6974 45.1838 58.1125 44.8815 60.8295C40.4992 61.7351 36.1168 62.3389 31.5833 62.3389C31.4322 59.6219 30.2233 56.905 28.1076 55.0937C27.0498 54.0371 25.6898 53.2824 24.1786 53.1315C22.8186 52.9805 21.4585 53.4333 20.0985 53.8862C18.134 54.6409 16.0184 55.6975 14.8094 57.6597C11.4849 55.0937 8.46252 52.3767 5.89354 49.056C8.3114 47.0938 9.97368 44.2259 10.427 41.2071C10.5781 40.1505 10.7293 39.0939 10.427 38.1883C9.82256 36.377 8.16032 35.3204 6.49805 34.4147C4.68465 33.5091 2.56903 32.9053 0.453399 32.6034C1.3601 28.2261 2.56899 23.8488 4.38238 19.6224Z" fill="white"/>
<path d="M31.5833 62.9426C31.281 62.9426 30.9788 62.6407 30.9788 62.3389C30.8277 59.7728 29.6188 57.2068 27.8054 55.3955C27.0498 54.6408 25.6898 53.7352 24.3297 53.5842C22.9697 53.4333 21.7607 53.8861 20.5518 54.3389C18.5873 55.0936 16.6228 55.9993 15.4139 57.8106C15.2628 57.9615 15.2627 57.9615 14.9605 58.1125C14.8094 58.1125 14.6583 58.1125 14.5072 57.9615C10.7293 55.0936 7.85805 52.2258 5.44019 49.2069C5.28908 48.905 5.28908 48.6032 5.59132 48.4522C7.85806 46.6409 9.52033 43.773 9.97368 40.9051C10.1248 39.6976 10.1248 38.9429 9.97368 38.1882C9.52033 36.8297 8.31141 35.7731 6.3469 34.8675C4.5335 33.9618 2.569 33.3581 0.453376 33.0562C0.30226 33.0562 0.151125 32.9053 0.151125 32.7543C9.22115e-06 32.6034 0 32.4524 0 32.3015C0.755581 27.9242 1.96451 23.3959 3.7779 19.0186C3.92902 18.7168 4.23125 18.5658 4.53348 18.7167C6.95134 19.6224 12.6938 19.6224 15.1116 16.7545C19.0406 12.0753 17.2272 6.64142 16.4717 5.132C16.3205 4.83012 16.4717 4.52823 16.7739 4.37729C19.0406 3.3207 22.8186 2.26414 26.7476 1.05661C27.9565 0.754726 29.3166 0.301883 30.5255 0C30.6766 0 30.9788 9.21049e-06 31.1299 0.150951C31.2811 0.301892 31.2811 0.452824 31.2811 0.754707C30.9788 1.50941 33.2456 5.73578 36.5701 7.54707C44.4282 11.4716 49.2639 6.49051 50.6239 4.9811C50.775 4.83015 50.9262 4.83015 51.0773 4.83015C51.2284 4.83015 51.3795 4.83015 51.5306 4.9811C55.3085 8.90557 58.6331 12.6791 61.5043 16.7545C61.6554 17.0564 61.6554 17.3583 61.3532 17.5092C58.0286 19.9243 56.3663 24.3016 57.273 28.2261C58.1797 32.1505 61.5043 35.4713 65.5844 36.6788C65.7355 36.6788 65.8867 36.8297 65.8867 36.9807C66.0378 37.1316 66.0378 37.2826 65.8867 37.4335C64.5266 41.9618 62.7132 46.339 60.4465 50.1126C60.2954 50.4145 59.9931 50.4144 59.6909 50.4144C56.6686 49.056 53.7974 47.9994 51.0773 48.905C49.1128 49.5088 47.4505 51.3201 46.5438 53.7352C45.7882 55.5465 45.6371 57.5087 45.3349 59.6219C45.3349 60.0747 45.1837 60.5275 45.1837 60.9803C45.1837 61.2822 45.0326 61.4332 44.7304 61.4332C40.348 62.3388 35.9656 62.7917 31.5833 62.9426ZM23.7253 52.5277C23.8764 52.5277 24.0275 52.5277 24.3297 52.5277C25.6898 52.6786 27.2009 53.4333 28.5609 54.6408C30.5255 56.4521 31.8855 59.0181 32.0366 61.735C35.9657 61.5841 40.0458 61.1313 44.2771 60.2256C44.2771 59.9238 44.277 59.6219 44.4281 59.32C44.7304 57.2068 44.8815 55.0937 45.6371 53.1314C46.6949 50.4145 48.5083 48.4522 50.775 47.6975C53.6463 46.6409 56.8197 47.6975 59.6909 49.056C61.6554 45.5843 63.4688 41.6598 64.6777 37.5844C60.4465 36.2259 56.9708 32.6033 56.0641 28.5279C55.1574 24.3016 56.8197 19.6224 60.1443 16.9055C57.5753 13.2829 54.553 9.66026 51.0773 6.18861C49.415 7.99991 43.9748 12.6791 35.9657 8.60368C32.9434 7.09427 30.3743 3.47165 30.0721 1.50941C29.0143 1.8113 27.9565 2.11319 27.0498 2.41507C23.423 3.47166 19.9474 4.52825 17.6806 5.4339C18.4362 7.54708 19.9473 12.981 15.8672 17.8111C13.2982 20.8299 7.40469 20.9809 4.53348 20.2261C3.02232 24.1506 1.81342 28.2261 1.20896 32.1506C3.17347 32.4524 5.13795 33.0562 6.80023 33.9618C9.06697 35.0184 10.427 36.3769 11.0315 38.0373C11.3337 38.9429 11.3337 39.9995 11.1826 41.358C10.5781 44.3768 9.06697 47.0937 6.80023 49.2069C8.91585 51.7729 11.4849 54.3389 14.8094 56.905C16.1695 55.0937 18.134 54.188 20.0985 53.4333C21.1563 52.9804 22.3652 52.5277 23.7253 52.5277Z" fill="black"/>
<path d="M43.0681 19.9243C40.1969 18.113 36.5701 17.3583 33.8501 17.6602C29.1655 18.113 25.5387 20.5281 23.1208 24.6035C20.703 28.6789 20.2496 33.9618 22.2141 38.3392C24.1786 42.7165 28.4099 45.8863 33.2456 46.49C37.1746 46.9429 41.2548 45.5844 44.2771 43.0183C47.2994 40.4523 48.5083 36.5279 48.9617 32.6034C49.1128 30.4902 48.3572 23.245 43.0681 19.9243ZM37.628 40.7542C33.8501 41.9618 29.3166 40.6033 26.8987 37.4335C26.1432 36.5279 25.6898 35.3204 25.5387 34.2638C25.3875 33.0562 25.5387 31.8487 25.8409 30.7921C26.5965 27.9242 28.1077 25.3582 30.5255 23.6979C32.9434 22.0375 36.2679 21.7356 38.8369 23.0941C42.0104 24.7545 43.9749 28.2261 44.126 31.6977C44.2771 35.4713 41.557 39.3958 37.628 40.7542Z" fill="#ACD4F7"/>
<g opacity="0.1294">
<path d="M49.8683 31.094C49.7172 30.6412 49.5661 30.1884 49.415 29.7356C49.1128 28.8299 48.8105 27.9242 48.5083 27.0186H48.3572C47.4505 27.4714 47.9038 28.2262 47.9038 28.9809C48.055 29.8865 48.2061 30.6412 48.3572 31.5468C48.5083 32.4525 48.5083 33.3582 48.3572 34.1129C48.2061 34.5657 48.055 35.0185 47.9038 35.4713C47.2994 37.4336 47.1482 38.1883 45.9393 39.6977C45.9393 39.8487 45.7882 39.9996 45.6371 39.9996C45.486 40.1505 45.1837 40.6033 45.1837 40.7543C45.1837 40.7543 45.1837 40.7543 45.1837 40.9052L45.0326 41.0562C44.8815 41.2071 44.1259 41.9618 44.1259 41.9618C43.0681 42.7165 43.2192 42.7165 42.1614 43.4713C41.4058 44.075 40.4992 44.5278 39.5925 44.8297C38.5346 45.2825 37.1746 45.8863 35.5123 46.0372C34.3034 46.0372 32.9433 46.0372 31.7344 45.8863C29.7699 45.4335 29.3166 45.1316 27.6543 44.226C27.2009 43.9241 26.5965 43.3203 25.992 43.4713C26.4454 43.9241 26.8987 44.5278 27.352 44.9807C27.9565 45.5844 28.561 46.1882 29.1655 46.7919C31.13 47.5466 33.2456 47.9995 35.3612 47.8485C36.5701 47.8485 37.7791 47.6976 38.988 47.3957C41.1036 46.7919 42.917 45.8863 44.5793 44.5278C45.7882 43.4712 47.1483 42.4147 48.055 41.2071C49.415 38.943 50.1706 36.226 50.1706 34.1129C50.0195 33.66 50.0195 32.3016 49.8683 31.094Z" fill="black"/>
</g>
<g opacity="0.1294">
<path d="M65.5844 37.4336C65.4333 36.8298 64.5266 36.6788 64.2244 37.2826C62.8643 39.6977 61.5043 41.9618 60.1443 44.3768C59.5398 45.2825 58.7842 46.1882 58.3308 47.2448C58.1797 47.5466 58.0286 47.6976 58.0286 47.9995C57.8775 48.9051 58.9353 49.5089 59.6909 49.056C59.9931 48.9051 60.1442 48.6032 60.2953 48.3013C60.4464 48.1504 60.5976 47.9995 60.5976 47.8485C61.9576 45.8863 62.7132 43.4712 63.771 41.358C64.3755 40.3014 64.9799 39.0939 65.5844 38.0373C65.5844 37.8864 65.5844 37.7354 65.5844 37.4336Z" fill="black"/>
</g>
<g opacity="0.1294">
<path d="M43.5215 58.4143C42.9171 58.2633 42.4637 58.5652 42.0104 58.7161C38.5347 59.6218 36.1168 59.7727 32.1878 59.6218C30.3744 59.6218 30.3744 62.3388 32.1878 62.3388C35.2101 62.4897 38.3836 62.4897 41.2548 61.735C42.0104 61.584 42.6148 61.4331 43.3704 61.2822C43.8237 61.1312 44.2771 60.9803 44.4282 60.5275C44.7304 59.6218 44.2771 58.5652 43.5215 58.4143Z" fill="black"/>
</g>
<path d="M34.3034 41.6598C31.13 41.6598 27.9565 40.1503 25.992 37.5843C25.2364 36.5277 24.632 35.3202 24.4809 34.1127C24.3297 33.0561 24.3297 31.8486 24.7831 30.3392C25.5386 27.1694 27.3521 24.4524 29.7699 22.943C32.49 21.1317 35.9657 20.8299 38.5346 22.1883C41.7081 23.8487 43.9748 27.4713 44.126 31.2448C44.2771 35.4712 41.4059 39.6975 37.3257 41.056C36.419 41.5088 35.3612 41.6598 34.3034 41.6598ZM34.9079 22.6411C33.3967 22.6411 31.7344 23.0939 30.3744 23.9996C28.2588 25.3581 26.5965 27.7732 25.8409 30.6411C25.5387 31.8486 25.3875 32.9052 25.6898 33.9617C25.8409 35.0183 26.2942 35.924 27.0498 36.9806C29.3165 39.9994 33.5478 41.3579 37.1746 40.1504C40.8014 38.9428 43.3704 35.1693 43.0681 31.5467C42.917 28.075 40.9525 24.9053 38.0813 23.3958C37.0235 22.943 35.9657 22.6411 34.9079 22.6411Z" fill="black"/>
<path d="M34.3034 47.0938C33.6989 47.0938 33.2456 47.0938 32.6411 46.9428C27.8054 46.339 23.2719 43.0183 21.1563 38.4901C19.1918 33.9618 19.494 28.528 22.063 24.3016C24.632 20.0752 28.4099 17.5092 33.2456 17.0564C36.419 16.7545 40.0458 17.6601 42.7659 19.4714C48.5083 23.245 49.1128 30.943 48.8106 32.6034C48.3572 37.4335 46.6949 40.9052 43.9748 43.3202C41.557 45.7353 37.9302 47.0938 34.3034 47.0938ZM33.5478 18.113C29.0143 18.5658 25.6898 20.8299 23.2719 24.7544C20.854 28.6789 20.5518 33.8109 22.3652 37.8863C24.3298 42.1127 28.4099 45.1315 32.9434 45.7353C36.7213 46.1881 40.6503 44.9806 43.5215 42.4146C46.0905 40.1504 47.4505 36.9807 47.9039 32.4524C48.055 30.3392 47.1483 23.5469 42.3125 20.3771C39.8947 18.7167 36.419 17.8111 33.5478 18.113Z" fill="black"/>
</svg>
