<svg width="127" height="102" viewBox="0 0 127 102" fill="none" xmlns="http://www.w3.org/2000/svg">
<path d="M43.5237 61.1479C57.5904 59.6371 91.9254 72.9322 95.5555 70.817C98.4294 69.1551 99.6394 41.8096 101.001 22.7735C101.757 12.6511 109.017 -2.00366 116.58 0.262543C131.403 4.49279 126.865 84.5653 115.37 99.6734C109.773 106.925 77.7074 89.7021 50.0277 79.8818C43.675 77.6156 37.171 82.9035 31.877 86.8316C20.3817 95.4431 17.5078 96.5007 15.844 94.9899C14.3315 93.4791 25.3731 85.774 27.7932 82.2991C19.4742 85.774 8.58377 93.1769 6.46619 89.3999C5.1049 86.9826 16.1466 84.2632 23.7093 78.0689C11.6089 80.033 3.13856 88.1913 0.869734 84.1121C-0.945328 80.9394 14.029 77.0113 19.1717 72.63C13.2727 72.7811 2.2311 79.7308 0.567298 76.2559C-0.642744 73.8386 9.34008 70.0616 12.3652 68.7019C16.9028 66.7379 20.3817 66.4357 24.3143 63.4141C20.5329 60.6947 9.79379 58.1263 11.4576 56.0112C13.2727 53.745 16.1465 54.6514 23.1043 55.8601C29.457 57.0687 38.8348 61.6011 43.5237 61.1479Z" fill="white"/>
<path d="M110.681 101.94C103.118 101.94 89.6565 96.3497 74.531 90.1554C66.3632 86.8317 58.0442 83.3568 49.8764 80.4863C44.1287 78.5223 38.2298 82.9036 33.0871 86.8316L32.1796 87.436C20.9867 95.7454 17.5078 97.5584 15.3903 95.5943C15.239 95.4433 15.0877 95.1411 15.0877 94.8389C15.0877 93.4792 17.5078 91.3641 21.4405 87.8892C22.953 86.5295 24.4656 85.1698 25.6756 84.1122C24.0118 84.8676 22.348 85.7741 20.6842 86.5295C13.7265 90.0044 7.67627 93.177 5.86121 90.0043C5.70996 89.7022 5.55865 89.2489 5.7099 88.9468C6.16367 87.587 8.43251 86.3784 12.0626 84.5654C14.7852 83.2057 18.2641 81.5438 21.2892 79.4287C16.9028 80.4863 12.9702 82.2992 9.79381 83.6589C5.1049 85.7741 1.7773 87.2849 0.264752 84.7165C-0.0377584 84.2633 -0.0378138 83.8101 0.113441 83.3568C0.718462 81.5439 3.89482 80.033 9.18875 77.7668C11.9113 76.5582 14.7852 75.1984 16.9028 73.8387C14.9365 74.292 12.6677 75.0474 10.5501 75.9539C5.55866 77.7669 1.32348 79.2776 0.113441 76.8603C-0.0378138 76.4071 -0.0378138 75.9539 0.113441 75.6517C0.869717 73.5366 6.31494 71.1193 11.3064 69.1553C11.7601 69.0042 12.0627 68.8531 12.3652 68.702C13.8777 68.0977 15.239 67.6444 16.6003 67.1912C19.0204 66.2847 21.2892 65.6804 23.558 64.0185C22.0454 63.112 19.9279 62.2056 17.8103 61.4502C13.7264 59.7883 11.3063 58.7307 11.0038 57.371C10.8526 56.9177 11.0039 56.6156 11.3064 56.3134C12.9702 54.0472 15.5415 54.5005 20.5329 55.407C21.4404 55.558 22.348 55.7091 23.558 55.8602C26.2806 56.3134 29.4569 57.371 32.6333 58.4286C36.8684 59.7883 41.2549 61.2991 43.8262 60.9969C51.8428 60.0904 66.5145 64.0185 78.1612 67.1912C86.0264 69.3063 94.3454 71.5726 95.7067 70.6661C96.1605 70.515 97.0681 68.8531 98.1269 58.7307C98.8831 51.9321 99.4881 43.0184 100.093 34.5579C100.396 30.4787 100.547 26.7017 100.849 23.2268C101.454 15.8239 105.538 5.39935 111.135 1.47126C113.101 0.111536 115.219 -0.341686 117.185 0.262635C119.756 1.01804 121.874 3.88856 123.538 8.57205C130.647 30.0255 126.109 87.587 116.277 100.429C114.916 101.335 113.101 101.94 110.681 101.94ZM47.0025 78.8244C48.0613 78.8244 49.2714 78.9755 50.3302 79.4287C58.498 82.2992 66.817 85.7741 74.9848 89.0978C93.7404 96.8029 111.437 104.206 115.067 99.3713C119.454 93.6303 123.235 77.4647 124.748 57.371C126.412 37.1262 125.353 18.3923 122.176 8.57205C120.664 4.19072 118.849 1.62235 116.58 0.866947C114.916 0.413706 113.252 0.715862 111.589 1.9245C106.295 5.55043 102.362 15.6728 101.757 22.9247C101.454 26.5506 101.303 30.3276 101.001 34.2557C99.4881 56.4645 98.4293 70.0618 96.0093 71.4215C94.3455 72.328 88.144 70.8171 77.5561 67.9466C65.9095 64.7739 51.5403 60.9969 43.675 61.7523C40.8012 62.0545 36.566 60.6948 32.0283 59.184C28.852 58.1264 25.6756 57.0688 23.1042 56.6156C22.0455 56.4645 20.9867 56.3134 20.0791 56.1624C15.3902 55.407 13.1215 54.9537 11.9114 56.6156C11.9114 56.7667 11.9114 56.7667 11.9114 56.7667C12.2139 57.6732 15.5415 59.0329 18.1128 60.0905C20.5329 61.148 23.2556 62.2055 24.7681 63.2631C24.9194 63.4142 25.0705 63.5653 25.0705 63.7164C25.0705 63.8675 24.9194 64.0185 24.7681 64.1696C22.0455 66.2847 19.4742 67.0401 16.9028 67.9466C15.5415 68.3998 14.3315 68.8531 12.8189 69.4574C12.5164 69.6085 12.2139 69.7596 11.7601 69.9107C8.88626 71.1193 1.92858 73.9898 1.32356 75.8028C1.32356 75.9539 1.32356 76.1049 1.32356 76.1049C2.07983 77.6157 6.46623 76.1049 10.3989 74.5941C13.5752 73.3855 16.9028 72.1769 19.3229 72.1769C19.6254 72.1769 19.7767 72.3279 19.9279 72.479C20.0792 72.6301 19.9279 72.9322 19.7766 73.0833C17.5078 75.0474 13.7264 76.7093 9.94503 78.3711C6.16365 80.033 1.9285 81.9971 1.62599 83.3568C1.62599 83.5079 1.62599 83.659 1.62599 83.81C2.53352 85.4719 5.10494 84.4144 9.64259 82.2992C13.424 80.4863 18.2641 78.3712 23.8605 77.4647C24.163 77.4647 24.3143 77.6157 24.4656 77.7668C24.6168 78.069 24.4655 78.2201 24.3143 78.3711C20.6841 81.2417 16.449 83.5079 12.9701 85.1698C10.0963 86.5295 7.52496 87.8892 7.22245 88.7957C7.22245 88.9468 7.22245 88.9468 7.22245 89.0978C8.43249 91.3641 14.7852 88.0403 20.5329 85.1698C22.953 83.9611 25.5243 82.6014 27.9444 81.6949C28.2469 81.5438 28.3982 81.6949 28.5495 81.846C28.7007 81.9971 28.7007 82.2992 28.5495 82.4503C27.4907 83.9611 24.9194 86.2273 22.4993 88.3424C20.0792 90.4576 16.6003 93.6303 16.6003 94.3857C17.8103 95.4432 20.6841 94.5368 31.877 86.2273L32.7846 85.623C36.7173 82.6014 41.7086 78.8244 47.0025 78.8244Z" fill="black"/>
</svg>
