<svg width="27" height="12" viewBox="0 0 27 12" fill="none" xmlns="http://www.w3.org/2000/svg">
<path d="M0.959282 0.312872C1.42914 -4.77878e-06 2.05567 0 2.68215 0C3.62187 0 4.56157 0 5.50128 0C11.1396 0.156438 16.4646 2.0337 21.3198 4.69315C22.5728 5.47534 23.8258 6.25754 24.9221 7.19617C25.5486 7.82192 26.4882 8.29123 26.8015 9.07343C27.7412 11.1071 25.0787 12.9844 23.5125 11.42C21.0066 9.07343 15.8382 6.25752 12.3926 5.31889C9.10357 4.38026 8.32041 4.22384 5.18802 4.06741C4.24831 4.06741 3.46519 3.91097 2.52548 4.06741C1.74238 4.06741 0.959301 4.0674 0.489443 3.59809C-0.293654 2.65946 -0.137054 1.09506 0.959282 0.312872Z" fill="black"/>
</svg>
