<svg width="91" height="91" viewBox="0 0 91 91" fill="none" xmlns="http://www.w3.org/2000/svg">
<path d="M71.5452 90.1086C68.0645 90.1086 64.5839 89.3528 61.1032 88.597C59.1359 88.1436 57.1686 87.6901 55.0499 87.3878C51.7206 86.9343 47.9373 87.2366 44.7593 88.4459C44.608 88.4459 44.608 88.4459 44.4567 88.4459C40.068 87.3878 35.2254 86.0274 30.6855 87.2366C29.7775 87.3878 28.8694 87.8412 27.9614 88.2947C26.7508 88.7482 25.5401 89.3528 24.1781 89.504C16.9142 90.4109 11.4662 89.3528 7.53157 86.3297C4.05092 83.76 -2.91038 72.8767 1.32693 64.1095C3.29425 60.0283 3.44562 58.0632 3.44562 56.4005C3.44562 55.3424 3.4456 54.4355 3.8996 53.075C5.11026 49.4473 4.50492 46.273 3.74826 42.9475C3.14293 40.0755 2.53762 37.0524 3.29428 33.8781C3.89961 31.1572 3.44558 28.4364 2.84025 25.7155C2.53759 24.204 2.23492 22.6924 2.08359 21.1808C1.78093 16.1926 3.29429 11.2044 6.47227 7.42551C9.65025 3.49541 14.4929 1.0769 19.3355 1.0769C21.9082 0.92574 24.4808 1.53036 27.0534 2.13499C28.7181 2.43731 30.5341 2.89077 32.1988 3.04193C35.5281 3.34424 39.0087 2.89079 42.338 2.58847C45.8187 2.135 49.4506 1.68152 52.9313 2.13499C53.8393 2.28615 54.8986 2.58847 55.8066 2.89078C57.0173 3.34425 58.0766 3.64657 59.1359 3.64657C59.4386 3.64657 59.8926 3.64657 60.1953 3.64657C62.3139 3.64657 63.3732 3.64656 67.0052 2.28614C70.3345 1.07688 77.2958 1.53035 80.3225 3.04193C88.9484 7.42549 93.0344 17.4019 90.0077 26.3202C89.7051 27.3783 89.0997 28.4364 88.4944 29.6456C87.8891 30.7037 87.4351 31.913 86.9811 32.82C85.9217 35.8431 86.5271 39.1686 87.1324 42.494V42.6452L86.3758 55.0401C86.2244 56.854 86.0731 58.819 86.3758 60.6329C86.5271 62.1445 86.9811 63.5049 87.4351 65.0165C87.5864 65.6211 87.7377 66.2258 87.8891 66.8304C89.2511 72.1209 88.4944 75.8998 86.8297 80.5857C84.8624 85.725 81.0791 89.3528 76.0852 90.4109C74.8745 89.9575 73.2098 90.1086 71.5452 90.1086ZM52.0233 86.1785C53.0826 86.1785 54.2933 86.3297 55.3526 86.4808C57.4713 86.7832 59.4386 87.2366 61.4059 87.6901C66.3999 88.7482 71.0912 89.8063 76.2365 88.597C80.7764 87.5389 84.2571 84.3646 86.0731 79.5276C87.7377 74.9929 88.3431 71.5162 86.9811 66.528C86.8297 65.9234 86.6784 65.3188 86.5271 64.8653C86.0731 63.3538 85.6191 61.8422 85.4678 60.3306C85.1651 58.3656 85.3164 56.4005 85.4678 54.5866L86.2244 42.1917C85.4678 38.8662 84.8624 35.2385 86.0731 31.913C86.3757 30.8549 86.9811 29.7968 87.5864 28.5875C88.1917 27.5294 88.6457 26.3202 89.0997 25.4132C91.975 17.0996 88.1917 7.72782 80.0198 3.64657C77.2958 2.28615 70.6372 1.83268 67.6105 2.89078C63.6759 4.2512 62.4652 4.2512 60.3466 4.40236C60.0439 4.40236 59.7413 4.40236 59.4386 4.40236C58.2279 4.40236 56.866 3.94888 55.6553 3.64657C54.7473 3.34425 53.8393 3.04194 52.9313 2.89078C49.4506 2.58847 45.97 2.89079 42.6407 3.34426C39.3114 3.79773 35.6794 4.10003 32.1988 3.79771C30.3828 3.64655 28.7181 3.1931 26.9021 2.89078C24.4808 2.43731 21.9081 1.83268 19.4868 1.83268C14.9468 1.98384 10.4069 4.2512 7.38022 7.87898C4.50491 11.3556 2.99161 16.1926 3.29428 20.8785C3.44561 22.3901 3.74827 23.9017 3.8996 25.2621C4.50493 28.1341 4.95891 31.006 4.35358 34.0292C3.59691 37.0523 4.20227 39.7732 4.8076 42.6452C5.56426 45.9707 6.16959 49.4473 4.8076 53.3774C4.3536 54.5866 4.35358 55.3424 4.35358 56.4005C4.35358 58.2144 4.20224 60.3306 2.08359 64.563C-1.69972 72.4232 4.50495 82.853 7.98559 85.4227C11.7689 88.2947 16.9142 89.2017 23.8755 88.4459C25.0862 88.2947 26.1455 87.8413 27.3561 87.2366C28.2641 86.7832 29.3234 86.4808 30.2314 86.1785C35.0741 84.9693 40.068 86.3297 44.4567 87.3878C47.0293 86.632 49.4506 86.1785 52.0233 86.1785Z" fill="black"/>
<path d="M87.2838 48.087C86.8298 40.0757 86.3758 31.762 83.1978 24.3553C77.5985 10.9023 63.6759 1.53054 49.148 0.774748C34.6201 0.0189611 19.9408 7.42568 11.4662 19.3671C2.99162 31.1574 0.418982 47.0289 4.05096 61.0866C5.11029 65.1678 6.62359 69.0979 9.04491 72.4234C11.7689 76.3535 15.7035 79.2255 19.7895 81.644C28.8695 86.9345 38.7061 89.353 48.8454 88.1438C57.6226 87.0857 66.5512 84.0625 73.3612 78.4697C80.1711 72.8769 85.3164 65.1678 86.8297 56.4007C87.4351 53.2264 87.4351 49.7498 87.2838 48.087ZM46.1213 68.0398C29.3234 68.0398 25.5402 57.9123 23.8755 52.1683C22.2109 45.9708 23.4215 35.8433 27.3561 30.5528C31.2908 25.2623 39.6141 20.7275 46.424 21.0299C60.9519 21.7856 69.1239 34.0294 68.9725 44.6104C68.9725 45.3662 67.0052 68.0398 46.1213 68.0398Z" fill="white"/>
<path d="M43.3973 89.0506C35.2254 89.0506 27.2048 86.7832 19.3355 82.0973C14.4929 79.2253 11.0122 76.2022 8.43955 72.7256C6.16956 69.7024 4.65626 65.9235 3.4456 61.2376C-0.337709 46.5753 2.53761 30.855 11.0122 19.0647C19.7895 6.97209 34.7714 -0.434612 49.148 0.321175C64.2812 1.07696 78.2038 10.751 83.6518 24.204C86.8297 32.0642 87.2837 40.9825 87.7377 48.0869C87.889 49.9008 87.8891 53.2263 87.2837 56.5517C85.7704 64.8654 80.9278 72.8767 73.5125 78.923C67.3079 84.0624 58.3792 87.539 48.694 88.7483C47.0293 89.0506 45.2133 89.0506 43.3973 89.0506ZM47.1807 1.37927C33.7121 1.37927 20.0921 8.48367 11.9202 19.8205C3.5969 31.3084 0.872922 46.7265 4.5049 61.0865C5.71556 65.6212 7.2289 69.2489 9.34755 72.2721C11.7689 75.5976 15.2495 78.6207 19.9408 81.3415C29.3234 86.7832 38.8574 89.0506 48.694 87.8413C58.2279 86.6321 66.8539 83.1554 72.9072 78.1673C80.0198 72.2721 84.7111 64.5631 86.2244 56.5517C86.8297 53.3774 86.6784 50.052 86.6784 48.3892C86.3758 41.2848 85.9217 32.5177 82.7438 24.8087C77.2958 11.658 63.8272 2.43737 49.148 1.68158C48.5426 1.37927 47.9373 1.37927 47.1807 1.37927ZM45.97 68.6443C29.6261 68.6443 25.2374 59.2726 23.2701 52.3193C21.6054 46.1219 22.6648 35.8432 26.9021 30.2503C30.6854 25.2621 39.16 20.1228 46.424 20.5763C60.9519 21.332 69.5778 33.4246 69.5778 44.7615C69.5778 44.9126 67.7618 68.4932 45.97 68.6443ZM46.1213 67.4351C54.5959 67.4351 60.9519 63.6561 64.8865 56.4006C68.0645 50.5054 68.5185 44.7614 68.5185 44.6103C68.5185 33.8781 60.3466 22.239 46.424 21.6344C39.614 21.332 31.4421 26.1691 27.8101 30.855C23.8754 35.9943 22.8161 46.1219 24.4808 52.017C26.1454 58.6679 30.3827 67.4351 46.1213 67.4351Z" fill="black"/>
<path d="M32.6528 4.40256C33.1068 10.9023 34.6201 16.6463 36.89 22.088C37.1927 22.6926 37.3441 23.4484 38.1007 23.5996C38.4034 23.5996 38.8574 23.5995 39.16 23.4484C44.3053 21.9368 49.4507 22.2391 54.8986 24.053C58.5306 21.7857 60.3466 9.84422 61.2546 3.04213C58.9846 1.3794 56.4119 0.92593 52.7799 0.774772C45.97 0.623615 39.1601 -0.28332 33.4094 2.43751C32.8041 2.73983 32.6528 3.34446 32.6528 4.40256Z" fill="#ACD4F7"/>
<path d="M55.0499 24.6576H54.8986C49.602 22.8437 44.4567 22.6926 39.4627 24.053C39.0087 24.2041 38.5547 24.3553 38.1007 24.2041C37.0414 24.053 36.7387 23.146 36.4361 22.5414L36.2847 22.3902C33.7121 16.3439 32.3501 10.6 32.0474 4.55366C31.8961 3.49556 32.0474 2.43746 33.1067 1.98399C38.1007 -0.283372 43.7 -0.13221 49.602 0.170104C50.6613 0.170104 51.7206 0.321271 52.7799 0.321271C56.5633 0.472429 59.1359 0.925887 61.5573 2.73978C61.7086 2.89093 61.8599 3.0421 61.7086 3.19325C60.0439 16.0416 58.0766 22.8437 55.2013 24.6576C55.2013 24.6576 55.2013 24.6576 55.0499 24.6576ZM46.1213 21.9368C48.9966 21.9368 52.0233 22.3902 54.8986 23.4483C57.32 21.6345 59.2873 14.8324 60.6492 3.19325C58.5306 1.68168 56.2606 1.37936 52.7799 1.2282C51.7206 1.2282 50.6613 1.07706 49.602 1.07706C43.8514 0.774743 38.4034 0.623572 33.7121 2.73978C33.4094 2.89093 33.1067 3.04209 33.2581 4.25135C33.7121 10.2976 35.0741 15.8905 37.4954 21.7856L37.6467 21.9368C37.9494 22.5414 38.1007 22.8437 38.4034 22.8437C38.706 22.8437 38.8574 22.8437 39.16 22.6926C41.43 22.3902 43.7 21.9368 46.1213 21.9368Z" fill="black"/>
<path d="M59.1359 85.5739C58.6819 78.923 57.1686 73.179 54.8986 67.5862C54.596 66.9815 54.4446 66.2257 53.688 66.0746C53.3853 66.0746 52.9313 66.0746 52.6287 66.2257C47.4834 67.7373 42.338 67.8885 36.89 65.9234C33.2581 68.1908 31.4421 79.981 30.5341 86.9343C32.8041 88.7482 35.3768 89.0505 39.0087 89.2017C45.8187 89.3528 52.6286 90.2597 58.3793 87.5389C59.1359 87.2366 59.2873 86.632 59.1359 85.5739Z" fill="#ACD4F7"/>
<path d="M47.6347 90.1087C45.8187 90.1087 44.0027 89.9575 42.0354 89.9575C40.9761 89.9575 39.9167 89.8063 38.8574 89.8063C35.0741 89.6552 32.5014 89.2017 30.0801 87.3878C29.9288 87.2367 29.7775 87.0855 29.9288 86.9343C31.4421 74.3883 33.5608 67.2839 36.4361 65.47C36.5874 65.3188 36.7387 65.3188 36.8901 65.47C41.884 67.1327 47.0294 67.2839 52.326 65.6212C52.78 65.47 53.234 65.3188 53.688 65.47C54.7473 65.6211 55.05 66.5281 55.3526 67.1327L55.504 67.2839C58.0766 73.4813 59.4386 79.2253 59.7413 85.4228C59.8926 86.4809 59.7413 87.539 58.682 88.1436C55.2013 89.8064 51.5693 90.1087 47.6347 90.1087ZM31.1395 86.7832C33.2581 88.2947 35.5281 88.5971 39.0088 88.7483C40.0681 88.7483 41.1274 88.8994 42.1867 88.8994C47.9373 89.2017 53.3853 89.3529 58.0766 87.2367C58.5306 87.0855 58.682 86.9344 58.5306 85.7251C58.0766 79.6788 56.7146 73.9348 54.2933 67.8885L54.142 67.7374C53.9907 67.1327 53.688 66.8304 53.3853 66.8304C53.0827 66.8304 52.9313 66.8304 52.6287 66.9816C47.1807 68.6443 41.8841 68.4932 36.7388 66.8304C34.4688 68.342 32.5014 75.1441 31.1395 86.7832Z" fill="black"/>
<path d="M3.14294 57.9123C5.56426 58.2146 8.1369 57.7611 10.5582 57.4588C15.0982 56.8541 18.5788 55.6449 22.6648 53.9822C23.4215 53.6799 24.3295 53.6798 24.7835 52.6217C23.7241 48.5405 23.8755 42.0407 25.2375 38.1106C24.4808 36.5991 22.8162 35.9944 21.3028 35.3898C17.2169 34.0294 13.1309 32.669 9.0449 31.4597C7.68291 31.0062 6.32092 30.5528 4.65627 30.5528C3.29428 31.4597 2.99163 33.5759 2.68897 35.3898C1.9323 41.8896 1.78093 48.3893 2.0836 54.8891C2.0836 55.9472 2.08362 57.7611 3.14294 57.9123Z" fill="#ACD4F7"/>
<path d="M5.11025 58.668C4.50492 58.668 3.74828 58.668 3.14295 58.5168C1.62962 58.2145 1.47828 56.2495 1.47828 55.0402V54.889C1.17562 48.3893 1.47828 41.7383 2.23494 35.3897C2.53761 33.2735 2.84026 31.3085 4.35359 30.2504C4.50492 30.2504 4.50494 30.0992 4.65627 30.0992C6.32093 30.0992 7.83425 30.5527 9.19624 31.0061C13.2822 32.2154 17.3682 33.5758 21.4542 34.9362C23.1188 35.5409 24.9348 36.1455 25.6915 37.9594C25.6915 38.1106 25.8428 38.2617 25.6915 38.4129C24.4808 42.1918 24.3295 48.5404 25.3888 52.6217C25.3888 52.7728 25.3888 52.924 25.3888 52.924C24.9348 53.9821 24.1781 54.1332 23.5728 54.4355C23.4215 54.4355 23.2702 54.5867 23.1188 54.5867C19.3355 56.2494 15.7035 57.4587 10.8609 58.2145C10.5582 58.2145 10.2556 58.3657 10.1042 58.3657C8.28826 58.3657 6.62357 58.668 5.11025 58.668ZM4.80761 31.1573C3.74829 32.0643 3.44562 33.727 3.29429 35.3897C2.53763 41.7383 2.3863 48.3893 2.68897 54.7379V54.889C2.68897 55.6448 2.8403 57.1564 3.44563 57.3076C5.56428 57.6099 7.68291 57.3076 9.80156 57.0052C10.1042 57.0052 10.4069 56.8541 10.7096 56.8541C15.4009 56.0983 18.8815 54.889 22.6648 53.3775C22.8161 53.2263 23.1188 53.2263 23.2701 53.2263C23.8755 53.0751 24.1781 52.924 24.3295 52.6217C23.4215 48.5404 23.5728 42.1918 24.6322 38.2617C23.8755 37.0524 22.5135 36.599 21.0001 35.9943C16.9142 34.6339 12.8282 33.2735 8.74226 32.0643C7.5316 31.6108 6.1696 31.3085 4.80761 31.1573Z" fill="black"/>
<path d="M86.3757 60.633C83.9544 60.7842 81.5331 60.1795 79.2631 59.7261C74.8745 58.668 71.6965 57.3075 67.9132 55.3425C67.3078 55.0402 66.2485 54.889 65.9459 53.9821C67.1565 50.052 67.6105 43.5522 66.7025 39.471C67.6105 37.9594 69.2752 37.5059 70.7885 37.0524C74.8745 35.9943 78.8091 34.9363 82.8951 33.8781C84.2571 33.5758 85.6191 33.2735 87.1324 33.2735C88.3431 34.3316 88.4944 36.2967 88.6457 38.1106C88.7971 44.6103 88.4944 51.1101 87.7377 57.6099C87.5864 58.8191 87.4351 60.633 86.3757 60.633Z" fill="#ACD4F7"/>
<path d="M85.4677 61.2376C83.6517 61.2376 81.6844 60.7842 80.0198 60.3307C79.7171 60.3307 79.5658 60.1795 79.2631 60.1795C74.7231 59.1214 71.3939 57.6099 67.7619 55.796C67.6105 55.796 67.4592 55.6448 67.3078 55.6448C66.7025 55.4937 65.9458 55.0402 65.6432 54.1332C65.6432 53.9821 65.6432 53.9821 65.6432 53.8309C66.8538 49.9008 67.3078 43.4011 66.3998 39.6221C66.3998 39.471 66.3998 39.3198 66.3998 39.1687C67.4592 37.5059 69.1239 36.9013 70.7885 36.4478C74.7232 35.3897 78.8091 34.3316 82.8951 33.2735C84.2571 32.9712 85.6191 32.6689 87.2837 32.6689C87.4351 32.6689 87.5864 32.6689 87.5864 32.8201C88.9484 34.0293 89.251 35.9944 89.251 38.1106C89.4024 44.6103 89.0997 51.2613 88.343 57.6099V57.761C88.1917 59.1214 87.8891 60.9353 86.5271 61.0865C86.0731 61.2376 85.7704 61.2376 85.4677 61.2376ZM66.5512 53.9821C66.7025 54.2844 67.0052 54.4356 67.4592 54.7379C67.6105 54.7379 67.9132 54.889 68.0645 55.0402C71.5452 56.8541 74.8745 58.3657 79.2631 59.2726C79.5658 59.2726 79.8684 59.4237 80.0198 59.4237C81.9871 59.8772 84.1057 60.3307 86.2244 60.1795C86.8297 60.1795 86.9811 58.5168 87.1324 57.761V57.6099C87.8891 51.2613 88.1917 44.6103 88.0404 38.2617C88.0404 36.599 87.889 34.7851 86.8297 33.8781C85.4677 33.8781 84.1058 34.1805 82.8951 34.4828C78.8091 35.3897 74.8745 36.4478 70.7885 37.6571C69.2752 38.1106 68.0645 38.564 67.1565 39.6221C68.2158 43.5522 67.7618 49.9008 66.5512 53.9821Z" fill="black"/>
<path d="M25.5401 79.8301C20.3948 78.3185 15.7035 74.8419 12.8282 70.4583C12.8282 70.3072 12.8282 70.3072 12.8282 70.156C12.9795 70.156 12.9795 70.156 13.1309 70.156C16.0062 74.5396 20.5461 77.865 25.5401 79.3766C25.6914 79.3766 25.6914 79.5278 25.6914 79.6789C25.6914 79.8301 25.5401 79.8301 25.5401 79.8301Z" fill="black"/>
<path d="M26.4481 76.3534C24.4808 75.8999 22.5135 74.8418 21.1515 73.4814C21.1515 73.4814 21.1515 73.3303 21.1515 73.1791C21.1515 73.1791 21.3028 73.1791 21.4542 73.1791C22.8162 74.5395 24.6321 75.5976 26.4481 76.0511C26.5994 76.0511 26.5995 76.2023 26.5995 76.2023L26.4481 76.3534Z" fill="black"/>
<path d="M61.5572 81.6439C61.4059 81.6439 61.4059 81.4928 61.4059 81.4928C61.4059 81.3416 61.5572 81.3416 61.5572 81.3416C63.2219 81.3416 64.8866 80.4347 66.2486 79.6789C69.8805 77.4116 73.2098 74.6907 75.9338 71.3653C75.9338 71.2141 76.0851 71.2141 76.2365 71.3653C76.3878 71.3653 76.3878 71.5164 76.2365 71.6676C73.5125 74.993 70.1832 77.865 66.3999 79.9812C65.0379 80.737 63.3732 81.6439 61.5572 81.6439Z" fill="black"/>
<path d="M61.4059 78.3184C61.4059 78.3184 61.2546 78.3185 61.2546 78.1673C61.2546 78.0161 61.2546 78.0161 61.4059 77.865C64.4326 76.5045 67.1565 74.6907 69.5778 72.4233C69.7292 72.4233 69.7292 72.4233 69.8805 72.4233C69.8805 72.5745 69.8805 72.5745 69.8805 72.7256C67.1565 75.1441 64.4326 76.958 61.4059 78.3184Z" fill="black"/>
<g opacity="0.1294">
<path d="M76.8418 14.2277C76.3878 14.0765 75.7825 14.2277 75.4798 14.53C74.8745 15.1346 75.1771 16.0416 75.6311 16.6462C76.0851 17.402 76.6905 18.0066 76.9931 18.7624C77.5985 19.9717 78.0525 21.3321 78.6578 22.5413C80.3225 25.8668 81.2305 27.6807 82.1385 31.4596C83.8031 38.564 84.7111 42.0407 83.8031 49.7497C83.6518 51.2613 82.5925 57.6099 81.3818 60.633C81.0791 61.9934 79.1118 65.3189 77.5985 67.5863C75.4798 70.4583 73.9665 72.5745 70.4859 75.8999C68.9725 77.1092 69.5778 76.5045 67.3079 78.3184C66.0972 79.2254 64.7352 80.2835 63.3732 81.0393C61.8599 81.9462 60.3466 82.5508 58.8332 83.3066C56.5633 84.2136 56.2606 84.5159 53.8393 85.2717C52.78 85.574 51.7206 85.8763 50.6613 86.1786C50.3586 86.3298 50.056 86.4809 49.9046 86.7832C49.4506 87.3879 49.7533 88.1437 50.3587 88.5971C50.3587 89.3529 50.964 89.9576 51.872 89.6553C53.9906 89.2018 56.1093 88.7483 58.0766 87.8413C58.3792 87.539 58.5306 87.2367 58.5306 86.7832C60.4979 86.0274 62.4652 85.2717 63.5246 84.667C65.7945 83.4578 67.3079 82.2485 68.3672 81.3416C68.5185 81.3416 68.8212 81.3416 69.1239 81.1904C71.8479 79.3765 74.7231 77.5626 76.9931 75.2953C80.1711 71.6675 83.6518 66.2258 84.7111 62.5981C84.7111 62.4469 84.7111 62.2957 84.7111 62.1446C84.8624 61.6911 85.0138 61.3888 85.1651 60.9353C85.6191 61.2376 86.2244 61.0865 86.6784 60.633C87.2838 60.0284 87.1324 59.1214 87.2838 58.5168C87.8891 54.2844 88.3431 51.4124 88.7971 46.7265C88.7971 44.4592 88.7971 44.0057 88.7971 42.0406C88.6458 39.3198 88.6458 36.4478 87.2838 34.0293C86.9811 33.5758 86.3758 33.4247 85.9218 33.4247C85.4678 31.7619 85.0138 29.9481 84.4085 28.2853C83.5005 25.5645 81.9871 23.146 80.7764 20.5763C79.8684 18.7624 78.9605 16.7974 77.5985 15.2858C77.4472 14.8323 77.1445 14.3788 76.8418 14.2277Z" fill="black"/>
</g>
</svg>
