<svg width="152" height="92" viewBox="0 0 152 92" fill="none" xmlns="http://www.w3.org/2000/svg">
<path d="M0.804528 92C0.625764 92 0.446912 92 0.268147 91.805C-0.0893823 91.61 -0.0893823 91.0249 0.268147 90.6349C1.5195 89.0747 2.77092 87.3196 4.02227 85.7594C4.20104 85.3694 4.73729 85.3694 5.09482 85.5644C5.45235 85.7594 5.45241 86.3445 5.27365 86.7345C4.02229 88.2946 2.77087 90.0498 1.51952 91.61C1.34076 92 1.16206 92 0.804528 92ZM51.0374 82.8341C50.8586 82.8341 50.6799 82.8341 50.5011 82.6391L46.2107 78.3487C45.8532 77.9587 45.8532 77.5686 46.2107 77.1786C46.5682 76.7886 46.9258 76.7886 47.2833 77.1786L51.5736 81.469C51.9312 81.859 51.9312 82.2491 51.5736 82.6391C51.3949 82.6391 51.2161 82.8341 51.0374 82.8341ZM8.31256 82.2491C8.13379 82.2491 7.95505 82.2491 7.77629 82.0541C7.41876 81.859 7.4188 81.274 7.59757 80.8839C8.84892 79.3238 9.92151 77.5686 11.1729 75.8135C11.3516 75.4234 11.8879 75.4234 12.2454 75.6185C12.6029 75.8135 12.603 76.3985 12.4242 76.7886C11.1729 78.5437 10.1003 80.1039 8.84894 81.859C8.84894 82.0541 8.49132 82.2491 8.31256 82.2491ZM54.0764 81.859H53.8976C53.54 81.664 53.3613 81.274 53.5401 80.8839L55.6852 74.8384C55.864 74.4483 56.2215 74.2533 56.579 74.4483C56.9366 74.6433 57.1153 75.0334 56.9366 75.4234L54.7914 81.469C54.6126 81.664 54.4339 81.859 54.0764 81.859ZM42.4567 74.0583C42.2779 74.0583 42.0992 74.0583 41.9204 73.8633L37.63 69.5729C37.2725 69.1828 37.2725 68.7928 37.63 68.4028C37.9875 68.0127 38.345 68.0127 38.7026 68.4028L42.993 72.6932C43.3505 73.0832 43.3505 73.4732 42.993 73.8633C42.8142 73.8633 42.6354 74.0583 42.4567 74.0583ZM15.4631 72.1081C15.2844 72.1081 15.1057 72.1081 15.1057 71.9131C14.7482 71.7181 14.7481 71.133 14.9269 70.743C15.9995 68.9878 17.2509 67.2326 18.3234 65.4775C18.5022 65.0874 19.0385 65.0874 19.396 65.2825C19.7535 65.4775 19.7536 66.0625 19.5748 66.4526C18.5022 68.2077 17.2508 69.9629 16.1782 71.7181C15.8207 71.9131 15.6419 72.1081 15.4631 72.1081ZM58.3667 69.9629H58.188C57.8304 69.7679 57.6516 69.3779 57.8304 68.9878L59.9756 62.9422C60.1544 62.5522 60.5119 62.3572 60.8694 62.5522C61.227 62.7472 61.4057 63.1373 61.227 63.5273L59.0818 69.5729C58.903 69.7679 58.7242 69.9629 58.3667 69.9629ZM33.876 65.2825C33.6972 65.2825 33.5184 65.2825 33.3396 65.0875L29.0493 60.797C28.6918 60.407 28.6918 60.017 29.0493 59.6269C29.4069 59.2369 29.7643 59.2369 30.1219 59.6269L34.4123 63.9173C34.7698 64.3074 34.7698 64.6974 34.4123 65.0875C34.2335 65.0875 34.0548 65.2825 33.876 65.2825ZM22.0775 61.5771C21.8987 61.5771 21.7199 61.5771 21.7199 61.3821C21.3624 61.1871 21.3624 60.602 21.5412 60.212C22.6138 58.4568 23.6864 56.7016 24.5802 54.9465C24.759 54.7515 24.9377 54.5564 25.1165 54.5564C25.2952 54.5564 25.474 54.5564 25.6528 54.7515L25.8316 54.9465C26.1891 55.3365 26.1891 55.7266 25.8316 56.1166C25.8316 56.1166 25.6528 56.3116 25.474 56.3116C24.5802 57.8718 23.5076 59.4319 22.6137 61.1871C22.6137 61.3821 22.435 61.5771 22.0775 61.5771ZM62.6571 57.8718H62.4783C62.1208 57.6767 61.942 57.2867 62.1208 56.8967L64.266 50.8511C64.4448 50.461 64.8023 50.266 65.1598 50.4611C65.5173 50.6561 65.696 51.0461 65.5173 51.4362L63.3722 57.4817C63.1934 57.6767 62.8358 57.8718 62.6571 57.8718ZM66.7686 45.9756H66.5899C66.2324 45.7806 66.0536 45.3906 66.2324 45.0005L68.3776 38.955C68.5563 38.5649 68.9139 38.3699 69.2714 38.5649C69.6289 38.7599 69.8077 39.15 69.6289 39.54L67.4837 45.5856C67.4837 45.7806 67.1262 45.9756 66.7686 45.9756ZM105.918 44.6105C105.739 44.6105 105.561 44.6105 105.561 44.4155L104.488 43.6354C104.131 43.4404 104.13 42.8553 104.309 42.4653C104.488 42.0753 105.024 42.0752 105.382 42.2703L106.097 42.6603L109.136 39.735C109.493 39.54 109.851 39.54 110.208 39.735C110.387 40.1251 110.387 40.5151 110.208 40.9051L106.812 44.2205C106.276 44.6105 106.097 44.6105 105.918 44.6105ZM99.8401 40.3201C99.6613 40.3201 99.4825 40.3201 99.4825 40.1251L94.656 36.6147C94.2985 36.4197 94.2984 35.8347 94.4772 35.4446C94.6559 35.0546 95.1923 35.0546 95.5498 35.2496L100.376 38.7599C100.734 38.955 100.734 39.54 100.555 39.9301C100.376 40.1251 100.198 40.3201 99.8401 40.3201ZM113.784 37.1998C113.605 37.1998 113.426 37.1998 113.247 37.0048C113.069 36.6147 113.069 36.2247 113.247 35.8347L117.717 31.5443C118.074 31.3492 118.432 31.3492 118.789 31.5443C118.968 31.9343 118.968 32.3243 118.789 32.7144L114.32 37.0048C114.141 37.0048 113.962 37.1998 113.784 37.1998ZM71.059 34.0795H70.8802C70.5227 33.8845 70.344 33.4944 70.5228 33.1044L72.6679 27.0588C72.8466 26.6688 73.2041 26.4738 73.5617 26.6688C73.9192 26.8638 74.098 27.2538 73.9192 27.6439L71.774 33.6895C71.5953 33.8845 71.4166 34.0795 71.059 34.0795ZM90.1869 33.2994C90.0081 33.2994 89.8293 33.2994 89.8293 33.1044L85.0027 29.5941C84.6451 29.399 84.6452 28.814 84.8239 28.424C85.0027 28.0339 85.5389 28.0339 85.8965 28.2289L90.7231 31.7393C91.0807 31.9343 91.0806 32.5193 90.9019 32.9094C90.5443 33.1044 90.3656 33.2994 90.1869 33.2994ZM122.543 28.814C122.364 28.814 122.186 28.814 122.007 28.619C121.828 28.2289 121.828 27.8389 122.007 27.4489L126.476 23.1585C126.834 22.9634 127.191 22.9634 127.549 23.1585C127.727 23.5485 127.727 23.9385 127.549 24.3286L123.08 28.619C122.901 28.619 122.722 28.814 122.543 28.814ZM80.3548 26.2788C80.1761 26.2788 79.9973 26.2788 79.9973 26.0837L75.1706 22.5734C74.8131 22.3784 74.8131 21.7933 74.9919 21.4033C75.1706 21.0133 75.7069 21.0133 76.0644 21.2083L80.8911 24.7186C81.2486 24.9136 81.2486 25.4987 81.0698 25.8887C80.891 26.0837 80.5336 26.2788 80.3548 26.2788ZM131.481 20.4282C131.303 20.4282 131.124 20.4282 130.945 20.2332C130.766 19.8431 130.766 19.4531 130.945 19.0631L135.414 14.7727C135.772 14.5776 136.129 14.5776 136.487 14.7727C136.666 15.1627 136.666 15.5527 136.487 15.9428L132.018 20.2332C131.839 20.2332 131.66 20.4282 131.481 20.4282ZM140.241 11.8474C140.062 11.8474 139.883 11.8474 139.705 11.6524C139.526 11.2623 139.526 10.8723 139.705 10.4823L144.174 6.19184C144.531 5.99683 144.889 5.99683 145.246 6.19184C145.425 6.58188 145.425 6.97191 145.246 7.36195L140.777 11.6524C140.598 11.8474 140.42 11.8474 140.241 11.8474ZM149 3.46158C148.822 3.46158 148.643 3.46158 148.464 3.26657C148.285 2.87653 148.285 2.48649 148.464 2.09645L150.43 0.146264C150.788 -0.0487546 151.146 -0.0487546 151.503 0.146264C151.682 0.536301 151.682 0.926343 151.503 1.31638L149.537 3.26657C149.358 3.46158 149.179 3.46158 149 3.46158Z" fill="black"/>
</svg>
