<svg width="63" height="10" viewBox="0 0 63 10" fill="none" xmlns="http://www.w3.org/2000/svg">
<path d="M0.604308 4.98C0.302149 4.98 0 4.6782 0 4.37639C0 4.07458 0.302149 3.77273 0.604308 3.77273L62.3957 3.32004C62.6979 3.32004 63 3.62184 63 3.92365C63 4.22545 62.6979 4.52725 62.3957 4.52725L0.604308 4.98Z" fill="black"/>
<path d="M13.1439 4.37645C13.1439 6.64002 14.9568 8.29993 17.0719 8.29993C19.187 8.29993 21 6.48911 21 4.37645C21 2.26378 19.187 0.452921 17.0719 0.452921C14.9568 0.452921 13.1439 2.26378 13.1439 4.37645Z" fill="#ACD4F7"/>
<path d="M17.223 9.05427C14.6547 9.05427 12.6906 6.94161 12.6906 4.52714C12.6906 1.96176 14.8058 0 17.223 0C19.7914 0 21.7554 2.11266 21.7554 4.52714C21.7554 6.94161 19.6403 9.05427 17.223 9.05427ZM17.223 1.05635C15.4101 1.05635 13.7482 2.56538 13.7482 4.52714C13.7482 6.48889 15.259 7.99797 17.223 7.99797C19.036 7.99797 20.6978 6.48889 20.6978 4.52714C20.6978 2.56538 19.036 1.05635 17.223 1.05635Z" fill="black"/>
</svg>
