<svg width="81" height="91" viewBox="0 0 81 91" fill="none" xmlns="http://www.w3.org/2000/svg">
<path d="M51.1683 91C49.3566 91 48.6017 89.9444 47.8468 88.5872C47.092 87.0792 46.1861 85.4204 42.2608 84.8172C33.9572 83.6108 25.6537 78.9361 19.0109 71.8485C13.5759 66.1182 9.04663 58.5782 5.12132 48.9271C0.139191 36.8631 -1.06858 27.212 0.894078 18.6165C2.10187 13.3385 4.97035 8.66372 8.89566 5.19535C13.2739 1.42537 18.407 -0.384233 23.8421 0.0681638C24.144 0.0681638 24.295 0.369776 24.295 0.671374C23.993 10.9257 30.4849 20.7276 39.3923 23.8944C42.2608 24.95 45.2803 25.2516 48.2997 25.5532C50.7153 25.8548 53.2819 26.1564 55.5465 26.7596C60.9816 28.1168 66.7185 32.3392 66.7185 38.2203C66.7185 38.6727 66.7185 39.2759 66.7185 39.8791C66.5675 43.7999 66.1146 50.435 75.324 54.6574C78.6455 56.1654 80.6081 59.9354 80.4572 64.761C80.0043 72.9041 72.9085 84.5156 54.1877 90.6984C52.9799 90.6984 51.9231 91 51.1683 91ZM22.4833 0.822159C12.0661 0.822159 4.21548 9.71931 2.10185 18.6165C0.139191 26.9104 1.49797 36.4107 6.17815 48.3239C10.1035 57.8242 14.4817 65.2134 19.7658 70.9437C26.2576 77.8805 34.2592 82.4045 42.4118 83.6109C46.941 84.3648 47.9978 86.476 48.9037 87.984C49.6585 89.6428 50.1114 90.5476 54.1877 89.1904C72.4555 83.3092 79.2494 72.1501 79.7023 64.3086C79.8533 60.0862 78.1925 56.6178 75.324 55.4114C65.3598 51.0382 65.8127 43.7999 65.9637 39.5775C65.9637 38.9743 65.9637 38.5219 65.9637 38.0695C65.9637 32.7916 60.5287 29.0216 55.5465 27.6644C53.2819 27.0612 50.7154 26.7596 48.4508 26.458C45.4313 26.1564 42.2608 25.704 39.2413 24.6484C29.881 21.3308 23.2381 11.5289 23.3891 0.822159C23.0871 0.822159 22.7852 0.822159 22.4833 0.822159Z" fill="black"/>
</svg>
