<svg width="35" height="8" viewBox="0 0 35 8" fill="none" xmlns="http://www.w3.org/2000/svg">
<path d="M34.4767 7.44949C34.1667 7.44949 34.0117 7.29466 33.8567 6.98497C33.7017 5.90104 33.5466 4.97191 33.0815 4.04283C32.6165 3.26859 31.6863 2.49435 30.2911 2.49435C29.5159 2.49435 28.7408 2.64923 27.6556 3.11378C25.7953 4.04286 24.4 5.5913 23.7799 7.13978C23.6249 7.29463 23.4698 7.44949 23.1598 7.44949C22.8497 7.44949 22.6947 7.29466 22.6947 6.98497C22.3847 5.74619 21.9196 4.35252 21.1445 3.26859C20.3693 2.3395 18.9741 1.41043 17.2688 1.25559C15.7185 1.25559 14.1683 1.875 13.2381 3.11378C12.308 4.19771 11.8429 5.59133 11.6878 6.83011C11.6878 7.13981 11.3778 7.29464 11.0677 7.29464C10.7576 7.29464 10.6026 7.13981 10.4476 6.83011C10.1375 5.59133 9.67242 4.35252 8.89729 3.26859C8.12215 2.3395 6.57189 1.56526 5.02162 1.72011C2.85124 2.02981 1.76605 4.04283 1.14594 5.74616C0.990917 6.05585 0.680863 6.21072 0.370809 6.05587C0.0607555 5.90103 -0.0941957 5.59133 0.0608312 5.28163C0.835966 3.42346 2.07614 0.9459 4.86663 0.636205C6.57192 0.481357 8.58729 1.10072 9.82751 2.49435C10.4476 3.11374 10.7576 3.88801 11.0677 4.5074C11.3778 3.73316 11.6878 2.95892 12.3079 2.18468C13.5481 0.791053 15.4085 -0.138024 17.2688 0.0168239C19.1291 0.0168239 20.8344 0.945872 21.9196 2.49435C22.5397 3.42343 23.0048 4.35255 23.3149 5.28163C24.245 3.88801 25.4852 2.80406 27.0355 2.02982C28.1206 1.41043 29.2058 1.10074 30.136 1.25559C31.6863 1.25559 33.0815 2.18466 33.8567 3.42344C34.6318 4.50738 34.7869 5.74618 34.9419 6.83011C35.0969 7.13981 34.9418 7.44949 34.4767 7.44949C34.6318 7.44949 34.6318 7.44949 34.4767 7.44949Z" fill="black"/>
</svg>
