<svg width="44" height="9" viewBox="0 0 44 9" fill="none" xmlns="http://www.w3.org/2000/svg">
<path d="M43.7106 8.24352C43.405 8.24352 43.0993 7.9382 43.0993 7.63288C43.2521 5.19036 41.1125 2.74783 38.5143 2.59518C36.0689 2.28986 33.4707 3.81644 32.2481 6.25896C32.0952 6.56428 31.9424 6.56428 31.6367 6.56428C31.3311 6.56428 31.1782 6.25897 31.1782 5.95365C31.1782 3.81644 29.3442 1.98454 27.2045 1.83189C25.0649 1.67923 23.078 3.35847 22.6195 5.34302C22.6195 5.64833 22.3138 5.801 22.0081 5.801C21.7025 5.801 21.5496 5.49568 21.3968 5.19036C21.244 3.05316 18.9515 1.0686 16.5061 1.0686C14.2136 1.0686 12.0739 2.74784 11.0041 5.19036C10.8513 5.49568 10.6984 5.49567 10.3928 5.49567C10.0871 5.49567 9.93423 5.19037 9.93423 5.03771C9.62856 3.05316 7.79458 1.37392 5.80773 1.22127C3.82089 1.06861 1.83404 2.59518 1.2227 4.57973C1.06987 4.88505 0.7642 5.03771 0.458531 5.03771C0.152862 4.88505 0 4.57973 0 4.27442C0.611337 1.8319 3.20955 -2.33165e-06 5.80773 0.152655C7.94741 0.305313 9.78139 1.67924 10.5456 3.51113C11.9211 1.37392 14.0608 0.152658 16.3533 0C18.6458 0 20.9383 1.37391 21.8553 3.35846C22.9252 1.67923 24.912 0.457975 26.8989 0.610633C29.0385 0.763291 30.8726 2.28987 31.6367 4.27442C33.1651 2.13721 35.7632 0.915951 38.2086 1.22127C41.4181 1.52658 44.0163 4.57973 43.7106 7.48023C44.1691 8.09086 44.0163 8.24352 43.7106 8.24352Z" fill="black"/>
</svg>
