<svg width="5" height="13" viewBox="0 0 5 13" fill="none" xmlns="http://www.w3.org/2000/svg">
<path d="M3.83635 13H3.67424L1.24201 12.0282C0.917713 11.8662 0.431248 11.7043 0.10695 11.2184C-0.217347 10.5706 0.269079 9.92271 0.593376 9.59878C2.53916 7.0074 3.02561 3.76819 2.21486 0.852887C2.05271 0.528965 2.37699 0.205042 2.70129 0.0430812C3.02559 -0.11888 3.34988 0.205023 3.51203 0.528945C4.48493 3.76817 3.67426 7.49328 1.56633 10.2466C1.56633 10.4086 1.24201 10.5705 1.24201 10.7325C1.24201 10.7325 1.40418 10.7325 1.56633 10.8945L3.99856 11.8662C4.32286 12.0282 4.48493 12.3521 4.32278 12.676C4.32278 12.838 3.9985 13 3.83635 13Z" fill="black"/>
</svg>
