<svg width="75" height="23" viewBox="0 0 75 23" fill="none" xmlns="http://www.w3.org/2000/svg">
<path d="M74.2378 18.7881L12.0427 18.179C11.7379 18.179 11.4329 17.8745 11.4329 17.57C11.4329 17.2655 11.7379 16.9609 12.0427 16.9609L74.3903 17.4177C74.6952 17.4177 75 17.7223 75 18.0268C74.8476 18.4836 74.5427 18.7881 74.2378 18.7881Z" fill="black"/>
<path d="M61.5854 18.179C61.5854 20.463 59.7562 22.1378 57.622 22.1378C55.3354 22.1378 53.6586 20.3107 53.6586 18.179C53.6586 15.8951 55.4879 14.2202 57.622 14.2202C59.7562 14.2202 61.5854 16.0473 61.5854 18.179Z" fill="#ACD4F7"/>
<path d="M57.622 22.7469C55.0305 22.7469 53.0488 20.6152 53.0488 18.179C53.0488 15.5906 55.183 13.6111 57.622 13.6111C60.2135 13.6111 62.1952 15.7428 62.1952 18.179C62.1952 20.7675 60.061 22.7469 57.622 22.7469ZM57.622 14.677C55.7927 14.677 54.1158 16.1996 54.1158 18.179C54.1158 20.0062 55.6403 21.6811 57.622 21.6811C59.4513 21.6811 61.1281 20.1584 61.1281 18.179C60.9756 16.3519 59.4513 14.677 57.622 14.677Z" fill="black"/>
<path d="M0.609793 1.58236C0.304915 1.58236 0 1.27783 0 0.973306C0 0.66878 0.304915 0.364264 0.609793 0.364264C11.2805 0.0597391 22.1037 -0.0925305 32.9269 0.0597322C33.2317 0.0597322 33.5366 0.36426 33.5366 0.668785C33.5366 0.97331 33.2317 1.27784 32.9269 1.27784C22.2561 1.12558 11.433 1.27783 0.609793 1.58236Z" fill="black"/>
</svg>
