<svg width="46" height="45" viewBox="0 0 46 45" fill="none" xmlns="http://www.w3.org/2000/svg">
<path d="M44.7467 26.2374C42.7614 24.7119 41.2341 24.5594 39.5542 23.3391C39.4015 21.356 38.9434 18.0001 38.638 16.017C40.4706 14.339 41.5396 13.8814 43.0668 12.5085C43.0668 12.2035 42.9141 12.0509 42.7613 11.7458C42.3032 11.1357 41.9978 10.5255 41.5396 9.9153C40.0124 7.62717 38.1798 5.49161 36.1944 3.6611C34.3618 5.33906 32.8346 7.01701 31.3074 8.69498C29.0166 7.77973 26.7258 7.32209 24.2823 7.017C23.9769 4.72887 23.6715 2.44074 23.0606 0.305143C19.8535 0.76277 16.6464 1.67802 13.7447 3.20344C14.2029 5.33904 14.8138 6.71192 15.5774 8.54243C13.7447 10.2204 11.9121 11.8984 10.3849 13.7289C8.24684 12.5085 6.41422 11.8984 4.42887 10.8306C2.2908 14.034 0.763598 17.695 0.763598 21.5085C3.05438 21.8136 4.42886 21.6611 6.56693 21.8136C6.87237 24.2543 7.63597 26.695 8.55228 29.1357C6.87237 30.8136 5.80333 32.1865 4.27614 33.4069C5.49789 36.3052 7.48324 38.7459 9.92674 40.5764C11.4539 38.8984 12.3702 37.9831 13.7447 36.6102C15.7301 37.373 18.3263 38.4408 20.6171 38.7459C21.228 40.8815 21.3807 42.1018 21.6861 44.0849C25.046 44.695 28.5585 44.3899 31.7656 43.6272C31.4602 41.3391 31.7656 39.9662 31.1547 37.9832C33.14 36.6103 34.9727 34.6272 36.3472 32.9492C38.4852 33.4069 39.4015 33.8645 41.3869 34.3221C43.0668 31.7289 44.1358 28.9831 44.7467 26.2374ZM25.6568 29.1357C24.1296 29.5933 22.7552 30.2035 18.7845 27.6102C17.2573 26.695 14.0502 22.5764 18.0209 17.3899C19.2426 15.712 21.5334 14.7967 23.5187 15.1018C25.5041 15.4069 27.184 15.8645 28.253 16.9323C30.0857 18.6102 31.002 21.356 30.3911 23.6441C29.7802 26.2374 27.9476 28.373 25.6568 29.1357Z" fill="#ACD4F7"/>
<path d="M25.3514 45.0001C23.9769 45.0001 22.7552 44.8475 21.5334 44.695C21.228 44.695 21.0753 44.3899 21.0753 44.2373V43.9323C20.9225 42.2543 20.7698 41.034 20.1589 39.356C18.1736 39.0509 16.0355 38.1356 14.2029 37.5255L13.8974 37.3729C12.6757 38.5933 11.7594 39.5085 10.2322 41.1865C10.0795 41.339 9.77404 41.4916 9.4686 41.1865C6.87238 39.2034 4.88702 36.6102 3.66527 33.7119C3.51255 33.4068 3.66526 33.2543 3.81798 33.1018C4.58157 32.4916 5.19246 31.7289 5.95606 30.9662C6.41422 30.356 7.02508 29.7458 7.63595 29.1356C6.71964 26.8475 6.10877 24.7119 5.80333 22.5763C5.19245 22.5763 4.58159 22.5763 4.12343 22.5763C3.0544 22.5763 1.83263 22.5763 0.458162 22.2712C0.152724 22.2712 0 21.9661 0 21.6611C0 18.1526 1.22175 14.339 3.81798 10.678C3.9707 10.3729 4.27613 10.3729 4.58157 10.5255C5.65061 11.1356 6.56694 11.5933 7.48325 12.0509C8.39956 12.5085 9.16315 12.8136 10.0795 13.2712C11.3012 11.7458 12.8284 10.3729 14.3556 9.00005L14.8138 8.54239C14.2029 6.86442 13.592 5.49156 13.1339 3.50851C13.1339 3.20342 13.1338 3.05089 13.4393 2.89835C16.1882 1.52546 19.3953 0.457628 23.0606 0C23.366 0 23.6715 0.15257 23.6715 0.457656C24.1296 2.59325 24.5878 4.72882 24.8932 6.86441C27.0313 7.1695 29.1693 7.62713 31.3074 8.38984C32.6819 6.86441 34.2091 5.18648 36.0417 3.66106C36.1944 3.50852 36.6526 3.50852 36.8053 3.66106C38.7907 5.49157 40.6233 7.62713 42.3032 9.91527C42.7614 10.5254 43.0668 11.1356 43.5249 11.7458C43.6777 12.0509 43.9831 12.356 43.9831 12.8136C43.9831 12.9662 43.9831 13.1187 43.8304 13.2712C43.0668 13.8814 42.4559 14.339 41.845 14.7966C41.2341 15.2543 40.4706 15.7119 39.5542 16.4746C39.707 17.0848 39.707 17.8475 39.8597 18.6102C40.0124 20.1356 40.3178 21.9661 40.4706 23.1865C41.0814 23.6441 41.6923 23.9492 42.4559 24.1018C43.3723 24.5594 44.2886 24.8645 45.5103 25.7797C45.663 25.9323 45.8157 26.0848 45.663 26.3899C45.0521 29.5933 43.8304 32.1865 42.1505 34.6272C41.9978 34.7797 41.6923 34.9323 41.5396 34.7797C40.9287 34.6272 40.4706 34.4746 40.1652 34.3221C39.0961 34.017 38.3325 33.7119 36.958 33.4069C35.7363 35.0848 33.9036 36.7628 32.2237 38.1356C32.5292 39.2034 32.5292 40.1187 32.5292 41.1865C32.5292 41.9492 32.5292 42.7119 32.6819 43.6272C32.6819 43.9323 32.5292 44.2373 32.2237 44.2373C29.6275 44.695 27.3367 45.0001 25.3514 45.0001ZM21.9915 43.6272C24.8932 44.0848 27.7949 43.9323 31.002 43.1696C31.002 42.4069 30.8493 41.7967 30.8493 41.1865C30.8493 40.1187 30.6965 39.2035 30.5438 37.9831C30.5438 37.8306 30.5438 37.5255 30.6965 37.3729C32.5292 36.1526 34.5145 34.1696 35.7363 32.4916C35.889 32.339 36.0417 32.1865 36.3472 32.339C38.0271 32.6441 38.9434 32.9492 40.0124 33.2543C40.3179 33.4068 40.6233 33.4068 41.0814 33.5594C42.6086 31.4238 43.5249 29.1357 44.1358 26.3899C43.2195 25.7797 42.4559 25.3221 41.6923 25.017C40.9287 24.7119 40.1652 24.4068 39.4016 23.7966C39.2488 23.6441 39.2488 23.4916 39.0961 23.339C38.9434 22.1187 38.7907 20.1356 38.4852 18.6102C38.3325 17.695 38.1798 16.7797 38.1798 16.017C38.1798 15.8644 38.1798 15.7119 38.3325 15.5594C39.4015 14.6441 40.1652 14.034 40.9287 13.5763C41.5396 13.1187 41.9977 12.8136 42.6086 12.356C42.6086 12.2034 42.4559 12.2034 42.4559 12.0509C41.9978 11.4407 41.6923 10.8305 41.2342 10.2204C39.8597 8.08477 38.1798 6.25428 36.3472 4.42377C34.6673 5.9492 33.2928 7.47462 31.9183 9.00005C31.7656 9.15259 31.4601 9.3051 31.3074 9.15255C29.1693 8.2373 26.7258 7.77971 24.4351 7.47462C24.1296 7.47462 23.9769 7.16951 23.9769 7.01697C23.6715 4.88137 23.366 2.89832 22.9079 0.915265C19.8535 1.37289 16.9518 2.28817 14.661 3.50851C15.1192 5.18647 15.5774 6.40682 16.1882 8.08478L16.341 8.38984C16.4937 8.54238 16.341 8.84751 16.1882 9.00005L15.4246 9.61021C13.7447 11.1356 12.2175 12.5085 10.9958 14.1865C10.8431 14.339 10.5376 14.4916 10.2322 14.339C9.16316 13.7289 8.24685 13.2712 7.17782 12.8136C6.41422 12.5085 5.49789 12.0509 4.58157 11.5932C2.44351 14.7966 1.37448 18 1.22176 21.0509C2.44351 21.2034 3.35982 21.2035 4.27614 21.2035C4.88702 21.2035 5.65061 21.2034 6.56693 21.356C6.87236 21.356 7.02509 21.6611 7.02509 21.8136C7.33053 24.1018 7.94141 26.3899 9.01044 28.9831C9.16316 29.1356 9.01043 29.4407 8.85771 29.5933C8.09412 30.356 7.48324 30.9662 6.87236 31.7289C6.26148 32.4916 5.65063 33.1017 4.88703 33.7119C5.95606 36.1526 7.63597 38.2882 9.77404 39.9662C11.1485 38.4407 12.0648 37.5255 13.2866 36.3052C13.4393 36.1526 13.7447 36.1526 13.8974 36.1526L14.5083 36.4577C16.3409 37.2204 18.6317 38.1356 20.4643 38.2882C20.6171 38.2882 20.9225 38.4408 20.9225 38.7458C21.6861 40.5764 21.8388 41.7967 21.9915 43.6272ZM23.6715 30.2035C22.4497 30.2035 20.9225 29.7458 18.479 28.2204C17.41 27.4577 16.0355 25.7797 15.5774 23.6441C15.2719 21.5085 15.8828 19.3729 17.5627 17.2373C19.0899 15.4068 21.3807 14.339 23.5187 14.7966C25.9622 15.1017 27.3367 15.7119 28.5585 16.7797C30.5438 18.4576 31.4602 21.5085 30.8493 24.1018C30.2384 26.695 28.2531 28.8305 25.6568 29.7458C25.046 29.8983 24.4351 30.2035 23.6715 30.2035ZM22.7551 15.7119C21.2279 15.7119 19.5481 16.4746 18.479 17.8475C16.9518 19.678 16.4937 21.5085 16.7991 23.339C17.1045 25.1695 18.3263 26.695 19.0899 27.1526C22.7551 29.5933 23.9769 29.1356 25.3514 28.5255C27.4894 27.7628 29.3221 25.7797 29.7802 23.6441C30.3911 21.356 29.6275 18.9153 27.7949 17.3899C26.7259 16.4746 25.3514 16.017 23.2133 15.7119C23.2133 15.7119 22.9079 15.7119 22.7551 15.7119Z" fill="black"/>
<g opacity="0.1294">
<path d="M28.4057 39.661H28.253C27.9476 39.661 27.6421 39.8135 27.3367 39.8135C27.184 39.8135 27.184 39.8135 27.0313 39.8135C25.8095 39.9661 24.7405 39.8135 23.5187 39.661C23.0605 39.661 22.4497 39.5084 21.9915 39.8135C20.1589 40.4237 20.3116 43.322 22.297 43.9322C24.2823 44.2373 26.2677 44.5424 28.253 44.0847C28.4057 44.0847 28.7112 43.9322 29.0166 43.9322C30.0856 43.9322 31.1547 43.6271 31.4601 42.5593C32.3764 40.5763 30.2384 38.8983 28.4057 39.661Z" fill="black"/>
</g>
<g opacity="0.1294">
<path d="M44.7467 26.2374C44.2886 23.6442 40.9288 24.1018 40.6233 26.5425C40.6233 26.695 40.4706 26.8476 40.4706 27.0001C40.3179 27.1527 40.3179 27.4577 40.1652 27.6103C39.707 28.5255 39.0961 29.2882 38.638 30.051C38.1798 30.6611 37.5689 31.1188 37.1108 31.8815C36.1945 33.712 38.7907 35.5425 40.1652 34.0171C41.5396 32.4917 42.9141 30.8137 43.8304 28.8306C44.4413 28.0679 44.8995 27.1527 44.7467 26.2374Z" fill="black"/>
</g>
</svg>
