<svg width="134" height="122" viewBox="0 0 134 122" fill="none" xmlns="http://www.w3.org/2000/svg">
<path d="M11.6132 121.221C15.0068 114.206 18.7575 107.192 22.8655 100.567C23.9372 98.8131 25.0088 97.0594 26.4377 95.8903C28.2238 94.3316 30.5456 93.5522 32.8675 92.9676C41.2621 90.8243 49.8354 90.4346 58.2299 90.0449C72.8758 89.2655 87.5217 88.681 102.168 87.9016C108.419 87.7067 114.849 87.1222 119.85 83.4201C122.708 81.0819 125.03 77.9643 126.816 74.6519C128.959 70.755 130.745 66.4683 131.638 61.9868C132.71 56.1414 132.352 50.1011 131.817 44.2556C130.924 34.1235 129.137 23.4069 122.886 15.613C115.742 6.64996 104.132 3.92209 93.2371 2.55816C74.126 0.219981 54.8364 0.609659 35.7253 2.75299C26.2591 3.72723 15.8998 5.67571 9.46988 13.4696C5.36189 18.5357 3.3972 25.3554 2.32555 31.9802C0.360859 44.0608 0.360859 56.3362 0.539467 68.6116C0.539467 72.3137 0.539402 76.2107 2.14688 79.5231C3.57574 82.6407 6.07628 84.9789 7.86237 87.7067C14.1137 96.8646 12.5062 109.53 11.6132 121.221Z" fill="white"/>
<path d="M11.6132 122H11.4345C11.0773 121.805 10.8987 121.61 10.8987 121.221C10.8987 120.052 11.0773 118.882 11.0773 117.713C11.7917 107.192 12.6848 96.2801 7.32655 88.0965C6.61211 87.1222 5.89766 86.148 5.18322 85.1737C3.93297 83.4201 2.5041 81.8613 1.61106 79.718C0.00358213 76.2107 0.00364749 72.1189 0.00364749 68.4168C0.00364749 56.3362 -0.175005 43.6711 1.9683 31.5905C2.86134 26.1348 4.64738 18.3409 9.29119 12.6903C15.7211 4.89635 25.9018 2.75301 36.0824 1.77877C57.3368 -0.559403 76.0907 -0.559385 93.5944 1.58394C103.596 2.75303 116.099 5.48088 123.601 14.8336C129.852 22.6275 131.638 33.3442 132.71 43.866C133.245 49.3217 133.603 55.7517 132.531 61.9868C131.638 66.2735 130.209 70.5601 127.709 75.0416C125.387 79.3283 123.065 82.251 120.564 84.1995C115.206 88.2913 108.062 88.681 102.346 88.8758L58.4085 91.0192C50.0139 91.4089 41.4408 91.7986 33.0462 93.9419C30.9029 94.5264 28.7595 95.111 26.9735 96.6698C25.5446 97.8388 24.6515 99.3976 23.5799 101.151C19.4719 107.776 15.7211 114.791 12.3276 121.805C12.149 122 11.9704 122 11.6132 122ZM67.1603 1.58394C57.3369 1.58394 47.1562 2.16848 36.2611 3.33756C26.4377 4.50665 16.4356 6.45512 10.3629 13.8593C6.96935 17.9512 4.82601 23.6018 3.39714 31.9802C1.43245 44.0608 1.43245 56.5311 1.61106 68.6117C1.61106 72.1189 1.61104 76.0159 3.0399 79.3283C3.93294 81.2768 5.18325 82.8356 6.4335 84.3944C7.14794 85.3686 8.04096 86.3428 8.75539 87.5119C14.2923 96.0852 13.5778 107.192 12.8634 117.908C15.8997 111.868 19.1147 106.022 22.5083 100.372C23.7585 98.4234 24.8301 96.6698 26.259 95.5007C28.2237 93.9419 30.5456 93.1625 32.8675 92.578C41.2621 90.4346 50.0139 90.0449 58.4085 89.6552L102.346 87.5119C107.883 87.3171 114.67 86.9274 119.671 83.0304C122.172 81.2768 124.315 78.3541 126.458 74.4571C128.78 70.1704 130.388 66.0786 131.102 61.9868C132.174 56.1414 131.817 49.9063 131.281 44.4505C130.388 34.3184 128.602 23.7966 122.529 16.1975C115.206 7.23454 103.061 4.7015 93.4158 3.33756C85.0212 2.16848 76.2694 1.58394 67.1603 1.58394Z" fill="black"/>
<path d="M26.6162 60.0383C26.259 60.0383 25.9019 59.6486 25.9019 59.2589C25.9019 58.8692 26.259 58.4795 26.6162 58.4795L103.954 55.1671C104.311 55.1671 104.668 55.5568 104.668 55.9465C104.668 56.3362 104.311 56.7259 103.954 56.7259L26.6162 60.0383Z" fill="black"/>
<path d="M25.1874 35.6823C24.8301 35.6823 24.4729 35.2926 24.4729 34.9029C24.4729 34.5132 24.8301 34.1235 25.1874 34.1235L103.954 30.6163C104.311 30.6163 104.668 31.006 104.668 31.3957C104.668 31.7854 104.311 32.1751 103.954 32.1751L25.1874 35.6823Z" fill="black"/>
<g opacity="0.1294">
<path d="M127.709 67.4425C126.101 70.5601 124.136 73.8725 122.707 75.4313C120.743 77.5746 119.314 78.354 115.385 80.3025C114.849 80.4974 114.134 80.887 113.42 81.0819C113.241 81.2767 111.991 81.4716 111.634 81.4716C108.776 81.8613 105.74 81.6665 102.882 81.8613C98.0596 82.0561 93.0585 82.251 88.2361 82.4458C78.0554 82.4458 68.0534 83.2252 57.8727 84.0046C53.4075 84.1995 48.9423 84.9788 44.4771 85.9531C41.0835 86.7325 37.5114 87.317 34.475 88.8758C32.8676 90.2397 34.1178 93.1625 36.0824 92.5779C40.9049 90.8243 47.5134 90.0449 50.7284 89.6552C55.3722 89.0707 60.016 89.2655 64.4812 89.0707C74.6619 88.4861 84.8426 87.9016 94.8446 87.5119C98.5954 87.5119 102.168 87.1222 105.918 86.9273C109.669 86.7325 110.741 86.7325 113.599 86.148C120.207 84.0046 123.779 80.4973 126.994 75.2364C127.887 73.8725 128.78 72.3138 129.673 70.755C130.03 70.1704 130.566 69.391 130.566 68.6116C131.102 66.6631 128.602 65.6889 127.709 67.4425Z" fill="black"/>
</g>
</svg>
