<svg width="16" height="31" viewBox="0 0 16 31" fill="none" xmlns="http://www.w3.org/2000/svg">
<path d="M7.12565 24.2853C6.82008 24.2853 6.51451 24.1326 6.51451 23.8274C6.20894 20.47 6.05615 16.8074 8.65351 14.3656C9.11187 13.9078 9.72301 13.6026 10.1814 13.1448C10.4869 12.8395 10.9453 12.6869 11.2509 12.3817C13.6955 10.3978 14.6122 7.19301 13.3899 4.59865C12.1676 2.00429 8.65351 0.325582 5.59779 1.08863C4.06993 1.39385 2.54207 2.4621 1.77814 3.9882C1.16699 5.20907 0.86144 6.42995 1.3198 7.49822C1.47258 7.80344 1.31978 8.10866 1.01421 8.26127C0.708635 8.41388 0.403063 8.26127 0.250277 7.95605C-0.208081 6.58257 -0.0552578 4.90387 0.861458 3.53039C1.77817 1.85168 3.45882 0.630791 5.44504 0.172963C8.95912 -0.590084 13.0843 1.24125 14.6122 4.29344C15.9873 7.34562 15.0705 11.1609 12.1676 13.45C11.862 13.7552 11.4037 14.0604 11.0981 14.213C10.6397 14.5183 10.0286 14.8235 9.72303 15.2813C7.43124 17.4178 7.58402 20.7752 8.04237 23.8274C7.7368 23.98 7.43122 24.1326 7.12565 24.2853Z" fill="black"/>
<path d="M7.27846 31C6.97289 31 6.66732 30.6948 6.66732 30.3896L6.51453 28.253C6.51453 27.9478 6.66734 27.6426 6.97291 27.6426C7.27849 27.6426 7.58405 27.7952 7.58405 28.1004L7.73684 30.237C7.88963 30.6948 7.73682 31 7.27846 31C7.43124 31 7.43124 31 7.27846 31Z" fill="black"/>
</svg>
