<svg width="38" height="38" viewBox="0 0 38 38" fill="none" xmlns="http://www.w3.org/2000/svg">
<path d="M36.6496 13.5881C33.7291 3.91548 23.4304 -1.61174 13.5929 1.30541C3.90905 4.22255 -1.62456 14.5093 1.29596 24.3355C4.21648 34.0081 14.5151 39.5353 24.3527 36.6182C34.1902 33.701 39.5701 23.4143 36.6496 13.5881Z" fill="#ACD4F7"/>
<path d="M18.9728 38C15.8986 38 12.8243 37.2323 10.0575 35.697C5.59991 33.2404 2.37196 29.2485 0.834849 24.489C-2.23938 14.5093 3.44796 3.91547 13.4392 0.844793C18.358 -0.690545 23.4304 -0.0764189 27.888 2.22659C32.3457 4.68313 35.5736 8.67502 37.1107 13.4346C38.6479 18.3476 38.0331 23.4143 35.7274 27.8667C33.268 32.3192 29.2715 35.5434 24.5065 37.0788C22.6619 37.6929 20.8173 38 18.9728 38ZM18.9728 1.15186C17.282 1.15186 15.4375 1.45892 13.7467 1.91953C4.37025 4.83667 -1.00967 14.8164 1.91085 24.1819C3.29425 28.7879 6.36845 32.4727 10.5187 34.7758C14.6689 37.0788 19.5877 37.5394 24.199 36.1576C28.8104 34.7758 32.4994 31.7051 34.8051 27.5597C37.1107 23.4143 37.5719 18.5012 36.1885 13.8952C34.8051 9.28915 31.7309 5.60433 27.5807 3.30132C24.8139 1.91952 21.8933 1.15186 18.9728 1.15186Z" fill="black"/>
</svg>
