<svg width="34" height="37" viewBox="0 0 34 37" fill="none" xmlns="http://www.w3.org/2000/svg">
<path d="M31.2101 36.2128C21.1074 28.3404 11.0048 20.4681 0.721659 12.5958C11.7264 8.46279 22.5506 4.32982 33.0142 0.984078C32.6534 12.0054 32.1121 23.2234 31.2101 36.2128Z" fill="white"/>
<path d="M31.2101 37C31.0297 37 30.8493 37 30.8493 36.8032L0.360833 13.1862C0.180427 12.9894 0 12.7926 0 12.3989C0 12.0053 0.180383 11.8085 0.541194 11.8085C10.6439 7.87234 22.0095 3.54255 32.8338 0C33.0142 0 33.375 1.20093e-05 33.5554 0.196821C33.7358 0.393629 33.9162 0.590413 33.9162 0.787222C33.5554 9.6436 33.0142 21.8457 32.1121 36.2128C32.1121 36.4096 31.9317 36.8032 31.7513 36.8032C31.3905 37 31.2101 37 31.2101 37ZM2.34525 12.7926L30.4886 34.6383C31.3906 21.4521 31.9318 10.4309 32.2926 1.96808C22.1899 5.11702 11.7263 9.25 2.34525 12.7926Z" fill="black"/>
</svg>
