<svg width="77" height="84" viewBox="0 0 77 84" fill="none" xmlns="http://www.w3.org/2000/svg">
<path d="M38.1414 84C36.5298 84 34.9182 83.8047 33.3066 83.6093C32.9484 83.6093 32.5903 83.2186 32.5903 82.6326C32.5903 82.2419 32.9484 81.8512 33.4856 81.8512C35.4554 82.0465 37.246 82.2419 39.2158 82.2419C39.5739 82.2419 39.9321 82.6326 39.9321 83.0233C39.9321 83.414 39.5739 83.8046 39.2158 83.8046C38.8576 83.8046 38.4995 84 38.1414 84ZM45.125 83.2186C44.7669 83.2186 44.4088 83.0233 44.4088 82.6326C44.4088 82.2419 44.5878 81.8512 44.9459 81.6559C46.7366 81.2652 48.7064 80.6791 50.497 80.093C50.8552 79.8977 51.2133 80.093 51.3924 80.4837C51.5714 80.8744 51.3924 81.2651 51.0342 81.4605C49.2435 82.2419 47.2738 82.8279 45.125 83.2186ZM27.7555 82.2419H27.5764C25.6066 81.6558 23.816 80.8744 22.0253 79.8977C21.6672 79.7023 21.4881 79.3116 21.6672 78.9209C21.8462 78.5302 22.2044 78.3349 22.5625 78.5303C24.3532 79.507 26.1439 80.0931 27.9345 80.6791C28.2927 80.8745 28.4717 81.2652 28.4717 81.6559C28.2926 82.0465 28.1136 82.2419 27.7555 82.2419ZM56.0481 78.9209C55.8691 78.9209 55.5109 78.7256 55.3318 78.5303C55.1528 78.1396 55.3319 77.7488 55.69 77.3582C57.3016 76.3814 58.9132 75.2093 60.5248 73.8419C60.883 73.6466 61.2411 73.6465 61.5992 74.0372C61.7783 74.4279 61.7783 74.8186 61.4202 75.2093C59.8086 76.5767 58.1969 77.7489 56.4062 78.7256C56.4062 78.7256 56.2272 78.9209 56.0481 78.9209ZM17.1905 76.7721C17.0114 76.7721 16.8323 76.7721 16.8323 76.5768C15.2207 75.4047 13.6092 74.0372 12.1766 72.4744C11.8185 72.0837 11.8185 71.693 12.1766 71.3023C12.5348 70.9116 12.8928 70.9116 13.251 71.3023C14.6835 72.6698 16.1161 74.0372 17.7277 75.2093C18.0858 75.4047 18.0858 75.9907 17.9067 76.3814C17.5486 76.7721 17.3696 76.7721 17.1905 76.7721ZM65.3596 71.107C65.1806 71.107 65.0015 71.107 64.8224 70.9117C64.4643 70.521 64.4643 70.1303 64.8224 69.7396C66.0759 68.1768 67.3294 66.614 68.4038 64.8558C68.5828 64.4651 69.1201 64.4651 69.4782 64.6605C69.8363 64.8558 69.8363 65.4419 69.6572 65.8326C68.5828 67.5907 67.3294 69.3489 65.8969 70.9117C65.7178 70.9117 65.5387 71.107 65.3596 71.107ZM8.59527 67.9814C8.4162 67.9814 8.2371 67.7861 8.05804 67.5907C6.80456 65.8326 5.73018 64.0745 4.83484 62.121C4.65578 61.7303 4.83481 61.3396 5.19294 60.9489C5.55108 60.7535 5.90923 60.9488 6.26736 61.3395C7.1627 63.0977 8.23714 64.8558 9.49061 66.614C9.66967 67.0047 9.66966 67.3954 9.31153 67.7861C8.95339 67.9814 8.77434 67.9814 8.59527 67.9814ZM71.9851 60.5581C71.8061 60.5581 71.806 60.5581 71.627 60.5581C71.2688 60.3628 71.0898 59.9721 71.2689 59.5814C72.1642 57.6279 72.7014 55.6744 73.2386 53.7209C73.4176 53.3302 73.7758 53.1349 74.1339 53.1349C74.492 53.3303 74.6711 53.721 74.6711 54.1117C74.1339 56.2605 73.4176 58.214 72.5223 60.1675C72.5223 60.3628 72.1642 60.5581 71.9851 60.5581ZM3.04417 56.8465C2.68603 56.8465 2.50698 56.6512 2.32791 56.2605C1.61164 54.307 1.07439 52.1582 0.716259 50.0093C0.716259 49.6186 0.895359 49.2279 1.25349 49.0326C1.61163 49.0326 1.96976 49.2279 2.14883 49.6186C2.50697 51.5721 3.04416 53.7209 3.76043 55.6744C3.93949 56.0651 3.76041 56.4558 3.40227 56.6512C3.2232 56.8465 3.04417 56.8465 3.04417 56.8465ZM75.2083 48.2512C74.6711 48.2512 74.4921 47.8605 74.4921 47.2744C74.6711 45.5163 74.8502 43.5628 74.8502 41.8046C74.8502 41.6093 74.8502 41.2186 74.8502 41.0233C74.8502 40.6326 75.2083 40.2419 75.5665 40.2419C75.9246 40.2419 76.2827 40.6326 76.2827 41.0233C76.2827 41.2186 76.2827 41.6093 76.2827 41.8046C76.2827 43.7581 76.1037 45.5163 75.9246 47.4698C75.9246 47.8605 75.5665 48.2512 75.2083 48.2512ZM0.716259 44.3442C0.358124 44.3442 0 43.9535 0 43.5628C0 42.9768 0 42.3907 0 41.8046C0 39.6558 0.1791 37.507 0.537235 35.3582C0.537235 34.9675 0.89537 34.5768 1.43257 34.7721C1.79071 34.7721 2.14882 35.1628 1.96975 35.7489C1.61162 37.8977 1.6116 39.8512 1.6116 42C1.6116 42.586 1.6116 43.1721 1.6116 43.5628C1.6116 43.9535 1.25346 44.3442 0.716259 44.3442C0.895326 44.3442 0.895326 44.3442 0.716259 44.3442ZM75.0292 35.5535C74.6711 35.5535 74.313 35.3581 74.313 34.9674C73.9549 32.8186 73.4177 30.8652 72.8805 28.9117C72.7014 28.521 72.8804 28.1303 73.4176 27.9349C73.7758 27.7396 74.1339 27.9349 74.313 28.5209C75.0293 30.6698 75.3874 32.6233 75.7456 34.7721C75.7456 34.9675 75.5664 35.3582 75.0292 35.5535ZM2.50693 30.0837H2.32791C1.96977 29.8884 1.79067 29.4977 1.79067 29.107C2.32788 26.9581 3.22325 25.0047 4.11858 23.0512C4.29765 22.6605 4.65579 22.4651 5.01392 22.6605C5.37206 22.8558 5.55109 23.2465 5.37202 23.6372C4.47669 25.5907 3.76045 27.5442 3.22325 29.4977C3.22325 29.8884 2.86507 30.0837 2.50693 30.0837ZM71.2689 23.4419C71.0898 23.4419 70.7316 23.2465 70.5526 23.0512C69.6572 21.2931 68.5828 19.3395 67.5084 17.7768C67.3294 17.3861 67.3294 16.9953 67.6875 16.6047C68.0457 16.4093 68.4037 16.4093 68.7619 16.8C70.0154 18.5582 71.0898 20.3163 71.9851 22.2698C72.1642 22.6605 71.9851 23.0512 71.627 23.4419C71.4479 23.4419 71.2689 23.4419 71.2689 23.4419ZM7.69993 18.7535C7.52087 18.7535 7.34178 18.7535 7.34178 18.5581C6.98364 18.3628 6.98363 17.7767 7.1627 17.386C8.2371 15.6279 9.66965 13.8698 10.9231 12.307C11.2813 11.9163 11.6394 11.9163 11.9975 12.307C12.3557 12.6977 12.3557 13.0884 11.9975 13.4791C10.7441 15.0418 9.49059 16.6046 8.23711 18.3628C8.23711 18.5581 8.05807 18.7535 7.69993 18.7535ZM64.2852 13.0884C64.1061 13.0884 63.9271 13.0884 63.748 12.893C62.3155 11.3302 60.8829 10.1581 59.2713 8.7907C58.9132 8.59535 58.9132 8.00929 59.0923 7.61859C59.2713 7.2279 59.8085 7.22794 60.1667 7.42329C61.7783 8.59539 63.3899 10.1581 64.8224 11.7209C65.1806 12.1116 65.1806 12.5023 64.8224 12.893C64.6434 13.0884 64.4643 13.0884 64.2852 13.0884ZM15.937 9.57208C15.7579 9.57208 15.5789 9.37677 15.3998 9.18142C15.2207 8.79072 15.2208 8.40001 15.5789 8.00931C17.1905 6.64187 18.8021 5.4698 20.5928 4.49306C20.9509 4.29771 21.309 4.49302 21.6672 4.88372C21.8462 5.27442 21.6671 5.66513 21.309 6.05583C19.6974 7.03257 17.9068 8.20469 16.4742 9.37678C16.2952 9.57213 16.1161 9.57208 15.937 9.57208ZM54.7946 5.6651C54.6156 5.6651 54.6156 5.6651 54.4365 5.6651C52.6458 4.68836 50.8551 3.907 49.0645 3.32095C48.7063 3.12561 48.5273 2.73491 48.5273 2.34421C48.7064 1.95351 49.0645 1.75813 49.4226 1.75813C51.3924 2.34417 53.1831 3.32095 54.9737 4.2977C55.3319 4.49305 55.5109 4.88374 55.3318 5.27444C55.3318 5.66514 54.9737 5.6651 54.7946 5.6651ZM26.3229 3.51631C25.9648 3.51631 25.7857 3.32093 25.6067 2.93023C25.4276 2.53953 25.6067 2.14884 26.1439 1.95349C28.1136 1.17209 29.9043 0.781419 31.874 0.390722C32.2322 0.390722 32.5903 0.586047 32.7694 0.976744C32.7694 1.36744 32.5903 1.75814 32.2321 1.95349C30.2624 2.34419 28.4717 2.73492 26.681 3.51631C26.502 3.51631 26.3229 3.51631 26.3229 3.51631ZM43.6924 1.95349C43.5134 1.95349 43.5134 1.95349 43.6924 1.95349C41.9018 1.75814 39.9321 1.56283 38.1414 1.56283H37.7832C37.4251 1.56283 37.067 1.17208 37.067 0.781383C37.067 0.390686 37.4251 0 37.7832 0H38.1414C39.9321 0 41.9018 0.195373 43.6924 0.390722C44.0506 0.390722 44.4087 0.781419 44.2297 1.36747C44.2297 1.56281 44.0506 1.95349 43.6924 1.95349Z" fill="black"/>
</svg>
