<svg width="103" height="108" viewBox="0 0 103 108" fill="none" xmlns="http://www.w3.org/2000/svg">
<path d="M43.7411 56.3561C50.0979 59.3796 62.5089 67.0897 68.7144 70.4157C72.6496 72.5322 71.7414 71.9274 69.9252 68.7527C63.417 57.8679 36.9302 3.14136 55.2439 0.117795C78.4009 -3.66166 110.488 84.6264 101.407 103.826C97.7742 111.385 78.2496 111.838 41.1681 77.6722C36.3248 73.1368 29.6652 72.6833 23.4597 72.6833C18.9191 72.6833 14.3786 73.4392 9.83796 72.0786C9.3839 71.9274 8.92986 71.7762 8.62715 71.4739C7.71903 70.4156 7.71905 69.055 11.9569 68.6015C15.1354 68.2991 18.9191 67.9968 22.4003 66.7874C18.3137 66.485 13.3191 65.2756 9.2326 64.9732C7.26501 64.8221 4.8433 64.3685 3.78383 62.5544C3.63248 62.252 3.4811 61.7985 3.4811 61.4962C3.63246 60.7403 4.54063 60.5891 5.14604 60.5891C10.1407 60.4379 16.0435 61.4961 21.0381 61.1938C10.4434 55.7514 0 57.112 0 52.7278C0 49.2507 13.7732 54.8443 19.9786 54.3908C15.2867 51.216 3.17845 50.1577 3.63251 46.5295C3.78387 43.9594 13.6218 46.8318 16.6489 47.5877C21.1894 48.7972 24.0652 50.4601 28.6058 50.4601C26.7895 46.0759 17.103 38.8194 19.0706 37.61C22.4003 35.6447 27.849 41.9942 31.9356 45.4713C36.9302 49.5531 41.6222 55.2978 43.7411 56.3561Z" fill="white"/>
</svg>
