<svg width="53" height="192" viewBox="0 0 53 192" fill="none" xmlns="http://www.w3.org/2000/svg">
<path d="M36.2489 96.5592C39.434 95.3473 43.2257 94.8928 46.4108 96.2562C46.8658 96.4077 47.3208 96.7107 47.4725 97.0137C47.7758 97.6197 47.3208 98.5286 46.8657 98.9831C40.344 106.558 29.7271 109.588 19.717 109.133C17.442 108.982 14.5602 108.527 12.8919 107.012C13.1952 105.649 14.4086 104.74 15.7736 104.134C19.5654 102.467 33.0639 97.7711 36.2489 96.5592Z" fill="white"/>
<path d="M21.992 109.739C21.2337 109.739 20.3237 109.739 19.5654 109.739C16.2286 109.588 13.802 108.83 12.2853 107.467C12.1336 107.315 12.1335 107.164 12.1335 106.861C12.4369 105.043 14.1053 104.134 15.3186 103.679C18.352 102.316 27.3004 99.1346 32.6088 97.3167C34.1255 96.8622 35.3389 96.4078 35.9456 96.1048C38.6756 95.0443 42.7707 94.2868 46.5624 95.8018C47.0174 95.9533 47.6241 96.2563 47.9274 96.8622C48.2308 97.6197 48.0791 98.5287 47.1691 99.4376C41.5574 105.952 32.1538 109.739 21.992 109.739ZM13.347 106.861C14.712 107.921 16.6836 108.376 19.5654 108.527C30.3338 109.133 40.3439 105.497 46.259 98.6802C46.5624 98.2257 47.0174 97.6197 46.8657 97.3167C46.7141 97.0137 46.4107 96.8622 46.1074 96.7107C42.7707 95.3473 38.9789 96.1048 36.4006 97.0137C35.6422 97.3167 34.4289 97.7712 33.0639 98.2257C27.7555 100.044 18.9586 103.225 15.9253 104.588C14.4086 105.346 13.6503 106.103 13.347 106.861Z" fill="black"/>
<path d="M43.3774 103.982C43.6807 96.1048 41.709 88.2271 43.3774 80.501C44.1357 76.5621 45.9557 72.9263 47.0174 68.9874C48.079 65.0486 48.3824 60.8068 46.5624 57.1709C44.1357 52.6261 38.8273 50.3537 33.8222 49.4448C28.8172 48.5358 23.2053 48.6873 18.9586 51.2627C15.4702 53.3836 12.8919 57.0195 11.9819 61.1098C11.0719 65.2001 11.5268 69.4419 12.8919 73.2293C13.4985 74.8957 14.257 76.4106 14.8636 77.9256C18.6554 87.6212 16.5319 98.3772 17.4419 108.679C17.4419 109.436 17.5937 110.194 17.897 110.8C18.352 111.557 18.9587 112.163 19.5653 112.618C21.8404 114.435 24.4187 116.405 27.3004 116.708C29.7271 117.011 32.1539 116.102 34.2772 114.738C38.3723 112.466 43.2257 109.133 43.3774 103.982Z" fill="white"/>
<path d="M38.8273 76.1075L48.9892 9.90482C49.4442 6.87495 47.4725 4.14806 44.5907 3.84508L18.2003 0.512224C15.3186 0.209237 12.5886 2.33015 12.1336 5.20853L1.97183 71.4112C1.51683 74.4411 3.48847 77.1679 6.37018 77.4709L32.7606 80.8038C35.6423 81.2583 38.3723 79.1373 38.8273 76.1075Z" fill="#ACD4F7"/>
<path d="M33.3672 81.4098C33.0638 81.4098 32.9122 81.4098 32.6088 81.4098L6.2185 78.077C4.70181 77.9255 3.33679 77.168 2.42678 75.9561C1.51677 74.5926 1.06174 73.0777 1.36508 71.4113L11.5269 5.20861C11.9819 1.87575 15.0152 -0.396668 18.2003 0.057813L44.5907 3.39067C46.1074 3.54216 47.4724 4.29964 48.3824 5.51159C49.2924 6.87503 49.7475 8.38996 49.4441 10.0564L39.2823 76.259C38.8273 79.2889 36.2489 81.4098 33.3672 81.4098ZM17.5937 1.11826C15.3186 1.11826 13.1953 2.93619 12.7402 5.36009L2.57841 71.5627C2.42674 72.9262 2.73014 74.2896 3.48848 75.1986C4.24683 76.1076 5.30851 76.7135 6.52186 76.865L32.9122 80.1979C35.4906 80.5009 37.9173 78.6829 38.2206 75.9561L48.3824 9.75341C48.5341 8.38997 48.2308 7.02651 47.4724 6.11755C46.7141 5.20859 45.6524 4.60263 44.4391 4.45114L18.0487 1.11826C17.897 1.11826 17.7453 1.11826 17.5937 1.11826Z" fill="black"/>
<path d="M39.5856 70.8054L48.534 12.7834L11.8302 8.0871L2.88174 66.1091L39.5856 70.8054Z" fill="white"/>
<path d="M39.5856 71.4113L2.73011 66.715C2.57844 66.715 2.42669 66.5635 2.27503 66.5635C2.12336 66.412 2.12339 66.2605 2.12339 66.109L11.0719 8.08702C11.0719 7.78404 11.3752 7.63254 11.6785 7.63254L48.3824 12.3288C48.5341 12.3288 48.6857 12.4803 48.8374 12.4803C48.989 12.6318 48.9891 12.7833 48.9891 12.9348L40.0406 70.9568C40.0406 71.1083 39.889 71.4113 39.5856 71.4113ZM3.48845 65.6546L39.1306 70.1994L47.9274 13.2378L12.2852 8.69299L3.48845 65.6546Z" fill="black"/>
<path d="M23.5087 73.5322L16.8354 72.6232C16.532 72.6232 16.2287 72.3202 16.3804 72.0172C16.3804 71.7142 16.6837 71.4112 16.987 71.5627L23.6605 72.4717C23.9638 72.4717 24.2671 72.7747 24.1154 73.0777C23.9638 73.3807 23.8121 73.5322 23.5087 73.5322Z" fill="black"/>
<g opacity="0.1294">
<path d="M14.2569 8.3901C15.4703 8.54159 16.8353 8.5416 18.0487 8.84459C21.3854 9.29907 24.8738 9.60204 28.2105 10.208C30.7889 10.511 33.5189 11.117 36.2489 11.117C39.5856 11.42 42.7707 11.5715 46.1074 12.1774C46.5624 12.1774 47.0174 12.3289 47.4725 12.3289C47.7758 12.3289 48.0791 12.3289 48.2308 12.4804C49.4441 13.2379 48.6857 15.5103 47.3207 15.3588C45.6524 15.3588 44.1357 14.9043 42.4673 14.7528C40.4956 14.4498 38.6756 14.4499 36.7039 14.2984C29.5755 13.3894 22.5987 12.6319 15.4703 11.5715C14.5603 11.42 13.6503 11.2685 12.5886 11.117C11.8303 11.117 11.0719 10.511 11.2236 9.45055C11.6786 7.63263 13.1953 8.3901 14.2569 8.3901Z" fill="black"/>
</g>
<g opacity="0.1294">
<path d="M10.0102 49.2933C9.55521 49.1418 9.70688 49.1418 10.0102 49.2933V49.2933Z" fill="black"/>
</g>
<g opacity="0.1294">
<path d="M22.7503 50.8082C22.902 50.8082 22.902 50.6567 23.0537 50.6567C23.0537 50.6567 22.902 50.6567 22.7503 50.8082Z" fill="black"/>
</g>
<path d="M3.03326 59.595C2.12324 58.686 2.27497 59.7465 1.66829 58.686C0.90995 57.6255 0.606557 56.2621 0.758225 54.8987C0.909894 53.5352 1.81991 52.1718 3.03326 51.7173C4.54995 51.1113 6.06667 52.0203 7.43169 52.7778C9.70672 54.1412 11.9817 55.6561 13.9534 57.6255C14.7118 58.383 15.3185 59.4435 14.8635 60.3524C14.5602 60.8069 14.1051 61.1099 13.6501 61.4129C12.1334 62.0189 10.4651 61.8674 9.25174 60.9584C8.64506 60.6554 8.19 60.2009 7.58332 59.898C6.97665 59.595 6.06671 59.292 5.76337 58.686C4.55002 57.0196 4.24661 55.8076 3.03326 59.595Z" fill="white"/>
<path d="M5.30835 53.2321C4.39834 52.3232 3.4884 51.4142 2.73005 50.3538C1.97171 49.2933 1.66832 47.9299 1.81998 46.5664C1.97165 45.203 2.88167 43.8396 4.09502 43.3851C5.6117 42.7791 7.12843 43.6881 8.49345 44.4455C10.7685 45.809 13.0435 47.3239 15.0152 49.2933C15.7735 50.0508 16.3802 51.1112 15.9252 52.0202C15.6218 52.4747 15.1668 52.7777 14.7118 53.0806C13.1951 53.6866 11.9818 54.5956 10.7685 53.6866C10.1618 53.3836 4.85334 50.8083 5.30835 53.2321Z" fill="white"/>
<path d="M7.1284 46.112C6.21839 45.203 5.30835 44.294 4.55001 43.2336C3.79167 42.1731 3.48837 40.8097 3.64003 39.4462C3.7917 38.0828 4.70172 36.7194 5.91507 36.2649C7.43176 35.6589 8.94848 36.5679 10.3135 37.3253C12.5885 38.6888 14.8635 40.2037 16.8352 42.1731C17.5936 42.9306 18.2002 43.9911 17.7452 44.9C17.4419 45.3545 17.2902 47.0209 16.8352 47.1724C15.3186 47.7784 13.3468 46.2634 11.9818 45.506C11.5268 45.203 6.52172 43.6881 7.1284 46.112Z" fill="white"/>
<path d="M5.91513 36.2649C4.70178 36.7194 4.55013 31.5686 4.7018 30.2051C4.85346 28.8417 5.76348 27.4782 6.97683 27.0238C8.49352 26.4178 10.0102 27.3267 11.3752 28.0842C13.6502 29.4477 15.9253 30.9626 17.897 32.932C18.6553 33.6895 19.262 34.7499 18.807 35.6589C18.5036 36.1134 20.9303 40.8097 20.4753 41.1127C18.9586 41.7186 16.987 41.7186 15.7736 40.8097C15.1669 40.5067 9.10017 35.2044 5.91513 36.2649Z" fill="white"/>
<path d="M12.8919 62.6248C10.1618 62.6248 6.82512 59.7464 4.85342 58.08C4.70175 57.9285 4.39847 57.777 4.2468 57.6255C3.94346 57.474 3.94346 57.0195 4.2468 56.868C4.39847 56.565 4.85348 56.565 5.00515 56.868C5.15681 57.0195 5.30843 57.171 5.61177 57.3225C7.58346 58.9889 11.6786 62.4733 13.8019 61.4128C14.4086 61.1098 14.7119 60.6553 14.7119 60.2009C14.7119 58.5344 11.5269 55.6561 8.64514 53.6867C6.97679 52.6262 5.15676 51.5657 3.33673 52.0202C1.97171 52.3232 1.0617 53.6866 1.0617 55.3531C1.0617 57.0195 2.27511 58.5344 3.48846 59.7464L3.64009 59.8979C3.79176 60.2009 3.79176 60.5038 3.64009 60.6553C3.33675 60.8068 3.03341 60.8068 2.88174 60.6553L2.73011 60.5039C1.51676 59.1404 0 57.474 0 55.3531C0 53.2322 1.36508 51.2628 3.1851 50.9598C5.46013 50.5053 7.58346 51.7172 9.40349 52.7777C10.9202 53.8381 16.077 57.3225 16.077 60.2009C16.077 60.8068 15.7736 61.7158 14.5603 62.3218C13.9536 62.6248 13.4985 62.6248 12.8919 62.6248Z" fill="black"/>
<path d="M17.8969 50.5053C16.6836 50.5053 15.1669 49.8994 14.5602 48.9904C14.4085 48.6874 14.4085 48.3844 14.7118 48.2329C15.0152 48.0814 15.3185 48.0814 15.4702 48.3844C15.9252 48.9904 17.2902 49.4449 18.2002 49.4449C18.5035 49.4449 18.8069 49.2934 18.9585 49.1419C19.2619 48.6874 19.1103 45.6575 16.8352 42.9307C14.4085 40.0523 10.4651 37.0224 7.73511 36.8709C6.21842 36.8709 5.15668 37.1739 4.55001 38.0829C3.63999 39.2948 3.79172 41.4157 4.70173 43.6881C4.8534 43.9911 4.70171 44.2941 4.39837 44.4456C4.09504 44.5971 3.7917 44.4456 3.64003 44.1426C2.57835 41.5672 2.57835 38.9918 3.64003 37.4769C4.2467 36.5679 5.46004 35.659 7.88674 35.659C11.2235 35.8105 15.3186 39.1433 17.8969 42.0217C20.4753 45.0516 20.7786 48.5359 20.172 49.5964C19.8686 50.2023 19.2619 50.5053 18.5036 50.5053C18.2002 50.5053 18.0486 50.5053 17.8969 50.5053Z" fill="black"/>
<path d="M15.1669 58.5344C14.7119 58.5344 14.4086 58.5344 14.2569 58.3829C13.9536 58.2314 13.8019 57.9284 13.9536 57.6254C14.1052 57.3225 14.4086 57.171 14.7119 57.3225C15.0153 57.474 16.6836 57.3225 17.2903 56.4135C17.5936 55.959 17.5936 55.2016 17.4419 54.2926C16.9869 52.4747 16.077 50.8082 14.5603 48.8388C12.4369 46.2634 9.85852 44.597 7.12848 43.991C6.0668 43.688 3.94349 44.1425 2.73014 45.506C1.66846 46.7179 1.66846 48.6873 2.73014 51.1112C2.88181 51.4142 2.73012 51.7172 2.42678 51.8687C2.12344 52.0202 1.82011 51.8687 1.66844 51.5657C0.151748 48.0814 0.910111 45.9604 1.97179 44.7485C3.48848 42.9306 6.06682 42.6276 7.43184 42.9306C10.4652 43.688 13.1952 45.506 15.4703 48.2329C17.1386 50.3538 18.2004 52.1717 18.6554 54.1411C18.9587 55.353 18.807 56.262 18.5036 57.0195C17.5936 58.2314 16.2286 58.5344 15.1669 58.5344Z" fill="black"/>
<path d="M18.9585 43.991C17.8969 43.991 17.1386 43.5365 16.3802 42.6276C16.2286 42.3246 16.2286 42.0216 16.3802 41.8701C16.6836 41.7186 16.9869 41.7186 17.1386 41.8701C17.5936 42.4761 18.2002 42.7791 18.8069 42.9306C19.4136 42.9306 20.0203 42.6276 20.172 42.3246C21.3853 41.1126 20.3236 38.6887 19.5653 37.4768L19.1103 36.8708C17.5936 34.4469 15.9252 32.023 13.8019 30.2051C11.8302 28.5387 7.88675 26.7207 5.91505 28.3872C3.94336 29.9021 5.00502 32.629 5.6117 34.7499C5.76337 35.3559 6.06669 35.9619 6.06669 36.4163C6.06669 36.7193 5.91504 37.0223 5.6117 37.0223C5.30836 37.0223 5.00508 36.8708 5.00508 36.5678C4.85341 36.1134 4.70167 35.6589 4.55 35.0529C3.79165 32.7805 2.57834 29.4476 5.15671 27.4782C7.88675 25.2058 12.5885 27.7812 14.5602 29.4476C16.8352 31.4171 18.5036 33.841 20.0202 36.2649L20.4752 36.8708C21.6886 38.6887 22.5987 41.5671 20.9303 43.0821C20.7786 43.3851 20.0202 43.991 18.9585 43.991Z" fill="black"/>
<path d="M41.1023 44.294C39.1306 41.2641 33.5188 35.6588 36.4006 33.8409C37.9172 32.932 41.4057 34.5984 42.619 35.8103C44.5907 37.9312 48.6858 39.7492 50.2025 42.3246C50.8091 43.2335 52.9325 48.5358 52.1742 49.4448C51.7191 49.8992 51.8708 54.444 51.7192 55.05C45.6524 84.8942 41.8607 62.1702 41.8607 60.5038C41.8607 55.959 43.9841 48.9903 41.1023 44.294Z" fill="white"/>
<path d="M43.3774 112.769C43.074 112.769 42.7707 112.466 42.7707 112.163C42.9223 104.285 42.619 96.7107 42.3157 88.6815V87.9241C42.0123 79.8949 44.7423 73.5322 47.0174 67.9269C48.2307 64.8971 49.4441 62.1702 50.2025 59.2918L50.3541 58.3828C51.4158 53.838 52.4775 49.2932 50.8091 45.2029C49.5957 42.6275 47.4724 40.6581 45.0457 38.6887L44.7423 38.3857C43.3773 37.1738 41.4057 35.6588 39.889 34.9013C37.4623 33.6894 36.7039 33.9924 36.4006 34.1439C36.2489 34.1439 36.0973 34.2954 36.0973 35.0528C36.249 38.5372 37.0072 39.4462 38.9789 41.5671C39.434 42.0216 39.889 42.6275 40.4956 43.2335C43.6807 47.0208 42.9224 52.9291 41.8607 58.8373C41.8607 59.1403 41.5573 59.2918 41.254 59.2918C40.9506 59.2918 40.799 58.9888 40.799 58.6858C41.8607 53.0806 42.619 47.4753 39.5857 43.991C38.979 43.385 38.524 42.779 38.069 42.3245C36.0973 40.0521 35.0355 38.9917 34.8839 35.0528C34.8839 33.9924 35.3389 33.5379 35.7939 33.2349C36.7039 32.629 38.2206 32.9319 40.344 33.8409C42.0124 34.5984 43.984 36.2648 45.3491 37.4767L45.6524 37.7797C48.0791 39.7491 50.5058 41.87 51.7192 44.7484C53.6909 49.1417 52.4775 53.9895 51.4158 58.5343L51.2642 59.4433C50.5058 62.4732 49.2924 65.3515 48.0791 68.3814C45.6524 74.1382 43.074 80.0464 43.3774 87.9241V88.6815C43.6807 96.7107 43.984 104.285 43.8324 112.315C43.984 112.466 43.6807 112.769 43.3774 112.769Z" fill="black"/>
<path d="M16.8353 112.618C16.5319 112.618 16.2285 112.315 16.2285 112.012C16.3802 103.982 16.3803 95.8018 16.0769 87.7726C16.0769 84.2883 15.4703 81.5614 14.1052 79.1375C13.9536 78.8345 14.1052 78.5315 14.4085 78.38C14.7118 78.2285 15.0152 78.38 15.1668 78.683C16.5319 81.2584 17.2902 84.2882 17.2902 87.9241C17.4419 95.9532 17.4419 104.134 17.4419 112.315C17.4419 112.466 17.1386 112.618 16.8353 112.618Z" fill="black"/>
<path d="M7.28017 191.546C8.64519 149.885 11.5268 148.218 12.8918 106.406C24.8737 109.891 38.524 106.558 47.4724 97.9226C46.4107 175.184 47.4724 157.611 47.4724 189.576L7.28017 191.546Z" fill="white"/>
<path d="M7.28012 192C6.97679 192 6.67341 191.697 6.67341 191.394C7.28009 170.488 8.49347 159.429 9.55516 148.824C10.6168 138.22 11.6785 127.161 12.4368 106.255C12.4368 106.103 12.5885 105.952 12.7402 105.8C12.8918 105.649 13.0435 105.649 13.1952 105.649C25.0253 108.982 38.3722 105.8 47.169 97.3166C47.3207 97.1651 47.624 97.1651 47.7756 97.1651C47.9273 97.3166 48.079 97.4681 48.079 97.6196C47.3206 148.37 47.624 158.369 47.9274 168.064C48.079 173.063 48.2307 178.366 48.2307 189.273C48.2307 189.576 47.9273 189.879 47.624 189.879C47.3207 189.879 47.0173 189.576 47.0173 189.273C47.0173 178.366 46.8657 173.215 46.714 168.216C46.4107 158.671 46.259 148.673 46.8657 98.983C37.9172 106.861 25.0253 109.891 13.4985 106.861C12.8918 127.312 11.6785 138.22 10.7685 148.673C9.70681 159.277 8.64509 170.336 7.88674 191.091C7.88674 191.849 7.58346 192 7.28012 192Z" fill="black"/>
<path d="M7.28012 192C6.97679 192 6.67341 191.697 6.67341 191.394C7.28009 170.488 8.49347 159.429 9.55516 148.824C10.6168 138.22 11.6785 127.161 12.4368 106.255C12.4368 106.103 12.5885 105.952 12.7402 105.8C12.8918 105.649 13.0435 105.649 13.1952 105.649C25.0253 108.982 38.3722 105.8 47.169 97.3166C47.3207 97.1651 47.624 97.1651 47.7756 97.1651C47.9273 97.3166 48.079 97.4681 48.079 97.6196C47.3206 148.37 47.624 158.369 47.9274 168.064C48.079 173.063 48.2307 178.366 48.2307 189.273C48.2307 189.576 47.9273 189.879 47.624 189.879C47.3207 189.879 47.0173 189.576 47.0173 189.273C47.0173 178.366 46.8657 173.215 46.714 168.216C46.4107 158.671 46.259 148.673 46.8657 98.983C37.9172 106.861 25.0253 109.891 13.4985 106.861C12.8918 127.312 11.6785 138.22 10.7685 148.673C9.70681 159.277 8.64509 170.336 7.88674 191.091C7.88674 191.849 7.58346 192 7.28012 192Z" fill="black"/>
</svg>
