<svg width="101" height="42" viewBox="0 0 101 42" fill="none" xmlns="http://www.w3.org/2000/svg">
<path d="M13.1481 40.9366C36.1139 41.0885 59.0798 41.2404 82.1977 41.3923C84.479 41.3923 86.9125 41.3923 89.1938 40.6327C105.924 34.8599 99.384 21.4914 98.3193 18.7569C96.4942 14.3513 90.5627 12.9841 86.152 14.6551C81.7414 16.3262 78.3954 19.9722 75.3536 23.4663C76.5703 15.4147 72.6159 6.75554 65.6196 2.80573C58.4713 -1.14408 48.7375 0.375075 43.5664 6.60362C39.612 11.4649 38.6995 17.9973 37.939 24.2258C36.266 19.6684 33.8325 15.1109 29.8781 12.2245C25.9238 9.3381 19.8401 8.88235 16.342 12.2245C12.3876 15.8705 12.8439 22.2509 13.6044 27.568C11.4751 24.2258 6.15185 23.922 3.26211 26.5046C0.372369 29.0871 0.0682139 33.9484 2.1975 37.2906C4.02259 40.7847 7.97695 40.9366 13.1481 40.9366Z" fill="white"/>
<path d="M82.9582 42C82.8061 42 82.5018 42 82.3498 42L13.3002 41.5443C8.43326 41.5443 3.87053 41.5443 1.43706 37.7464C-0.84431 34.1004 -0.388054 28.9352 2.65378 26.2008C4.17469 24.8335 6.60817 24.0739 8.88954 24.3778C10.2584 24.5297 11.6272 25.1374 12.5397 25.8969C11.9314 20.428 12.0835 15.1109 15.7337 11.7688C19.8401 7.97087 26.0759 9.03428 30.0303 11.7688C33.6805 14.3513 36.1139 18.4531 37.4827 21.9471C38.0911 16.6301 39.3078 10.7054 42.958 6.14789C48.2812 -0.232571 58.3193 -1.90364 65.7718 2.35C72.4638 6.14789 76.4182 13.8956 75.9619 21.7952C78.5475 18.7569 81.7414 15.5667 85.8479 14.0475C90.5627 12.3764 96.7985 13.7437 98.7757 18.4531C98.7757 18.605 98.9278 18.7569 98.9278 18.9088C99.8403 21.1875 102.426 27.1123 99.8403 32.7331C98.1673 36.3791 94.6692 39.2655 89.1939 41.0885C87.2167 42 85.0874 42 82.9582 42ZM7.67283 25.5931C5.99982 25.5931 4.47887 26.2008 3.26213 27.1123C0.676577 29.5429 0.220331 33.9485 2.19752 37.1387C4.17471 40.0251 7.5207 40.3289 13.1481 40.3289L82.1977 40.7847C84.4791 40.7847 86.9125 40.7847 89.0418 40.0251C94.0608 38.354 97.4069 35.6195 98.9278 32.2774C101.209 27.1123 98.7757 21.4914 98.0152 19.3646C98.0152 19.2126 97.8631 19.0607 97.8631 18.9088C96.1901 14.8071 90.5627 13.5918 86.4562 15.1109C82.0456 16.6301 78.6996 20.428 75.8098 23.7701C75.6577 23.922 75.3536 24.0739 75.2015 23.922C74.8973 23.7701 74.8973 23.6182 74.8973 23.3144C76.114 15.2628 72.1597 7.05937 65.4676 3.26148C58.4714 -0.688333 48.8896 0.982754 44.0227 6.90747C39.9162 11.7688 39.1558 18.7569 38.5474 24.2259C38.5474 24.5297 38.2432 24.6816 38.0911 24.6816C37.787 24.6816 37.6348 24.5297 37.4827 24.3778C36.1139 20.7318 33.8326 15.7186 29.574 12.6803C26.0759 10.2496 20.2964 9.33812 16.6462 12.6803C12.996 16.0224 13.3002 21.7952 14.0606 27.568C14.0606 27.8718 13.9086 28.0238 13.7565 28.1757C13.4523 28.3276 13.1481 28.1757 13.1481 28.0237C12.2355 26.6565 10.7146 25.745 9.04164 25.5931C8.28118 25.5931 7.97701 25.5931 7.67283 25.5931Z" fill="black"/>
<g opacity="0.1294">
<path d="M97.2547 32.4292C96.6464 32.4292 96.1901 32.885 95.7338 33.3407C94.9734 33.7965 94.2129 34.2522 93.4524 34.708C88.8897 37.5944 84.3269 36.9867 75.8098 36.2271C69.5741 35.9233 63.3383 36.379 57.2546 35.9233C54.2128 35.7714 51.171 35.4675 48.1291 35.4675C44.1748 35.6195 40.0683 35.6195 36.1139 35.7714C28.6614 35.9233 18.3192 37.4424 12.8439 36.6829C10.8667 36.379 8.88951 35.9233 7.06441 35.3156C5.99977 35.0118 4.78306 34.2522 3.71842 34.4041C1.74123 34.556 1.43703 37.5943 3.41422 38.202C7.06442 39.5692 10.8667 40.6327 14.669 40.9365C21.8173 41.0884 29.1177 40.025 36.266 40.025C41.1329 40.025 46.152 40.025 51.0189 40.025C54.3649 40.1769 57.5588 40.6327 60.9049 40.6327C64.5551 40.7846 68.2052 40.6327 71.8554 40.6327C74.7452 40.6327 77.4828 40.4808 80.3726 40.7846C83.7186 41.0884 87.3688 40.9365 90.5627 39.8731C93.4525 38.8097 96.1901 37.1386 98.6236 35.0118C99.384 34.2522 98.6236 32.4292 97.2547 32.4292Z" fill="black"/>
</g>
</svg>
