<svg width="80" height="91" viewBox="0 0 80 91" fill="none" xmlns="http://www.w3.org/2000/svg">
<path d="M23.305 0.062858C23.0016 10.2157 29.3734 20.6717 38.9312 24.0055C44.2411 25.8239 49.8544 25.5208 55.316 27.0362C60.7776 28.5515 66.0875 32.4914 66.2392 37.9467C66.2392 41.5836 64.1153 49.918 75.1901 54.9187C84.2928 59.0102 82.1688 80.8313 53.9506 89.9234C45.3031 92.8026 50.9164 85.6804 41.9654 84.3166C33.1662 82.9528 25.1255 77.9521 18.9054 71.4361C12.6852 64.92 8.43736 56.8886 5.09972 48.5542C1.15524 39.0075 -1.42382 28.4 0.851838 18.3987C3.1275 8.24578 11.9267 -0.846355 23.305 0.062858Z" fill="#ACD4F7"/>
</svg>
