<svg width="62" height="57" viewBox="0 0 62 57" fill="none" xmlns="http://www.w3.org/2000/svg">
<g opacity="0.1294">
<path d="M61.3905 10.8338C61.0294 9.6519 60.4878 8.27301 60.1267 7.09114C59.4044 4.72741 58.321 2.36373 57.5988 0C57.4182 0 57.2377 0 57.2377 0C54.7098 1.18186 56.1543 2.95463 56.1543 5.31836C56.3349 7.68209 56.8765 9.84884 57.2377 12.2126C57.5988 14.5763 57.5988 16.94 57.4183 19.3038C57.4183 19.3038 57.4183 19.3038 57.4183 19.5008C57.0572 20.8796 56.5155 22.0615 56.1543 23.2433C54.7099 28.5617 53.9876 30.3345 51.0987 34.4711C50.9181 34.668 50.5569 35.062 50.3764 35.4559C50.1958 35.8499 49.293 37.0318 49.1124 37.4257L48.9319 37.6227C48.7514 37.8196 48.7513 38.0166 48.5708 38.2136C48.2097 38.8046 46.404 40.7743 46.404 40.7743C43.8762 42.7441 44.0568 42.7441 41.3484 44.9108C39.3622 46.2897 37.1955 47.4715 34.8482 48.6534C32.1398 49.8353 28.7092 51.4111 24.5563 51.8051C21.3062 51.8051 18.0561 51.805 14.806 51.4111C9.75028 50.4262 8.48642 49.4413 4.15298 47.0776C2.88905 46.2897 1.62504 44.7139 0 44.9108C1.08336 46.2897 2.34728 47.4716 3.61121 48.8504C5.05569 50.4262 6.6808 52.002 8.30584 53.7748C13.3615 55.7446 18.7783 56.9265 24.1951 56.7295C27.2647 56.5325 30.3342 56.5325 33.2231 55.5476C38.4594 54.1688 43.3346 51.4111 47.4875 47.8655C50.557 44.9108 53.9876 42.3501 56.5155 38.8045C60.1267 32.6982 61.7517 25.41 61.9323 19.8947C62.1128 17.9249 61.9322 14.3794 61.3905 10.8338Z" fill="black"/>
</g>
</svg>
