<svg width="9" height="9" viewBox="0 0 9 9" fill="none" xmlns="http://www.w3.org/2000/svg">
<path d="M4.4957 8.33928C6.62388 8.33928 8.34911 6.61605 8.34911 4.49033C8.34911 2.36461 6.62388 0.641354 4.4957 0.641354C2.36752 0.641354 0.642296 2.36461 0.642296 4.49033C0.642296 6.61605 2.36752 8.33928 4.4957 8.33928Z" fill="white"/>
<path d="M4.49568 8.98089C1.92674 8.98089 0 6.89606 0 4.49046C0 1.92448 2.0873 0 4.49568 0C7.06462 0 8.99131 2.08486 8.99131 4.49046C9.15187 6.89606 7.06462 8.98089 4.49568 8.98089ZM4.49568 1.12261C2.72953 1.12261 1.12393 2.56598 1.12393 4.49046C1.12393 6.25456 2.56897 7.85828 4.49568 7.85828C6.42239 7.85828 7.86743 6.41494 7.86743 4.49046C7.86743 2.56598 6.42239 1.12261 4.49568 1.12261Z" fill="black"/>
</svg>
