<svg width="187" height="82" viewBox="0 0 187 82" fill="none" xmlns="http://www.w3.org/2000/svg">
<path d="M141.972 80.8651C150.311 80.8651 183.816 80.8651 186.242 80.8651L186.394 70.8706L139.547 70.4162L141.972 80.8651Z" fill="white"/>
<path d="M186.242 81.4707H141.972C141.669 81.4707 141.518 81.3193 141.366 81.0164L138.94 70.5676C138.94 70.4161 138.94 70.2647 139.092 70.1133C139.244 69.9619 139.395 69.9618 139.547 69.9618L186.394 70.4161C186.545 70.4161 186.697 70.4161 186.848 70.5676C187 70.719 187 70.8704 187 71.0218L186.848 81.0164C186.848 81.1678 186.545 81.4707 186.242 81.4707ZM142.427 80.2593H185.635L185.787 71.3247L140.305 71.0218L142.427 80.2593Z" fill="black"/>
<path d="M0.522173 0.6056L111.954 1.21132L150.008 80.8649L38.2726 80.4106L0.522173 0.6056Z" fill="white"/>
<path d="M150.008 81.4708L38.2726 81.0165C38.121 81.0165 37.8178 80.8651 37.8178 80.7137L0.0673813 0.908606C-0.0842267 0.757173 0.0673813 0.454317 0.0673813 0.302884C0.218989 0.151451 0.370579 0 0.522187 0L111.954 0.605745C112.106 0.605745 112.409 0.757173 112.409 0.908606L150.463 80.5622C150.614 80.7137 150.463 81.0165 150.463 81.1679C150.311 81.3194 150.159 81.4708 150.008 81.4708ZM38.5758 79.8051L149.098 80.2593L111.651 1.81721L1.43184 1.21147L38.5758 79.8051Z" fill="black"/>
<path d="M71.0199 32.7095C67.8361 32.4066 64.3491 33.3152 63.1363 36.1924C61.7718 39.0696 62.8331 42.704 65.2588 44.8241C67.5329 46.9441 71.0199 47.7013 74.2036 46.9441C75.8713 46.6413 77.5391 45.7327 78.4487 44.3698C79.0552 43.3098 79.3583 42.2497 79.3583 41.0383C79.3583 37.101 77.539 33.4666 71.0199 32.7095Z" fill="white"/>
<path d="M71.6264 47.8528C69.049 47.8528 66.4716 46.9441 64.6523 45.2784C62.075 42.8555 61.1654 38.9182 62.5299 35.8896C63.7428 33.1638 66.9265 31.6495 71.0199 32.1038C78.2971 32.8609 79.8131 37.2525 79.8131 40.8868C79.8131 42.2497 79.5099 43.6126 78.7519 44.5212C77.539 46.3384 75.5681 47.0956 74.0521 47.3985C73.294 47.7013 72.536 47.8528 71.6264 47.8528ZM69.8071 33.3152C67.9878 33.3152 64.8039 33.7695 63.5911 36.4953C62.3782 39.0697 63.2879 42.4012 65.562 44.5212C67.6846 46.4898 70.8683 47.247 73.9005 46.4899C75.7198 46.0356 77.0842 45.2784 77.8423 44.0669C78.6003 43.0069 78.7519 41.7955 78.7519 41.0383C78.7519 36.4953 76.1746 33.9209 71.0199 33.3152C70.7167 33.3152 70.2619 33.3152 69.8071 33.3152Z" fill="black"/>
<path d="M7.64774 8.0259C7.49613 7.87447 7.49612 7.87447 7.49612 7.72304C8.40577 6.51158 9.31541 5.45156 10.3767 4.39153C10.3767 4.24009 10.5283 4.24009 10.6799 4.39153C10.8315 4.39153 10.8315 4.54295 10.6799 4.69439C9.77025 5.60298 8.70899 6.81444 7.64774 8.0259C7.79935 8.0259 7.79935 8.0259 7.64774 8.0259Z" fill="black"/>
<path d="M10.225 12.266C10.0734 12.1146 10.0734 11.9631 10.0734 11.9631C12.6508 9.08589 15.3797 6.36012 18.2603 3.63433C18.2603 3.63433 18.4119 3.63433 18.5635 3.63433C18.5635 3.78577 18.5635 3.78576 18.5635 3.93719C15.6829 6.51155 12.954 9.38877 10.225 12.266Z" fill="black"/>
<path d="M12.6508 17.112C12.4992 16.9605 12.4992 16.8091 12.4992 16.8091C16.441 12.569 20.5344 8.4803 24.4762 4.39161C24.4762 4.39161 24.6278 4.24018 24.7794 4.39161C24.7794 4.39161 24.7794 4.54304 24.7794 4.69447C20.686 8.78316 16.7442 12.8719 12.6508 17.112Z" fill="black"/>
<path d="M15.0765 22.8663C14.9249 22.7149 14.9249 22.8663 15.0765 22.8663C14.9249 22.7149 14.9249 22.5634 14.9249 22.5634C20.0796 16.5061 25.6891 10.6002 31.2986 4.99724C31.2986 4.99724 31.4502 4.99724 31.6018 4.99724C31.6018 4.99724 31.6018 5.14867 31.6018 5.3001C25.8407 10.7517 20.3828 16.6576 15.0765 22.8663Z" fill="black"/>
<path d="M17.8055 27.7122C17.6538 27.7122 17.6538 27.7122 17.8055 27.7122C17.6538 27.5608 17.6538 27.4093 17.6538 27.4093L37.5145 5.14871C37.5145 4.99728 37.6661 4.99728 37.8177 5.14871C37.9693 5.14871 37.9693 5.30014 37.8177 5.45157L17.8055 27.7122Z" fill="black"/>
<path d="M20.3828 33.1636C20.2312 33.0122 20.2312 32.8608 20.2312 32.8608C28.2664 23.3205 36.908 13.9317 45.7013 4.84575C45.7013 4.84575 45.8529 4.69432 46.0045 4.84575C46.0045 4.84575 46.1562 4.99718 46.0045 5.14861C37.2113 14.0831 28.7212 23.4719 20.3828 33.1636C20.5344 33.1636 20.5344 33.1636 20.3828 33.1636Z" fill="black"/>
<path d="M22.9601 39.0696C22.8085 38.9182 22.8086 38.7667 22.8086 38.7667L53.2817 4.84579C53.2817 4.69435 53.4334 4.69435 53.585 4.84579C53.7366 4.84579 53.7366 4.99722 53.585 5.14865L22.9601 39.0696C23.1118 39.0696 23.1118 39.0696 22.9601 39.0696Z" fill="black"/>
<path d="M25.0827 44.8241C24.9311 44.6726 24.9311 44.5212 24.9311 44.5212L60.4073 4.99725C60.4073 4.84582 60.559 4.84582 60.7106 4.99725C60.8622 4.99725 60.8622 5.14868 60.7106 5.30011L25.0827 44.8241C25.2343 44.8241 25.2343 44.8241 25.0827 44.8241Z" fill="black"/>
<path d="M28.1148 49.9728C27.9632 49.8213 27.9632 49.6699 27.9632 49.6699C34.0275 42.704 40.2435 35.4352 46.7626 28.6207C49.4915 25.8949 52.6753 21.8063 56.1623 17.7176C59.4977 13.6289 63.2879 9.08593 67.0781 4.99725C67.0781 4.84582 67.2296 4.84582 67.3813 4.99725C67.5329 4.99725 67.5329 5.14868 67.3813 5.30011C63.5911 9.38879 59.8009 14.0832 56.4655 18.0204C52.9785 22.2606 49.6432 26.1978 46.9142 29.0751C40.5467 35.7381 34.3308 43.0069 28.1148 49.9728Z" fill="black"/>
<path d="M30.8437 55.8786C30.6921 55.7272 30.6921 55.5758 30.6921 55.5758L75.4165 4.99725C75.4165 4.84582 75.5681 4.84582 75.7197 4.99725C75.8713 4.99725 75.8713 5.14868 75.7197 5.30011L30.8437 55.8786Z" fill="black"/>
<path d="M33.4211 61.1787C33.2695 61.0273 33.2695 60.8759 33.2695 60.8759L84.8162 4.69433C84.8162 4.54289 84.9678 4.54289 85.1194 4.69433C85.271 4.69433 85.271 4.84575 85.1194 4.99719L33.4211 61.1787C33.5727 61.1787 33.5727 61.1787 33.4211 61.1787Z" fill="black"/>
<path d="M36.3017 67.6905C36.15 67.5391 36.15 67.3876 36.15 67.3876C43.4272 58.9074 51.0076 50.5786 58.8912 42.7041C58.8912 42.7041 59.0429 42.7041 59.1945 42.7041C59.1945 42.7041 59.1945 42.8555 59.1945 43.0069C51.3109 50.8814 43.7304 59.0588 36.3017 67.6905Z" fill="black"/>
<path d="M70.8683 29.3779C70.7167 29.2264 70.7167 29.075 70.7167 29.075C74.3552 24.9863 78.2971 20.8977 82.2389 16.9604C86.0291 13.0232 90.1225 8.93447 93.7611 4.84579C93.7611 4.69435 93.9127 4.69435 94.0643 4.84579C94.2159 4.84579 94.2159 4.99722 94.0643 5.14865C90.4257 9.23733 86.4839 13.326 82.5421 17.2632C78.7519 21.2005 74.6585 25.2892 70.8683 29.3779C71.0199 29.3779 71.0199 29.3779 70.8683 29.3779Z" fill="black"/>
<path d="M39.0306 73.2933C38.879 73.2933 38.879 73.2933 39.0306 73.2933C38.879 73.1419 38.8789 72.9905 38.8789 72.9905L61.7718 47.5498C61.7718 47.3983 61.9233 47.3983 62.075 47.5498C62.2266 47.5498 62.2266 47.7012 62.075 47.8526L39.0306 73.2933Z" fill="black"/>
<path d="M77.8422 31.3465C77.6906 31.1951 77.6907 31.0437 77.6907 31.0437C85.5743 21.8063 94.0643 12.8717 103.009 4.39152C103.161 4.39152 103.161 4.39152 103.312 4.39152C103.312 4.54295 103.312 4.54295 103.312 4.69438C94.3675 13.1746 85.8775 22.1091 77.8422 31.3465Z" fill="black"/>
<path d="M42.6691 77.5335C42.5175 77.3821 42.5176 77.2306 42.5176 77.2306C51.0076 68.9018 59.4977 60.1187 67.5329 51.1842C67.5329 51.0328 67.6845 51.0328 67.8361 51.1842C67.9877 51.1842 67.9877 51.3356 67.8361 51.4871C59.8009 60.2702 51.4624 69.0533 42.6691 77.5335C42.8208 77.5335 42.8208 77.3821 42.6691 77.5335Z" fill="black"/>
<path d="M81.9357 35.8896C81.7841 35.7381 81.784 35.5867 81.784 35.5867C91.0321 25.7436 100.432 15.9004 110.135 6.51161C110.135 6.51161 110.286 6.51161 110.438 6.51161C110.438 6.51161 110.438 6.66303 110.438 6.81447C100.887 16.2033 91.3354 26.0464 81.9357 35.8896C82.0873 35.8896 82.0873 35.8896 81.9357 35.8896Z" fill="black"/>
<path d="M50.856 77.3821C50.7044 77.2307 50.7044 77.0792 50.7044 77.0792C55.5558 71.9305 60.5589 66.7818 65.2588 61.7845C80.8744 45.2784 96.9449 28.3179 113.319 12.266C113.319 12.266 113.47 12.266 113.622 12.266C113.622 12.266 113.622 12.4175 113.622 12.5689C97.248 28.6208 81.1776 45.5812 65.562 62.0874C60.7105 66.9332 55.8591 72.2334 50.856 77.3821Z" fill="black"/>
<path d="M60.1041 77.2307C59.9525 77.2307 59.9525 77.2307 60.1041 77.2307C59.9525 77.0793 59.9525 76.9279 59.9525 76.9279C77.6906 56.6359 97.3997 37.4039 116.351 18.9291C116.351 18.9291 116.502 18.9291 116.654 18.9291C116.654 18.9291 116.654 19.0805 116.654 19.232C97.5512 37.7068 77.9938 56.7873 60.1041 77.2307Z" fill="black"/>
<path d="M69.2006 77.0792C69.0489 76.9278 69.049 76.7763 69.049 76.7763C85.1194 59.0587 101.948 41.3411 118.928 24.5321C118.928 24.5321 119.08 24.5321 119.231 24.5321C119.231 24.5321 119.231 24.6835 119.231 24.8349C102.251 41.6439 85.4226 59.2101 69.2006 77.0792Z" fill="black"/>
<path d="M78.7519 76.4735C78.6003 76.322 78.6003 76.1706 78.6003 76.1706L121.202 31.1951C121.202 31.1951 121.354 31.0437 121.505 31.1951C121.657 31.1951 121.657 31.3466 121.505 31.498L78.7519 76.4735C78.9035 76.4735 78.9035 76.4735 78.7519 76.4735Z" fill="black"/>
<path d="M89.3644 76.1706C89.2128 76.1706 89.2128 76.1706 89.3644 76.1706C89.2128 76.0192 89.2128 75.8677 89.2128 75.8677C100.583 62.996 112.56 50.2756 124.689 38.161C124.689 38.161 124.841 38.161 124.992 38.161C124.992 38.161 124.992 38.3124 124.992 38.4638C112.712 50.427 100.735 63.1474 89.3644 76.1706Z" fill="black"/>
<path d="M97.7028 76.1706C97.5512 76.0192 97.5513 75.8677 97.5513 75.8677C103.616 69.0533 110.135 62.0874 116.502 55.4243C119.838 51.7899 123.325 48.1555 126.812 44.5211C126.812 44.3697 126.963 44.3697 127.115 44.5211C127.266 44.5211 127.266 44.6726 127.115 44.824C123.779 48.4584 120.292 52.0928 116.805 55.7272C110.438 62.3902 103.919 69.2047 97.7028 76.1706C97.8544 76.1706 97.8544 76.1706 97.7028 76.1706Z" fill="black"/>
<path d="M105.89 76.1706C105.738 76.0192 105.738 75.8677 105.738 75.8677C112.257 69.3561 123.021 57.8473 129.086 51.1842C129.086 51.0328 129.237 51.0328 129.389 51.1842C129.541 51.1842 129.541 51.3356 129.389 51.4871C123.325 57.9987 112.56 69.5076 105.89 76.1706Z" fill="black"/>
<path d="M114.986 75.7164C114.835 75.5649 114.835 75.4135 114.835 75.4135C120.747 69.3562 126.508 62.996 132.118 56.6358C132.118 56.4844 132.269 56.4844 132.421 56.6358C132.573 56.6358 132.573 56.7873 132.421 56.9387C126.812 63.2989 121.051 69.5076 114.986 75.7164C115.138 75.7164 115.138 75.7164 114.986 75.7164Z" fill="black"/>
<path d="M122.87 75.8677C122.718 75.7163 122.718 75.5649 122.718 75.5649L135.302 62.2388C135.302 62.0874 135.453 62.0874 135.605 62.2388C135.756 62.2388 135.756 62.3903 135.605 62.5417L122.87 75.8677C123.021 75.8677 123.021 75.8677 122.87 75.8677Z" fill="black"/>
<path d="M131.208 76.0192C131.057 76.0192 131.057 76.0192 131.208 76.0192C131.057 75.8678 131.057 75.7163 131.057 75.7163C133.634 72.9905 136.211 70.2647 138.94 67.539C138.94 67.539 139.092 67.539 139.243 67.539C139.243 67.539 139.243 67.6904 139.243 67.8418C136.515 70.4162 133.786 73.142 131.208 76.0192Z" fill="black"/>
<path d="M139.243 76.4735C139.092 76.3221 139.092 76.1706 139.092 76.1706L141.821 73.2934C141.821 73.142 141.972 73.142 142.124 73.2934C142.276 73.2934 142.276 73.4448 142.124 73.5963L139.243 76.4735C139.395 76.4735 139.395 76.4735 139.243 76.4735Z" fill="black"/>
</svg>
