<svg width="585" height="406" viewBox="0 0 585 406" fill="none" xmlns="http://www.w3.org/2000/svg">
<path d="M383.214 400.551C410.536 400.551 447.143 398.603 481.607 398.603C488.75 334.901 492.679 286.004 508.929 218.211C474.643 216.458 401.071 217.043 390.714 219.965C388.571 280.939 386.429 341.135 383.214 400.551Z" fill="white"/>
<path d="M383.214 401.331C383.036 401.331 382.857 401.331 382.679 401.136C382.5 400.941 382.5 400.746 382.5 400.551C385.893 339.771 388.036 276.264 390 220.159C390 219.77 390.179 219.575 390.536 219.38C401.25 216.263 475.714 215.874 509.107 217.432C509.286 217.432 509.464 217.627 509.643 217.822C509.821 218.017 509.821 218.211 509.821 218.406C495.893 276.654 491.071 321.07 485.536 372.499C484.643 380.876 483.571 389.642 482.679 398.798C482.679 399.188 482.321 399.577 481.964 399.577C463.75 399.577 445.179 400.162 427.143 400.551C411.071 400.746 396.071 401.331 383.214 401.331ZM391.429 220.549C389.464 276.264 387.321 339.382 384.107 399.577C396.786 399.577 411.429 399.188 426.964 398.798C444.643 398.214 463.036 397.824 481.071 397.824C482.143 389.058 483.036 380.486 483.929 372.304C489.464 321.07 494.286 276.849 508.036 218.991C474.821 217.432 403.571 217.822 391.429 220.549Z" fill="black"/>
<path d="M248.214 402.499C250 364.122 246.607 323.213 232.5 287.953C224.464 307.628 214.821 326.33 204.107 344.252C200.714 337.823 197.5 331.005 194.464 324.187C193.75 322.434 192.857 320.68 192.143 318.927C187.857 309.381 183.571 299.836 179.643 290.095C184.821 266.913 190.714 243.926 197.5 221.133C198.393 218.017 199.464 214.9 201.071 211.978C204.464 206.133 210 202.627 215.714 199.51C231.071 191.133 247.5 184.899 263.929 181.393C265.536 178.665 267.679 176.523 270.357 175.159C272.679 184.704 278.036 192.886 284.286 199.899C287.143 203.211 290.893 206.328 294.821 205.938C305.536 201.848 311.607 189.964 320.536 182.367C323.572 179.834 327.5 177.691 331.786 178.081C341.071 180.029 350.179 181.977 359.464 183.925C374.643 187.042 390.357 190.549 403.036 200.289C405.714 202.432 408.393 204.77 411.071 208.276C425.714 244.316 436.786 281.914 445.714 320.096C450 338.603 453.929 358.083 450 377.174C447.679 382.824 443.929 387.694 439.464 391.59C436.786 394.123 433.929 396.266 430.714 397.434C426.964 398.798 423.036 398.993 419.107 398.993C410.714 399.188 402.5 399.383 394.107 399.577L248.214 402.499Z" fill="white"/>
<path d="M248.214 342.304C238.393 349.122 230.714 359.447 226.786 371.525C226.25 373.083 225.714 374.837 226.25 376.59C226.607 378.148 228.393 379.707 230.179 378.928C229.821 380.681 230.893 382.824 232.5 383.408C234.107 383.993 236.071 382.824 236.786 381.071C237.321 382.239 238.571 382.629 239.643 382.239C240.714 382.045 241.607 381.265 242.5 380.486C244.821 378.538 246.964 376.59 249.286 374.642C252.143 372.109 255.179 369.577 258.393 367.824C260.179 366.85 262.143 366.07 263.75 364.902C267.143 362.174 268.75 357.304 267.5 352.823C266.429 348.927 263.393 346.2 260.536 343.668C258.929 342.499 257.322 341.33 255.357 340.94C252.322 340.745 249.643 342.499 248.214 342.304Z" fill="white"/>
<path d="M221.786 402.499C240.536 402.11 259.464 401.915 278.214 401.525L278.036 387.889L217.5 389.447L221.786 402.499Z" fill="#ACD4F7"/>
<path d="M221.786 403.279C221.429 403.279 221.25 403.084 221.071 402.694L216.786 389.642C216.786 389.447 216.786 389.058 216.786 388.863C216.964 388.668 217.143 388.473 217.321 388.473L277.857 386.915C278.036 386.915 278.214 386.915 278.393 387.11C278.571 387.305 278.571 387.499 278.571 387.694L278.75 401.331C278.75 401.525 278.75 401.72 278.571 401.915C278.393 402.11 278.214 402.11 278.036 402.11L221.786 403.279ZM218.393 390.227L222.321 401.72L277.5 400.746L277.321 388.668L218.393 390.227Z" fill="black"/>
<path d="M267.321 137.171C269.821 155.288 270.893 173.406 270.357 191.718C270.357 193.276 270.357 194.834 270.893 196.198C271.607 197.562 272.857 198.536 273.929 199.315C282.321 204.964 292.857 207.497 302.321 204.77C311.786 202.042 320.179 193.471 321.071 181.977C316.964 167.172 310.357 146.522 305 122.756C293.571 128.405 281.25 132.691 267.321 137.171Z" fill="white"/>
<path d="M294.464 206.718C287.5 206.718 280.357 204.38 273.75 200.094C272.5 199.315 271.071 198.341 270.357 196.588C269.643 195.029 269.643 193.276 269.643 191.718C270 173.6 268.929 155.288 266.607 137.366C266.607 136.977 266.786 136.587 267.143 136.392C282.143 131.522 293.75 127.236 305 121.782C305.179 121.782 305.357 121.782 305.536 121.782C305.714 121.976 305.893 122.171 305.893 122.366C309.643 139.119 314.107 154.704 317.679 167.172C319.107 172.432 320.536 177.302 321.786 181.588C321.786 181.588 321.786 181.782 321.786 181.977C320.893 193.081 313.214 202.432 302.5 205.549C300 206.328 297.321 206.718 294.464 206.718ZM268.036 137.756C270.357 155.678 271.429 173.795 271.071 191.718C271.071 193.081 271.071 194.64 271.607 195.808C272.143 196.977 273.393 197.951 274.464 198.536C283.393 204.38 293.571 206.328 302.321 203.796C310.714 201.458 319.464 193.666 320.536 181.782C319.286 177.497 318.036 172.626 316.429 167.561C312.857 155.288 308.393 140.093 304.821 123.535C293.929 128.989 282.5 133.08 268.036 137.756Z" fill="black"/>
<path d="M415.714 399.577C397.321 399.577 370 395.486 343.393 391.59C328.393 389.253 314.286 387.304 302.143 385.941C301.786 385.941 301.429 385.551 301.429 385.162C301.429 384.772 301.786 384.382 302.143 384.382C314.107 385.746 328.393 387.889 343.393 390.032C381.25 395.681 424.286 402.11 434.821 394.707C443.571 388.473 449.643 379.317 450.179 371.135C450.714 361.785 449.107 340.356 447.5 331.589C440.714 295.745 416.25 217.432 407.321 206.523C398.75 196.003 385.714 191.718 374.107 188.601C356.786 183.925 339.107 180.419 321.607 178.081C318.929 187.237 313.214 199.705 300.536 209.055C298.036 210.809 295 209.25 292.5 207.887C291.964 207.692 291.429 207.302 291.071 207.107C290.893 206.913 290 206.913 289.107 206.718C284.643 205.938 275.357 204.185 270.893 196.783C268.571 192.886 267.857 187.821 268.929 181.782C252.857 184.704 237.679 189.575 222.321 196.977C215.893 200.094 208.571 204.185 203.75 210.809C199.464 216.653 197.5 224.25 195.714 230.874C185.536 268.861 176.071 307.823 167.679 346.395C167.5 346.784 167.143 347.174 166.786 346.979C166.429 346.784 166.071 346.395 166.25 346.005C174.643 307.433 184.107 268.472 194.286 230.289C196.071 223.471 198.214 215.679 202.679 209.64C207.679 202.822 215.179 198.536 221.786 195.419C237.5 187.821 253.214 182.756 269.821 180.029C270 180.029 270.357 180.029 270.536 180.224C270.714 180.419 270.714 180.614 270.714 181.003C269.464 187.042 270 192.107 272.143 195.808C276.25 202.627 285 204.38 289.286 205.159C290.536 205.354 291.25 205.549 291.607 205.744C292.143 205.938 292.679 206.328 293.036 206.523C295.357 207.692 297.857 209.055 299.643 207.692C312.321 198.341 317.857 185.873 320.357 176.912C320.536 176.523 320.714 176.328 321.071 176.328C338.929 178.665 356.964 182.172 374.464 187.042C386.25 190.354 399.643 194.64 408.571 205.549C418.214 217.432 442.679 298.472 449.107 331.395C450.714 340.161 452.5 361.785 451.786 371.33C451.25 379.902 445 389.642 435.714 396.071C431.964 398.409 425 399.577 415.714 399.577Z" fill="black"/>
<path d="M292.321 219.77C287.679 244.9 283.393 270.03 279.286 295.355C278.571 299.641 277.857 303.927 278.214 308.407C278.75 314.641 281.25 320.096 283.571 325.161C286.429 331.59 289.464 337.823 293.393 344.252C298.036 332.564 302.321 320.485 305.893 308.213C307.143 280.16 298.75 253.082 298.036 225.03C298.036 223.276 298.036 221.523 297.321 219.965C296.786 218.211 295.357 217.237 292.321 219.77Z" fill="white"/>
<path d="M293.571 344.836C293.393 344.836 293.036 344.642 293.036 344.447C289.107 338.018 286.071 331.589 283.214 325.356C280.893 320.291 278.214 314.641 277.679 308.213C277.321 303.732 278.036 299.057 278.75 294.966C282.857 269.835 287.143 244.316 291.786 219.38C291.786 219.185 291.964 218.991 292.143 218.796C293.929 217.432 295.357 217.043 296.429 217.237C297.321 217.432 297.857 218.211 298.393 219.185C299.107 220.744 299.107 222.692 299.107 224.445V224.64C299.464 237.108 301.25 249.575 303.036 261.654C305.357 276.654 307.5 292.238 306.964 307.823V308.018C303.393 320.096 299.286 332.369 294.464 344.252C294.107 344.642 293.75 344.836 293.571 344.836ZM293.036 220.159C288.393 245.095 284.107 270.225 280 295.355C279.286 299.251 278.571 303.732 278.928 308.213C279.464 314.252 281.964 319.901 284.286 324.771C286.964 330.615 289.821 336.654 293.393 342.499C297.857 331.2 301.964 319.511 305.357 308.018C306.071 292.628 303.75 277.238 301.429 262.238C299.643 250.16 297.679 237.497 297.5 225.03V224.835C297.5 223.276 297.5 221.523 296.786 220.159C296.607 219.575 296.25 219.185 295.893 219.185C295.357 218.991 294.464 218.991 293.036 220.159Z" fill="black"/>
<path d="M302.143 385.746C301.786 385.746 301.607 385.551 301.429 385.162C301.25 384.772 301.429 384.382 301.964 384.188C307.857 382.045 310.179 376.98 310 366.85C309.286 345.226 306.25 342.499 305 342.304C304.643 342.304 304.286 341.914 304.464 341.525C304.464 341.135 304.821 340.745 305.179 340.745L308.75 340.551C339.107 339.187 373.393 337.434 394.464 334.512C390.893 322.239 387.5 311.135 384.107 300.225C380.714 288.927 377.143 277.238 373.393 264.576C373.214 264.186 373.571 263.796 373.929 263.602C374.286 263.407 374.643 263.796 374.821 264.186C378.571 276.848 382.143 288.537 385.536 299.836C388.929 310.94 392.5 322.434 396.072 334.901C396.072 335.096 396.072 335.291 396.072 335.486C395.893 335.68 395.714 335.875 395.536 335.875C374.286 338.797 339.464 340.551 308.75 341.914H307.5C309.107 344.252 311.071 350.291 311.429 366.655C311.607 373.863 310.893 382.629 302.5 385.551C302.321 385.746 302.321 385.746 302.143 385.746Z" fill="black"/>
<path d="M28.75 286.394L178.214 287.173L229.821 402.694L78.9286 403.668L28.75 286.394Z" fill="#ACD4F7"/>
<path d="M78.9286 404.448C78.5715 404.448 78.3929 404.253 78.2143 404.058L28.0358 286.784C27.8572 286.589 28.0358 286.199 28.0358 286.005C28.2143 285.81 28.3929 285.615 28.5715 285.615L178.036 286.589C178.393 286.589 178.571 286.784 178.75 286.979L230.357 402.499C230.536 402.694 230.536 403.084 230.357 403.279C230.179 403.474 230 403.668 229.821 403.668L78.9286 404.448ZM30.0001 287.173L79.4643 402.889L228.572 401.915L177.857 287.953L30.0001 287.173Z" fill="black"/>
<path d="M123.393 333.343C119.107 332.953 114.464 334.122 112.857 338.408C111.071 342.694 112.5 347.953 115.536 351.07C118.75 354.187 123.393 355.161 127.5 354.187C129.821 353.603 131.964 352.434 133.214 350.291C134.107 348.927 134.464 346.979 134.464 345.421C134.464 339.771 132.143 334.317 123.393 333.343Z" fill="white"/>
<path d="M124.286 355.356C120.714 355.356 117.5 353.992 115 351.655C111.429 348.148 110.357 342.499 112.143 338.018C113.75 333.927 118.036 331.979 123.571 332.563C133.393 333.538 135.357 340.161 135.357 345.421C135.357 347.564 134.822 349.317 133.929 350.875C132.322 353.408 129.643 354.577 127.679 354.966C126.429 355.356 125.357 355.356 124.286 355.356ZM121.786 334.122C119.286 334.122 115 334.706 113.393 338.797C111.786 342.694 112.857 347.564 115.893 350.681C118.75 353.603 123.036 354.577 127.143 353.603C129.464 353.018 131.429 351.849 132.5 350.096C133.393 348.538 133.571 346.784 133.75 345.616C133.75 338.797 130.179 335.096 123.214 334.317C122.857 334.122 122.321 334.122 121.786 334.122Z" fill="black"/>
<path d="M298.214 206.913C296.25 205.354 293.393 205.354 291.25 206.523C288.036 208.081 285.357 210.029 284.643 213.731C284.464 214.705 286.25 218.796 287.143 220.159C288.214 221.913 290.893 225.03 293.036 225.224C295 225.419 296.786 224.056 298.214 222.692C300.893 220.159 303.036 216.263 302.143 212.562C301.607 210.224 300.179 208.471 298.214 206.913Z" fill="white"/>
<path d="M293.393 226.004C293.214 226.004 293.036 226.004 293.036 226.004C290.179 225.809 287.321 221.913 286.607 220.549C285.893 219.38 283.929 214.9 284.107 213.536C284.821 209.055 288.393 206.913 291.071 205.549C293.929 204.38 296.786 204.575 298.75 206.133C301.071 208.081 302.5 210.029 303.036 212.172C303.75 215.679 302.321 219.77 298.929 223.082C296.786 225.03 295 226.004 293.393 226.004ZM294.464 206.523C293.393 206.523 292.321 206.718 291.429 207.107C287.679 208.861 285.714 210.809 285.357 213.731C285.357 214.315 286.786 218.017 287.679 219.575C288.75 221.328 291.25 224.056 293.036 224.25C294.464 224.445 295.893 223.666 297.679 221.913C298.75 220.744 302.321 216.848 301.429 212.562C301.071 210.614 299.821 209.055 297.679 207.302C296.786 206.718 295.714 206.523 294.464 206.523Z" fill="black"/>
<path d="M253.393 385.941C252.679 385.941 252.143 385.746 251.25 384.967C249.643 383.603 250.714 380.681 251.071 379.902C251.607 378.343 252.5 377.174 253.572 376.2C256.607 372.499 260.357 369.382 264.643 366.85C262.321 366.265 259.643 367.434 257.679 368.603C254.107 370.746 250.714 373.863 247.679 376.785C246.071 378.343 244.464 379.902 242.679 381.265C241.964 381.85 241.071 382.629 240 383.019C238.75 383.408 237.5 383.214 236.607 382.239C235.893 381.46 235.714 380.486 235.714 379.707C235.536 376.98 236.964 374.642 238.214 373.083C244.821 363.928 251.964 358.668 259.822 357.304C260.179 357.304 260.536 357.499 260.714 357.889C260.714 358.278 260.536 358.668 260.179 358.863C252.679 360.226 246.071 365.096 239.464 374.058C238.571 375.421 237.143 377.369 237.321 379.512C237.321 380.097 237.5 380.681 237.857 381.071C238.214 381.46 239.107 381.655 239.822 381.46C240.536 381.265 241.25 380.681 241.964 380.097C243.572 378.733 245.179 377.174 246.786 375.616C250 372.694 253.214 369.577 256.964 367.239C259.643 365.681 263.393 364.122 266.786 366.07C266.964 366.265 267.143 366.46 267.143 366.85C267.143 367.239 266.964 367.434 266.786 367.629C262.143 370.161 258.036 373.668 254.821 377.564C253.929 378.538 253.214 379.707 252.679 380.876C251.964 382.629 251.964 383.798 252.5 384.188C253.571 385.162 254.286 384.772 255.357 383.798C260.179 379.512 264.821 375.811 270 372.889C271.607 371.915 273.929 370.941 275.714 371.915C278.036 373.084 284.822 376.006 296.429 375.226C300.714 374.837 305.179 375.616 309.822 377.174C310.179 377.369 310.357 377.759 310.357 378.148C310.179 378.538 309.822 378.733 309.464 378.733C305.179 377.174 300.714 376.59 296.607 376.98C284.464 377.759 277.5 374.837 275 373.668C273.75 372.889 271.964 373.668 270.536 374.642C265.536 377.564 260.893 381.071 256.071 385.356H255.893C255.357 385.162 254.464 385.941 253.393 385.941Z" fill="black"/>
<path d="M232.857 384.772C232.5 384.772 232.321 384.772 231.964 384.577C230.179 383.993 229.464 381.85 229.464 380.097C229.107 375.811 231.25 371.915 232.857 369.382C238.214 360.616 243.75 355.161 249.286 353.018C249.643 352.824 250 353.018 250.179 353.408C250.357 353.798 250.179 354.187 249.821 354.382C244.643 356.33 239.286 361.59 234.286 370.161C232.857 372.499 230.893 376.2 231.25 379.902C231.25 381.071 231.786 382.629 232.857 382.824C233.393 383.019 234.107 382.824 234.643 382.434C235.179 382.045 235.714 381.46 236.25 380.681C236.429 380.291 236.964 380.291 237.321 380.486C237.679 380.681 237.679 381.266 237.5 381.655C236.786 382.434 236.25 383.214 235.536 383.798C234.464 384.382 233.571 384.772 232.857 384.772Z" fill="black"/>
<path d="M228.393 379.902C227.5 379.902 226.607 379.512 225.893 379.123C223.571 377.369 226.25 367.824 229.107 362.564C235 351.849 242.679 344.057 251.071 340.161C255.357 337.044 274.464 343.278 282.5 346.2C284.464 346.979 287.143 347.758 290 347.953C296.964 348.148 306.071 348.343 308.393 347.953C308.75 347.953 309.107 348.148 309.286 348.538C309.286 348.927 309.107 349.317 308.75 349.512C305.536 350.096 292.5 349.707 290 349.512C287.143 349.317 284.286 348.538 282.143 347.758C269.107 343.083 254.821 339.382 251.964 341.525H251.786C243.75 345.226 236.25 353.018 230.536 363.343C227.321 369.187 225.893 377.174 226.786 377.759C227.679 378.343 228.75 378.538 229.643 377.954C230 377.759 230.357 377.759 230.714 378.148C230.893 378.538 230.893 378.928 230.536 379.317C229.643 379.707 229.107 379.902 228.393 379.902Z" fill="black"/>
<path d="M270.357 174.769C274.286 185.289 282.857 199.899 291.429 205.549C286.786 210.029 280.893 217.043 270.893 225.03C267.5 205.938 263.75 196.977 261.786 182.172C264.107 180.419 267.5 176.523 270.357 174.769Z" fill="white"/>
<path d="M270.893 226.004H270.714C270.536 225.809 270.357 225.614 270.179 225.419C268.571 216.653 266.964 209.835 265.357 203.796C263.571 196.588 262.143 190.549 260.893 182.562C260.893 182.172 260.893 181.977 261.25 181.782C262.143 181.003 263.214 180.029 264.286 179.055C266.071 177.302 268.214 175.354 270 174.185C270.179 173.99 270.357 173.99 270.536 174.185C270.714 174.185 270.893 174.38 270.893 174.574C275 185.678 283.571 199.705 291.607 204.964C291.786 205.159 291.964 205.354 291.964 205.549C291.964 205.744 291.964 206.133 291.786 206.133C290.357 207.497 288.929 209.055 287.321 210.614C283.393 214.705 278.393 219.965 271.25 225.614C271.25 226.004 271.071 226.004 270.893 226.004ZM262.5 182.562C263.571 190.159 265 196.198 266.786 203.211C268.214 209.055 269.821 215.484 271.429 223.666C277.857 218.406 282.5 213.536 286.429 209.445C287.857 208.081 289.107 206.718 290.179 205.549C282.321 199.899 274.107 186.653 270 175.743C268.393 176.912 266.786 178.471 265.179 179.834C264.286 181.003 263.393 181.977 262.5 182.562Z" fill="black"/>
<path d="M297.322 205.549C302.322 212.367 307.143 218.991 313.036 226.004C320.179 210.809 327.5 195.029 330.714 178.276C327.679 176.717 320.893 171.847 317.857 170.289C318.75 173.795 320.536 177.107 320.179 178.276C320 179.055 305 197.757 297.322 205.549Z" fill="white"/>
<path d="M313.036 226.783C312.857 226.783 312.679 226.783 312.5 226.588C306.607 219.575 301.607 212.757 296.786 206.133C296.607 205.744 296.607 205.354 296.786 204.964C304.464 197.172 318.571 179.25 319.464 177.886C319.464 177.497 318.929 175.938 318.571 174.769C318.036 173.406 317.5 172.042 317.143 170.483C317.143 170.094 317.143 169.899 317.321 169.704C317.5 169.509 317.857 169.509 318.036 169.509C319.643 170.289 322.143 171.847 324.464 173.6C326.786 175.159 329.286 176.717 330.714 177.497C331.071 177.691 331.25 178.081 331.071 178.471C327.679 195.809 320 212.172 313.393 226.393C313.571 226.588 313.393 226.783 313.036 226.783ZM298.214 205.744C302.679 211.978 307.321 218.406 312.857 224.835C319.286 211.004 326.607 195.419 329.821 178.86C328.214 178.081 326.071 176.523 323.929 175.159C322.321 173.99 320.536 173.016 319.107 172.042C319.286 172.821 319.643 173.6 320 174.38C320.714 176.523 321.25 177.691 320.893 178.665C320.536 179.639 305.893 197.757 298.214 205.744Z" fill="black"/>
<path d="M0.714275 405.422C0.357132 405.422 0 405.032 0 404.642C0 404.253 0.357132 403.863 0.714275 403.863C194.286 403.084 390.714 400.162 584.286 395.486C584.643 395.486 585 395.876 585 396.266C585 396.655 584.643 397.045 584.286 397.045C390.714 401.72 194.286 404.642 0.714275 405.422Z" fill="black"/>
<path d="M246.607 344.447C246.25 344.447 245.893 344.057 245.893 343.668C242.679 316.2 233.393 287.563 220.714 264.77C220.536 264.381 220.536 263.991 220.893 263.602C221.25 263.407 221.607 263.407 221.964 263.796C234.821 286.589 244.107 315.615 247.322 343.278C247.322 343.862 247.143 344.252 246.607 344.447Z" fill="black"/>
<path d="M204.107 345.81C203.929 345.81 203.75 345.81 203.75 345.616C203.393 345.421 203.393 344.836 203.572 344.447C212.857 328.667 224.464 308.018 231.964 287.563C232.143 287.173 232.5 286.979 232.857 287.173C233.214 287.368 233.393 287.758 233.214 288.147C225.714 308.797 214.107 329.641 204.821 345.421C204.464 345.616 204.286 345.81 204.107 345.81Z" fill="black"/>
<path d="M248.214 388.668C247.857 388.668 247.5 388.278 247.5 387.889L247.679 375.226C247.679 374.837 248.036 374.447 248.393 374.447C248.75 374.447 249.107 374.837 249.107 375.226L248.929 387.889C248.929 388.278 248.75 388.668 248.214 388.668Z" fill="black"/>
<path d="M320 95.2877C319.464 95.0929 319.107 94.7033 319.286 94.3137C320 91.0019 320.357 89.2487 320.893 85.9369C320.893 85.5473 321.429 85.1577 321.786 85.3525C322.143 85.3525 322.5 85.937 322.322 86.3266C321.786 89.6383 321.429 91.3915 320.714 94.7033C320.714 95.0929 320.357 95.2877 320 95.2877Z" fill="black"/>
<path d="M394.821 336.07C394.464 336.07 394.107 335.68 394.107 335.291C394.107 334.901 394.464 334.512 394.821 334.512C400 334.317 405.179 334.122 410.179 334.122C410.536 334.122 410.893 334.512 410.893 334.901C410.893 335.291 410.536 335.68 410.179 335.68C405.179 335.68 400 335.875 394.821 336.07Z" fill="black"/>
<path d="M440 268.861C439.643 268.861 439.286 268.472 439.286 268.082C439.286 267.693 439.643 267.303 440 267.303C455.536 266.329 471.25 265.939 486.607 266.329C486.964 266.329 487.321 266.718 487.321 267.108C487.321 267.498 486.964 267.887 486.607 267.887C471.072 267.693 455.536 267.887 440 268.861Z" fill="black"/>
<path d="M446.071 284.446C445.714 284.446 445.357 284.056 445.357 283.667C445.357 283.277 445.714 282.888 446.071 282.888L479.286 282.108C479.643 282.108 480 282.498 480 282.888C480 283.277 479.643 283.667 479.286 283.667L446.071 284.446Z" fill="black"/>
<path d="M463.393 351.655C463.036 351.655 462.679 351.265 462.679 350.875C462.679 350.486 463.036 350.096 463.393 350.096L480.536 349.317C480.893 349.317 481.25 349.707 481.25 350.096C481.25 350.486 480.893 350.875 480.536 350.875L463.393 351.655Z" fill="black"/>
<path d="M335 203.406C334.821 203.406 334.821 203.406 335 203.406C334.464 203.211 334.286 202.822 334.286 202.432C335.179 197.757 336.072 193.081 336.607 188.406C336.607 188.016 336.964 187.627 337.5 187.821C337.857 187.821 338.214 188.211 338.036 188.795C337.5 193.471 336.607 198.341 335.714 202.822C335.536 203.016 335.357 203.406 335 203.406Z" fill="black"/>
<path d="M343.929 196.393C343.393 196.393 343.214 196.003 343.214 195.614L343.929 187.432C343.929 187.042 344.286 186.653 344.643 186.653C345 186.653 345.357 187.042 345.357 187.432L344.643 195.614C344.643 196.198 344.286 196.393 343.929 196.393Z" fill="black"/>
<path d="M301.25 349.707C300.714 349.707 300.536 349.317 300.536 348.733C300.714 347.758 300.714 346.784 301.071 345.616C301.25 344.642 301.607 343.473 302.321 342.499C303.036 341.33 304.286 340.745 305.357 340.745C305.714 340.745 306.071 341.135 306.071 341.525C306.071 341.914 305.714 342.304 305.357 342.304C304.643 342.304 303.929 342.694 303.571 343.473C303.036 344.252 302.857 345.226 302.679 346.005C302.5 346.979 302.321 347.953 302.321 348.927C301.964 349.317 301.607 349.707 301.25 349.707Z" fill="black"/>
<path d="M301.964 385.551C301.25 385.551 300.714 385.162 300.179 384.577C299.822 383.993 299.643 383.603 299.464 383.019C298.75 380.681 298.571 378.343 298.929 375.811C298.929 375.421 299.286 375.032 299.821 375.226C300.179 375.226 300.536 375.616 300.357 376.2C300 378.343 300.179 380.486 300.893 382.629C301.072 383.019 301.071 383.408 301.25 383.603C301.429 383.798 301.607 383.993 301.786 383.993C302.143 383.993 302.5 384.382 302.5 384.772C302.857 385.162 302.5 385.551 301.964 385.551Z" fill="black"/>
<path d="M326.964 38.7935C327.322 53.0144 327.143 65.6769 325.893 84.5733C325.179 93.5344 323.214 103.664 320.357 112.236C318.929 116.327 317.857 118.275 314.107 121.197C313.214 117.496 309.464 116.327 308.214 112.82C306.786 108.34 308.75 103.859 305.714 100.353C299.643 93.5344 295 85.7421 292.143 77.5602C289.822 70.742 288.393 63.3393 290.536 56.1314C292.5 48.9235 298.214 42.3 306.071 40.1571C312.143 38.4039 321.607 35.6765 326.964 38.7935Z" fill="#ACD4F7"/>
<path d="M314.464 121.976C314.286 121.976 314.107 121.976 313.929 121.976C313.75 121.976 313.572 121.587 313.393 121.392C313.036 119.639 311.964 118.665 310.714 117.496C309.464 116.327 308.214 114.963 307.679 113.21C307.143 111.262 307.143 109.509 306.964 107.755C306.964 105.223 306.964 103.08 305.179 101.132C299.107 94.3137 294.464 86.5214 291.429 77.9498C288.571 69.5731 287.857 62.3652 289.822 55.9366C292.143 47.9494 298.393 41.5208 305.893 39.3779L306.786 39.1831C312.857 37.6246 321.964 35.0921 327.322 38.209C327.5 38.4039 327.679 38.5987 327.679 38.7935C328.036 53.0144 327.857 65.6769 326.607 84.5733C325.893 93.7293 323.929 103.859 321.072 112.431C319.643 116.522 318.393 118.665 314.643 121.782C314.464 121.976 314.464 121.976 314.464 121.976ZM305.536 41.1312C298.75 43.274 293.214 49.1183 291.25 56.3262C289.464 62.3652 290.179 69.1835 292.857 77.1706C295.714 85.3525 300.357 92.95 306.25 99.7683C308.393 102.106 308.393 104.833 308.393 107.561C308.393 109.119 308.393 110.872 308.929 112.626C309.464 114.184 310.536 115.158 311.607 116.327C312.679 117.301 313.75 118.47 314.464 120.028C317.321 117.691 318.393 115.548 319.643 112.236C322.5 103.859 324.464 93.7293 325.179 84.7681C326.607 66.0666 326.607 53.5989 326.25 39.5727C321.25 37.0402 312.857 39.3779 307.143 40.7416L306.25 40.9364C306.072 40.9364 305.893 40.9364 305.536 41.1312Z" fill="black"/>
<path d="M235.179 78.9239C237.143 91.1967 236.25 103.664 237.5 116.132C238.75 128.405 242.679 141.068 252.5 149.444C261.071 156.652 273.75 159.769 285.357 157.237C296.964 154.704 307.321 146.912 312.321 136.782C316.964 127.236 315.893 107.95 315.714 98.2098C321.071 98.4046 326.607 95.8721 329.464 91.5864C332.322 87.3006 331.429 81.2615 327.5 78.1446C323.571 75.0277 318.75 75.0277 314.107 81.0667C313.571 73.0796 311.429 65.4821 310.536 61.9756C308.036 52.6248 306.25 38.209 299.643 34.8973C295.893 32.9492 288.393 31.9752 284.107 31.3908C276.786 30.2219 267.5 36.4558 260 37.4298C252.5 38.4038 245.357 43.274 239.821 48.1442C232.857 53.7937 233.571 69.7679 235.179 78.9239Z" fill="white"/>
<path d="M289.107 156.847C287.857 157.237 286.607 157.626 285.357 157.821C273.393 160.354 260.714 157.237 251.964 149.834C243.393 142.626 238.393 131.327 236.786 115.937C236.25 110.483 236.072 105.028 235.893 99.5735C235.714 92.7552 235.536 85.5473 234.464 78.7291C233.75 74.6381 231.071 54.1833 239.107 46.9754C246.429 40.5467 253.393 36.8454 259.643 36.0662C262.679 35.6766 265.893 34.5077 269.286 33.1441C274.286 31.196 279.464 29.2479 283.929 30.0271H284.464C288.75 30.6115 296.071 31.7804 299.821 33.5337C305.357 36.261 307.679 46.0014 309.643 54.7677C310.179 57.1054 310.714 59.2483 311.25 61.1964V61.3912C312.143 64.7029 313.929 71.3264 314.643 78.5343C318.75 74.0537 323.393 73.2744 327.857 76.781C332.143 80.0927 333.036 86.5214 330 91.3916C327.322 95.6773 321.964 98.4047 316.429 98.4047C316.429 99.1839 316.429 99.9631 316.429 100.937C316.786 111.652 317.143 127.821 312.857 136.587C308.393 146.133 299.464 153.535 289.107 156.847ZM235.893 78.7291C236.964 85.7421 237.143 92.95 237.321 99.7683C237.5 105.028 237.679 110.483 238.214 115.937C239.821 130.743 244.643 141.652 252.857 148.665C261.25 155.873 273.571 158.795 285.179 156.263C296.607 153.73 306.786 146.133 311.607 136.197C315.714 127.821 315.179 111.262 315 101.327C315 100.158 315 98.9891 315 98.015C315 97.8202 315 97.6254 315.179 97.4306C315.357 97.2358 315.536 97.2358 315.714 97.2358C321.072 97.4306 326.25 94.8981 328.75 90.8071C331.429 86.7162 330.536 81.2616 326.964 78.5343C322.679 75.2225 318.571 76.1966 314.643 81.4564C314.464 81.6512 314.107 81.846 313.929 81.6512C313.572 81.4564 313.393 81.2616 313.393 80.872C312.857 73.0796 310.893 65.8718 310 62.3652V62.1704C309.464 60.2223 308.929 58.0794 308.393 55.7417C306.429 47.365 304.286 38.0143 299.464 35.6766C295.893 33.9233 288.75 32.9493 284.643 32.17H284.107C280 31.5856 275 33.5337 270.179 35.2869C266.786 36.6506 263.393 37.8194 260.179 38.209C254.107 38.9883 247.5 42.4948 240.357 48.7287C234.107 53.7937 234.107 68.0146 235.893 78.7291Z" fill="black"/>
<path d="M267.143 54.1833C266.964 59.8327 260.536 68.9887 255.714 70.3523C250.893 71.9108 248.75 69.7679 246.072 65.0925C242.5 70.1575 240 75.0277 235.893 77.5602C229.643 81.6512 220.714 78.729 217.143 71.3263C213.75 64.1185 216.429 53.7937 222.857 50.2871C218.393 52.43 213.036 48.1442 212.143 42.8844C211.25 37.6246 213.75 31.9752 217.679 28.8583C221.429 25.7414 226.25 24.5725 230.893 22.8192C228.214 17.949 229.464 11.3256 232.857 7.23462C236.25 3.14365 241.429 1.39039 246.25 1.00078C249.464 0.805967 252.857 1.19558 255.714 2.94885C258.571 4.70212 260.893 8.01384 261.429 11.91C264.643 5.28653 270.893 0.0267306 277.679 0.416346C284.464 0.805962 290.714 8.59826 292.143 14.4425C294.643 9.5723 298.214 5.28653 303.036 4.70211C312.679 3.33846 316.429 11.91 313.929 24.1829C318.572 20.4815 326.607 21.4556 330.357 29.0531C333.214 34.7025 332.679 44.8325 329.643 50.2871C326.607 55.7417 313.572 62.3652 302.857 56.9106C296.964 53.7937 293.572 48.7287 291.072 43.6637C289.107 49.5079 287.679 53.5989 281.071 57.495C276.25 60.2223 269.822 59.2483 267.143 54.1833Z" fill="#ACD4F7"/>
<path d="M318.929 58.6638C313.929 60.2223 308.036 60.4171 302.679 57.6898C296.786 54.5729 293.393 49.7027 291.429 45.6117C289.821 50.4819 287.857 54.3781 281.607 58.0794C276.786 60.8067 270.893 60.0275 267.857 56.1313C266.429 61.9756 260.714 69.5731 256.25 71.1315C251.429 72.69 248.929 70.7419 246.25 66.4561C245.536 67.4302 245 68.4042 244.286 69.1835C241.786 72.69 239.643 76.1965 236.429 78.1446C233.393 80.0927 229.464 80.6771 225.714 79.5083C221.786 78.3394 218.572 75.4173 216.607 71.716C213.393 65.0925 215.179 56.3261 220 51.6508C218.929 51.6508 217.857 51.2611 216.786 50.6767C214.107 49.1183 212.143 46.1961 211.607 43.0792C210.536 37.0402 213.75 31.3908 217.321 28.2738C220.536 25.5465 224.464 24.1829 228.214 23.014C228.75 22.8192 229.464 22.6244 230 22.4296C227.857 17.5594 228.929 11.1308 232.5 6.84498C235.714 2.94883 240.536 0.805938 246.429 0.416322C250.357 0.221515 253.75 0.80595 256.429 2.55922C259.107 4.31249 261.072 7.03978 262.143 10.1567C266.072 3.53325 272.143 -0.362902 278.036 0.0267129C284.286 0.416328 290.357 6.84497 292.679 12.884C295.714 7.6242 299.286 4.8969 303.214 4.31248C307.143 3.72805 310.536 4.89691 312.679 7.42941C315.357 10.7411 316.25 16.1958 315.179 23.014C317.5 21.6504 320.357 21.4556 323.036 22.04C326.607 22.8192 329.464 25.3517 331.25 29.053C334.107 34.8973 333.75 45.2221 330.536 51.0663C328.572 53.5988 324.286 56.9105 318.929 58.6638ZM290.893 42.8844C291.25 42.8844 291.607 43.0792 291.786 43.274C293.75 47.1702 296.964 52.8196 303.214 56.1313C313.393 61.3911 326.071 55.1573 328.929 49.8975C331.964 44.6377 332.322 34.8973 329.643 29.4427C328.036 26.1309 325.536 23.988 322.322 23.2088C319.464 22.4296 316.429 23.2088 314.286 24.9621C314.107 25.1569 313.75 25.1569 313.393 24.9621C313.214 24.7673 313.036 24.3777 313.036 24.1829C314.464 16.975 313.75 11.3256 311.25 8.20863C309.464 6.06575 306.607 5.0917 303.036 5.67612C299.107 6.26055 295.536 9.37748 292.679 15.0269C292.5 15.2217 292.322 15.4165 291.964 15.4165C291.607 15.4165 291.429 15.2217 291.429 14.8321C290.179 9.57227 284.286 1.97478 277.679 1.39036C271.786 1.00075 265.714 5.28651 262.143 12.4944C261.964 12.884 261.607 12.884 261.429 12.884C261.071 12.884 260.893 12.4944 260.893 12.2996C260.536 8.79307 258.393 5.67614 255.536 3.92287C253.214 2.36441 250 1.77998 246.429 1.97479C241.072 2.36441 236.429 4.31248 233.572 7.81902C230.179 11.91 229.286 18.1438 231.607 22.4296C231.786 22.6244 231.786 22.8192 231.607 23.2088C231.607 23.4036 231.429 23.5984 231.071 23.5984C230.179 23.988 229.286 24.1829 228.572 24.5725C224.822 25.9361 221.072 27.105 218.036 29.6375C214.643 32.3648 211.786 37.4298 212.857 42.8844C213.393 45.6117 215 47.9494 217.321 49.3131C219.107 50.2871 220.893 50.4819 222.5 49.7027C222.857 49.5079 223.214 49.7027 223.393 50.0923C223.572 50.4819 223.393 50.8715 223.036 51.0663C216.964 54.5729 214.286 64.3133 217.679 71.1315C219.286 74.4433 222.321 76.9757 225.714 78.1446C229.107 79.1186 232.5 78.729 235.357 76.9758C238.214 75.0277 240.357 71.9107 242.857 68.4042C243.75 67.2354 244.464 65.8717 245.357 64.7029C245.536 64.5081 245.714 64.3133 245.893 64.3133C246.071 64.3133 246.429 64.5081 246.429 64.7029C249.107 69.1834 251.072 70.9367 255.357 69.5731C259.822 68.2094 266.072 59.4431 266.25 54.1833C266.25 53.7936 266.429 53.5988 266.786 53.404C267.143 53.404 267.5 53.404 267.679 53.7936C270.179 58.6638 276.429 59.2482 280.536 56.7157C287.143 52.8196 288.393 48.9235 290.179 43.4688C290.536 43.0792 290.714 42.8844 290.893 42.8844Z" fill="black"/>
<path d="M248.393 94.5085C248.036 92.95 248.75 91.3916 250.179 91.0019C251.607 90.6123 253.036 91.3915 253.571 92.7552C253.929 94.3137 253.214 95.8721 251.786 96.2617C250.179 96.8462 248.75 96.0669 248.393 94.5085Z" fill="black"/>
<path d="M285.536 89.6383C285.179 88.0798 285.893 86.5214 287.321 86.1318C288.75 85.7421 290.179 86.5214 290.714 87.885C291.071 89.4435 290.357 91.0019 288.929 91.3916C287.5 91.976 286.071 91.002 285.536 89.6383Z" fill="black"/>
<path d="M283.75 138.535C282.143 139.119 280.536 139.314 278.929 139.119C278.571 139.119 278.214 138.73 278.214 138.34C278.214 137.951 278.571 137.561 278.929 137.561C283.571 137.951 288.214 135.418 290.536 130.938C290.714 130.548 291.25 130.353 291.607 130.743C291.964 130.938 292.143 131.522 291.786 131.912C290.179 135.029 287.143 137.366 283.75 138.535Z" fill="black"/>
<path d="M274.821 124.509C272.679 125.093 270.357 125.288 267.857 124.704C266.786 124.509 265.536 124.119 264.643 123.34C263.393 122.171 262.679 120.418 262.679 118.275C262.679 116.717 263.036 115.353 263.571 113.794L263.75 113.21C265.714 105.418 266.071 97.2358 264.821 89.2487C264.821 88.8591 265 88.4694 265.357 88.2746C265.714 88.2746 266.071 88.4694 266.25 88.859C267.679 97.041 267.321 105.613 265.179 113.6L265 114.184C264.643 115.548 264.286 116.911 264.286 118.275C264.286 119.833 264.821 121.392 265.714 122.171C266.429 122.756 267.5 123.145 268.393 123.145C270.893 123.535 273.214 123.535 275.179 122.756C277.321 121.976 279.286 120.223 280 118.08C280.179 117.691 280.536 117.496 280.893 117.691C281.25 117.885 281.429 118.275 281.25 118.665C280.179 121.197 278.214 123.145 275.536 124.119C275.179 124.509 275 124.509 274.821 124.509Z" fill="black"/>
<path d="M318.571 47.5598C318.214 47.5598 318.036 47.5598 317.857 47.1702C317.679 46.7806 317.679 46.391 318.036 46.0013C321.964 42.8844 323.75 37.0402 322.322 32.17C322.143 31.7804 322.5 31.3908 322.857 31.196C323.214 31.0012 323.572 31.3908 323.75 31.7804C325.357 37.4298 323.214 44.0533 318.75 47.365L318.571 47.5598Z" fill="black"/>
<g opacity="0.1294">
<path d="M290.893 44.0533C290.357 45.0273 289.822 45.8066 289.286 46.7806C289.286 46.9754 289.107 47.1702 288.929 47.9494C288.572 48.9235 288.214 49.7027 287.857 50.6767C286.25 53.5989 284.643 55.7418 283.036 57.1054C282.5 56.521 281.786 56.3262 281.071 56.7158C280.893 56.7158 280.893 56.9106 280.714 56.9106H280.536C279.107 57.3002 277.857 57.8846 276.429 58.0794C276.607 58.0794 276.786 58.0794 276.786 58.0794C276.429 58.2743 274.286 58.2743 272.5 58.0794C272.322 58.0794 272.143 58.0794 271.964 58.0794C271.607 57.8846 271.25 58.0794 270.893 58.0794C270.893 58.0794 270.714 58.0794 270.536 58.0794C270.536 58.0794 270.536 58.0794 270.357 57.8846C270.357 57.6898 270.357 57.495 270.357 57.3002C270.179 56.1314 268.75 55.1573 267.679 55.7417C266.607 56.1313 266.072 57.495 266.25 58.6638C266.072 59.0535 265.893 59.4431 265.714 60.0275C265 61.586 263.929 63.1444 263.036 64.5081C262.857 64.7029 262.321 65.4821 262.321 65.6769C262.321 65.6769 262.322 65.8718 262.143 65.8718C261.072 67.2354 258.75 69.7679 256.429 70.742C255.893 70.9368 255.357 71.1316 254.643 71.1316C254.464 71.1316 254.286 71.1316 254.107 71.1316H253.929C253.75 71.1316 253.571 70.9367 253.393 70.9367H253.214L253.036 70.742C252.321 70.742 251.786 70.7419 251.072 70.3523C250.357 70.1575 249.822 69.9627 249.286 69.5731C248.929 69.3783 248.75 68.9887 248.571 68.7939C248.571 68.7939 248.572 68.7939 248.393 68.5991C248.393 68.5991 248.214 68.599 248.214 68.4042C248.036 68.2094 248.036 68.2094 247.857 68.0146C247.143 67.2354 246.607 66.4562 246.072 65.4821C245.357 65.6769 244.643 66.2614 244.464 67.0406C244.464 67.4302 244.286 67.625 244.107 68.0146C244.107 68.0146 244.107 68.2094 243.929 68.2094C243.929 68.2094 243.929 68.2094 243.929 68.4042C243.393 69.1835 243.036 69.9627 242.679 70.5471C242.5 70.7419 242.322 71.1315 242.143 71.3264L241.964 71.5212C241.964 71.5212 241.964 71.5212 241.964 71.716C240.893 73.0796 239.643 74.0537 238.572 75.2225C237.679 76.0017 236.429 76.5862 236.071 77.755C235 80.0927 237.679 82.4304 239.643 80.6771C242.321 78.5342 244.643 76.1966 246.429 73.0796C246.786 72.69 246.964 72.1056 247.322 71.5212C248.929 73.2744 250.536 74.8329 252.679 75.6121C255.714 76.781 259.107 75.4173 261.607 73.4693C264.107 71.5212 264.822 70.3523 266.072 68.5991C267.322 66.8458 268.393 65.0925 269.107 63.1444C270 64.1185 271.072 64.8977 272.322 65.4821C273.929 66.0665 275.714 66.2614 277.5 65.6769H277.322C277.5 65.6769 277.679 65.6769 277.857 65.4821C280 64.8977 281.964 63.534 283.75 62.1704C286.429 60.2223 288.75 57.6898 290.357 54.7677C291.429 52.8196 292.321 50.8716 292.679 48.7287C292.679 48.1442 292.679 48.7287 292.679 48.9235C292.857 48.1442 293.036 47.365 293.214 46.391C293.214 46.0014 293.393 45.4169 293.214 45.0273C292.679 44.2481 291.607 43.8585 290.893 44.0533Z" fill="black"/>
</g>
<g opacity="0.1294">
<path d="M326.607 55.547C325.714 54.3781 324.286 55.1573 323.214 55.7417C321.607 56.521 320 57.1054 318.393 58.0795C317.143 58.6639 316.071 59.4431 314.821 59.8327C314.107 60.0275 314.464 60.0275 314.821 59.8327C314.107 60.0275 313.393 60.2223 312.857 60.6119C312.679 60.2223 312.321 60.0275 311.964 60.0275C310.357 59.4431 308.75 61.3912 309.464 63.1444C310 64.3133 310.714 65.6769 311.25 67.0406C311.786 68.9887 312.5 72.3004 315 71.1316C315.536 70.9368 315.714 70.3523 316.071 69.9627C316.071 70.1575 316.964 68.599 317.321 68.4042C318.393 67.0406 320.357 64.7029 322.5 62.56C323.571 61.3912 324.643 60.4171 325.893 59.2483C326.071 59.2483 326.071 59.0535 326.25 59.0535C326.25 59.0535 326.429 58.8587 326.607 58.8587C327.143 57.495 327.321 56.3262 326.607 55.547Z" fill="black"/>
</g>
<g opacity="0.1294">
<path d="M317.679 171.652C316.964 169.509 316.429 167.561 315.893 165.419C314.643 161.133 313.571 156.652 312.679 152.172C311.607 148.86 310.536 145.743 309.643 142.236V142.042C309.643 141.847 309.643 141.847 309.643 141.652C309.464 141.457 306.071 144.964 306.071 144.964C306.071 144.964 303.75 147.496 300 150.613C296.071 153.73 292.321 155.094 289.643 155.873C283.571 157.821 278.393 157.821 274.821 157.626C272.679 157.626 270.893 157.431 269.643 157.237C269.821 157.626 270.179 158.211 270.536 158.795C272.143 160.938 274.643 161.133 276.607 161.912C278.929 162.691 281.429 163.665 283.75 164.444C288.571 166.198 293.393 167.951 298.214 169.509C300.536 170.289 302.679 171.068 305 171.847C307.143 172.626 309.464 173.016 311.607 173.211C311.429 173.211 311.25 173.211 310.893 173.211C311.071 173.211 311.25 173.211 311.429 173.211C311.607 173.211 311.964 173.211 312.143 173.406C312.679 173.6 313.393 173.99 313.929 174.185C314.464 174.38 315.179 174.574 315.714 174.769C316.071 175.159 316.964 175.354 317.5 174.964C318.929 174.574 318.036 173.016 317.679 171.652Z" fill="black"/>
</g>
<g opacity="0.1294">
<path d="M295 225.419C294.286 224.835 293.572 224.056 292.857 224.056C290.536 223.666 289.464 227.173 291.429 228.341C292.857 229.51 293.75 230.095 294.107 230.679C294.643 231.264 295.179 232.043 295.893 232.043C297.143 232.238 298.393 230.874 298.214 229.51C298.393 227.562 298.036 227.173 298.393 226.198C298.929 223.276 295.357 222.692 295 225.419Z" fill="black"/>
</g>
<g opacity="0.1294">
<path d="M312.321 224.445C311.786 223.471 310.714 223.082 310 222.108C308.393 220.549 306.607 218.406 306.071 217.627C305.714 217.043 305.357 216.458 305 215.874C304.643 215.289 304.286 214.51 303.572 214.315C301.964 213.731 300.714 215.874 301.429 217.237C301.607 217.627 301.786 217.822 301.964 218.211C301.786 218.211 301.607 218.017 301.429 218.017C299.464 217.627 298.571 220.744 300.179 221.718C302.321 222.887 304.286 224.445 306.25 225.809C308.214 226.978 309.643 227.757 310.714 228.147C313.036 228.731 313.929 225.614 312.321 224.445Z" fill="black"/>
</g>
<g opacity="0.1294">
<path d="M286.786 218.601C286.25 217.627 285.893 216.653 285.357 215.679C285.179 215.094 285 214.51 284.464 214.315C283.393 213.341 281.964 214.12 281.429 215.289H281.25C280.536 215.484 280 216.263 279.464 216.848C278.572 217.822 278.572 218.211 278.572 218.406C278.393 218.601 278.393 218.991 278.214 219.185C277.5 219.575 276.607 219.965 275.893 220.354C274.643 220.939 273.214 221.328 272.322 222.497C271.072 224.25 273.036 226.588 274.643 225.419C275.893 224.64 277.321 224.056 279.643 223.082C280.893 222.497 282.321 222.302 283.75 222.108C284.107 221.913 284.464 221.913 284.643 221.718C286.25 222.108 287.679 220.354 286.786 218.601Z" fill="black"/>
</g>
<g opacity="0.1294">
<path d="M310 354.187C309.821 351.849 309.464 349.707 308.75 347.564C308.214 346.005 307.679 344.642 306.964 343.278C306.429 342.499 306.071 341.33 305 341.135C303.036 340.551 301.25 343.083 302.321 345.031C302.143 345.81 301.607 346.59 301.607 347.369C301.786 348.733 303.036 349.122 303.929 348.538C304.286 349.707 304.464 350.875 304.821 352.629C305.179 355.94 305.536 359.252 305.536 362.564C305.536 364.902 305.536 367.239 305.357 369.577C304.822 372.499 304.464 375.032 303.75 376.98L303.572 376.785C303.214 376.2 302.857 375.421 302.143 375.226C300 374.252 298.214 377.174 299.821 378.928C300 379.123 300.179 379.317 300.179 379.512C300.179 379.512 300.179 379.707 300.357 379.707C300.357 379.902 300.357 380.291 300.357 380.486C300.357 380.681 300.357 380.876 300.357 381.071C300.357 381.46 300.357 382.045 300.536 382.434C300.714 382.824 300.893 383.019 301.25 383.214C301.607 384.188 302.679 384.967 303.75 384.577C304.643 384.382 305 383.408 305.536 382.824C306.607 381.46 307.679 380.097 308.393 378.538C309.821 375.226 310.536 371.72 310.536 368.019C310.536 363.343 310.536 358.668 310 354.187Z" fill="black"/>
</g>
<g opacity="0.1294">
<path d="M508.036 248.212C507.679 244.9 503.214 244.51 502.5 247.822C501.25 252.887 500.536 257.952 499.464 263.017C498.393 267.693 497.143 272.368 496.25 277.238C496.071 278.797 495.714 280.55 495.714 282.108C495.714 282.303 495.714 282.303 495.714 282.498C495.536 283.082 495.536 283.862 495.179 284.446C495.179 284.446 495.179 284.446 495.179 284.641C495 285.225 495 285.81 495.179 286.394C495.714 288.927 499.107 289.511 500.357 287.173C501.071 286.005 501.071 284.641 501.429 283.472C502.321 279.965 502.5 276.264 503.393 272.758C504.821 266.329 506.25 259.9 507.5 253.277C507.679 252.303 507.857 251.329 508.036 250.355C508.036 249.575 508.214 248.991 508.036 248.212Z" fill="black"/>
</g>
<g opacity="0.1294">
<path d="M474.643 388.668C473.75 386.136 473.036 383.603 472.321 380.876C471.25 377.564 470.179 374.447 469.107 371.135C467.679 366.85 466.607 363.148 465.714 359.642C459.286 343.473 453.393 327.304 447.321 311.135C440.893 293.602 435 276.069 429.107 258.537C428.571 258.926 428.036 259.705 428.393 260.485C431.25 270.42 435 279.965 438.214 289.901C441.964 302.563 445.536 315.42 448.393 328.473C449.107 331.2 449.821 333.732 450.536 336.46C449.107 336.265 447.5 337.629 448.036 339.382C449.821 349.901 451.429 357.109 451.607 367.239C451.607 368.798 451.607 370.356 451.607 371.915C451.429 372.11 451.071 372.109 450.893 372.304C450.714 372.499 450.536 372.694 450.357 372.889C450.714 371.33 451.071 369.772 451.429 368.019C450.893 368.019 450.536 368.213 450.179 368.603C449.643 368.993 449.643 369.772 449.643 370.356C449.107 372.499 449.286 372.304 448.393 373.863L448.214 374.058C445.357 377.369 441.964 380.681 439.821 382.24C435 385.941 432.143 387.304 426.786 389.058C425.179 389.642 423.571 390.227 421.964 390.616C418.571 390.616 415 391.006 411.429 390.811C405.893 390.616 400.357 390.032 394.821 389.642C386.786 389.253 377.679 389.253 371.607 387.889C366.25 386.525 360.893 386.525 355.357 385.746C350.536 385.356 348.75 384.967 344.464 384.382C341.429 383.993 336.786 383.603 335.714 383.408C331.25 382.629 322.143 380.681 320.536 380.681C317.5 380.291 315.714 379.902 311.786 379.902C310.893 379.902 310 379.707 309.107 380.097C308.393 380.486 308.036 381.071 307.857 381.85C307.321 381.85 306.786 381.85 306.25 381.655C305.893 381.655 305.714 381.655 305.536 381.85C303.571 382.629 304.107 386.136 306.25 386.136C311.071 386.33 315.714 386.72 319.107 387.305C321.429 387.694 323.929 388.084 326.429 388.279C327.5 388.279 328.571 388.863 329.643 388.279C330 388.084 330.357 387.889 330.536 387.499C330.893 387.694 331.429 387.694 331.786 387.889C338.75 389.447 344.464 389.642 350 390.616C355.536 391.395 361.071 391.785 366.607 392.37C367.857 392.564 373.214 393.538 376.964 393.928C377.143 394.707 377.857 395.486 378.75 395.486C381.607 395.681 384.464 396.071 387.321 396.46C388.036 398.019 389.464 397.629 391.071 398.019C394.821 398.409 398.393 398.409 402.143 398.409C405.893 398.603 409.821 398.798 413.571 398.798C416.786 398.798 420 398.409 423.214 398.019C425.893 397.824 428.75 397.824 431.25 396.655C431.25 397.824 431.964 399.188 433.393 399.188C434.107 399.188 435.179 399.188 436.25 399.188C436.25 399.383 436.25 399.383 436.429 399.577C437.679 399.383 438.929 399.383 440.179 399.188C447.679 398.409 455.179 398.019 462.679 398.019C462.857 397.824 462.857 397.629 463.036 397.434C463.393 397.434 463.75 397.435 463.929 397.24C464.107 397.629 464.464 397.824 464.821 397.824C468.036 397.824 471.25 397.824 474.643 397.629C475.536 397.629 476.25 397.629 477.143 397.434C477.679 397.045 478.214 396.266 478.214 395.292C478.036 393.928 477.321 392.564 476.786 391.395C475.536 390.616 475.179 389.642 474.643 388.668ZM441.25 391.006C439.821 392.954 439.643 393.149 438.571 394.512C438.036 394.512 437.321 394.512 436.786 394.512C436.429 394.512 435.893 394.512 435.357 394.512C438.036 392.759 440.714 390.421 443.036 387.889C443.393 387.499 443.75 387.11 444.107 386.915C443.036 388.279 442.143 389.642 441.25 391.006ZM463.571 370.551C463.393 369.577 463.393 368.603 463.214 367.629C463.393 368.213 463.571 368.603 463.75 369.187C463.929 369.772 464.107 370.551 464.286 371.135C464.107 370.941 463.75 370.746 463.571 370.551ZM470.536 393.928C471.071 393.733 471.607 393.344 471.964 392.759C472.143 393.149 472.321 393.538 472.5 393.928C471.786 393.928 471.25 393.928 470.536 393.928Z" fill="black"/>
</g>
<path d="M288.571 254.251C288.393 254.056 288.393 253.861 288.393 253.861L297.857 243.731C297.857 243.731 298.036 243.731 298.214 243.731C298.214 243.731 298.214 243.926 298.214 244.121L288.571 254.251Z" fill="black"/>
<path d="M289.286 246.848C289.107 246.653 289.107 246.458 289.107 246.458L296.786 238.082C296.786 238.082 296.964 238.082 297.143 238.082C297.143 238.082 297.143 238.277 297.143 238.471L289.286 246.848Z" fill="black"/>
<path d="M290.714 239.64C290.536 239.445 290.536 239.251 290.536 239.251L296.607 232.627C296.607 232.627 296.786 232.627 296.964 232.627C296.964 232.627 296.964 232.822 296.964 233.017L290.714 239.64Z" fill="black"/>
<path d="M292.321 232.432C292.143 232.238 292.143 232.043 292.143 232.043L296.25 227.562C296.25 227.562 296.429 227.562 296.607 227.562C296.607 227.562 296.607 227.757 296.607 227.952L292.321 232.432Z" fill="black"/>
<path d="M287.143 262.043C286.964 261.848 286.964 262.043 287.143 262.043C286.964 261.848 286.964 261.653 286.964 261.653L297.679 249.965C297.679 249.965 297.857 249.965 298.036 249.965C298.036 249.965 298.036 250.16 298.036 250.355L287.143 262.043Z" fill="black"/>
<path d="M286.25 270.42C286.071 270.225 286.071 270.03 286.071 270.03L298.036 256.978C298.036 256.978 298.214 256.978 298.393 256.978C298.393 256.978 298.393 257.173 298.393 257.368L286.25 270.42C286.429 270.42 286.429 270.42 286.25 270.42Z" fill="black"/>
<path d="M284.643 279.771C284.464 279.771 284.464 279.771 284.643 279.771C284.464 279.576 284.464 279.381 284.464 279.381L299.464 263.017C299.464 263.017 299.643 263.017 299.821 263.017C299.821 263.017 299.821 263.212 299.821 263.407L284.643 279.771Z" fill="black"/>
<path d="M283.214 289.121C283.036 288.927 283.036 288.732 283.036 288.732L300.357 269.835C300.357 269.835 300.536 269.835 300.714 269.835C300.714 269.835 300.714 270.03 300.714 270.225L283.214 289.121Z" fill="black"/>
<path d="M281.607 297.888C281.429 297.693 281.429 297.498 281.429 297.498L300.893 276.264C300.893 276.264 301.071 276.264 301.25 276.264C301.25 276.264 301.25 276.459 301.25 276.654L281.607 297.888Z" fill="black"/>
<path d="M280.714 306.459C280.536 306.264 280.536 306.07 280.536 306.07L301.607 283.082C301.607 283.082 301.786 283.082 301.964 283.082C301.964 283.082 301.964 283.277 301.964 283.472L280.714 306.459C280.893 306.459 280.893 306.459 280.714 306.459Z" fill="black"/>
<path d="M282.321 312.888C282.143 312.888 282.143 312.888 282.321 312.888C282.143 312.693 282.143 312.498 282.143 312.498L301.429 291.459C301.429 291.459 301.607 291.459 301.786 291.459C301.786 291.459 301.786 291.654 301.786 291.849L282.321 312.888Z" fill="black"/>
<path d="M284.643 318.148C284.464 318.148 284.464 318.148 284.643 318.148C284.464 317.953 284.464 317.758 284.464 317.758L301.429 299.251C301.429 299.251 301.607 299.251 301.786 299.251C301.786 299.251 301.786 299.446 301.786 299.641L284.643 318.148Z" fill="black"/>
<path d="M286.071 323.408C285.893 323.408 285.893 323.408 286.071 323.408C285.893 323.213 285.893 323.018 285.893 323.018L302.143 305.29C302.143 305.29 302.321 305.29 302.5 305.29C302.5 305.29 302.5 305.485 302.5 305.68L286.071 323.408Z" fill="black"/>
<path d="M288.214 328.083C288.036 328.083 288.036 328.083 288.214 328.083C288.036 327.888 288.036 327.693 288.036 327.693L300.714 313.862C300.714 313.862 300.893 313.862 301.071 313.862C301.071 313.862 301.071 314.057 301.071 314.252L288.214 328.083Z" fill="black"/>
<path d="M290.536 332.369C290.357 332.174 290.357 331.979 290.357 331.979L297.143 324.576C297.143 324.576 297.321 324.576 297.5 324.576C297.5 324.576 297.5 324.771 297.5 324.966L290.536 332.369Z" fill="black"/>
<path d="M292.143 337.434C291.964 337.239 291.964 337.044 291.964 337.044L295 333.343C295 333.343 295.179 333.148 295.357 333.343C295.536 333.343 295.536 333.538 295.357 333.732L292.143 337.434Z" fill="black"/>
<path d="M287.857 215.094C287.679 215.094 287.679 215.094 287.857 215.094C287.679 214.9 287.679 214.705 287.679 214.705L293.571 209.055C293.75 209.055 293.75 209.055 293.929 209.055C293.929 209.25 293.929 209.25 293.929 209.445L287.857 215.094Z" fill="black"/>
<path d="M289.643 219.575C289.464 219.575 289.464 219.575 289.643 219.575C289.464 219.38 289.464 219.185 289.464 219.185L298.036 209.835C298.036 209.835 298.214 209.835 298.393 209.835C298.393 209.835 298.393 210.029 298.393 210.224L289.643 219.575Z" fill="black"/>
<path d="M292.321 222.302C292.143 222.108 292.143 221.913 292.143 221.913L298.75 214.705C298.75 214.705 298.929 214.705 299.107 214.705C299.107 214.705 299.107 214.9 299.107 215.094L292.321 222.302C292.5 222.302 292.5 222.302 292.321 222.302Z" fill="black"/>
</svg>
