<svg width="97" height="121" viewBox="0 0 97 121" fill="none" xmlns="http://www.w3.org/2000/svg">
<path d="M21.4549 119.827C24.3256 119.827 91.863 120.129 96.5468 119.978C95.338 106.848 95.9424 84.6637 94.8848 71.534C93.2228 49.5003 87.3302 24.2974 77.3583 4.52747C67.0841 0.754579 55.4502 1.35823 43.8162 0.603654C43.0608 11.9223 38.8303 19.7699 31.8801 20.5245C28.1029 20.9773 21.3038 19.9208 21.3038 3.16921C15.7135 5.43295 4.83495 9.35676 0.604418 13.1297C6.79912 53.4241 -2.87064 59.9135 2.41752 73.345C5.13715 80.2871 17.8287 88.8893 20.2462 104.434C20.3972 106.245 21.4549 118.016 21.4549 119.827Z" fill="white"/>
<path d="M84.9128 120.582C69.3505 120.582 42.7586 120.431 29.1605 120.431C24.93 120.431 22.0593 120.431 21.606 120.431C21.3038 120.431 21.0016 120.129 21.0016 119.827C21.0016 118.469 20.3973 111.828 20.0951 107.754C19.944 106.245 19.944 105.037 19.7929 104.585C18.282 94.6241 12.3895 87.531 7.70566 81.7962C5.13713 78.7779 3.02188 76.0614 1.96425 73.4959C-0.453197 67.4593 0.151146 62.63 0.906597 55.8388C1.96423 47.2366 3.47508 35.4652 0 13.1297C0 12.9787 5.53287e-05 12.6769 0.151146 12.6769C3.9284 9.35676 12.9938 5.73478 18.8863 3.47104C19.6417 3.16921 20.3972 2.86738 21.0016 2.71646C21.1527 2.71646 21.3037 2.71646 21.4548 2.71646C21.6059 2.86738 21.757 3.0183 21.757 3.16921C21.757 10.8659 23.1168 15.8461 25.9875 18.4117C27.4984 19.7699 29.4626 20.2227 31.729 20.0718C38.2258 19.3172 42.4564 12.0732 43.2119 0.603653C43.2119 0.452738 43.3629 0.301817 43.3629 0.150902C43.514 -1.3819e-05 43.6651 0 43.8162 0C46.5358 0.150916 49.2555 0.301827 51.824 0.301827C60.8895 0.603658 69.5016 0.90548 77.5094 3.92379C77.6605 3.92379 77.8115 4.0747 77.8115 4.22562C87.1791 22.9392 93.5249 47.5384 95.338 71.534C95.7913 77.7215 95.9424 85.871 96.0935 94.3223C96.2446 103.528 96.3956 113.036 97 119.978C97 120.129 97 120.28 96.8489 120.431C96.6978 120.582 96.5468 120.582 96.3957 120.582C95.4891 120.582 91.1075 120.582 84.9128 120.582ZM22.0592 119.223C23.1169 119.223 25.6854 119.223 29.1605 119.223C47.4424 119.223 89.4455 119.525 96.0935 119.374C95.4891 112.432 95.338 103.226 95.1869 94.1713C95.0358 85.7201 94.8847 77.5706 94.4314 71.3831C92.6183 47.9912 86.2726 23.0901 77.056 4.8293C69.3504 2.11281 60.8894 1.66006 51.9751 1.35823C49.5577 1.20732 46.9891 1.20732 44.4206 1.0564C43.514 12.6769 38.9813 20.2227 32.0312 20.9773C29.3115 21.2791 27.0452 20.6754 25.3832 19.1663C22.5125 16.6007 20.8505 11.4696 20.8505 3.92379C20.3973 4.07471 19.944 4.22563 19.4907 4.37654C13.7493 6.64028 5.13714 9.96043 1.2088 13.1297C4.53278 35.4652 3.17293 47.2366 2.1153 55.8388C1.35985 62.63 0.755451 67.0065 3.02181 72.8922C3.92835 75.156 6.04363 77.8725 8.61217 80.7399C13.4471 86.4747 19.3396 93.7186 21.0016 104.132C21.0016 104.585 21.1527 105.792 21.3038 107.452C21.4549 111.527 21.9081 117.261 22.0592 119.223Z" fill="black"/>
</svg>
