<svg width="11" height="7" viewBox="0 0 11 7" fill="none" xmlns="http://www.w3.org/2000/svg">
<path d="M8.63176 0.900473C6.74846 0.430194 4.86511 0.586948 2.98182 1.21399C1.88323 1.52751 0.784645 2.15455 0.627704 3.25187C0.470762 4.19243 1.09857 4.97622 2.04021 5.44649C2.82492 5.91677 3.76658 5.91678 4.70823 5.91678C5.80682 5.91678 6.90537 6.07353 8.00396 5.76001C9.10254 5.44649 10.0442 4.66269 10.3581 3.72213C10.672 2.62481 10.2012 1.21399 8.63176 0.900473Z" fill="white"/>
<path d="M5.80674 6.54383C5.49286 6.54383 5.02212 6.54383 4.70823 6.54383C3.60965 6.54383 2.66796 6.38708 1.72631 5.9168C0.627726 5.28976 0 4.19244 0 3.09512C0.156941 1.9978 1.09851 1.05724 2.66792 0.586957C4.55122 -0.0400814 6.59153 -0.196836 8.63176 0.273443C9.73035 0.586962 10.3581 1.21402 10.672 1.68429C10.9859 2.31133 11.1428 3.25188 10.8289 3.87892C10.3581 4.97624 9.41643 5.9168 8.00396 6.23032C7.37619 6.54384 6.59145 6.54383 5.80674 6.54383ZM6.27764 1.21401C5.17906 1.21401 4.08047 1.37078 3.13882 1.68429C2.668 1.84105 1.41245 2.31133 1.25551 3.25189C1.09857 3.87893 1.72635 4.50597 2.35412 4.81949C2.98188 5.13301 3.92349 5.28975 4.86514 5.28975C5.96372 5.28975 6.90537 5.28976 8.00396 5.133C8.94561 4.81948 9.73029 4.19244 10.0442 3.40864C10.2011 2.93836 10.2012 2.46807 9.88727 2.15455C9.73033 1.68428 9.25953 1.52752 8.63176 1.37076C7.69011 1.214 7.06235 1.21401 6.27764 1.21401Z" fill="black"/>
</svg>
