<svg width="70" height="74" viewBox="0 0 70 74" fill="none" xmlns="http://www.w3.org/2000/svg">
<path d="M58.2065 31.3181L55.5261 21.3763L61.2443 12.4092L47.3064 1.68755C45.5195 5.0015 43.7326 8.31545 41.9456 11.4345C41.767 11.6294 41.7669 11.8243 41.5882 11.8243C41.4096 12.0193 41.0521 12.0193 40.8734 12.0193C37.8357 12.0193 34.6192 11.8243 31.5815 11.8243C29.9733 8.51038 28.5438 5.58633 26.9356 2.46732C26.7569 2.27239 26.5782 1.8825 26.3995 1.8825C26.2208 1.8825 25.8634 1.88249 25.6847 2.07742C21.9322 4.61162 18.3584 6.95088 14.6058 9.48508C14.4271 9.48508 14.4272 9.68003 14.4272 9.68003C14.2485 9.87497 14.4271 10.2648 14.6058 10.6547C16.0354 13.3839 17.6437 15.918 19.6093 18.2573C18.0011 21.7662 16.2141 24.8852 14.2485 28.0042C13.7125 28.784 13.1764 29.5637 12.4616 29.7587C11.7469 29.9536 11.2107 29.7587 10.496 29.5637C7.8156 28.784 5.31395 27.8093 2.81228 26.8346C0.667986 32.4878 0.310648 39.1157 1.74018 44.9638C1.91887 45.3537 11.5682 43.7942 11.5682 43.7942L17.2862 54.9057L12.6403 63.288L23.1831 71.8653L28.7225 62.8981L38.3718 63.0931L42.1243 72.4501L56.5982 66.7969L53.0244 57.05L58.2065 47.693L68.0345 46.9132L68.3919 33.6574L58.2065 31.3181ZM41.5882 36.3866C41.7669 36.7764 41.2308 37.7511 41.2308 38.141C41.0522 38.5309 40.8735 38.9207 40.6948 39.1157C40.3374 39.7005 39.8013 40.2853 39.4439 40.8701C38.3718 41.8448 37.2996 42.6246 35.8701 43.2094C35.334 43.4043 34.7979 43.5993 34.2618 43.5993C33.7258 43.5993 33.3684 43.7942 32.8323 43.5993C32.475 43.5993 32.2963 43.4043 31.9389 43.4043C32.8323 43.4043 31.9389 43.4043 31.5815 43.4043C30.152 43.0145 28.7224 41.6499 28.0077 40.0904C27.6503 39.1157 27.1142 38.141 27.1142 37.1663C27.1142 36.1916 27.293 35.2169 27.6504 34.4372C28.1864 33.2675 28.7225 31.903 29.2585 30.9283C29.9733 29.7586 31.0455 28.3941 32.2963 27.6143C33.5471 26.8346 34.9766 26.8346 36.0488 27.4194C36.5848 27.2244 37.121 27.0295 37.657 27.2245C38.5505 27.6143 39.2652 28.0042 39.98 28.9789C40.5161 29.7586 41.0521 30.5384 41.4095 31.5131C41.5882 31.903 41.5882 32.0979 41.7669 32.4878C41.7669 32.6827 41.767 32.8777 41.9456 33.0726C41.9456 33.4625 41.9456 33.6574 42.1243 34.0473V33.8523C42.1243 33.6574 42.1243 33.6574 42.1243 33.8523C42.1243 34.2422 42.1243 34.4372 42.3029 34.827C42.3029 35.022 42.3029 35.2169 42.3029 35.2169C41.7669 35.6068 41.7669 35.9967 41.5882 36.3866Z" fill="white"/>
<path d="M15.8566 43.0144C15.6779 43.0144 15.4993 42.8195 15.678 42.6246C18.3583 32.0979 21.7534 21.5712 25.3272 11.4345C25.3272 11.2395 25.5059 11.2395 25.6846 11.2395C25.8633 11.2395 25.8634 11.4345 25.8634 11.6294C22.2895 21.7662 18.8944 32.2929 16.214 42.8195C16.0353 43.0145 15.8566 43.0144 15.8566 43.0144Z" fill="black"/>
<path d="M19.9665 44.7689C19.7878 44.7689 19.6092 44.574 19.7879 44.379C22.2896 34.4372 25.6846 24.6903 29.7945 15.5282C29.7945 15.3332 29.9732 15.3332 30.1519 15.3332C30.3306 15.3332 30.3307 15.5282 30.3307 15.7231C26.2208 24.8852 22.8256 34.6321 20.3239 44.5739C20.3239 44.7689 20.1452 44.7689 19.9665 44.7689Z" fill="black"/>
<path d="M18.537 63.8728C18.3583 63.8728 18.3583 63.8728 18.537 63.8728C18.3583 63.8728 18.1796 63.6779 18.3583 63.4829L25.3272 44.5739C25.3272 44.379 25.5059 44.379 25.6846 44.379C25.8633 44.379 25.8634 44.574 25.8634 44.7689L18.8944 63.6779C18.7157 63.6779 18.537 63.8728 18.537 63.8728Z" fill="black"/>
<path d="M27.6503 59.7791C27.4716 59.7791 27.2929 59.5842 27.4715 59.3893L31.4028 48.6677C31.4028 48.4727 31.5815 48.4727 31.7602 48.4727C31.9389 48.4727 31.9388 48.6676 31.9388 48.8626L28.0076 59.5842C27.8289 59.7791 27.829 59.7791 27.6503 59.7791Z" fill="black"/>
<path d="M34.9766 24.1054C34.7979 24.1054 34.6192 23.9105 34.7979 23.7156L36.5848 17.0877C36.5848 16.8927 36.7634 16.8927 36.9421 16.8927C37.1208 16.8927 37.1209 17.0877 37.1209 17.2826L35.334 23.9105C35.1553 24.1055 35.1552 24.1054 34.9766 24.1054Z" fill="black"/>
<path d="M42.3029 25.8599C42.1242 25.8599 41.9456 25.6649 42.1243 25.47C44.0899 19.8168 46.2341 14.1636 48.5571 8.70534C48.5571 8.5104 48.7358 8.51039 48.9145 8.51039C49.0932 8.51039 49.0932 8.70532 49.0932 8.90026C46.7703 14.3585 44.4472 20.0117 42.6603 25.665C42.4816 25.8599 42.4816 25.8599 42.3029 25.8599Z" fill="black"/>
<path d="M34.9766 59.9741C34.7979 59.9741 34.6192 59.7791 34.7979 59.5842L52.667 17.4776C52.667 17.2826 52.8456 17.2826 53.0243 17.2826C53.203 17.2826 53.2031 17.4775 53.2031 17.6725L35.334 59.7791C35.1553 59.7791 34.9766 59.9741 34.9766 59.9741Z" fill="black"/>
<path d="M42.1242 61.5336C41.9455 61.5336 41.7669 61.3386 41.9456 61.1437L53.9178 32.4878C53.9178 32.2928 54.0965 32.2928 54.2752 32.2928C54.4539 32.2928 54.4539 32.4878 54.4539 32.6827L42.4816 61.3386C42.3029 61.5336 42.1242 61.5336 42.1242 61.5336Z" fill="black"/>
<path d="M54.8113 47.3031C54.6326 47.1082 54.4539 47.1081 54.6326 46.9132L59.8147 36.1916C59.8147 35.9967 59.9933 35.9967 60.172 35.9967C60.3507 35.9967 60.3507 36.1916 60.3507 36.3865L55.1687 47.1081C54.99 47.3031 54.9899 47.3031 54.8113 47.3031Z" fill="black"/>
<path d="M46.0555 67.3817C45.8768 67.3817 45.8768 67.3817 46.0555 67.3817C45.8768 67.3817 45.698 67.1868 45.8767 66.9918L48.1998 61.7285C48.1998 61.5336 48.3784 61.5336 48.5571 61.5336C48.7358 61.5336 48.7358 61.7285 48.7358 61.9235L46.4129 67.1868C46.2342 67.3817 46.0555 67.3817 46.0555 67.3817Z" fill="black"/>
<path d="M5.84996 40.6752C5.67127 40.6752 5.49251 40.4803 5.6712 40.2853L8.88773 32.8777C8.88773 32.6827 9.06633 32.6827 9.24502 32.6827C9.42371 32.6827 9.42378 32.8777 9.42378 33.0726L6.20736 40.4803C6.02867 40.4803 5.84996 40.6752 5.84996 40.6752Z" fill="black"/>
<path d="M19.4304 12.799C19.2517 12.799 19.2517 12.799 19.4304 12.799C19.2517 12.6041 19.0731 12.6041 19.2518 12.4092L21.5747 7.73065C21.5747 7.53571 21.7535 7.5357 21.9321 7.5357C22.1108 7.5357 22.1108 7.73063 22.1108 7.92557L19.7878 12.6041C19.6091 12.6041 19.4304 12.799 19.4304 12.799Z" fill="black"/>
<g opacity="0.1294">
<path d="M44.4472 38.3359C44.2685 36.5815 42.1242 36.5815 41.7668 38.141C41.2307 39.7005 41.4094 39.5056 39.9799 41.0651C38.5504 42.4296 39.0865 42.0398 36.7635 42.8195C34.6192 43.5993 35.5126 43.4043 33.7257 43.4043C33.547 43.4043 33.1897 43.2094 33.011 43.2094C32.1176 42.8195 32.4749 43.0144 30.688 42.0398C29.9732 41.6499 29.4372 40.8701 28.5437 40.8701C26.2208 40.2853 24.9698 44.1841 27.1141 45.5487C30.8666 48.4727 34.6192 49.6424 39.0865 47.3031C41.2307 45.9385 43.0177 43.5993 43.7325 41.0651C44.0899 40.2853 44.4472 39.3106 44.4472 38.3359Z" fill="black"/>
</g>
<g opacity="0.1294">
<path d="M50.8801 65.0425C49.4506 65.6273 48.9145 66.0172 46.2341 66.602C44.9833 66.9919 43.375 66.7969 42.3029 67.7716C39.9799 69.5261 41.9456 73.6197 44.6259 72.84C47.8424 72.0602 51.4161 71.8653 53.9178 69.3311C55.8834 66.7969 53.5605 63.6779 50.8801 65.0425Z" fill="black"/>
</g>
<g opacity="0.1294">
<path d="M70 42.6246C70 42.0397 69.8214 41.4549 69.6427 40.8701C68.5706 38.5309 65.354 38.9207 64.6393 41.26C64.6393 41.4549 64.4606 41.4549 64.4606 41.6499C64.2819 42.0397 64.1033 42.6246 63.9246 43.0144C63.7459 43.4043 63.5672 43.7942 63.3885 44.1841C63.0311 44.7689 63.0311 45.3537 63.0311 45.9385C63.0311 49.8373 68.0344 50.617 68.9279 46.9132C69.464 45.7436 69.8213 44.379 70 43.2094C69.8213 43.0144 70 42.8195 70 42.6246Z" fill="black"/>
</g>
<path d="M41.7668 73.6197C41.4094 73.6197 41.2308 73.4248 41.0521 73.0349C39.98 70.1108 38.9078 67.1868 37.2995 64.0678C34.0831 64.4576 31.0453 64.2627 28.0076 63.8728C27.1141 65.6273 26.2207 67.3817 25.3272 69.3311C24.7911 70.3058 24.2551 71.4754 23.7191 72.4501C23.5404 72.84 23.183 73.0349 22.8256 72.84C18.1796 70.8906 14.2484 67.5766 11.2107 63.4829C11.032 63.288 11.032 62.8981 11.2107 62.5082C12.8189 59.974 14.4271 57.4399 16.3927 54.3209C14.4271 51.5917 12.8189 48.2778 11.2107 44.1841C10.4959 44.379 9.6025 44.574 8.88773 44.7689C6.56475 45.3537 4.24177 45.7436 1.7401 46.1335C1.38271 46.1335 1.02533 45.9385 0.84664 45.5486C-0.582888 39.8954 -0.225593 33.2675 2.09739 26.2498C2.27608 25.8599 2.63346 25.665 2.99085 25.665C6.20728 26.6396 9.60243 27.4194 13.1763 28.3941C14.6058 25.0801 16.3927 21.9611 18.1796 18.6472C16.5714 16.3079 14.7845 13.5788 13.1763 10.4598C12.9976 10.0699 12.9976 9.68002 13.355 9.48508C16.7501 5.97619 21.2173 3.05214 26.2207 0.517942C26.5781 0.323003 26.9354 0.517936 27.1141 0.907812C28.7223 4.02682 30.1519 7.34077 31.4028 10.6547C34.7979 10.0699 38.193 9.87497 41.5882 10.2648C43.0177 7.14584 44.6259 3.83188 46.5915 0.322992C46.7702 -0.0668847 47.1276 -0.0668966 47.4849 0.128042C51.2375 2.27236 54.8113 4.80656 58.0278 7.92557C58.9212 8.70532 59.8146 9.68002 60.5294 10.4598C60.8867 10.8496 61.4229 11.2395 61.6016 12.0193C61.6016 12.2142 61.6015 12.4092 61.4228 12.6041C60.7081 13.7737 59.9933 14.9433 59.0999 16.3079C58.0277 18.0624 56.9555 19.8168 55.7047 21.7662C56.7768 24.4953 57.849 27.4194 58.7425 30.1485C61.4228 30.3435 64.9967 30.9283 68.9279 32.6827C69.1066 32.8777 69.2852 33.0726 69.4639 33.4625C69.8213 38.7258 69.1066 43.5993 67.4984 48.2778C67.3197 48.6677 67.1409 48.8626 66.7836 48.8626H65.7115C63.2098 48.6676 60.5294 48.6676 57.849 48.8626C56.7769 51.5917 55.1687 54.5158 52.8457 57.6348C54.2752 60.5589 55.8835 63.4829 57.1343 66.9918C57.313 67.3817 57.1343 67.7716 56.7769 67.9665C51.9522 71.2805 46.9489 73.0349 41.7668 73.6197ZM37.6569 62.7032C37.8356 62.7032 38.193 62.8981 38.193 63.0931C39.9799 66.2121 41.0521 69.1362 42.1242 72.0602C46.5915 71.4754 51.0588 69.9159 55.526 67.3817C54.2752 64.0678 52.6669 61.1437 51.2374 58.4146C51.0587 58.2196 51.0587 57.8298 51.2374 57.4399C53.7391 54.1259 55.526 51.0069 56.4195 48.0828C56.5982 47.8879 56.7769 47.693 56.9555 47.498C59.9933 47.1081 62.8523 47.3031 65.5327 47.498H66.0689C67.4984 43.4043 68.0345 39.1157 67.8558 34.2422C64.1033 32.6827 60.7081 32.0979 58.0278 31.903C57.6704 31.903 57.4916 31.708 57.3129 31.3181C56.2408 28.1991 55.1687 25.0801 54.0965 21.9611C54.0965 21.7662 54.0965 21.3763 54.0965 21.1814C55.3474 19.037 56.5982 17.0877 57.6704 15.3332C58.3851 14.1636 59.0998 13.1889 59.6359 12.0193C59.4572 11.8243 59.2786 11.6294 59.0999 11.6294C58.2064 10.8497 57.4916 10.0699 56.5981 9.09521C53.5604 6.36607 50.344 3.83188 46.9489 1.8825C45.162 5.19645 43.5537 8.31545 42.1242 11.4345C41.9455 11.6294 41.7668 11.8243 41.4094 11.8243C37.8356 11.4345 34.0831 11.6294 30.5093 12.2142C30.1519 12.2142 29.7945 12.0193 29.6158 11.6294C28.365 8.31546 26.9355 5.19643 25.506 2.07742C21.0387 4.22174 17.1075 6.95089 14.0697 10.0699C15.6779 13.1889 17.4649 15.7231 18.8944 18.0624C19.0731 18.2573 19.0731 18.6472 18.8944 19.0371C16.7501 22.546 14.9632 26.0548 13.355 29.7587C13.1763 30.1485 12.8189 30.3435 12.4616 30.1485C8.88773 29.1738 5.67123 28.3941 2.45479 27.4194C0.667884 33.6574 0.310545 39.3106 1.38269 44.379C3.52698 43.9891 5.67123 43.5993 7.81552 43.0144C8.88767 42.8195 9.78119 42.6246 10.6746 42.4296C11.032 42.4296 11.3894 42.6246 11.5681 42.8195C13.1763 47.3031 14.9632 50.812 17.1075 53.5411C17.2862 53.736 17.2862 54.1259 17.1075 54.5158C15.3206 57.6348 13.5336 60.3639 11.9254 62.8981C14.6058 66.407 18.001 69.1362 21.9322 71.0855C22.2895 70.3058 22.8256 69.3311 23.183 68.5513C24.2552 66.407 25.1486 64.4576 26.042 62.7032C26.2207 62.5083 26.3995 62.3133 26.7568 62.3133C30.688 62.8981 34.0831 63.288 37.6569 62.7032C37.4782 62.7032 37.4782 62.7032 37.6569 62.7032Z" fill="black"/>
<path d="M33.1897 43.7942C31.9388 43.7942 30.688 43.5993 29.4372 43.0144C28.365 42.6246 27.6503 41.8448 27.2929 41.26C26.5781 40.2853 26.5781 39.1157 26.3994 38.141C26.2207 34.6321 26.9355 31.708 28.5437 29.3688C30.5093 26.6396 33.5471 25.47 36.2274 26.4447C36.4061 26.4447 36.5848 26.6397 36.5848 26.8346H36.7635C39.6225 27.8093 41.5881 30.9283 41.7668 34.2422C41.9455 37.3612 40.3373 40.6752 37.8356 42.4296C36.4061 43.2094 34.7979 43.7942 33.1897 43.7942ZM34.2618 27.6143C32.6535 27.6143 30.688 28.589 29.6158 30.1485C28.1863 32.0979 27.6502 34.827 27.8289 37.7511C27.8289 38.5309 28.0076 39.5056 28.365 40.0904C28.7224 40.6752 29.2585 41.0651 29.9732 41.455C32.2962 42.6246 34.9765 42.4296 36.9421 41.0651C39.0864 39.7005 40.3373 36.9714 40.1587 34.2422C39.98 31.5131 38.3717 28.9789 36.0487 28.1992H35.87C35.6913 28.1992 35.3339 28.0042 35.1552 27.8093C34.9765 27.6143 34.6191 27.6143 34.2618 27.6143Z" fill="black"/>
<path d="M15.8566 43.0144C15.6779 43.0144 15.4993 42.8195 15.678 42.6246C18.3583 32.0979 21.7534 21.5712 25.3272 11.4345C25.3272 11.2395 25.5059 11.2395 25.6846 11.2395C25.8633 11.2395 25.8634 11.4345 25.8634 11.6294C22.2895 21.7662 18.8944 32.2929 16.214 42.8195C16.0353 43.0145 15.8566 43.0144 15.8566 43.0144Z" fill="black"/>
<path d="M19.9665 44.7689C19.7878 44.7689 19.6092 44.574 19.7879 44.379C22.2896 34.4372 25.6846 24.6903 29.7945 15.5282C29.7945 15.3332 29.9732 15.3332 30.1519 15.3332C30.3306 15.3332 30.3307 15.5282 30.3307 15.7231C26.2208 24.8852 22.8256 34.6321 20.3239 44.5739C20.3239 44.7689 20.1452 44.7689 19.9665 44.7689Z" fill="black"/>
<path d="M18.537 63.8728C18.3583 63.8728 18.3583 63.8728 18.537 63.8728C18.3583 63.8728 18.1796 63.6779 18.3583 63.4829L25.3272 44.5739C25.3272 44.379 25.5059 44.379 25.6846 44.379C25.8633 44.379 25.8634 44.574 25.8634 44.7689L18.8944 63.6779C18.7157 63.6779 18.537 63.8728 18.537 63.8728Z" fill="black"/>
<path d="M27.6503 59.7791C27.4716 59.7791 27.2929 59.5842 27.4715 59.3893L31.4028 48.6677C31.4028 48.4727 31.5815 48.4727 31.7602 48.4727C31.9389 48.4727 31.9388 48.6676 31.9388 48.8626L28.0076 59.5842C27.8289 59.7791 27.829 59.7791 27.6503 59.7791Z" fill="black"/>
<path d="M34.9766 24.1054C34.7979 24.1054 34.6192 23.9105 34.7979 23.7156L36.5848 17.0877C36.5848 16.8927 36.7634 16.8927 36.9421 16.8927C37.1208 16.8927 37.1209 17.0877 37.1209 17.2826L35.334 23.9105C35.1553 24.1055 35.1552 24.1054 34.9766 24.1054Z" fill="black"/>
<path d="M42.3029 25.8599C42.1242 25.8599 41.9456 25.6649 42.1243 25.47C44.0899 19.8168 46.2341 14.1636 48.5571 8.70534C48.5571 8.5104 48.7358 8.51039 48.9145 8.51039C49.0932 8.51039 49.0932 8.70532 49.0932 8.90026C46.7703 14.3585 44.4472 20.0117 42.6603 25.665C42.4816 25.8599 42.4816 25.8599 42.3029 25.8599Z" fill="black"/>
<path d="M34.9766 59.9741C34.7979 59.9741 34.6192 59.7791 34.7979 59.5842L52.667 17.4776C52.667 17.2826 52.8456 17.2826 53.0243 17.2826C53.203 17.2826 53.2031 17.4775 53.2031 17.6725L35.334 59.7791C35.1553 59.7791 34.9766 59.9741 34.9766 59.9741Z" fill="black"/>
<path d="M42.1242 61.5336C41.9455 61.5336 41.7669 61.3386 41.9456 61.1437L53.9178 32.4878C53.9178 32.2928 54.0965 32.2928 54.2752 32.2928C54.4539 32.2928 54.4539 32.4878 54.4539 32.6827L42.4816 61.3386C42.3029 61.5336 42.1242 61.5336 42.1242 61.5336Z" fill="black"/>
<path d="M54.8113 47.3031C54.6326 47.1082 54.4539 47.1081 54.6326 46.9132L59.8147 36.1916C59.8147 35.9967 59.9933 35.9967 60.172 35.9967C60.3507 35.9967 60.3507 36.1916 60.3507 36.3865L55.1687 47.1081C54.99 47.3031 54.9899 47.3031 54.8113 47.3031Z" fill="black"/>
<path d="M46.0555 67.3817C45.8768 67.3817 45.8768 67.3817 46.0555 67.3817C45.8768 67.3817 45.698 67.1868 45.8767 66.9918L48.1998 61.7285C48.1998 61.5336 48.3784 61.5336 48.5571 61.5336C48.7358 61.5336 48.7358 61.7285 48.7358 61.9235L46.4129 67.1868C46.2342 67.3817 46.0555 67.3817 46.0555 67.3817Z" fill="black"/>
<path d="M5.84996 40.6752C5.67127 40.6752 5.49251 40.4803 5.6712 40.2853L8.88773 32.8777C8.88773 32.6827 9.06633 32.6827 9.24502 32.6827C9.42371 32.6827 9.42378 32.8777 9.42378 33.0726L6.20736 40.4803C6.02867 40.4803 5.84996 40.6752 5.84996 40.6752Z" fill="black"/>
<path d="M19.4304 12.799C19.2517 12.799 19.2517 12.799 19.4304 12.799C19.2517 12.6041 19.0731 12.6041 19.2518 12.4092L21.5747 7.73065C21.5747 7.53571 21.7535 7.5357 21.9321 7.5357C22.1108 7.5357 22.1108 7.73063 22.1108 7.92557L19.7878 12.6041C19.6091 12.6041 19.4304 12.799 19.4304 12.799Z" fill="black"/>
<path d="M41.7668 73.6197C41.4094 73.6197 41.2308 73.4248 41.0521 73.0349C39.98 70.1108 38.9078 67.1868 37.2995 64.0678C34.0831 64.4576 31.0453 64.2627 28.0076 63.8728C27.1141 65.6273 26.2207 67.3817 25.3272 69.3311C24.7911 70.3058 24.2551 71.4754 23.7191 72.4501C23.5404 72.84 23.183 73.0349 22.8256 72.84C18.1796 70.8906 14.2484 67.5766 11.2107 63.4829C11.032 63.288 11.032 62.8981 11.2107 62.5082C12.8189 59.974 14.4271 57.4399 16.3927 54.3209C14.4271 51.5917 12.8189 48.2778 11.2107 44.1841C10.4959 44.379 9.6025 44.574 8.88773 44.7689C6.56475 45.3537 4.24177 45.7436 1.7401 46.1335C1.38271 46.1335 1.02533 45.9385 0.84664 45.5486C-0.582888 39.8954 -0.225593 33.2675 2.09739 26.2498C2.27608 25.8599 2.63346 25.665 2.99085 25.665C6.20728 26.6396 9.60243 27.4194 13.1763 28.3941C14.6058 25.0801 16.3927 21.9611 18.1796 18.6472C16.5714 16.3079 14.7845 13.5788 13.1763 10.4598C12.9976 10.0699 12.9976 9.68002 13.355 9.48508C16.7501 5.97619 21.2173 3.05214 26.2207 0.517942C26.5781 0.323003 26.9354 0.517936 27.1141 0.907812C28.7223 4.02682 30.1519 7.34077 31.4028 10.6547C34.7979 10.0699 38.193 9.87497 41.5882 10.2648C43.0177 7.14584 44.6259 3.83188 46.5915 0.322992C46.7702 -0.0668847 47.1276 -0.0668966 47.4849 0.128042C51.2375 2.27236 54.8113 4.80656 58.0278 7.92557C58.9212 8.70532 59.8146 9.68002 60.5294 10.4598C60.8867 10.8496 61.4229 11.2395 61.6016 12.0193C61.6016 12.2142 61.6015 12.4092 61.4228 12.6041C60.7081 13.7737 59.9933 14.9433 59.0999 16.3079C58.0277 18.0624 56.9555 19.8168 55.7047 21.7662C56.7768 24.4953 57.849 27.4194 58.7425 30.1485C61.4228 30.3435 64.9967 30.9283 68.9279 32.6827C69.1066 32.8777 69.2852 33.0726 69.4639 33.4625C69.8213 38.7258 69.1066 43.5993 67.4984 48.2778C67.3197 48.6677 67.1409 48.8626 66.7836 48.8626H65.7115C63.2098 48.6676 60.5294 48.6676 57.849 48.8626C56.7769 51.5917 55.1687 54.5158 52.8457 57.6348C54.2752 60.5589 55.8835 63.4829 57.1343 66.9918C57.313 67.3817 57.1343 67.7716 56.7769 67.9665C51.9522 71.2805 46.9489 73.0349 41.7668 73.6197ZM37.6569 62.7032C37.8356 62.7032 38.193 62.8981 38.193 63.0931C39.9799 66.2121 41.0521 69.1362 42.1242 72.0602C46.5915 71.4754 51.0588 69.9159 55.526 67.3817C54.2752 64.0678 52.6669 61.1437 51.2374 58.4146C51.0587 58.2196 51.0587 57.8298 51.2374 57.4399C53.7391 54.1259 55.526 51.0069 56.4195 48.0828C56.5982 47.8879 56.7769 47.693 56.9555 47.498C59.9933 47.1081 62.8523 47.3031 65.5327 47.498H66.0689C67.4984 43.4043 68.0345 39.1157 67.8558 34.2422C64.1033 32.6827 60.7081 32.0979 58.0278 31.903C57.6704 31.903 57.4916 31.708 57.3129 31.3181C56.2408 28.1991 55.1687 25.0801 54.0965 21.9611C54.0965 21.7662 54.0965 21.3763 54.0965 21.1814C55.3474 19.037 56.5982 17.0877 57.6704 15.3332C58.3851 14.1636 59.0998 13.1889 59.6359 12.0193C59.4572 11.8243 59.2786 11.6294 59.0999 11.6294C58.2064 10.8497 57.4916 10.0699 56.5981 9.09521C53.5604 6.36607 50.344 3.83188 46.9489 1.8825C45.162 5.19645 43.5537 8.31545 42.1242 11.4345C41.9455 11.6294 41.7668 11.8243 41.4094 11.8243C37.8356 11.4345 34.0831 11.6294 30.5093 12.2142C30.1519 12.2142 29.7945 12.0193 29.6158 11.6294C28.365 8.31546 26.9355 5.19643 25.506 2.07742C21.0387 4.22174 17.1075 6.95089 14.0697 10.0699C15.6779 13.1889 17.4649 15.7231 18.8944 18.0624C19.0731 18.2573 19.0731 18.6472 18.8944 19.0371C16.7501 22.546 14.9632 26.0548 13.355 29.7587C13.1763 30.1485 12.8189 30.3435 12.4616 30.1485C8.88773 29.1738 5.67123 28.3941 2.45479 27.4194C0.667884 33.6574 0.310545 39.3106 1.38269 44.379C3.52698 43.9891 5.67123 43.5993 7.81552 43.0144C8.88767 42.8195 9.78119 42.6246 10.6746 42.4296C11.032 42.4296 11.3894 42.6246 11.5681 42.8195C13.1763 47.3031 14.9632 50.812 17.1075 53.5411C17.2862 53.736 17.2862 54.1259 17.1075 54.5158C15.3206 57.6348 13.5336 60.3639 11.9254 62.8981C14.6058 66.407 18.001 69.1362 21.9322 71.0855C22.2895 70.3058 22.8256 69.3311 23.183 68.5513C24.2552 66.407 25.1486 64.4576 26.042 62.7032C26.2207 62.5083 26.3995 62.3133 26.7568 62.3133C30.688 62.8981 34.0831 63.288 37.6569 62.7032C37.4782 62.7032 37.4782 62.7032 37.6569 62.7032Z" fill="black"/>
<path d="M33.1897 43.7942C31.9388 43.7942 30.688 43.5993 29.4372 43.0144C28.365 42.6246 27.6503 41.8448 27.2929 41.26C26.5781 40.2853 26.5781 39.1157 26.3994 38.141C26.2207 34.6321 26.9355 31.708 28.5437 29.3688C30.5093 26.6396 33.5471 25.47 36.2274 26.4447C36.4061 26.4447 36.5848 26.6397 36.5848 26.8346H36.7635C39.6225 27.8093 41.5881 30.9283 41.7668 34.2422C41.9455 37.3612 40.3373 40.6752 37.8356 42.4296C36.4061 43.2094 34.7979 43.7942 33.1897 43.7942ZM34.2618 27.6143C32.6535 27.6143 30.688 28.589 29.6158 30.1485C28.1863 32.0979 27.6502 34.827 27.8289 37.7511C27.8289 38.5309 28.0076 39.5056 28.365 40.0904C28.7224 40.6752 29.2585 41.0651 29.9732 41.455C32.2962 42.6246 34.9765 42.4296 36.9421 41.0651C39.0864 39.7005 40.3373 36.9714 40.1587 34.2422C39.98 31.5131 38.3717 28.9789 36.0487 28.1992H35.87C35.6913 28.1992 35.3339 28.0042 35.1552 27.8093C34.9765 27.6143 34.6191 27.6143 34.2618 27.6143Z" fill="black"/>
</svg>
