<svg width="21" height="35" viewBox="0 0 21 35" fill="none" xmlns="http://www.w3.org/2000/svg">
<path d="M2.56667 0.800007L0.733362 34L18.8832 34.2L20.1665 0.800007H2.56667Z" fill="#ACD4F7"/>
<path d="M18.8831 35L0.733257 34.8C0.549926 34.8 0.366617 34.8 0.183286 34.6C-4.47613e-05 34.4 0 34.2 0 34L1.83331 0.800003C1.83331 0.400003 2.1999 0 2.56657 0H20.1664C20.3497 0 20.533 -3.05474e-06 20.7164 0.199997C20.8997 0.399997 20.8997 0.600003 20.8997 0.800003L19.6163 34.2C19.6163 34.6 19.2497 35 18.8831 35ZM1.46663 33.2L18.1497 33.4L19.433 1.8H3.29993L1.46663 33.2Z" fill="black"/>
</svg>
