<svg width="80" height="88" viewBox="0 0 80 88" fill="none" xmlns="http://www.w3.org/2000/svg">
<path d="M0.81814 37.4322C12.0003 26.7157 23.787 15.3955 34.9692 4.67909C37.0847 2.71693 39.3513 0.603857 42.2224 0.603857C43.8846 0.603857 45.5469 1.50944 47.058 2.41506C60.5068 10.8675 70.9334 30.0363 79.5467 36.9793C79.3956 50.1107 69.8756 63.8459 60.0534 72.7511C56.729 75.7698 52.9513 78.6376 48.5691 80.147C45.2447 81.2035 41.7691 81.3544 38.4447 80.9016C28.4714 79.5432 19.8581 72.6002 14.267 64.4497C8.52481 55.9973 4.5959 46.9411 0.81814 37.4322Z" fill="#ACD4F7"/>
<path d="M41.9202 81.5053C40.7113 81.5053 39.5025 81.3544 38.2936 81.2035C29.0759 79.996 20.1603 73.8076 13.6625 64.4496C7.76921 55.8462 3.68923 46.4882 0.0625805 37.583C-0.0885299 37.4321 0.0626359 37.1302 0.213746 36.9793C5.80483 31.6965 11.547 26.1119 17.2892 20.6782C23.0314 15.0936 28.7736 9.65992 34.5158 4.22623C36.7825 2.11313 39.2003 0 42.0714 0C44.0358 0 45.6979 0.905633 47.2091 1.81125C55.2179 6.94306 62.3201 15.6973 68.3645 23.546C72.4445 28.6778 76.2223 33.5077 79.6978 36.3755C79.8489 36.5265 79.849 36.6774 79.849 36.8284C79.6979 50.4126 69.5734 64.4496 60.2046 72.902C57.3335 75.6188 53.2535 78.7885 48.5691 80.2978C46.6046 81.2035 44.338 81.5053 41.9202 81.5053ZM1.42261 37.583C4.89815 46.3373 8.97811 55.5444 14.7203 63.8458C21.0669 72.902 29.6802 78.9394 38.5957 80.1469C42.0713 80.5997 45.5469 80.4488 48.5691 79.3922C53.1024 77.8828 57.0313 74.7132 59.9024 72.1473C68.969 63.8458 78.7912 50.2616 79.0934 37.1302C75.6179 34.2624 71.8401 29.4325 67.7601 24.3007C61.7157 16.6029 54.7646 7.69776 46.7557 2.86782C45.3957 2.11314 43.8846 1.20751 42.2224 1.20751C39.6536 1.20751 37.3869 3.16969 35.4225 5.13185C29.8314 10.5655 24.0891 15.9992 18.1958 21.5838C12.6047 26.8666 6.86259 32.3003 1.42261 37.583Z" fill="black"/>
<path d="M15.3248 7.99974C16.2315 29.1307 16.6848 50.4127 16.8359 71.5437C16.8359 71.5437 65.0401 70.6381 65.0401 70.0343C64.5868 49.2052 64.4357 28.2251 64.7379 7.24506L15.3248 7.99974Z" fill="white"/>
<path d="M16.987 72.1473C16.8359 72.1473 16.6848 72.1473 16.5337 71.9964C16.3826 71.8454 16.3826 71.6945 16.3826 71.5436C16.2315 50.4126 15.7782 29.1306 14.8715 7.99961C14.8715 7.84868 14.8715 7.69771 15.0226 7.54678C15.1737 7.39584 15.3248 7.39588 15.4759 7.39588L65.0401 6.6412C65.1912 6.6412 65.3424 6.64116 65.4935 6.7921C65.6446 6.94304 65.6446 7.094 65.6446 7.24493C65.3423 28.0741 65.4935 49.2051 65.9468 69.8833C65.9468 70.487 65.9468 70.6379 57.7868 70.9398C53.7068 71.0907 48.2668 71.2417 41.1647 71.3926C29.0758 71.8454 16.987 72.1473 16.987 72.1473ZM15.9292 8.60335C16.8359 29.2815 17.2892 50.2616 17.4403 70.9398C35.1202 70.6379 60.9601 69.8832 64.5868 69.5814C64.1334 49.0541 63.9823 28.3759 64.2845 7.84867L15.9292 8.60335Z" fill="black"/>
<path d="M0.81814 37.4321C2.17813 50.4126 0.818195 79.0904 1.72486 82.411C2.3293 84.675 4.44479 86.1844 6.86256 86.0334C6.86256 86.0334 48.7201 86.9391 72.5956 86.4863C75.6178 86.4863 79.5467 85.2788 79.5467 79.3923C79.5467 64.6006 78.9423 55.0916 79.5467 36.8284C69.4223 46.9411 59.1468 56.7519 48.5691 66.2609C46.9069 67.7702 44.6402 69.4305 42.5247 68.8268C36.178 66.5627 30.8892 62.1856 25.9025 57.8085C17.4403 50.7145 9.12921 43.4696 0.81814 37.4321Z" fill="white"/>
<path d="M55.369 87.2409C32.8536 87.2409 7.16476 86.6371 6.86254 86.6371C4.29366 86.6371 2.02708 84.9768 1.27152 82.5618C0.818194 80.9015 0.81812 74.2604 0.81812 65.808C0.81812 56.299 0.969286 44.3751 0.213733 37.4321C0.213733 37.2811 0.364862 36.9793 0.515973 36.8283C0.667083 36.6774 0.969249 36.6774 1.12036 36.8283C9.43143 42.8658 17.8937 50.2616 26.2047 57.2047C31.0403 61.2799 36.3291 65.9589 42.6757 68.2229C44.6402 68.8267 46.7558 67.1664 48.1158 65.808C58.6935 56.299 69.1201 46.3373 79.0934 36.3755C79.2445 36.2246 79.5467 36.2246 79.6978 36.2246C79.8489 36.3755 80 36.5265 80 36.8283C79.5467 48.9032 79.6978 57.0537 79.8489 65.657C79.8489 70.0342 80 74.4113 80 79.3922C80 84.2221 77.4311 86.939 72.4445 86.939C67.4579 87.2408 61.5646 87.2409 55.369 87.2409ZM6.86254 85.5806C7.31587 85.5806 49.0223 86.4862 72.5956 86.0333C76.8267 85.8824 79.0934 83.7693 79.0934 79.5431C79.0934 74.5622 79.0933 70.0342 78.9422 65.808C78.7911 57.5065 78.6401 49.6579 79.0934 38.3377C69.2712 47.9976 59.2979 57.6575 49.0224 66.8645C47.3602 68.3739 44.9424 70.1851 42.3735 69.4304C35.8757 67.1664 30.2847 62.3364 25.4492 58.2612C17.5915 51.4691 9.43145 44.526 1.4226 38.6395C2.02704 45.7335 2.02702 56.9028 1.87591 65.9589C1.87591 73.9585 1.72482 80.9015 2.17815 82.4109C2.9337 84.2221 4.74699 85.5806 6.86254 85.5806Z" fill="black"/>
<g opacity="0.1294">
<path d="M16.2315 45.4318C14.4182 42.8659 11.8493 41.0547 9.12928 39.3944C8.07151 38.6397 7.01377 38.1869 5.956 37.5832C4.89822 36.9794 3.68932 36.3757 2.63155 36.0738C0.667113 35.621 -0.239513 38.4888 1.72492 39.0925C3.84047 39.8472 4.44489 40.149 5.956 40.7528C6.10711 40.9037 6.2582 40.9037 6.40931 41.0547C6.2582 41.5075 6.40929 42.1112 6.86262 42.4131C8.67595 43.3187 9.58266 43.9224 10.7915 44.979C11.396 45.5827 12.0004 46.1865 12.6049 46.7902C12.9071 47.0921 13.2093 47.243 13.5115 47.243C13.6626 47.243 13.9649 47.243 14.116 47.0921C14.116 47.0921 14.2671 47.0921 14.2671 47.243C14.4182 47.394 14.8715 47.8468 14.8715 47.8468C15.0227 47.9977 15.0226 48.1487 15.1737 48.1487C15.7781 48.7524 16.8359 48.2996 16.987 47.5449C17.2893 46.6393 16.6848 46.0355 16.2315 45.4318Z" fill="black"/>
</g>
<g opacity="0.1294">
<path d="M78.0357 36.6776C77.5823 36.8285 77.4312 37.1304 76.9779 37.4323C77.4312 36.9795 76.3734 37.8851 75.769 38.3379C73.9557 39.6963 72.1423 41.0547 70.329 42.4131C69.1201 43.3187 68.2134 44.0734 66.5512 45.4318C65.9468 45.8846 65.4935 46.3374 64.889 46.7903C64.5868 47.0921 64.4357 47.2431 64.2846 47.5449C63.6801 48.9034 65.4934 50.1108 66.5512 49.0543C68.6668 46.9412 71.0845 44.979 73.3512 43.0169C75.0134 41.5075 75.9201 41.0547 77.8845 39.3944C78.3378 38.9416 78.9423 38.6397 79.2445 38.1869C79.849 37.4323 78.9423 36.5266 78.0357 36.6776Z" fill="black"/>
</g>
<g opacity="0.1294">
<path d="M61.7158 52.0728C60.5069 53.1294 58.8446 54.7897 58.0891 55.2425C57.3335 55.8462 55.6713 57.0537 53.7068 58.5631C51.5913 60.3743 50.6847 61.129 48.5692 62.7893C47.3603 63.6949 45.698 65.2042 43.4314 65.657C41.618 65.657 41.467 65.6571 39.8048 65.2043C38.4448 64.7514 38.4447 64.7515 36.9336 63.9968C35.5736 63.2421 34.2136 62.3365 32.8536 61.5818C32.4003 61.2799 31.7959 60.8271 31.1914 60.9781C30.2848 61.2799 29.9825 62.6384 30.8892 63.0912C33.0048 64.4496 35.1203 65.808 37.3869 67.0155C38.5958 67.6192 39.9559 67.9211 41.3159 68.223C44.7914 68.9776 47.9647 66.8646 50.3825 64.6005C52.6491 62.6384 54.7647 60.5253 57.1825 58.5631C58.8447 57.0537 60.5069 55.5444 62.1691 54.035C62.4713 53.7331 62.9246 53.4313 63.0757 53.1294C63.6802 52.0728 62.4713 51.3181 61.7158 52.0728Z" fill="black"/>
</g>
<g opacity="0.1294">
<path d="M49.778 5.28263C47.058 5.28263 44.4891 5.28266 41.7692 4.98078C39.8047 4.82985 37.8403 5.13169 35.7247 5.28263C35.1203 5.28263 34.6669 5.43357 34.0625 5.43357C33.458 5.43357 32.8536 5.58451 32.5514 6.18825C31.9469 7.09387 32.7026 8.30134 33.7603 8.30134C37.387 7.6976 40.8625 7.84856 44.4891 7.9995C46.3025 7.9995 48.2669 7.84855 50.0802 7.84855C50.6847 7.69762 51.4402 7.84854 52.0447 7.69761C52.498 7.54667 52.8002 7.09388 52.8002 6.49014C52.9513 4.82985 50.9869 5.28263 49.778 5.28263Z" fill="black"/>
</g>
<path d="M5.80486 83.0148C5.65375 83.0148 5.6537 83.0148 5.6537 82.8639C5.20037 79.9961 4.89815 77.1283 4.89815 74.2605C4.89815 74.1096 5.04931 74.1096 5.04931 74.1096C5.20042 74.1096 5.20038 74.2605 5.20038 74.2605C5.20038 77.1283 5.50261 79.9961 5.95594 82.8639C6.10705 82.8639 5.95597 83.0148 5.80486 83.0148Z" fill="black"/>
<path d="M8.82712 83.3166C8.67601 83.3166 8.67596 83.3166 8.67596 83.1657C8.37374 82.1091 8.22268 80.9017 8.07157 79.8451C8.07157 79.6942 8.22264 79.6942 8.22264 79.6942C8.37375 79.6942 8.37372 79.8451 8.37372 79.8451C8.37372 80.9017 8.5249 82.1091 8.82712 83.1657C8.97823 83.1657 8.97823 83.3166 8.82712 83.3166Z" fill="black"/>
<path d="M75.4668 56.299C75.3157 56.299 75.3157 56.1481 75.3157 56.1481V48.1485C75.3157 47.9976 75.4668 47.9976 75.4668 47.9976C75.6179 47.9976 75.6179 48.1485 75.6179 48.1485V56.1481C75.6179 56.299 75.6179 56.299 75.4668 56.299Z" fill="black"/>
<path d="M72.1423 53.7332C71.9912 53.7332 71.9912 53.5822 71.9912 53.5822L71.8401 50.4126C71.8401 50.2617 71.9912 50.2617 71.9912 50.2617C72.1423 50.2617 72.1423 50.4126 72.1423 50.4126L72.2935 53.5822C72.4446 53.5822 72.2934 53.7332 72.1423 53.7332Z" fill="black"/>
<path d="M41.0135 44.0731C39.3513 44.0731 37.538 43.3185 36.178 41.96C34.6669 40.2998 33.7602 38.0357 33.3069 35.1679C32.8535 31.5455 33.458 27.923 34.818 24.6024C35.1202 23.8478 35.5735 23.0931 36.178 22.4893C37.3869 21.1309 39.2002 20.5272 40.8624 20.829C43.8846 21.4328 45.2446 22.7912 46.1512 24.3005C48.2668 27.6211 47.9646 31.5455 47.3602 35.7717C46.9069 39.0923 46.0002 42.2619 43.2802 43.6204C42.6758 43.9222 41.9202 44.0731 41.0135 44.0731ZM40.1068 21.8856C39.0491 21.8856 37.9913 22.3384 37.2358 23.244C36.7825 23.8478 36.4802 24.4515 36.178 25.0552C34.818 28.2249 34.3647 31.6964 34.6669 35.017C34.9691 37.7338 35.8757 39.696 37.0846 41.0544C38.4446 42.4128 40.8625 43.3185 42.8269 42.4128C45.0935 41.3563 45.6979 38.3376 46.1512 35.4698C46.7557 31.5455 47.058 27.7721 45.0935 24.9043C44.338 23.6968 43.2802 22.4893 40.5602 22.0365C40.5602 21.8856 40.2579 21.8856 40.1068 21.8856Z" fill="black"/>
<path d="M47.9646 45.8844C47.8135 45.8844 47.5113 45.7334 47.5113 45.5825L42.3735 37.8848C42.2224 37.5829 42.2224 37.281 42.5246 36.9791C42.8269 36.8282 43.129 36.8282 43.4313 37.1301L48.5691 44.8278C48.7202 45.1297 48.7201 45.4316 48.4179 45.7334C48.1157 45.8844 47.9646 45.8844 47.9646 45.8844Z" fill="black"/>
</svg>
