<svg width="98" height="103" viewBox="0 0 98 103" fill="none" xmlns="http://www.w3.org/2000/svg">
<path d="M46.7899 102.089C46.4327 102.089 46.0756 101.699 46.0756 101.309C45.897 97.0231 44.1111 92.9318 41.2537 90.0094C40.0036 88.8404 38.2177 87.2818 35.8961 87.087C33.9316 86.8922 31.9671 87.6715 30.1813 88.4508C27.3239 89.6197 24.4665 91.1783 22.502 94.2956C22.3234 94.4904 22.1449 94.6852 21.9663 94.6852C21.7877 94.6852 21.6091 94.6852 21.4305 94.4904C15.8943 89.8146 11.4296 85.1388 8.03645 80.2681C7.85786 79.8785 7.85782 79.4888 8.21499 79.0992C11.6082 75.9819 13.9298 71.501 14.8228 66.8252C15.1799 64.8769 15.1799 63.5131 14.8228 62.1493C14.1084 60.0063 12.5011 58.058 9.46513 56.4994C6.78631 55.1356 3.92886 54.1615 0.714286 53.577C0.535698 53.577 0.357132 53.3822 0.178544 53.1874C-4.36032e-05 52.9925 0 52.7977 0 52.6029C1.07153 45.3943 3.03595 37.991 5.53618 30.9773C5.71476 30.5876 6.07194 30.3928 6.42912 30.5876C10.0009 31.9514 18.7517 32.1462 22.3235 27.4704C28.2169 19.6774 25.538 10.7154 24.4664 8.18268C24.2878 7.79303 24.4665 7.40338 24.8236 7.20855C28.2168 5.45512 33.7531 3.70169 39.825 1.75343C41.6109 1.16896 43.5753 0.584477 45.3612 0C45.5398 0 45.897 4.4563e-06 46.0756 0.19483C46.2542 0.389656 46.2542 0.779302 46.2542 0.974128C45.897 2.53273 49.2902 9.35163 54.2906 12.0792C65.8988 18.7033 73.3995 10.5206 75.3639 7.79302C75.5425 7.5982 75.7212 7.5982 75.8998 7.40338C76.0784 7.40338 76.2569 7.40337 76.4355 7.5982C82.1503 14.0274 86.9722 20.2619 91.2583 26.8859C91.4369 27.2756 91.4369 27.6652 91.0798 28.0549C86.0793 31.9514 83.5791 39.3548 84.8292 45.784C86.0793 52.2132 91.0798 57.8632 97.3303 59.6166C97.5089 59.6166 97.6875 59.8114 97.8661 60.0063C98.0446 60.2011 98.0446 60.3959 97.8661 60.5907C95.9016 67.9941 93.0441 75.0078 89.651 81.2423C89.4724 81.6319 89.1152 81.6319 88.758 81.6319C84.2933 79.4888 80.0073 77.7354 75.8998 79.294C73.0424 80.463 70.5421 83.3853 69.1134 87.2818C68.0418 90.2042 67.6847 93.5163 67.5061 96.8283C67.5061 97.6076 67.3275 98.1921 67.3275 98.9714C67.3275 99.361 66.9703 99.5558 66.7917 99.7507C59.8268 101.114 53.2191 101.894 46.7899 102.089ZM35.1817 85.3336C35.5389 85.3336 35.7175 85.3336 36.0746 85.3336C38.2177 85.5284 40.3607 86.6974 42.3252 88.6456C45.3612 91.7628 47.1471 95.8542 47.5043 100.335C53.5763 100.14 59.6483 99.361 66.0775 97.8024C66.0775 97.2179 66.256 96.6335 66.256 96.2438C66.6132 92.737 66.9704 89.4249 68.0419 86.3077C69.4706 82.0216 72.328 78.7095 75.7211 77.3457C80.0072 75.7871 84.6506 77.5406 88.9367 79.4888C91.9727 73.8389 94.6515 67.2148 96.4374 60.5907C90.0082 58.4477 84.8292 52.6029 83.579 45.784C82.1503 38.9651 84.8292 31.1721 89.8296 26.8859C85.9007 20.8463 81.4359 15.0016 76.2569 9.15681C73.7567 12.0792 65.7202 19.8722 53.9334 13.2481C49.2901 10.7154 45.7184 4.67582 45.1827 1.55861C43.5754 2.14309 41.968 2.53274 40.5393 3.11721C35.0031 4.87064 29.8241 6.62408 26.431 8.18268C27.6811 11.6895 29.8241 20.4567 23.7521 28.2497C19.8232 33.3152 11.251 33.51 6.96486 32.1462C4.64322 38.7703 2.8574 45.3944 1.78588 52.0184C4.82187 52.6029 7.5006 53.577 10.1794 54.9408C13.5726 56.6942 15.5371 58.8373 16.2514 61.5649C16.6086 63.1235 16.7872 64.6821 16.43 66.8252C15.537 71.6958 13.2155 76.3716 9.82233 79.6836C13.0369 83.9698 16.9658 88.256 21.9663 92.5421C23.9307 89.6197 26.9667 88.0611 29.8241 86.8922C31.2528 86.1129 33.2172 85.3336 35.1817 85.3336Z" fill="black"/>
</svg>
