<svg width="65" height="31" viewBox="0 0 65 31" fill="none" xmlns="http://www.w3.org/2000/svg">
<path d="M7.07061 24.0977C6.7674 24.0977 6.4642 23.9462 6.4642 23.6433C6.16099 20.3119 6.00937 16.6776 8.58667 14.2547C9.04149 13.8004 9.64791 13.4975 10.1027 13.0432C10.4059 12.7404 10.8608 12.5889 11.164 12.2861C13.5897 10.3175 14.4993 7.13746 13.2865 4.56315C12.0736 1.98883 8.58667 0.323067 5.55456 1.08022C4.0385 1.38308 2.52244 2.44308 1.76441 3.95739C1.15799 5.16883 0.854798 6.3803 1.30962 7.44032C1.46122 7.74318 1.3096 8.04604 1.00639 8.19747C0.703174 8.3489 0.399963 8.19745 0.248357 7.89459C-0.20646 6.53171 -0.0548636 4.86599 0.854771 3.50311C1.7644 1.83738 3.43207 0.625918 5.40294 0.171627C8.88987 -0.585525 12.9832 1.23166 14.4993 4.26027C15.8637 7.28888 14.9541 11.0746 12.0736 13.3461C11.7704 13.649 11.3156 13.9518 11.0124 14.1032C10.5576 14.4061 9.95114 14.709 9.64793 15.1633C7.37384 17.2833 7.52544 20.6147 7.98026 23.6433C7.67705 23.6433 7.52543 23.9462 7.07061 24.0977Z" fill="black"/>
<path d="M7.37384 30.7605C7.07063 30.7605 6.76738 30.4577 6.76738 30.1548L6.61582 28.0348C6.61582 27.7319 6.7674 27.429 7.07061 27.429C7.37383 27.429 7.67703 27.5805 7.67703 27.8833L7.82864 30.0034C7.98025 30.4577 7.67706 30.7605 7.37384 30.7605Z" fill="black"/>
<path d="M31.9339 24.0977C31.6307 24.0977 31.3275 23.9462 31.3275 23.6433C31.0243 20.3119 30.8727 16.6776 33.45 14.2547C33.9048 13.8004 34.5112 13.4975 34.9661 13.0432C35.2693 12.7404 35.7241 12.5889 36.0273 12.2861C38.453 10.3175 39.3626 7.13746 38.1498 4.56315C36.9369 1.98883 33.45 0.323067 30.4179 1.08022C28.9018 1.38308 27.3858 2.44308 26.6277 3.95739C26.0213 5.16883 25.7181 6.3803 26.1729 7.44032C26.3245 7.74318 26.1729 8.04604 25.8697 8.19747C25.5665 8.3489 25.2633 8.19745 25.1117 7.89459C24.6569 6.53171 24.8085 4.86599 25.7181 3.50311C26.6277 1.83738 28.2954 0.625918 30.2663 0.171627C33.7532 -0.585525 37.8466 1.23166 39.3626 4.26027C40.7271 7.28888 39.8175 11.0746 36.937 13.3461C36.6337 13.649 36.1789 13.9518 35.8757 14.1032C35.4209 14.4061 34.8145 14.8604 34.5113 15.1633C32.2372 17.2833 32.3888 20.6147 32.8436 23.6433C32.5404 23.6433 32.2372 23.9462 31.9339 24.0977Z" fill="black"/>
<path d="M32.2372 30.7605C31.934 30.7605 31.6308 30.4577 31.6308 30.1548L31.4791 28.0348C31.4791 27.7319 31.6307 27.429 31.9339 27.429C32.2371 27.429 32.5404 27.5805 32.5404 27.8833L32.692 30.0034C32.692 30.4577 32.5404 30.7605 32.2372 30.7605Z" fill="black"/>
<path d="M56.9489 24.0977C56.6457 24.0977 56.3425 23.9462 56.3425 23.6433C56.0392 20.3119 55.8876 16.6776 58.4649 14.2547C58.9197 13.8004 59.5262 13.4975 59.981 13.0432C60.2842 12.7404 60.739 12.5889 61.0422 12.2861C63.4679 10.3175 64.3776 7.13746 63.1647 4.56315C61.9519 1.98883 58.4649 0.323067 55.4328 1.08022C53.9168 1.38308 52.4007 2.44308 51.6427 3.95739C51.0363 5.16883 50.7331 6.3803 51.1879 7.44032C51.3395 7.74318 51.1879 8.04604 50.8846 8.19747C50.5814 8.3489 50.2782 8.19745 50.1266 7.89459C49.6718 6.53171 49.8234 4.86599 50.733 3.50311C51.6427 1.83738 53.3103 0.625918 55.2812 0.171627C58.7681 -0.585525 62.8615 1.23166 64.3775 4.26027C65.742 7.28888 64.8324 11.0746 61.9519 13.3461C61.6487 13.649 61.1938 13.9518 60.8906 14.1032C60.4358 14.4061 59.8294 14.8604 59.5262 15.1633C57.2521 17.2833 57.4037 20.6147 57.8585 23.6433C57.5553 23.6433 57.4037 23.9462 56.9489 24.0977Z" fill="black"/>
<path d="M57.2521 30.7605C56.9489 30.7605 56.6457 30.4577 56.6457 30.1548L56.4941 28.0348C56.4941 27.7319 56.6457 27.429 56.9489 27.429C57.2521 27.429 57.5553 27.5805 57.5553 27.8833L57.7069 30.0034C57.8585 30.4577 57.5553 30.7605 57.2521 30.7605Z" fill="black"/>
</svg>
