<svg width="24" height="31" viewBox="0 0 24 31" fill="none" xmlns="http://www.w3.org/2000/svg">
<path d="M21.6265 4.55998C21.263 3.9652 20.8995 3.56867 20.7178 2.97389C20.1726 1.9826 19.4456 0.991298 18.9004 0H18.7187C17.8101 0.793038 18.537 1.58608 18.9004 2.57738C19.2639 3.56868 19.8091 4.55998 20.1726 5.55127C20.5361 6.54257 20.8996 7.73213 21.0813 8.72342C21.0813 9.3182 21.0813 9.91298 21.0813 10.706C21.0813 13.2834 21.0814 14.2747 20.3544 16.4556C20.3544 16.6538 20.1726 16.8521 20.1726 16.8521C20.1726 17.0503 19.9909 17.6451 19.8091 18.0416C19.8091 18.0416 19.8091 18.0416 19.8091 18.2399C19.8091 18.2399 19.8092 18.4381 19.6274 18.4381C19.6274 18.8347 18.9005 19.826 19.0822 19.826C18.1736 21.0155 18.3553 21.0155 17.4466 22.4033C16.7196 23.3946 15.9927 24.1877 15.084 24.9807C13.9936 25.972 12.9032 27.1616 11.0858 27.7563C9.63195 28.1529 8.35982 28.5494 6.90593 28.9459C4.7251 29.1442 3.99814 28.9459 1.99905 28.3511C1.27211 28.1529 0.545207 27.5581 0 27.9546C0.726943 28.3511 1.27211 28.9459 1.99905 29.3424C2.90773 29.9372 3.63471 30.3337 4.54339 30.9285C6.90595 31.1268 9.26845 30.9285 11.631 30.1355C12.9032 29.7389 14.1753 29.1442 15.2657 28.3511C17.2648 26.9633 19.0823 25.179 20.3544 22.9981C21.2631 21.2138 22.3535 19.6277 23.0804 17.6451C23.8074 14.2747 23.6257 10.706 23.0804 8.32691C22.717 7.73213 22.1717 6.14605 21.6265 4.55998Z" fill="black"/>
</svg>
