<svg width="24" height="28" viewBox="0 0 24 28" fill="none" xmlns="http://www.w3.org/2000/svg">
<path d="M0.672091 28C0.48831 28 0.304506 28 0.304506 27.7995C-0.0630567 27.599 -0.063068 26.9975 0.120713 26.5966L17.3962 0.332183C17.58 -0.0687997 18.1313 -0.0687966 18.4988 0.131695C18.8664 0.332186 18.8664 0.933657 18.6826 1.33464L1.40721 27.599C1.03964 27.7995 0.855872 28 0.672091 28Z" fill="black"/>
<path d="M23.0933 25.5941C22.9096 25.5941 22.7258 25.5941 22.7258 25.3936L0.672056 7.34939C0.304494 7.1489 0.304482 6.54743 0.488264 6.14645C0.672045 5.74547 1.2234 5.74547 1.59096 5.94596L23.6447 23.9902C24.0123 24.1907 24.0123 24.7921 23.8285 25.1931C23.6447 25.5941 23.4609 25.5941 23.0933 25.5941Z" fill="black"/>
</svg>
