<svg width="44" height="9" viewBox="0 0 44 9" fill="none" xmlns="http://www.w3.org/2000/svg">
<path d="M43.7576 8.25235C43.6046 8.25235 43.6046 8.25235 43.7576 8.25235C43.4516 8.25235 43.1455 7.94671 43.1455 7.64107C43.2985 5.19593 41.1566 2.7508 38.5556 2.59798C36.1076 2.29234 33.5067 3.82054 32.2827 6.26569C32.1297 6.57133 31.9767 6.57135 31.6707 6.57135C31.3647 6.57135 31.2117 6.26567 31.2117 5.96003C31.2117 3.82053 29.3757 1.9867 27.2337 1.83388C25.0917 1.68105 23.1027 3.36207 22.6437 5.34875C22.6437 5.65439 22.3378 5.80724 22.0318 5.80724C21.7258 5.80724 21.5728 5.50156 21.4198 5.19592C21.2668 3.05642 18.9718 1.06977 16.5238 1.06977C14.2288 1.06977 12.0869 2.75078 11.0159 5.19592C10.8629 5.50156 10.7099 5.50158 10.4039 5.50158C10.0979 5.50158 9.94489 5.19596 9.94489 5.04313C9.63889 3.05646 7.80289 1.37542 5.81392 1.2226C3.82494 1.06978 1.83596 2.59796 1.22397 4.58464C1.07097 4.89029 0.764973 5.04313 0.458976 5.04313C0.15298 4.89031 0 4.58467 0 4.27903C0.611993 1.83388 3.21295 9.3252e-06 5.81392 0.152831C7.95589 0.305652 9.79193 1.68106 10.5569 3.51492C11.9339 1.37542 14.0759 0.152821 16.3708 0C18.8188 0 20.9607 1.37541 21.8787 3.36209C22.9497 1.68105 24.9388 0.458455 26.9278 0.611276C29.0697 0.764098 30.9057 2.29235 31.6707 4.27903C33.2007 2.13953 35.8016 0.916957 38.2496 1.2226C41.4625 1.52824 44.0636 4.58463 43.7576 7.48824C44.2166 7.9467 43.9106 8.25235 43.7576 8.25235Z" fill="black"/>
</svg>
