<svg width="137" height="82" viewBox="0 0 137 82" fill="none" xmlns="http://www.w3.org/2000/svg">
<path d="M0.302424 81.3584C7.40979 78.0354 14.366 73.504 18.6002 66.5559C28.8832 49.9409 20.566 24.5652 33.7222 10.3669C40.8296 2.66357 51.8686 1.30417 62.0004 0.699984C77.1224 -0.0552447 92.0933 0.246842 107.215 1.7573C114.474 2.51253 121.884 3.56984 127.781 8.10122C136.25 14.8983 138.518 28.0393 134.738 38.4614C130.806 48.8836 121.884 56.4359 111.903 60.212C101.923 63.9881 91.186 64.4413 80.6006 63.8371C70.0152 63.2329 59.5809 61.5714 48.9955 61.5714C46.2735 61.5714 43.4003 61.7225 40.9808 62.6287C37.2003 63.9882 34.4783 67.1601 31.4539 69.8789C22.9856 77.2802 12.8537 82.1136 0.302424 81.3584Z" fill="white"/>
<path d="M2.87323 81.9627C2.11712 81.9627 1.20984 81.9627 0.453736 81.9627C0.151294 81.9627 0 81.8116 0 81.5095C0 81.2074 0.151239 81.0564 0.30246 80.9053C9.07325 76.6761 14.8197 72.1447 18.2977 66.4049C22.9856 58.8527 23.7416 49.1857 24.4978 39.9719C25.4051 29.0966 26.3124 17.9193 33.4198 10.2159C40.5272 2.5126 51.415 1.00214 62.0004 0.397958C76.9713 -0.357271 92.2446 -0.0551839 107.215 1.45527C114.474 2.2105 122.035 3.26783 128.084 7.95025C136.25 14.4452 139.274 27.8883 135.191 39.0657C131.562 48.8836 123.094 57.0401 112.054 61.2694C103.435 64.5924 93.7568 65.6497 80.4494 64.8945C76.3664 64.5924 72.1322 64.2903 68.0493 63.8372C61.698 63.233 55.1956 62.6288 48.8443 62.6288C46.4248 62.6288 43.5516 62.6288 40.9808 63.6861C38.1076 64.7434 35.5368 67.1602 33.2685 69.2748C32.6636 69.7279 32.21 70.3321 31.6051 70.7853C22.8343 78.0355 13.3074 81.9627 2.87323 81.9627ZM2.57077 80.7543H2.72204C12.8538 80.7543 22.2294 76.9782 30.5466 69.5769C31.1515 69.1238 31.6052 68.5196 32.2101 68.0665C34.6296 65.8008 37.2003 63.384 40.3759 62.1757C43.0979 61.1183 46.1223 61.1183 48.693 61.1183C55.1955 61.1183 61.698 61.7225 68.0493 62.3267C72.1322 62.7799 76.2152 63.0819 80.4494 63.384C93.4543 64.1393 103.133 63.0819 111.601 59.7589C122.338 55.6807 130.655 47.8263 134.133 38.3104C138.064 27.5862 135.191 14.7473 127.328 8.55442C121.581 4.02305 114.172 2.96573 107.064 2.2105C92.0934 0.700045 76.9713 0.397958 62.0004 1.15319C51.5662 1.60632 40.9808 3.11679 34.1759 10.6691C27.2198 18.0703 26.4636 28.6435 25.5563 39.8209C24.8002 49.1857 24.0441 59.0037 19.205 66.8581C15.727 72.2957 10.4342 76.8271 2.57077 80.7543Z" fill="black"/>
<g opacity="0.1294">
<path d="M124.152 50.9982C123.698 50.9982 123.396 51.3003 123.093 51.4514C122.64 51.7535 122.035 52.2066 121.581 52.5087C120.22 53.415 118.708 54.1702 117.196 54.9254C113.567 56.5869 107.971 58.5505 103.132 59.3058C96.9323 60.5141 88.464 60.6652 79.9956 60.212C74.8541 59.9099 69.7127 59.1547 64.4199 58.8526C59.4297 58.5505 54.4394 58.0974 49.6003 58.7016C47.6345 59.0036 45.6686 59.4568 43.7027 60.061C42.9466 60.3631 41.8881 60.5141 41.4344 61.2694C40.8295 62.3267 41.888 63.6861 43.0978 63.384C48.3905 61.4204 52.1711 61.2693 57.9175 61.8735C64.2687 62.3267 70.62 63.0819 74.5517 63.535C78.6347 63.8371 82.5664 63.9882 86.6494 63.9882C90.1274 63.9882 93.7567 63.9882 97.2348 63.535C101.469 62.9309 105.703 62.3267 109.786 60.8162C114.171 59.3058 118.708 57.6443 122.64 55.2275C123.396 54.7744 124.303 54.1702 125.059 53.566C125.362 53.2639 125.815 53.1129 125.815 52.6597C125.513 51.7535 124.908 50.9982 124.152 50.9982Z" fill="black"/>
</g>
<path d="M99.6544 23.508C83.625 23.508 67.5956 23.2059 51.7174 22.6017C51.415 22.6017 51.1126 22.2996 51.1126 21.9975C51.1126 21.6954 51.415 21.3933 51.7174 21.3933C72.7371 22.1486 94.0592 22.4506 115.23 22.1486C115.533 22.1486 115.835 22.4507 115.835 22.7528C115.835 23.0548 115.533 23.3569 115.23 23.3569C109.937 23.508 104.796 23.508 99.6544 23.508Z" fill="black"/>
<path d="M49.4491 36.3469C49.1467 36.3469 48.8443 36.0448 48.8443 35.7427C48.8443 35.4406 49.1467 35.1385 49.4491 35.1385L69.2591 34.9874C69.5615 34.9874 69.8639 35.2895 69.8639 35.5916C69.8639 35.8937 69.5615 36.1958 69.2591 36.1958L49.4491 36.3469Z" fill="black"/>
<path d="M79.9957 36.0447C79.6932 36.0447 79.3908 35.7426 79.3908 35.4406C79.3908 35.1385 79.6932 34.8364 79.9957 34.8364L114.625 34.2322C114.928 34.2322 115.23 34.5343 115.23 34.8364C115.23 35.1385 114.928 35.4406 114.625 35.4406L79.9957 36.0447Z" fill="black"/>
</svg>
