<svg width="40" height="31" viewBox="0 0 40 31" fill="none" xmlns="http://www.w3.org/2000/svg">
<path d="M7.07323 24.1066C6.76991 24.1066 6.46655 23.9551 6.46655 23.6522C6.16322 20.3194 6.0116 16.6838 8.58986 14.26C9.04484 13.8055 9.65149 13.5025 10.1065 13.0481C10.4098 12.7451 10.8648 12.5936 11.1681 12.2906C13.5947 10.3213 14.5046 7.14008 13.2913 4.5648C12.078 1.98953 8.58986 0.323188 5.55661 1.08062C4.03999 1.3836 2.52337 2.444 1.76506 3.95886C1.15841 5.17076 0.855103 6.38266 1.31009 7.44307C1.46175 7.74604 1.31007 8.04901 1.00675 8.2005C0.703423 8.35199 0.400098 8.20051 0.248436 7.89753C-0.206551 6.53415 -0.0548513 4.86778 0.855122 3.5044C1.76509 1.83804 3.43338 0.626153 5.40499 0.171692C8.89322 -0.585742 12.9881 1.2321 14.5047 4.26183C15.8697 7.29157 14.9596 11.0787 12.0781 13.351C11.7747 13.654 11.3197 13.957 11.0164 14.1085C10.5614 14.4115 9.95483 14.8659 9.65151 15.1689C7.37658 17.2897 7.52818 20.6224 7.98317 23.6522C7.67985 23.8036 7.52822 23.9551 7.07323 24.1066C7.2249 24.1066 7.2249 24.1066 7.07323 24.1066Z" fill="black"/>
<path d="M7.37659 30.7721C7.07326 30.7721 6.7699 30.4691 6.7699 30.1661L6.61828 28.0453C6.61828 27.7423 6.76992 27.4394 7.07325 27.4394C7.37657 27.4394 7.67993 27.5909 7.67993 27.8938L7.83156 30.0146C7.98322 30.4691 7.83158 30.7721 7.37659 30.7721Z" fill="black"/>
<path d="M31.9459 24.1066C31.6426 24.1066 31.3392 23.9551 31.3392 23.6522C31.0359 20.3194 30.8843 16.6838 33.4625 14.26C33.9175 13.8055 34.5241 13.5025 34.9791 13.0481C35.2825 12.7451 35.7374 12.5936 36.0407 12.2906C38.4673 10.3213 39.3773 7.14008 38.164 4.5648C36.9507 1.98953 33.4625 0.323188 30.4293 1.08062C28.9126 1.3836 27.396 2.444 26.6377 3.95886C26.0311 5.17076 25.7277 6.38266 26.1827 7.44307C26.3343 7.74604 26.1827 8.04901 25.8794 8.2005C25.5761 8.35199 25.2728 8.20051 25.1211 7.89753C24.6661 6.53415 24.8177 4.86778 25.7277 3.5044C26.6377 1.83804 28.3059 0.626153 30.2776 0.171692C33.7658 -0.585742 37.8607 1.2321 39.3773 4.26183C40.7422 7.29157 39.8323 11.0787 36.9507 13.351C36.6474 13.654 36.1924 13.957 35.8891 14.1085C35.4341 14.4115 34.8274 14.8659 34.5241 15.1689C32.2491 17.2897 32.4008 20.6224 32.8558 23.6522C32.5525 23.8036 32.2492 23.9551 31.9459 24.1066Z" fill="black"/>
<path d="M32.2491 30.7721C31.9458 30.7721 31.6425 30.4691 31.6425 30.1661L31.4908 28.0453C31.4908 27.7423 31.6425 27.4394 31.9458 27.4394C32.2492 27.4394 32.5524 27.5909 32.5524 27.8938L32.7042 30.0146C32.8558 30.4691 32.5524 30.7721 32.2491 30.7721Z" fill="black"/>
</svg>
