<svg width="54" height="112" viewBox="0 0 54 112" fill="none" xmlns="http://www.w3.org/2000/svg">
<path d="M8.72541 0.666894C11.7502 15.0181 14.4725 30.5779 8.57412 44.0227C6.60799 48.4036 3.88574 52.3313 2.22209 56.8633C0.407205 62.3017 0.255928 68.0421 0.86089 73.7826C1.76833 84.5083 5.09564 95.385 12.5064 103.089C20.0684 110.794 32.6214 114.117 41.9983 108.679C50.1653 103.996 53.9463 93.7233 53.3413 84.3572C52.8876 74.9912 48.8041 66.0783 44.5694 57.6186C34.4363 37.3758 22.4883 18.0394 8.72541 0.666894Z" fill="#ACD4F7"/>
<path d="M31.7139 111.851C24.7569 111.851 17.4973 108.83 12.2039 103.391C5.5493 96.5935 1.46577 86.6232 0.255846 73.6315C-0.349116 66.6825 0.104605 61.2442 1.76825 56.5611C2.67569 53.8419 4.03689 51.4249 5.39806 49.0078C6.3055 47.3461 7.36416 45.5333 8.12037 43.7205C13.7163 30.88 11.4477 16.6798 8.12037 0.666848C8.12037 0.364717 8.27163 0.213637 8.42287 0.0625715C8.72535 -0.0884941 8.87659 0.0625807 9.17907 0.213646C22.1857 16.6798 34.285 35.8651 45.1743 57.3164C49.409 65.6251 53.4925 74.5379 53.9462 84.2061C54.5512 94.9318 50.014 104.6 42.3008 109.132C39.1247 110.945 35.4949 111.851 31.7139 111.851ZM9.63277 2.78176C12.6576 18.0394 14.4725 31.7863 9.02786 44.1737C8.27166 45.9865 7.21291 47.7993 6.30546 49.6121C4.9443 52.0291 3.73439 54.4462 2.82695 57.0143C1.31455 61.5463 0.860881 66.8336 1.46584 73.6315C2.67577 86.17 6.45674 95.9892 12.9601 102.636C20.8246 110.643 33.2263 113.06 41.6958 108.074C48.9553 103.845 53.3413 94.4786 52.7363 84.2061C52.2826 74.689 48.1991 65.9272 43.9644 57.7696C33.68 37.3758 22.1857 18.7947 9.63277 2.78176Z" fill="black"/>
</svg>
