<svg width="63" height="10" viewBox="0 0 63 10" fill="none" xmlns="http://www.w3.org/2000/svg">
<path d="M62.3956 5.1308L0.604261 4.67811C0.302103 4.67811 0 4.37631 0 4.0745C0 3.77269 0.302103 3.47084 0.604261 3.47084L62.3956 3.92358C62.6978 3.92358 63 4.22538 63 4.52719C63 4.829 62.6978 5.1308 62.3956 5.1308Z" fill="black"/>
<path d="M49.8561 4.52713C49.8561 6.7907 48.0431 8.45066 45.928 8.45066C43.6618 8.45066 42 6.63979 42 4.52713C42 2.26357 43.8129 0.603609 45.928 0.603609C48.0431 0.603609 49.8561 2.26357 49.8561 4.52713Z" fill="white"/>
<path d="M45.7769 9.05426C43.2086 9.05426 41.2446 6.9416 41.2446 4.52713C41.2446 1.96176 43.3597 0 45.7769 0C48.3453 0 50.3093 2.11266 50.3093 4.52713C50.4604 7.09251 48.3453 9.05426 45.7769 9.05426ZM45.7769 1.05635C43.964 1.05635 42.3021 2.56537 42.3021 4.52713C42.3021 6.33798 43.8129 7.99792 45.7769 7.99792C47.5899 7.99792 49.2517 6.48889 49.2517 4.52713C49.2517 2.56537 47.741 1.05635 45.7769 1.05635Z" fill="black"/>
</svg>
