<svg width="86" height="87" viewBox="0 0 86 87" fill="none" xmlns="http://www.w3.org/2000/svg">
<path d="M44.8947 0.753919C35.9884 0.753919 26.1763 3.1664 20.44 6.93589C13.4961 11.6101 8.36367 16.2842 3.68409 27.7435C-1.90122 41.3137 -1.9012 64.383 14.7038 78.4055C26.7801 88.6586 56.8201 92.7296 76.1422 69.208C88.3695 54.2808 87.1618 30.4575 75.6893 16.1335C67.2359 5.12653 58.1786 0.753919 44.8947 0.753919Z" fill="white"/>
<path d="M40.2151 87C30.2521 87 20.591 83.9844 14.4019 78.7071C6.85419 72.3743 2.02363 63.3275 0.514083 52.9237C-0.693552 44.3293 0.212211 34.9809 3.38225 27.4419C7.91088 16.2842 12.8924 11.4593 20.2891 6.33275C25.8744 2.56326 35.8374 0 45.0456 0C58.6315 0 67.6888 4.52339 76.2932 15.3795C88.3695 30.6083 88.5205 54.7331 76.746 69.208C66.1792 82.175 53.4991 85.7937 44.5928 86.5476C43.0832 87 41.5737 87 40.2151 87ZM44.8947 1.35702C35.8374 1.35702 26.1763 3.7695 20.8929 7.38821C13.6471 12.2132 8.81658 17.0381 4.43891 27.8943C-0.542589 40.1074 -1.75021 63.4783 15.3076 77.8024C22.1006 83.532 33.5731 86.5476 44.4419 85.643C53.0463 84.8891 65.5755 81.2703 75.8403 68.6048C87.3129 54.5823 87.1619 31.0606 75.3875 16.1334C66.9341 5.72963 58.1787 1.35702 44.8947 1.35702Z" fill="black"/>
<path d="M44.5927 6.33273C37.196 6.33273 28.8935 8.44364 24.2139 11.7608C18.3267 15.8319 14.1 19.9029 10.1752 29.8544C7.45797 36.941 6.55222 44.9324 7.45795 52.6221C8.36367 60.1611 13.4961 69.5095 19.3833 74.0329C21.7986 75.8422 24.6667 77.1993 27.3839 78.1039C42.4793 83.2305 60.5939 78.8578 70.7078 65.8908C80.8218 52.9237 81.1237 33.7747 70.4059 19.6014C63.311 10.1022 55.6124 6.33273 44.5927 6.33273Z" fill="white"/>
<path d="M40.366 80.6672C35.9884 80.6672 31.6106 79.9133 27.3839 78.5563C24.0629 77.5009 21.3458 75.9931 19.0815 74.3345C13.0433 69.8111 7.91084 60.4627 7.00512 52.6222C6.09939 44.6308 7.0051 36.4887 9.72228 29.7036C13.4961 19.9029 17.7229 15.6811 23.912 11.3085C28.5916 7.99134 36.8941 5.88042 44.5927 5.88042C55.9143 5.88042 63.764 9.95148 70.8588 19.2998C76.1422 26.2357 79.0103 34.6794 79.0103 43.2738C79.0103 51.7175 76.2931 59.8596 71.1607 66.3431C63.9149 75.3899 52.2914 80.6672 40.366 80.6672ZM44.5927 6.7851C37.045 6.7851 29.0445 8.89602 24.5158 12.0624C18.4777 16.2842 14.4019 20.3553 10.779 29.8544C8.21275 36.4887 7.15604 44.4801 8.06177 52.3206C8.96749 59.8596 14.1 69.0572 19.6853 73.279C21.7986 74.9376 24.3649 76.2946 27.5349 77.3501C31.6107 78.7071 35.9883 79.461 40.215 79.461C51.8385 79.461 63.1601 74.3345 70.255 65.4385C80.5199 52.4714 80.3689 33.6239 69.9531 19.9029C63.0092 10.5546 55.6124 6.7851 44.5927 6.7851Z" fill="black"/>
<path d="M33.2712 28.6483C30.705 28.0451 28.2897 27.2912 25.8744 26.3866C26.1763 28.9498 26.7801 31.5131 27.3839 34.2271C32.0635 37.9966 36.7432 41.7661 41.4228 45.6864C41.8756 46.1387 42.4794 46.5911 43.0832 46.7418C43.687 46.8926 44.5927 46.7418 44.7437 46.1387C45.0456 45.5356 44.7437 44.7817 44.2908 44.0278C41.1208 38.5997 37.4979 34.3779 33.2712 28.6483Z" fill="#ACD4F7"/>
<path d="M43.5361 47.3449C43.3851 47.3449 43.2342 47.3449 42.9323 47.3449C42.1775 47.1941 41.5736 46.591 40.9698 46.2894L26.9311 34.8302C26.7801 34.6794 26.7802 34.6794 26.7802 34.5286C26.1764 31.6638 25.7235 29.2513 25.2706 26.5373C25.2706 26.3865 25.2706 26.0849 25.4215 26.0849C25.5725 25.9341 25.7235 25.9341 26.0254 25.9341C28.4407 26.8388 30.8559 27.4419 33.4221 28.1958C33.5731 28.1958 33.724 28.3466 33.724 28.3466C34.9317 30.0052 36.1393 31.6638 37.347 33.1716C40.0642 36.6395 42.4794 39.9567 44.8947 43.7262C45.1966 44.1785 45.8004 45.234 45.3475 46.2894C45.0456 47.0433 44.2908 47.3449 43.5361 47.3449ZM27.8369 33.9255L41.7246 45.234C42.1775 45.5355 42.6303 45.9879 43.2341 46.1386C43.687 46.2894 44.1399 46.1386 44.2908 45.8371C44.4418 45.3847 44.1399 44.7816 43.838 44.3293C41.5737 40.5598 39.0075 37.2426 36.2903 33.7747C35.2336 32.2669 34.026 30.7591 32.8183 29.1005C30.705 28.4974 28.5916 27.8943 26.4782 27.1404C26.9311 29.4021 27.384 31.513 27.8369 33.9255Z" fill="black"/>
<path d="M43.536 44.6309C43.3851 44.6309 43.2341 44.6309 43.0832 44.4801C42.7813 44.3294 42.7813 43.877 43.0832 43.7262C48.9704 37.2427 55.0086 30.91 61.0468 24.5772C61.1977 24.4264 61.6506 24.2756 61.8016 24.5772C61.9525 24.728 62.1035 25.1803 61.8016 25.3311C55.7634 31.5131 49.7252 37.9966 43.8379 44.4801C43.8379 44.6309 43.687 44.6309 43.536 44.6309Z" fill="black"/>
<path d="M42.9323 40.5598C41.1208 40.7106 39.3094 42.0676 38.8565 43.7262C38.5546 44.7817 38.5546 45.9879 39.1584 46.8926C39.9132 48.0988 41.2717 48.8527 42.7813 48.8527C44.8946 48.8527 47.008 47.0434 47.159 44.9325C47.159 42.8216 45.3476 40.7106 42.9323 40.5598Z" fill="white"/>
<path d="M42.6303 49.4559C40.9698 49.4559 39.3093 48.5512 38.5545 47.1942C37.9507 46.1387 37.7997 44.7817 38.2526 43.5755C38.8564 41.6153 40.8189 40.1075 42.9323 39.9567C44.2908 39.9567 45.4985 40.5599 46.4042 41.6153C47.3099 42.52 47.6118 43.7262 47.6118 44.9325C47.3099 47.345 45.0456 49.4559 42.6303 49.4559ZM42.9323 41.163C41.2718 41.3138 39.7622 42.52 39.3093 44.0278C39.0074 44.9325 39.0074 45.9879 39.4602 46.7418C40.064 47.7973 41.2717 48.4004 42.4793 48.4004C44.4417 48.4004 46.1023 46.8926 46.4042 45.0833C46.5551 44.1786 46.1022 43.2739 45.4984 42.6708C44.8946 41.6153 43.9889 41.163 42.9323 41.163Z" fill="black"/>
<path d="M43.3851 17.9428C43.0832 17.9428 42.7813 17.6413 42.7813 17.3397L42.3284 9.80071C42.3284 9.49915 42.4794 9.19759 42.9323 9.19759C43.2342 9.19759 43.536 9.34837 43.536 9.80071L43.9889 17.3397C43.9889 17.6413 43.838 17.9428 43.3851 17.9428C43.5361 17.9428 43.5361 17.9428 43.3851 17.9428Z" fill="black"/>
<path d="M43.6871 77.3501C43.3852 77.3501 43.0832 77.0486 43.0832 76.747C42.9323 74.7869 42.7813 72.9775 42.4794 71.0174C42.4794 70.7158 42.6304 70.4143 42.9323 70.4143C43.2342 70.4143 43.5361 70.565 43.5361 70.8666C43.838 72.8267 44.1399 74.7869 44.1399 76.747C44.1399 77.0486 43.989 77.3501 43.6871 77.3501Z" fill="black"/>
<path d="M69.5002 42.8215C69.1983 42.8215 68.8964 42.5199 68.8964 42.2184C68.8964 41.9168 69.1983 41.6153 69.5002 41.6153H76.1422C76.4441 41.6153 76.746 41.9168 76.746 42.2184C76.746 42.5199 76.4441 42.8215 76.1422 42.8215H69.5002Z" fill="black"/>
<path d="M10.628 45.8372C10.3261 45.8372 10.0242 45.6864 10.0242 45.3848C10.0242 45.0833 10.1752 44.7817 10.4771 44.7817C12.5904 44.6309 14.7038 44.4801 16.6662 44.4801C16.9681 44.4801 17.27 44.7817 17.27 45.0833C17.27 45.3848 16.9681 45.6864 16.6662 45.6864C14.7038 45.5356 12.7414 45.5356 10.628 45.8372Z" fill="black"/>
<path d="M64.9716 22.7678C64.8206 22.617 64.8207 22.4663 64.8207 22.4663L67.2359 19.7522C67.2359 19.6014 67.3869 19.6014 67.5378 19.7522C67.6888 19.7522 67.6888 19.903 67.5378 20.0538L64.9716 22.7678Z" fill="black"/>
<path d="M69.5002 32.7193C69.3493 32.7193 69.3493 32.7193 69.3493 32.5686C69.3493 32.4178 69.3493 32.4178 69.5002 32.267L72.8213 31.0608C72.9722 31.0608 72.9722 31.0608 73.1232 31.2115C73.1232 31.3623 73.1231 31.3623 72.9722 31.5131L69.5002 32.7193Z" fill="black"/>
<path d="M54.8576 15.9827C54.7067 15.9827 54.7067 15.8319 54.7067 15.6811C55.0086 14.4749 55.3105 13.1178 55.6124 11.7608C55.6124 11.61 55.7634 11.61 55.7634 11.61C55.9144 11.61 55.9143 11.7608 55.9143 11.7608C55.6124 13.1178 55.3106 14.3241 55.0087 15.6811C55.0087 15.9827 55.0086 15.9827 54.8576 15.9827Z" fill="black"/>
<path d="M66.6321 65.1369C66.4811 65.1369 66.4811 65.1369 66.6321 65.1369L63.3112 62.272C63.1602 62.272 63.1602 62.1213 63.3112 61.9705C63.3112 61.8197 63.462 61.8197 63.613 61.9705L66.7831 64.6845C66.7831 64.8353 66.783 64.9861 66.6321 65.1369Z" fill="black"/>
<path d="M56.2163 73.2791C56.2163 73.2791 56.0652 73.2791 56.0652 73.1283C55.3105 71.922 54.7067 70.565 54.1029 69.3588C54.1029 69.208 54.1029 69.208 54.2539 69.0572C54.4048 69.0572 54.4047 69.0572 54.5557 69.208C55.1595 70.4143 55.7634 71.7713 56.5182 72.9775C56.3672 73.1283 56.3672 73.2791 56.2163 73.2791Z" fill="black"/>
<path d="M72.9722 54.13C71.6136 53.8284 70.406 53.5269 69.1983 53.0745C69.0474 53.0745 69.0474 52.9237 69.0474 52.773C69.0474 52.6222 69.1984 52.6222 69.3493 52.6222C70.557 53.0745 71.7646 53.3761 73.1232 53.6777C73.2741 53.6777 73.2741 53.8284 73.2741 53.8284C73.1232 54.13 73.1231 54.13 72.9722 54.13Z" fill="black"/>
<path d="M19.6853 68.0018C19.5343 68.0018 19.5343 68.0018 19.6853 68.0018C19.5343 67.851 19.5343 67.7002 19.5343 67.7002L22.7044 63.7799C22.7044 63.6292 22.8553 63.6292 23.0063 63.7799C23.1573 63.7799 23.1573 63.9307 23.0063 64.0815L19.6853 68.0018Z" fill="black"/>
<path d="M13.4961 58.0503C13.4961 58.0503 13.3452 58.0503 13.3452 57.8995C13.3452 57.7487 13.3452 57.7487 13.4961 57.5979L17.421 55.7886C17.5719 55.7886 17.5719 55.7886 17.7229 55.9393C17.7229 56.0901 17.7229 56.0901 17.5719 56.2409L13.4961 58.0503Z" fill="black"/>
<path d="M30.554 74.6361C30.4031 74.6361 30.403 74.4853 30.403 74.3345C30.7049 72.9775 31.1578 71.7713 31.7616 70.565C31.7616 70.4143 31.9126 70.4143 32.0636 70.4143C32.2145 70.4143 32.2145 70.565 32.2145 70.7158C31.6107 71.9221 31.1579 73.2791 30.8559 74.4853C30.705 74.6361 30.705 74.6361 30.554 74.6361Z" fill="black"/>
<path d="M22.1006 23.2201L18.4777 20.9584C18.3267 20.9584 18.3267 20.8076 18.4777 20.6568C18.4777 20.5061 18.6286 20.5061 18.7795 20.6568L22.2515 22.9185C22.4025 22.9185 22.4025 23.0693 22.2515 23.2201C22.2515 23.0693 22.1006 23.2201 22.1006 23.2201Z" fill="black"/>
<path d="M32.6673 17.3398C32.6673 17.3398 32.5164 17.3398 32.5164 17.189C31.9126 15.832 31.1578 14.475 30.403 13.2687C30.403 13.118 30.403 13.118 30.403 12.9672C30.554 12.9672 30.554 12.9672 30.7049 12.9672C31.4597 14.1734 32.2145 15.5304 32.8183 16.8875C32.8183 17.189 32.8183 17.3398 32.6673 17.3398Z" fill="black"/>
<path d="M16.9681 33.7748C15.6095 33.624 14.2509 33.4732 12.8923 33.1716C12.7414 33.1716 12.7414 33.0209 12.7414 33.0209C12.7414 32.8701 12.8923 32.8701 12.8923 32.8701C14.2509 33.1717 15.6095 33.3224 16.9681 33.4732C17.1191 33.4732 17.119 33.624 17.119 33.624C17.119 33.7748 17.1191 33.7748 16.9681 33.7748Z" fill="black"/>
<g opacity="0.1294">
<path d="M71.9155 63.1768C70.8588 62.5737 70.255 63.6292 70.255 63.78C69.8021 64.3831 69.1984 64.9862 68.5945 65.5893C67.5379 66.494 64.0658 68.6049 62.1034 70.1127C60.141 71.4697 59.2354 71.6205 57.273 72.5252C54.4048 74.033 52.2915 75.0884 49.4233 75.8423C49.1214 75.8423 48.8194 75.9931 48.5175 75.9931C47.159 76.2947 45.3475 76.4455 44.2908 76.5962C41.7246 76.747 38.5546 76.747 35.9883 76.4455C33.1202 76.1439 31.1578 76.1439 28.1387 74.7869C26.4782 74.1838 22.1006 71.9221 19.6853 70.2635C17.7229 69.0572 16.9681 68.1526 15.1567 66.3432C14.7038 65.8909 14.2509 65.137 13.4962 65.137C12.4395 65.137 11.9866 66.494 12.7414 67.0971C13.6471 68.0018 14.5529 69.0572 15.4586 69.9619C16.3643 70.7158 17.27 71.4697 18.1757 72.2236C18.3267 72.3744 18.4776 72.3744 18.6286 72.5252C18.4776 72.9775 18.6286 73.5806 19.0815 73.8822C25.4216 77.1994 32.0636 80.0642 39.3094 80.3657C43.3851 80.3657 46.7061 79.6118 51.0838 78.4056C51.6876 78.104 52.4424 78.104 53.0462 77.8025C53.1971 77.8025 53.1971 77.6517 53.3481 77.6517C54.7067 77.3501 56.0653 77.0486 57.4239 76.4455C58.9334 75.6916 60.5939 75.0884 62.1034 74.1838C63.9149 72.8267 64.5188 72.5252 66.0283 71.1682C66.1793 71.0174 66.3302 70.7158 66.3302 70.565C67.8398 69.6604 69.3493 68.7557 70.7079 67.7002C71.4626 66.9463 72.0665 66.1924 72.3684 65.8909C72.5194 65.5893 72.9722 65.2877 72.9722 64.8354C72.5193 63.9307 72.2174 63.4784 71.9155 63.1768Z" fill="black"/>
</g>
</svg>
