<svg width="25" height="26" viewBox="0 0 25 26" fill="none" xmlns="http://www.w3.org/2000/svg">
<path d="M24.2204 24.4654C16.5058 19.1809 8.61169 14.0921 0.717625 9.39474C7.71464 6.45889 14.7117 3.71875 21.8881 0.782898C23.144 9.00327 24.5792 17.0279 24.2204 24.4654Z" fill="white"/>
<path d="M24.2204 25.2483C24.041 25.2483 23.8616 25.2483 23.8616 25.0526C16.147 19.7681 8.25291 14.6792 0.358843 9.98187C0.179433 9.78614 0 9.59043 0 9.19898C0 8.80754 0.179443 8.61183 0.538265 8.4161H0.717632C7.53524 5.67598 14.5323 2.74012 21.7087 0C21.8881 0 22.0675 0 22.2469 0C22.4263 0.195723 22.6057 0.391452 22.6057 0.587176C24.041 9.39472 25.2969 17.2236 24.9381 24.4654C24.9381 24.6611 24.7587 25.0526 24.5793 25.0526C24.3999 25.2483 24.3998 25.2483 24.2204 25.2483ZM2.51174 9.59043C9.68816 13.8963 16.6852 18.398 23.6822 23.0953C23.8616 16.6365 22.7851 9.59044 21.3499 1.95723C14.8911 4.50163 8.6117 7.04602 2.51174 9.59043Z" fill="black"/>
</svg>
