<svg width="17" height="16" viewBox="0 0 17 16" fill="none" xmlns="http://www.w3.org/2000/svg">
<path d="M0.765763 13.3089C0.765763 12.697 0.765763 12.0851 0.765763 11.4732C0.765763 10.2494 0.765801 9.02556 0.612648 7.95473C0.612648 6.8839 0.612592 5.6601 0.459439 4.58927C0.459439 4.43629 0.459477 4.28332 0.306324 4.28332C0.306324 4.13035 0.306324 4.13035 0.306324 3.97738C0.306324 3.67142 0.153153 3.51844 0 3.51844C0.612611 2.75357 1.6847 3.21248 2.60361 3.36546C3.21623 3.51843 3.98201 3.51844 5.20723 3.51844C6.2793 3.51844 9.49545 2.75356 10.4144 2.60058C10.7207 2.60058 11.027 2.75355 11.1801 2.90653C11.6396 2.4476 12.0991 2.14167 12.5585 1.68274C12.8648 1.37679 13.1711 1.22381 13.4774 0.917863C14.2432 0.611912 15.1622 0.305951 15.9279 0C15.9279 0.152976 15.9279 0.152971 16.081 0.305947C16.081 0.458922 16.0811 0.611893 16.2342 0.611893C16.2342 0.764869 16.3874 0.764887 16.3874 0.917863C16.5405 1.22381 16.8469 1.52975 17 1.8357C17 1.98868 16.8468 1.98867 16.8468 2.14165C14.2432 4.74223 11.4864 7.03688 8.88284 9.63747C7.65762 11.0142 6.27924 12.2381 5.05402 13.4619C4.44141 13.9208 3.98203 14.5327 3.21626 14.9916C3.21626 14.9916 3.21621 14.9916 3.06305 14.9916C3.06305 14.9916 2.90994 14.9916 2.90994 15.1446C2.90994 15.1446 2.75677 15.1446 2.60361 15.2976C2.45046 15.2976 2.29733 15.4505 2.14417 15.4505C1.53156 15.4505 1.07207 15.1446 0.765763 14.6857C0.612611 14.5327 0.612592 14.5327 0.459439 14.3797C0.765745 13.9208 0.765763 13.6148 0.765763 13.3089Z" fill="black"/>
</svg>
