<svg width="34" height="40" viewBox="0 0 34 40" fill="none" xmlns="http://www.w3.org/2000/svg">
<path d="M20.6426 0.864317C24.7711 13.5927 29.0791 26.3211 33.2076 39.0495C22.0786 35.7205 11.1291 32.3916 0.718055 28.671C6.82107 19.6632 13.1035 10.8512 20.6426 0.864317Z" fill="white"/>
<path d="M33.2076 39.8328H33.0281C22.7966 36.6997 11.1291 33.1749 0.538534 29.4543C0.359034 29.4543 0.179501 29.2585 0 28.8669C0 28.671 1.09532e-05 28.2793 0.179511 28.0835C5.02603 21.034 11.8471 11.4388 20.1041 0.276943C20.2836 0.0811213 20.4631 -0.114712 20.8221 0.0811094C21.0016 0.0811094 21.3606 0.276907 21.3606 0.668549L33.9256 38.8537C34.1051 39.0495 33.9256 39.4412 33.7461 39.637C33.5666 39.8329 33.3871 39.8328 33.2076 39.8328ZM1.79501 28.2794C11.6675 31.8041 22.2581 35.1331 31.9511 37.8746L20.2836 2.43099C12.7446 12.8095 6.64152 21.4256 1.79501 28.2794Z" fill="black"/>
</svg>
