<svg width="140" height="93" viewBox="0 0 140 93" fill="none" xmlns="http://www.w3.org/2000/svg">
<path d="M35.8974 61.8749H0.71794V91.2459H35.8974V61.8749Z" fill="white"/>
<path d="M35.8974 92.225H0.717938C0.358963 92.225 0 91.8334 0 91.4418V62.0707C0 61.6791 0.358963 61.2875 0.717938 61.2875H35.8974C36.2564 61.2875 36.6154 61.6791 36.6154 62.0707V91.4418C36.6154 91.8334 36.2564 92.225 35.8974 92.225ZM1.43588 90.4627H35.1795V62.6581H1.43588V90.4627Z" fill="black"/>
<path d="M87.7692 34.462H52.5897V91.246H87.7692V34.462Z" fill="#ACD4F7"/>
<path d="M87.7692 92.225H52.5897C52.2307 92.225 51.8718 91.8334 51.8718 91.4418V34.6578C51.8718 34.2662 52.2307 33.8746 52.5897 33.8746H87.7692C88.1282 33.8746 88.4872 34.2662 88.4872 34.6578V91.4418C88.6666 91.8334 88.3077 92.225 87.7692 92.225ZM53.4872 90.4627H87.0513V35.2452H53.3077V90.4627H53.4872Z" fill="black"/>
<path d="M139.282 0.783219H104.103V91.4418H139.282V0.783219Z" fill="white"/>
<path d="M139.282 92.225H104.103C103.744 92.225 103.385 91.8334 103.385 91.4418V0.783215C103.385 0.391601 103.744 0 104.103 0H139.282C139.641 0 140 0.391601 140 0.783215V91.4418C140 91.8334 139.821 92.225 139.282 92.225ZM104.821 90.4627H138.564V1.56649H104.821V90.4627Z" fill="black"/>
<path d="M9.6923 88.113C7.53845 86.3508 5.56412 84.5885 3.94874 82.4346C3.94874 82.2388 3.94874 82.2388 3.94874 82.043C4.12823 82.043 4.12819 82.043 4.30768 82.043C5.92307 84.1969 7.71794 85.9592 9.6923 87.5256C9.87178 87.5256 9.87178 87.7214 9.6923 87.9172C9.87178 88.113 9.87178 88.113 9.6923 88.113Z" fill="black"/>
<path d="M17.2308 88.1131C17.0513 88.1131 17.0513 88.1131 17.2308 88.1131C12.3847 83.8053 7.89747 79.1059 3.76927 74.4066C3.58978 74.2108 3.76927 74.2108 3.76927 74.015C3.94876 73.8192 3.94872 74.015 4.12821 74.015C8.25642 78.9102 12.7436 83.4137 17.4103 87.7215C17.5898 87.7215 17.5898 87.9172 17.4103 88.1131C17.2308 88.1131 17.2308 88.1131 17.2308 88.1131Z" fill="black"/>
<path d="M24.2308 88.3088C17.9487 81.8472 11.8462 75.1898 5.74359 68.5324C5.5641 68.3365 5.5641 68.3366 5.74359 68.1408C5.92308 67.945 5.92305 67.945 6.10253 68.1408C12.0256 74.7982 18.1282 81.4556 24.4102 87.7214C24.4102 87.9173 24.4102 88.113 24.2308 88.3088Z" fill="black"/>
<path d="M31.2307 87.7214C31.0513 87.7214 31.0513 87.7214 31.2307 87.7214L10.7692 66.3785C10.5897 66.1826 10.5897 66.1827 10.7692 65.9869C10.9487 65.7911 10.9487 65.7911 11.1282 65.9869L31.4102 87.3298C31.4102 87.3298 31.4102 87.5256 31.2307 87.7214Z" fill="black"/>
<path d="M32.4872 81.2598C27.641 75.973 22.7948 70.882 17.7692 65.9869C17.5897 65.9869 17.5897 65.791 17.7692 65.5952C17.7692 65.3994 17.9487 65.3994 18.1282 65.5952C23.1538 70.4904 28 75.5814 32.6667 80.8682C32.8462 80.8682 32.8461 81.064 32.4872 81.2598Z" fill="black"/>
<path d="M32.1282 72.8401H31.9487C29.9743 70.4904 27.8205 68.1407 25.4872 65.9869C25.3077 65.7911 25.3077 65.791 25.4872 65.5952C25.6667 65.3994 25.6666 65.3994 25.8461 65.5952C28 67.7491 30.1538 70.0988 32.3077 72.6443C32.3077 72.4485 32.3077 72.6443 32.1282 72.8401Z" fill="black"/>
<g opacity="0.1294">
<path d="M139.641 87.9172C139.462 86.1549 139.641 84.5885 139.462 82.8263C139.462 78.7143 139.641 74.4065 139.462 70.2946C139.462 66.9659 139.641 63.4414 139.282 60.1127C138.923 56.0007 138.923 51.8888 138.923 47.7768C138.744 42.2942 138.385 37.0075 138.385 31.5249C138.205 27.0213 138.564 22.322 138.564 17.8184C138.744 12.9233 138.564 8.02809 138.923 3.13292C139.641 1.52217e-05 135.692 -0.7832 135.333 2.34971C134.795 6.46165 134.795 10.5736 134.795 14.6855C134.615 19.1891 134.436 23.8884 134.436 28.392C134.436 36.2242 134.795 44.2523 134.795 52.0846C134.795 56.5882 135.513 61.2875 135.333 65.7911C135.333 68.924 135.333 72.0569 135.513 74.994C135.513 78.7143 135.333 82.4346 135.513 86.155C135.513 87.3298 135.513 88.5047 135.513 89.6795C135.513 90.0711 135.513 90.6585 135.692 91.0501C136.051 92.0292 137.128 92.6166 138.205 92.4208C139.821 91.6376 139.641 89.4837 139.641 87.9172Z" fill="black"/>
</g>
<g opacity="0.1294">
<path d="M87.7692 87.9172C87.2308 83.4136 86.8718 75.1898 87.0513 68.7282C86.6923 63.4414 87.2308 58.1546 87.0513 53.0636C86.8718 48.7559 86.8718 44.6439 86.8718 40.3362C86.6923 38.5739 87.0513 36.8116 86.6923 35.2452C85.9743 33.2871 83.282 33.8745 83.282 36.0284C83.282 45.4271 83.4615 55.0217 83.1025 64.4204C83.1025 66.3785 83.282 68.1408 83.282 70.0988C83.282 72.8401 83.1026 75.7772 83.282 78.5185C83.282 81.4556 83.4616 84.1969 83.8205 86.9382C84 87.9172 83.8205 89.092 83.641 90.0711C83.641 92.0291 85.9744 93.0082 87.0513 91.6376C88.1282 90.6585 87.7692 89.092 87.7692 87.9172Z" fill="black"/>
</g>
<g opacity="0.1294">
<path d="M35 88.8963C35 87.3298 35 85.7634 35 84.0011C35 76.9521 34.641 69.9031 34.641 63.0498C34.641 60.3085 30.8718 60.3085 30.8718 63.0498C30.6923 70.4905 31.2307 77.9311 31.2307 85.3718C31.2307 86.7424 31.2307 87.9173 31.2307 89.2879C31.2307 89.8753 31.2308 90.6586 31.4102 91.246C31.9487 92.8124 34.282 93.0083 35 91.4418C35.359 90.6586 35 89.6795 35 88.8963Z" fill="black"/>
</g>
</svg>
