<svg width="128" height="136" viewBox="0 0 128 136" fill="none" xmlns="http://www.w3.org/2000/svg">
<path d="M110.055 36.8252C111.662 35.6561 113.448 34.4871 115.055 33.318C102.91 9.15757 79.6919 1.75356 65.4037 0.77935C51.8298 1.16903 42.3639 1.16903 26.2896 11.4957C22.1817 14.0286 15.9306 20.4584 10.3939 30.2006C12.3585 31.5645 14.3232 32.9283 16.2878 34.2922C21.1101 37.6046 25.7538 40.9169 30.576 44.4241C37.1844 31.1748 50.0438 24.5501 65.4037 24.5501C80.7636 24.5501 90.7654 35.6562 96.3021 47.3467C100.767 43.6447 105.411 40.1375 110.055 36.8252Z" fill="white"/>
<path d="M96.302 48.1261C95.9448 48.1261 95.7662 47.9312 95.5876 47.7364C91.8369 39.3582 82.7282 25.3295 65.4037 25.3295C49.8652 25.3295 37.363 32.3438 31.1119 44.8138C30.9333 45.0086 30.9332 45.2034 30.576 45.2034C30.3974 45.2034 30.2188 45.2034 30.0402 45.0086C26.111 42.2808 22.1817 39.553 18.431 36.8252L15.752 34.8768C13.7873 33.5129 11.8227 32.149 9.85804 30.7851C9.50084 30.5903 9.50088 30.0057 9.67948 29.616C15.2162 19.6791 21.8245 13.2493 25.7538 10.7163C41.4709 0.77937 50.9368 0.389685 63.9749 0H65.225C73.4408 0.584527 101.303 4.87105 115.413 32.9284C115.591 33.318 115.413 33.7077 115.234 33.9026C113.448 35.0716 111.662 36.2407 110.233 37.4097C105.947 40.3324 101.482 43.8395 96.6592 47.9312C96.6592 48.1261 96.4806 48.1261 96.302 48.1261ZM65.5823 23.5759C83.0854 23.5759 92.3727 37.2149 96.6592 45.9828C101.303 42.0859 105.589 38.7736 109.697 36.0458C111.126 35.0716 112.555 34.0974 114.162 32.9284C100.231 6.23495 73.4408 2.14326 65.5823 1.36389H64.332C51.4726 1.75358 42.3638 2.14325 26.8253 11.8854C23.0747 14.2235 17.0022 20.2636 11.6441 29.616C13.4301 30.7851 15.2162 32.149 16.8236 33.318L19.5027 35.2665C23.0747 37.7994 26.8253 40.3324 30.3974 43.0602C37.0057 30.7851 49.6866 23.5759 65.5823 23.5759Z" fill="black"/>
<path d="M53.4373 126.258C54.3303 120.607 55.4019 114.957 56.4735 109.501C52.5442 109.112 48.615 108.332 45.0429 106.774C41.6494 105.215 38.7918 102.682 36.1127 99.9541C30.7547 93.914 27.1826 86.1203 26.111 77.7421C25.5751 73.0659 25.9324 68.1948 26.111 63.3237C26.2896 60.4011 26.6468 57.8682 27.004 55.3352C19.1454 53.192 11.2869 50.4642 3.24977 48.5157C-0.143693 61.3753 -0.679524 77.3524 4.67857 95.6676C12.1799 121.387 33.9695 130.739 51.8298 133.857C52.3656 131.324 52.9015 128.791 53.4373 126.258Z" fill="#ACD4F7"/>
<path d="M51.8298 134.636C34.1481 131.519 11.8227 122.361 3.96419 95.8624C-0.858095 79.3008 -1.21528 63.3238 2.53539 48.3209C2.71399 47.9312 3.0712 47.7364 3.4284 47.7364C7.71488 48.7106 12.1799 50.0745 16.4664 51.4384C20.0385 52.4126 23.6105 53.5816 27.1826 54.5558C27.5398 54.7507 27.897 55.1404 27.7184 55.53C27.1826 58.063 26.8254 60.7908 26.8254 63.5186C26.8254 64.298 26.8254 65.0773 26.6468 65.6619C26.4682 69.7536 26.2896 73.6504 26.8254 77.5473C27.897 85.7307 31.2905 93.3295 36.6486 99.3696C39.3276 102.487 42.3639 104.63 45.2215 105.994C48.2578 107.358 51.8298 108.138 56.4735 108.722C56.6521 108.722 56.8308 108.917 57.0094 109.112C57.188 109.307 57.1879 109.501 57.1879 109.696C56.1163 115.542 55.0447 121.192 54.1517 126.453C53.4373 128.986 52.9015 131.519 52.5443 133.857C52.5443 134.246 52.187 134.636 51.8298 134.636ZM3.96419 49.2951C0.392128 63.9083 0.927927 79.3009 5.57161 95.2779C12.8943 120.607 34.3268 129.765 51.4727 132.883C51.8299 130.739 52.3657 128.596 52.9015 126.063C53.6159 120.997 54.6875 115.736 55.7591 110.086C51.294 109.501 47.9006 108.722 44.8643 107.358C41.6495 105.994 38.6132 103.656 35.7555 100.344C30.2188 94.1088 26.6468 86.1203 25.5752 77.5473C25.0394 73.4556 25.218 69.3639 25.3966 65.2722C25.3966 64.4928 25.3966 63.7135 25.5752 63.1289C25.7538 60.596 25.9324 58.063 26.4682 55.7249C23.0747 54.7507 19.6813 53.7765 16.2878 52.8023C12.1799 51.6332 7.89346 50.4642 3.96419 49.2951Z" fill="black"/>
<path d="M121.664 53.7765C114.52 55.1404 107.197 56.5043 100.053 58.4527C100.767 61.1805 101.124 63.7135 101.303 66.0516C101.482 68 101.303 71.1175 100.946 73.4556C100.231 77.9369 98.9811 82.4183 97.3736 86.7048C94.516 94.3037 90.2295 101.708 83.4426 105.41C79.5133 107.553 75.4055 108.722 71.119 109.307C70.5832 109.307 69.8688 109.501 69.333 109.501C69.6902 112.424 69.8688 115.347 70.226 118.269C70.7618 123.92 71.2976 129.57 72.012 135.026C72.5478 135.026 72.905 135.026 73.2622 134.831C107.197 131.713 123.093 92.1604 123.093 71.5071C123.093 65.0773 122.557 59.2321 121.664 53.7765Z" fill="white"/>
<path d="M72.012 135.805C71.6548 135.805 71.2976 135.415 71.2976 135.026C70.7618 129.765 70.226 123.92 69.5116 118.269C69.333 115.931 68.9757 113.593 68.7971 111.255L68.6186 109.696C68.6186 109.501 68.6185 109.307 68.7971 109.112C68.9757 108.917 69.1544 108.917 69.333 108.917C69.8688 108.917 70.4046 108.722 71.119 108.722C75.9413 108.138 79.6919 106.968 83.0854 105.02C88.8007 101.903 93.2658 95.6676 96.6592 86.7048C98.2667 82.2235 99.5169 77.7421 100.231 73.6504C100.589 71.3123 100.767 68.3897 100.589 66.4412C100.41 64.1031 100.053 61.5702 99.5169 59.0372C99.5169 58.8424 99.5169 58.6475 99.5169 58.4527C99.6955 58.2578 99.6955 58.063 100.053 58.063C107.197 56.1146 114.341 54.7507 121.664 53.3868C122.021 53.3868 122.378 53.5816 122.557 53.9713C123.45 59.6218 123.986 65.6619 123.986 71.8969C123.986 83.7822 119.163 98.7851 111.662 110.476C104.875 120.997 92.73 134.052 73.4408 136C72.905 135.61 72.5478 135.61 72.012 135.805ZM70.226 110.086V110.865C70.4046 113.203 70.7618 115.542 70.9404 117.88C71.4762 123.335 72.012 128.986 72.5478 133.857C72.7264 133.857 72.905 133.857 73.0836 133.857C91.837 132.103 103.625 119.438 110.233 109.112C119.163 95.2779 122.378 80.0802 122.378 71.3123C122.378 65.467 122.021 59.8166 121.128 54.5558C114.341 55.7249 107.733 57.0888 101.124 58.8424C101.66 61.1805 102.017 63.5186 102.196 65.6619C102.375 67.6103 102.196 70.9226 101.839 73.2607C101.124 77.5472 99.8741 82.0287 98.2667 86.51C94.6946 95.8625 90.0509 102.292 83.9784 105.605C80.4063 107.553 76.4771 108.917 71.4762 109.501C70.9404 110.086 70.5832 110.086 70.226 110.086Z" fill="black"/>
<path d="M79.5133 129.765L75.0482 125.089C74.8696 124.894 74.8696 124.894 75.0482 124.699C75.2268 124.504 75.2268 124.504 75.4054 124.699L79.6919 129.375C79.8705 129.375 79.8705 129.57 79.5133 129.765Z" fill="black"/>
<path d="M85.2286 128.596C81.1208 124.894 77.3701 120.997 73.6194 117.1C73.4408 116.905 73.4408 116.905 73.6194 116.711C73.798 116.516 73.798 116.516 73.9766 116.711C77.7273 120.607 81.478 124.504 85.4072 128.011C85.5858 128.011 85.5858 128.206 85.4072 128.401C85.4072 128.596 85.4072 128.596 85.2286 128.596Z" fill="black"/>
<path d="M90.5867 126.063C90.4081 126.063 90.4081 126.063 90.5867 126.063L76.1198 111.84C75.9412 111.645 75.9412 111.645 76.1198 111.45C76.2984 111.255 76.2985 111.255 76.4771 111.45L90.7653 125.479C90.9439 125.673 90.9439 125.673 90.7653 125.868C90.5867 126.063 90.5867 126.063 90.5867 126.063Z" fill="black"/>
<path d="M96.1234 122.166C91.4798 118.269 87.0147 114.178 82.7282 109.891C82.5496 109.696 82.5496 109.696 82.7282 109.501C82.9068 109.307 82.9068 109.307 83.0854 109.501C87.3719 113.788 91.6584 117.88 96.3021 121.582C96.4807 121.582 96.4807 121.776 96.3021 121.971C96.3021 122.166 96.302 122.166 96.1234 122.166Z" fill="black"/>
<path d="M100.767 117.49C95.9448 113.983 91.4797 110.281 87.1933 106.384C87.0147 106.384 87.0147 106.189 87.1933 105.994C87.1933 105.799 87.3718 105.799 87.5504 105.994C91.8369 109.891 96.302 113.593 100.946 116.905C101.124 116.905 101.124 117.1 100.946 117.295C100.946 117.49 100.946 117.49 100.767 117.49Z" fill="black"/>
<path d="M104.875 112.814C100.41 109.501 96.1235 105.994 91.837 102.487C91.6584 102.487 91.6584 102.292 91.837 102.097C91.837 101.903 92.0156 101.903 92.1942 102.097C96.302 105.605 100.767 109.112 105.054 112.424C105.232 112.424 105.232 112.619 105.054 112.814C105.054 112.814 105.054 112.814 104.875 112.814Z" fill="black"/>
<path d="M108.447 107.553C103.982 104.435 99.5169 101.318 95.2304 98.2006C95.0518 98.2006 95.0518 98.0057 95.2304 97.8109C95.2304 97.616 95.409 97.616 95.5876 97.8109C99.8741 100.928 104.339 104.046 108.626 106.968C108.804 106.968 108.804 107.163 108.626 107.358C108.626 107.553 108.626 107.553 108.447 107.553Z" fill="black"/>
<path d="M111.483 101.708C111.305 101.708 111.305 101.708 111.483 101.708L98.9811 93.7191C98.8025 93.7191 98.8025 93.5243 98.9811 93.3295C98.9811 93.1347 99.1597 93.1347 99.3383 93.3295L111.841 101.318C112.019 101.318 112.019 101.513 111.841 101.708C111.662 101.708 111.483 101.708 111.483 101.708Z" fill="black"/>
<path d="M113.627 96.447L100.767 88.6533C100.589 88.6533 100.589 88.4585 100.589 88.2636C100.589 88.0688 100.767 88.0688 100.946 88.0688L113.627 95.8625C113.805 95.8625 113.805 96.0573 113.805 96.2522C113.805 96.2522 113.805 96.447 113.627 96.447Z" fill="black"/>
<path d="M116.127 90.4069C115.948 90.4069 115.948 90.4069 116.127 90.4069L103.268 82.808C103.089 82.808 103.089 82.6132 103.089 82.4183C103.089 82.2235 103.268 82.2235 103.446 82.2235L116.306 89.8223C116.484 89.8223 116.484 90.0172 116.484 90.212C116.306 90.4069 116.127 90.4069 116.127 90.4069Z" fill="black"/>
<path d="M117.913 84.7564C113.269 81.8338 108.626 79.106 103.982 76.3782C103.803 76.3782 103.803 76.1833 103.803 75.9885C103.803 75.7937 103.982 75.7937 104.161 75.7937C108.804 78.5215 113.448 81.2493 117.913 84.1719C118.092 84.1719 118.092 84.3668 117.913 84.5616C118.092 84.5616 118.092 84.7564 117.913 84.7564Z" fill="black"/>
<path d="M118.985 77.7421L104.518 70.1432C104.339 70.1432 104.339 69.9484 104.339 69.7536C104.339 69.5587 104.518 69.5587 104.696 69.5587L119.163 77.1576C119.342 77.1576 119.342 77.3524 119.342 77.5473C119.163 77.7421 119.163 77.7421 118.985 77.7421Z" fill="black"/>
<path d="M119.163 71.3123C114.162 68.7793 109.161 66.2464 104.339 63.5186C104.161 63.5186 104.161 63.3238 104.161 63.1289C104.161 62.9341 104.339 62.9341 104.518 62.9341C109.34 65.467 114.341 68.1948 119.163 70.7278C119.342 70.7278 119.342 70.9226 119.342 71.1174C119.342 71.3123 119.342 71.3123 119.163 71.3123Z" fill="black"/>
<path d="M119.163 65.0774C115.948 63.5186 112.734 61.765 109.697 59.8166C109.519 59.8166 109.519 59.6217 109.697 59.4269C109.697 59.232 109.876 59.232 110.055 59.4269C113.091 61.3753 116.127 63.1289 119.342 64.6876C119.52 64.6876 119.52 64.8825 119.52 65.0774C119.342 65.0774 119.342 65.0774 119.163 65.0774Z" fill="black"/>
<path d="M118.806 59.6218L116.127 58.2579C115.948 58.2579 115.948 58.063 115.948 57.8682C115.948 57.6733 116.127 57.6733 116.306 57.6733L118.985 58.8424C119.163 58.8424 119.163 59.0373 119.163 59.2321C118.985 59.6218 118.985 59.6218 118.806 59.6218Z" fill="black"/>
<g opacity="0.1294">
<path d="M127.022 68.5845C126.665 64.6877 126.129 60.7908 125.057 56.894C124.7 55.9198 124.521 54.5559 123.628 53.7765C123.093 53.3868 122.378 53.3868 121.842 53.5816C121.842 53.5816 121.842 53.3869 121.664 53.3869C120.771 52.4126 118.985 52.9971 118.985 54.5559C117.556 54.5559 116.306 56.1146 116.663 57.8682C117.556 61.9599 117.556 63.9083 117.377 68.9742C117.377 74.235 115.948 81.8338 112.912 90.2121C111.662 93.9141 111.483 94.4986 109.697 98.3954C107.911 102.682 104.875 108.527 103.268 110.281C102.553 111.06 102.017 112.034 101.303 112.814C97.9095 116.711 95.409 118.659 91.3011 121.387C87.0147 124.115 84.157 125.673 80.0492 127.037C76.4771 128.011 75.2269 128.011 73.7981 128.206C72.7264 128.011 71.6548 128.401 71.2976 129.375C71.119 129.96 71.119 130.544 71.2976 130.934C70.4046 132.883 72.1906 135.221 73.9767 134.636C75.0483 134.246 74.6911 134.246 75.4055 133.857C76.2985 133.467 77.1915 133.467 78.0845 133.077C79.1561 132.688 80.2277 132.298 81.2994 131.908C81.478 131.908 81.6566 131.908 81.8352 131.713C83.4426 131.519 85.0501 131.519 86.4789 130.934C90.7654 129.375 97.1951 124.894 101.66 120.023C104.518 116.905 107.197 113.788 109.519 110.086C111.662 106.774 113.091 103.072 114.698 99.3696C116.306 95.8624 117.556 92.3553 118.806 88.6533C120.056 84.9513 121.128 81.0544 121.842 77.1576C122.557 73.2607 122.557 69.1691 122.378 65.0774C122.378 64.8826 122.557 64.8825 122.557 64.6877C122.735 66.0516 122.735 67.6103 122.914 69.5587C123.092 72.8711 122.914 77.3524 122.557 78.9112C122.378 79.106 122.378 79.3009 122.378 79.4957C121.842 80.4699 122.021 81.639 122.557 82.4184C124.343 84.7565 127.379 82.808 127.022 80.2751C127.022 79.8854 127.022 79.6906 127.022 79.3009C127.022 79.106 127.022 78.7164 127.2 78.5215C127.379 75.5989 127.2 72.0917 127.022 68.5845Z" fill="black"/>
</g>
<g opacity="0.1294">
<path d="M113.269 32.5387C111.483 27.0831 108.626 21.8223 104.696 17.9255C102.91 15.9771 100.231 18.8997 102.017 20.8481C104.339 22.7965 106.482 27.8624 107.018 29.616C107.733 31.5644 108.447 33.318 108.804 35.2664C110.055 39.1633 115.413 37.2149 113.269 32.5387Z" fill="black"/>
</g>
<g opacity="0.1294">
<path d="M51.294 127.622C47.722 128.011 47.5434 127.622 44.1499 126.842C41.2922 126.063 38.256 125.284 35.3983 124.309C32.8979 123.725 29.1472 121.971 28.0756 121.776C26.2896 121.387 25.3965 124.309 27.004 125.284C28.79 126.258 30.576 127.427 32.3621 128.401C33.9695 129.18 35.5769 129.57 37.1844 130.155C40.5778 131.713 44.1499 132.688 47.9006 133.077C48.9722 133.272 50.0438 133.077 51.294 132.882C51.8298 132.882 52.3656 132.688 52.7228 132.298C54.6875 130.934 53.6159 127.622 51.294 127.622Z" fill="black"/>
</g>
<g opacity="0.1294">
<path d="M30.7547 78.9111C30.3975 76.9627 29.8617 73.8453 30.0403 73.8453C29.6831 68.1948 29.5044 62.5444 29.683 56.6991C29.683 54.1662 26.111 53.9713 26.111 56.6991C25.9324 61.765 25.7538 66.831 25.7538 71.8969C25.9324 75.2092 26.4682 78.7163 27.004 82.0286C27.5398 83.9771 30.0403 84.3668 30.9333 82.6132C31.6477 81.4441 30.9333 80.0802 30.7547 78.9111Z" fill="black"/>
</g>
</svg>
