<svg width="49" height="52" viewBox="0 0 49 52" fill="none" xmlns="http://www.w3.org/2000/svg">
<path d="M24.5185 52C16.6119 52 8.88491 48.0793 4.03313 41.4142C2.05648 38.6697 0.798653 35.5331 0.259566 32.5926C-0.279521 29.6521 0.0798485 26.5156 0.798631 22.987C2.77528 14.9496 7.26765 7.89232 13.0179 3.97163C19.6666 -0.53715 28.2921 -1.32127 34.7611 2.20734C42.8474 6.52009 48.2383 15.7337 48.7774 25.7314C49.1368 36.5133 42.1287 47.4913 32.0657 50.8238C29.55 51.608 27.0342 52 24.5185 52ZM25.7764 1.42321C21.6434 1.42321 17.5103 2.59941 13.9164 5.14785C8.34582 8.8725 4.03313 15.5377 2.23617 23.3791C1.3377 26.7116 1.15802 29.6521 1.69711 32.3966C2.0565 35.1411 3.31441 37.8856 5.11137 40.63C11.0413 49.0595 22.1824 52.5881 31.5265 49.2555C40.8707 45.9229 47.6992 35.9252 47.1601 25.7314C46.8007 16.3218 41.5895 7.69632 34.0423 3.5796C31.7063 2.20736 28.8312 1.42321 25.7764 1.42321Z" fill="black"/>
</svg>
