<svg width="21" height="75" viewBox="0 0 21 75" fill="none" xmlns="http://www.w3.org/2000/svg">
<path d="M2.53296 0.789465L0.723774 73.8158L18.6347 74.2105L19.9011 0.789465H2.53296Z" fill="white"/>
<path d="M18.6346 75L0.723719 74.6053C0.5428 74.6053 0.361793 74.6053 0.180875 74.4079C-4.41723e-05 74.2105 0 74.0131 0 73.8158L1.80919 0.789462C1.80919 0.394725 2.17107 0 2.53291 0H19.9011C20.082 0 20.2629 -3.01454e-06 20.4438 0.197365C20.6247 0.394734 20.6248 0.592093 20.6248 0.789462L19.3583 74.2105C19.3583 74.4079 19.3583 74.6053 19.1773 74.8026C18.9964 75 18.8155 75 18.6346 75ZM1.44733 73.0263L17.911 73.421L19.1773 1.57894H3.25651L1.44733 73.0263Z" fill="black"/>
<path d="M11.036 72.4342L3.07569 65.3289C2.89478 65.3289 2.89478 65.1316 3.07569 64.9342C3.07569 64.7368 3.25663 64.7368 3.43755 64.9342L11.217 72.0395C11.398 72.0395 11.398 72.2368 11.217 72.4342H11.036Z" fill="black"/>
<path d="M15.3781 68.2895C15.1972 68.2895 15.1972 68.2895 15.3781 68.2895L3.43755 57.6316C3.25663 57.6316 3.25663 57.4342 3.43755 57.2368C3.43755 57.0395 3.61838 57.0395 3.7993 57.2368L15.559 67.6974C15.7399 67.6974 15.7399 67.8947 15.559 68.0921C15.3781 68.2895 15.3781 68.2895 15.3781 68.2895Z" fill="black"/>
<path d="M16.4636 60.9868C16.2827 60.9868 16.2827 60.9868 16.4636 60.9868L3.79928 49.7368C3.61836 49.7368 3.61836 49.5395 3.79928 49.3421C3.79928 49.1447 3.98022 49.1447 4.16114 49.3421L16.6446 60.5921C16.8255 60.5921 16.8255 60.7895 16.6446 60.9868C16.4637 60.7895 16.4636 60.9868 16.4636 60.9868Z" fill="black"/>
<path d="M15.3781 51.9079L4.88485 42.4342C4.70393 42.4342 4.70393 42.2368 4.88485 42.0395C4.88485 41.8421 5.06579 41.8421 5.24671 42.0395L15.559 51.3158C15.7399 51.3158 15.7399 51.5131 15.559 51.7105C15.559 51.9079 15.3781 51.9079 15.3781 51.9079Z" fill="black"/>
<path d="M15.559 44.0131L4.523 34.1447C4.34208 34.1447 4.34208 33.9474 4.523 33.75C4.523 33.5526 4.70394 33.5526 4.88485 33.75L15.9208 43.6184C16.1018 43.6184 16.1018 43.8158 15.9208 44.0131C15.7399 43.8158 15.559 44.0131 15.559 44.0131Z" fill="black"/>
<path d="M16.1018 37.1053L4.16114 26.4474C3.98022 26.4474 3.98022 26.25 4.16114 26.0526C4.16114 25.8553 4.34208 25.8553 4.523 26.0526L16.2827 36.7105C16.4636 36.7105 16.4636 36.9079 16.2827 37.1053H16.1018Z" fill="black"/>
<path d="M16.6446 29.2105L4.34213 18.1579C4.16121 18.1579 4.16121 17.9605 4.34213 17.7632C4.34213 17.5658 4.52296 17.5658 4.70388 17.7632L16.8255 28.6184C17.0064 28.6184 17.0064 28.8158 16.8255 29.0132C16.8255 29.2105 16.6446 29.2105 16.6446 29.2105Z" fill="black"/>
<path d="M15.9209 20.7237L4.523 10.4605C4.34208 10.4605 4.34208 10.2632 4.523 10.0658C4.523 9.86843 4.70394 9.86843 4.88485 10.0658L16.1018 20.1316C16.2828 20.1316 16.2828 20.3289 16.1018 20.5263L15.9209 20.7237Z" fill="black"/>
<path d="M16.4636 13.2237L4.70386 2.76316C4.52294 2.76316 4.52294 2.5658 4.70386 2.36843C4.70386 2.17106 4.8848 2.17106 5.06572 2.36843L16.6446 12.6316C16.8255 12.6316 16.8255 12.829 16.6446 13.0263C16.6446 13.2237 16.6445 13.2237 16.4636 13.2237Z" fill="black"/>
<path d="M16.4636 6.9079L12.6643 3.55263C12.4834 3.55263 12.4834 3.35527 12.6643 3.1579C12.6643 2.96053 12.8453 2.96053 13.0262 3.1579L16.6446 6.51315C16.8255 6.51315 16.8255 6.71053 16.6446 6.9079C16.6446 6.9079 16.6445 6.9079 16.4636 6.9079Z" fill="black"/>
</svg>
