<svg width="131" height="127" viewBox="0 0 131 127" fill="none" xmlns="http://www.w3.org/2000/svg">
<path d="M44.5884 15.1334C42.7975 21.3854 45.4839 28.6143 50.8567 32.1311C56.2295 35.4525 63.3931 34.8664 68.0495 30.5681C72.7059 26.4652 74.676 19.0409 72.8851 12.7889C71.4523 7.5137 67.5123 3.02004 62.6768 1.45703C57.8413 -0.105981 52.1103 1.45703 48.7075 5.55993C46.9166 7.90445 45.8421 11.0305 44.5884 15.1334Z" fill="#ACD4F7"/>
<path d="M58.3786 35.0618C55.6922 35.0618 52.8267 34.2803 50.4985 32.7173C44.9466 29.2005 42.0811 21.19 43.8721 14.7426C45.1257 10.249 46.3794 7.31831 48.1703 4.9738C51.5731 0.675516 57.6622 -1.08287 62.8559 0.675514C67.8705 2.23853 71.9896 6.92756 73.6015 12.5935C75.3924 19.2363 73.2433 26.856 68.4078 31.1542C65.7214 33.8895 61.9605 35.0618 58.3786 35.0618ZM58.7368 1.84777C55.1549 1.84777 51.5731 3.41078 49.424 6.14605C47.633 8.29519 46.5584 11.2258 45.3048 15.5241C43.5139 21.3854 46.2003 28.419 51.2149 31.545C56.2295 34.671 63.035 34.0849 67.5123 30.1774C71.8105 26.2698 73.7806 19.2363 72.1688 13.375C70.736 8.29519 66.975 3.99691 62.4977 2.62928C61.4232 2.04315 59.9904 1.84777 58.7368 1.84777Z" fill="black"/>
<path d="M1.24796 106.57C-0.542965 112.822 2.14343 120.051 7.51621 123.567C12.889 126.889 20.0527 126.303 24.7091 122.004C29.3655 117.901 31.3356 110.477 29.5446 104.225C28.1119 98.9499 24.1718 94.4562 19.3363 92.8932C14.5008 91.3302 8.76989 92.8932 5.36713 96.9961C3.5762 99.3406 2.50161 102.467 1.24796 106.57Z" fill="white"/>
<path d="M15.0381 126.498C12.3517 126.498 9.48621 125.716 7.15801 124.153C1.60613 120.637 -1.25937 112.626 0.531554 106.179C1.7852 101.685 3.03884 98.7545 4.82977 96.41C8.23253 92.1117 14.3217 90.3533 19.5154 92.1117C24.53 93.6747 28.6491 98.3637 30.261 104.03C32.0519 110.672 29.9028 118.292 25.0673 122.59C22.3809 125.13 18.6199 126.498 15.0381 126.498ZM15.3963 93.0886C11.8144 93.0886 8.23255 94.6516 6.08344 97.3869C4.29251 99.536 3.21798 102.467 1.96433 106.765C0.173401 112.626 2.85977 119.66 7.87437 122.786C12.889 125.912 19.6945 125.326 24.1718 121.418C28.47 117.511 30.4401 110.477 28.8282 104.616C27.3955 99.536 23.6345 95.2377 19.1572 93.8701C17.9035 93.2839 16.6499 93.0886 15.3963 93.0886Z" fill="black"/>
<path d="M101.54 65.7359C99.749 71.9879 102.435 79.2168 107.808 82.7336C113.181 86.2504 120.345 85.4689 125.001 81.1706C129.658 76.8723 131.627 69.6434 129.837 63.3914C128.404 58.1162 124.464 53.6225 119.628 52.0595C114.793 50.4965 109.062 52.0595 105.659 56.1624C103.868 58.5069 102.794 61.633 101.54 65.7359Z" fill="white"/>
<path d="M115.151 85.6643C112.465 85.6643 109.599 84.8828 107.271 83.3197C101.719 79.803 98.8535 71.7925 100.644 65.3451C101.898 60.8514 103.152 57.9208 104.943 55.5763C108.345 51.278 114.435 49.5196 119.628 51.278C124.643 52.841 128.762 57.5301 130.374 63.196C132.165 69.8388 130.016 77.4584 125.18 81.7567C122.494 84.2966 118.912 85.6643 115.151 85.6643ZM115.688 52.2549C112.106 52.2549 108.525 53.8179 106.375 56.5532C104.584 58.7023 103.51 61.633 102.256 65.9312C100.465 71.7925 103.152 78.8261 108.166 81.9521C113.181 85.0781 119.986 84.492 124.643 80.5845C128.941 76.6769 130.911 69.6434 129.299 63.7821C127.867 58.7023 124.106 54.404 119.628 53.0364C118.196 52.4503 116.942 52.2549 115.688 52.2549Z" fill="black"/>
<path d="M110.316 80.3891C107.629 77.8492 105.301 75.1139 103.152 72.1833C103.152 71.9879 103.152 71.9879 103.152 71.7925C103.331 71.7925 103.331 71.7925 103.51 71.7925C105.659 74.7232 107.987 77.4584 110.495 79.9983C110.674 80.1937 110.674 80.1937 110.495 80.3891H110.316Z" fill="black"/>
<path d="M116.584 81.366H116.405L103.868 66.5174C103.689 66.322 103.868 66.322 103.868 66.1266C104.047 65.9313 104.047 66.1266 104.226 66.1266L116.763 80.9752C116.763 80.9752 116.763 81.1706 116.584 81.366Z" fill="black"/>
<path d="M121.24 79.803L105.48 62.2191C105.301 62.0237 105.301 62.0237 105.48 61.8283C105.659 61.633 105.659 61.633 105.838 61.8283L121.419 79.2168C121.419 79.4122 121.419 79.6076 121.24 79.803Z" fill="black"/>
<path d="M125.717 76.677L108.525 58.8977C108.345 58.7023 108.345 58.7023 108.525 58.5069C108.704 58.3116 108.704 58.3116 108.883 58.5069L125.897 76.2862C125.897 76.2862 126.076 76.4816 125.717 76.677Z" fill="black"/>
<path d="M126.792 70.8157L112.285 55.9671C112.106 55.7717 112.106 55.7717 112.285 55.5763C112.465 55.3809 112.465 55.3809 112.644 55.5763L126.971 70.2295C127.15 70.4249 127.15 70.6203 126.792 70.8157C126.971 70.8157 126.971 70.8157 126.792 70.8157Z" fill="black"/>
<path d="M126.434 63.9775C126.255 63.9775 126.255 63.9775 126.434 63.9775L117.837 54.7948C117.658 54.5994 117.658 54.5994 117.837 54.404C118.016 54.2087 118.016 54.2087 118.195 54.404L126.613 63.3914C126.613 63.5867 126.613 63.7821 126.434 63.9775Z" fill="black"/>
<g opacity="0.1294">
<path d="M60.7068 1.06627C59.6322 0.675513 56.7668 -0.105996 56.2295 1.26164C55.6922 1.26164 54.9758 1.26164 54.2594 1.26164C53.7222 1.26164 53.1849 1.26164 52.6476 1.65239C52.4685 1.65239 52.2895 1.65239 52.1104 1.65239C51.2149 2.04315 51.2149 3.41078 52.1104 3.80153C52.8267 3.99691 53.5431 4.19229 54.2594 4.19229C54.6176 4.19229 54.9758 4.19229 55.1549 3.99691C56.2295 3.99691 56.9458 3.99691 57.8413 4.19229C60.5277 4.58304 62.1395 4.97379 64.2886 5.95068C64.2886 5.95068 64.2886 5.95067 64.4677 6.14605C64.8259 6.73218 65.1842 6.92756 66.796 9.46745C68.9451 12.9842 69.4823 15.7195 68.945 19.8224C68.4077 23.1438 67.8705 24.7068 66.2586 28.0282C65.5423 29.982 68.0496 31.3496 68.945 29.3958C69.1241 29.0051 69.3033 28.8097 69.4824 28.419C69.8406 28.419 70.3778 28.2236 70.5569 27.8328C74.1388 22.3623 75.2133 14.7426 71.4524 9.0767C70.736 7.90444 69.8405 6.73218 68.766 5.7553C68.4078 5.36454 67.8705 4.97379 67.3332 4.77841C66.9751 4.38766 66.6169 3.99691 66.0796 3.60616C65.005 2.62928 63.7514 2.04315 62.4977 1.65239C61.9604 1.45702 60.1695 0.870889 60.7068 1.06627Z" fill="black"/>
</g>
<g opacity="0.1294">
<path d="M15.5754 92.5025C14.5008 92.3071 13.9636 93.6747 14.6799 94.4562C15.9336 95.2377 17.1872 95.0423 18.4409 95.6285C19.1573 96.0192 19.8737 96.41 20.59 96.8007C20.7691 96.9961 20.7691 96.9961 20.9482 97.1915C21.3064 97.5822 21.6646 97.973 22.2018 98.3637C22.7391 99.1453 23.2764 99.9268 23.8137 100.708C24.351 101.881 25.7837 105.788 26.321 108.133C27.2164 110.672 25.9628 115.166 23.9928 117.706C23.4555 118.683 22.9182 118.488 22.0227 119.855C21.1273 121.223 22.7391 122.981 23.9928 121.809C25.7837 120.441 27.2164 118.878 28.291 116.729C29.1865 114.58 29.9028 112.235 29.9028 109.891C29.9028 109.109 29.7238 108.328 29.5447 107.742C29.7238 107.742 30.0819 107.546 30.261 107.351C30.7983 106.57 30.4401 105.202 30.0819 104.42C29.1865 101.685 27.5746 99.1453 25.6046 97.3869C25.6046 97.3869 25.4255 97.3869 25.4255 97.1915C25.2464 96.9961 24.5301 96.6054 24.1719 96.2146C24.1719 96.2146 24.1719 96.2146 23.9928 96.2146C22.9182 95.2377 21.8437 94.2608 20.59 93.6747C19.6946 93.284 18.9782 93.0886 18.0827 92.8932C17.9036 92.8932 17.5454 92.6978 17.3663 92.6978C16.1127 92.6978 16.1127 92.5025 15.5754 92.5025Z" fill="black"/>
</g>
<g opacity="0.1294">
<path d="M116.942 52.2549C116.405 52.2549 115.867 52.2549 115.688 52.6456C115.33 53.0364 115.33 53.8179 115.867 54.2087C116.046 54.404 116.405 54.5994 116.584 54.404C117.3 54.404 117.121 54.404 117.658 54.404C119.27 54.5994 119.628 54.7948 121.061 55.7717C121.419 55.967 121.061 55.7717 120.882 55.7717C121.598 55.967 123.926 58.3116 124.464 59.2884C125.897 61.633 126.792 63.3913 127.15 65.3451C127.867 68.8619 126.076 73.3555 124.285 76.2862C123.031 78.0446 122.852 78.24 121.24 79.4122C120.524 79.9983 119.449 80.3891 118.912 81.1706C118.196 82.3429 119.628 83.9059 120.703 83.1244C123.389 81.5613 125.897 79.2168 127.329 76.2862C128.941 73.3555 130.195 70.0341 130.016 66.5174C129.837 61.4376 126.434 56.5532 122.673 54.0133C121.777 53.4271 120.703 53.0364 119.628 52.6456C118.912 52.4503 117.837 52.2549 116.942 52.2549Z" fill="black"/>
</g>
<path d="M21.1273 93.0886C20.9482 93.0886 20.9482 93.0886 20.7691 93.0886C20.411 92.8932 20.2318 92.5024 20.4109 91.9163C29.9029 71.5972 39.932 51.4734 50.4985 31.9358C50.6776 31.545 51.2149 31.3496 51.5731 31.7404C51.9313 31.9358 52.1104 32.5219 51.7522 32.9126C41.1857 52.4503 31.1565 72.574 21.6646 92.8932C21.6646 92.8932 21.3064 93.0886 21.1273 93.0886Z" fill="black"/>
<path d="M105.122 57.1393C104.943 57.1393 104.764 57.1393 104.584 56.9439C93.3016 46.7844 82.1979 36.4294 71.2733 25.8791C70.9151 25.4883 70.9151 25.0976 71.2733 24.7068C71.6315 24.3161 71.9896 24.3161 72.3478 24.7068C83.0933 35.2572 94.3762 45.8075 105.48 55.7717C105.838 55.967 105.838 56.5532 105.659 56.9439C105.659 57.1393 105.301 57.1393 105.122 57.1393Z" fill="black"/>
</svg>
