<svg width="19" height="13" viewBox="0 0 19 13" fill="none" xmlns="http://www.w3.org/2000/svg">
<path d="M17.9353 9.96952C17.173 9.36043 16.4108 8.75132 15.4961 8.2945C12.9045 6.61949 10.4653 4.79224 7.87361 3.42177C6.19666 2.50813 4.67214 1.59446 2.99519 0.680817C2.84274 0.37627 2.53779 0.224005 2.08044 0.0717316C0.555937 -0.38509 -0.663625 1.44221 0.403525 2.6604C1.16577 3.42177 2.23291 3.8786 3.14761 4.33542C5.28191 5.55361 7.41626 6.77179 9.39811 7.98998C11.38 9.20817 13.3618 10.5786 15.3436 11.7968C16.2583 12.2536 16.8681 13.6241 18.3926 12.5582C19.4598 11.6446 19.0024 10.5786 17.9353 9.96952Z" fill="black"/>
</svg>
