<svg width="439" height="405" viewBox="0 0 439 405" fill="none" xmlns="http://www.w3.org/2000/svg">
<path d="M56.7699 264.661C49.8787 269.858 40.3012 271.085 32.3005 267.873C29.7893 266.88 27.4534 265.478 24.8838 264.836C22.2558 264.194 19.219 264.544 17.4086 266.53C16.2991 267.756 16.0655 270.034 17.5838 270.793C18.1094 271.026 18.7518 271.026 19.3358 271.026C22.1974 270.91 25.1758 271.085 27.6285 272.545C30.0813 274.005 31.7165 277.158 30.6653 279.786C30.2565 280.838 29.4389 281.655 28.5629 282.414C25.8766 284.633 22.0222 285.801 18.7518 284.575C15.4815 283.349 13.2623 279.378 14.6055 276.107C15.3647 274.18 17.1166 271.786 15.4815 270.501C14.2551 269.508 12.4447 270.618 11.4519 271.902C7.71433 276.925 9.46631 284.517 15.2479 288.546C11.5103 286.269 9.75831 282.006 9.34951 277.918C9.23271 276.983 8.99911 275.932 8.23992 275.406C7.24713 274.822 5.84554 275.406 5.26155 276.399C4.67755 277.392 4.67755 278.618 4.73595 279.786C5.02795 284.633 7.77273 290.473 11.3935 292.926C7.36393 290.765 4.67755 280.954 2.45837 282.064C0.764789 282.356 0.531191 284.692 0.939987 286.385C2.04958 291.408 4.73595 296.372 9.17431 299C16.591 303.438 25.9934 300.518 34.1109 297.481C40.1844 295.204 46.258 292.926 52.3315 290.649C57.1203 288.838 62.493 286.561 64.3034 281.714C65.5298 278.443 64.7706 274.764 63.077 271.727C61.2667 268.749 58.7555 266.296 56.7699 264.661Z" fill="white"/>
<path d="M17.9926 302.095C14.7806 302.095 11.6271 301.394 8.76548 299.7C4.61912 297.189 1.46555 292.401 0.180759 286.561C-0.111239 285.334 -0.111239 283.582 0.647955 282.414C1.05675 281.83 1.58235 281.48 2.22474 281.363C2.92553 281.071 3.56793 281.305 4.21032 281.889C4.09352 281.188 4.03512 280.545 3.97672 279.845C3.91833 278.56 3.91833 277.158 4.61912 276.049C5.08631 275.29 5.84551 274.706 6.6631 274.53C7.36389 274.355 8.06469 274.472 8.59028 274.822C8.76548 274.939 8.94068 275.056 9.05748 275.231C9.40788 273.888 9.99187 272.603 10.8095 271.494C11.4519 270.618 12.6782 269.566 13.963 269.45C14.6638 269.391 15.2478 269.508 15.7734 269.917C15.7734 269.858 15.715 269.742 15.715 269.683C15.4814 268.515 15.8902 267.055 16.7078 266.121C18.8102 263.726 22.3142 263.551 24.9421 264.194C26.7525 264.602 28.3877 265.42 29.9645 266.179C30.7821 266.588 31.5997 266.938 32.4757 267.289C40.2428 270.384 49.5283 269.158 56.1859 264.135C56.4779 263.902 56.8282 263.96 57.1202 264.135C58.697 265.362 61.617 267.99 63.5442 271.494C65.5298 275.114 65.997 278.969 64.829 282.122C62.9602 287.203 57.4122 289.597 52.4483 291.466L34.286 298.241C29.0885 300.168 23.3654 302.095 17.9926 302.095ZM2.80874 282.706H2.75034C2.69194 282.765 2.63354 282.765 2.57514 282.765C2.28314 282.823 2.10794 282.94 1.93274 283.232C1.52395 283.874 1.40715 285.042 1.64075 286.21C2.80873 291.641 5.72871 296.08 9.52468 298.357C16.6494 302.62 25.7597 299.817 33.8189 296.781L52.0395 289.948C56.7114 288.196 61.8506 285.918 63.5442 281.48C64.5954 278.735 64.1282 275.348 62.3762 272.136C60.741 269.158 58.3466 266.88 56.7698 265.595C49.7035 270.618 40.0676 271.786 32.0669 268.574C31.1909 268.223 30.3149 267.814 29.4973 267.406C27.8621 266.646 26.3437 265.946 24.7085 265.537C22.5478 265.011 19.6278 265.128 17.9926 266.997C17.467 267.581 17.175 268.515 17.3502 269.216C17.4086 269.625 17.6422 269.858 17.9342 270.034C18.2846 270.209 18.8102 270.209 19.3358 270.15C22.139 270.034 25.3509 270.15 28.0957 271.786C30.7237 273.362 32.7093 276.866 31.4245 279.961C31.0157 280.954 30.2565 281.947 29.1469 282.881C25.9933 285.509 21.9054 286.385 18.5766 285.159C16.6494 284.458 15.0142 282.823 14.1382 280.837C13.379 279.085 13.3206 277.275 13.963 275.698C14.1382 275.29 14.3134 274.881 14.547 274.472C15.3646 272.778 15.8902 271.61 15.131 270.968C14.8974 270.793 14.6638 270.734 14.3718 270.793C13.671 270.851 12.795 271.494 12.2111 272.253C10.6927 274.297 10.1087 276.925 10.5175 279.611C10.8679 281.129 11.3351 282.531 12.0359 283.757C12.9702 285.334 14.255 286.677 15.7734 287.787C16.1238 288.021 16.1822 288.488 15.9486 288.838C15.715 289.189 15.2478 289.305 14.8974 289.072C13.1454 288.021 11.7439 286.444 10.6343 284.575C9.75827 283.115 9.17428 281.597 8.94068 279.961C8.82388 279.319 8.70708 278.618 8.64868 277.917C8.53188 276.866 8.29829 276.224 7.88949 275.99C7.59749 275.815 7.30549 275.874 7.0719 275.874C6.6047 275.99 6.1959 276.341 5.96231 276.691C5.49511 277.45 5.43671 278.443 5.55351 279.669C5.67031 282.122 6.4879 284.75 7.65589 287.028C8.23989 288.021 8.82388 289.013 9.46628 289.889C10.2255 290.824 11.0431 291.641 11.9191 292.225C12.2695 292.459 12.3279 292.868 12.1527 293.218C11.9191 293.569 11.5103 293.685 11.1599 293.51C10.1671 292.985 9.23268 292.05 8.35669 290.882C7.59749 289.889 6.8967 288.78 6.2543 287.612C6.07911 287.261 5.84551 286.911 5.67031 286.561C4.91112 285.451 3.33433 282.706 2.80874 282.706ZM16.8246 271.26C17.1166 272.486 16.4158 274.005 15.7734 275.231C15.5982 275.64 15.423 275.99 15.2478 276.399C14.7222 277.625 14.7806 279.027 15.423 280.37C16.1238 281.947 17.467 283.29 19.0438 283.874C21.847 284.925 25.4093 284.108 28.0957 281.83C29.0301 281.071 29.6141 280.312 29.9645 279.494C30.8989 277.158 29.3221 274.355 27.2781 273.129C24.8837 271.727 21.9638 271.61 19.3942 271.727C18.6934 271.727 17.9926 271.786 17.2334 271.435C17.0582 271.377 16.9414 271.318 16.8246 271.26Z" fill="black"/>
<path d="M195.001 84.3232C192.257 81.1697 191.089 77.0233 190.154 72.9353C186.358 55.9995 187.585 36.2021 187.585 36.2021C187.585 36.2021 192.373 33.2821 194.125 32.0557C197.221 29.8365 200.374 27.6757 203.82 26.2158C212.229 22.7118 221.807 23.7046 230.859 24.8142C235.939 25.4566 240.962 26.099 245.867 27.4421C248.495 28.2013 251.182 29.1357 253.284 30.9461C256.671 33.8661 260.584 40.9908 260.584 40.9908C260.584 40.9908 258.657 70.9498 252.174 83.2136C251.59 84.3232 250.948 85.3744 250.131 86.3088C249.021 87.5936 247.503 88.4696 245.984 89.2288C239.268 92.4992 231.559 92.908 224.143 92.0904C221.048 91.74 217.952 91.2144 215.149 89.988C213.514 89.2872 211.937 88.3528 210.244 87.7688C206.565 86.5424 202.36 87.0096 198.856 85.3744C195.352 83.6224 193.074 80.0017 195.001 84.3232Z" fill="#ACD4F7"/>
<path d="M230.391 93.1416C228.347 93.1416 226.304 93.0248 224.084 92.7912C221.456 92.4992 218.011 91.9736 214.857 90.6304C214.215 90.3384 213.572 90.0464 212.93 89.696C211.937 89.2288 211.003 88.7617 210.01 88.4112C208.433 87.8857 206.798 87.6521 205.046 87.4769C202.885 87.1849 200.608 86.9513 198.564 85.9585C197.454 85.4329 196.461 84.7321 195.702 84.1481C195.761 84.4401 195.644 84.7905 195.352 84.9657C195.06 85.1409 194.651 85.0825 194.359 84.8489C191.497 81.5785 190.271 77.3154 189.337 73.169C185.541 56.2915 186.767 36.4357 186.767 36.2021C186.767 35.9685 186.942 35.7349 187.117 35.6181C187.176 35.6181 191.906 32.6982 193.6 31.5302C196.637 29.3694 199.849 27.0918 203.469 25.6318C211.82 22.1862 220.814 22.9454 230.859 24.1718C236.29 24.8142 241.195 25.515 245.984 26.7998C248.32 27.4422 251.357 28.435 253.693 30.479C257.138 33.4573 260.993 40.4653 261.168 40.7573C261.226 40.8741 261.285 41.0493 261.285 41.1661C261.226 42.3925 259.299 71.417 252.758 83.6809C252.233 84.7321 251.532 85.9001 250.656 86.8929C249.605 88.0609 248.262 88.9952 246.276 89.988C241.896 92.0904 236.523 93.1416 230.391 93.1416ZM194.359 81.5201C194.826 81.5201 195.293 81.9289 195.936 82.4545C196.753 83.0969 197.863 84.0313 199.206 84.6153C201.017 85.4913 203.061 85.7249 205.221 86.0169C206.973 86.2505 208.784 86.4257 210.477 87.0097C211.587 87.3601 212.58 87.8857 213.572 88.4112C214.156 88.7032 214.799 88.9952 215.441 89.2872C218.42 90.572 221.69 91.0976 224.26 91.3312C232.786 92.2656 239.969 91.3312 245.692 88.528C247.444 87.6521 248.671 86.8345 249.605 85.7833C250.422 84.9073 251.007 83.7977 251.532 82.8633C257.606 71.4754 259.65 43.9109 259.883 41.1661C259.241 39.9981 255.795 34.0413 252.875 31.5302C250.773 29.7198 248.087 28.8438 245.751 28.2014C241.079 26.9166 236.231 26.2742 230.8 25.5734C220.931 24.347 212.171 23.6462 204.17 26.9166C200.725 28.3766 197.513 30.5374 194.593 32.6397C193.074 33.6909 189.453 35.9101 188.344 36.6109C188.169 39.4725 187.468 57.4011 190.913 72.7602C191.614 75.797 192.49 78.9505 194.009 81.5785C194.125 81.5785 194.242 81.5201 194.359 81.5201Z" fill="black"/>
<path d="M382.347 264.661C389.238 269.858 398.816 271.085 406.816 267.873C409.327 266.88 411.663 265.478 414.233 264.836C416.861 264.194 419.898 264.544 421.708 266.53C422.818 267.756 423.051 270.034 421.533 270.793C421.007 271.026 420.365 271.026 419.781 271.026C416.919 270.91 413.941 271.085 411.488 272.545C409.035 274.005 407.4 277.158 408.451 279.786C408.86 280.838 409.678 281.655 410.554 282.414C413.24 284.633 417.095 285.801 420.365 284.575C423.635 283.349 425.855 279.378 424.511 276.107C423.752 274.18 422 271.786 423.635 270.501C424.862 269.508 426.672 270.618 427.665 271.902C431.403 276.925 429.651 284.517 423.869 288.546C427.607 286.269 429.359 282.006 429.767 277.918C429.884 276.983 430.118 275.932 430.877 275.406C431.87 274.822 433.271 275.406 433.855 276.399C434.439 277.392 434.439 278.618 434.381 279.786C434.089 284.633 431.344 290.473 427.723 292.926C431.753 290.765 434.439 280.954 436.658 282.064C438.352 282.356 438.586 284.692 438.177 286.385C437.067 291.408 434.381 296.372 429.942 299C422.526 303.438 413.123 300.518 405.006 297.481C398.932 295.204 392.859 292.926 386.785 290.649C381.997 288.838 376.624 286.561 374.813 281.714C373.587 278.443 374.346 274.764 376.04 271.727C377.792 268.749 380.303 266.296 382.347 264.661Z" fill="white"/>
<path d="M421.124 302.095C415.693 302.095 410.028 300.226 404.772 298.241L386.552 291.408C381.529 289.539 376.04 287.145 374.171 282.064C373.003 278.91 373.47 275.056 375.456 271.435C377.383 267.931 380.303 265.362 381.88 264.077C382.172 263.843 382.522 263.843 382.814 264.077C389.472 269.099 398.816 270.326 406.524 267.23C407.342 266.88 408.218 266.471 409.036 266.121C410.612 265.362 412.306 264.602 414.058 264.135C416.627 263.493 420.131 263.668 422.292 266.062C423.11 266.997 423.519 268.398 423.285 269.625C423.285 269.683 423.227 269.8 423.227 269.858C423.752 269.508 424.395 269.333 425.037 269.391C426.38 269.566 427.548 270.559 428.191 271.435C429.008 272.545 429.651 273.83 429.943 275.173C430.059 274.998 430.235 274.881 430.41 274.764C430.994 274.414 431.636 274.297 432.337 274.472C433.155 274.706 433.972 275.231 434.381 275.99C435.082 277.158 435.082 278.502 435.023 279.786C434.965 280.487 434.907 281.13 434.79 281.83C435.432 281.246 436.074 281.013 436.775 281.305C437.418 281.422 437.943 281.83 438.352 282.356C439.111 283.524 439.111 285.217 438.819 286.502C437.534 292.342 434.439 297.131 430.235 299.642C427.49 301.394 424.336 302.095 421.124 302.095ZM382.347 265.595C380.829 266.88 378.376 269.158 376.741 272.136C374.989 275.348 374.521 278.735 375.573 281.48C377.266 285.977 382.405 288.196 387.077 289.948L405.298 296.781C413.299 299.759 422.467 302.621 429.592 298.357C433.388 296.08 436.308 291.641 437.476 286.21C437.71 285.042 437.651 283.874 437.184 283.232C437.009 282.998 436.775 282.823 436.542 282.765C436.483 282.765 436.425 282.706 436.366 282.706C435.899 282.473 434.264 285.393 433.563 286.619C433.388 286.969 433.154 287.32 432.979 287.67C432.395 288.897 431.695 290.006 430.877 290.941C430.059 292.05 429.125 292.985 428.074 293.569C427.723 293.744 427.256 293.627 427.081 293.277C426.847 292.926 426.964 292.517 427.315 292.284C428.191 291.7 429.008 290.882 429.767 289.948C430.41 289.072 430.994 288.079 431.578 287.086C432.746 284.809 433.505 282.181 433.68 279.728C433.739 278.502 433.68 277.509 433.271 276.75C433.038 276.341 432.571 275.99 432.162 275.932C431.928 275.874 431.636 275.874 431.344 276.049C430.935 276.341 430.643 276.925 430.585 277.976C430.527 278.677 430.41 279.319 430.293 280.02C430.001 281.655 429.417 283.232 428.599 284.692C427.548 286.619 426.088 288.137 424.336 289.189C423.986 289.422 423.519 289.305 423.285 288.955C423.051 288.605 423.168 288.137 423.46 287.904C425.037 286.853 426.263 285.451 427.198 283.874C427.899 282.648 428.424 281.246 428.716 279.728C429.183 276.983 428.541 274.414 427.023 272.37C426.439 271.61 425.563 270.968 424.862 270.91C424.57 270.851 424.278 270.91 424.103 271.085C423.343 271.727 423.811 272.895 424.687 274.589C424.862 274.998 425.095 275.406 425.271 275.815C425.913 277.392 425.855 279.202 425.095 280.954C424.219 282.94 422.584 284.517 420.657 285.276C417.387 286.502 413.24 285.626 410.087 282.998C408.977 282.064 408.218 281.13 407.809 280.078C406.524 276.983 408.51 273.479 411.138 271.902C413.824 270.267 417.095 270.15 419.898 270.267C420.423 270.267 420.949 270.326 421.299 270.15C421.591 269.975 421.825 269.742 421.883 269.333C422 268.632 421.767 267.698 421.241 267.114C419.547 265.245 416.686 265.128 414.525 265.654C412.89 266.062 411.372 266.763 409.736 267.522C408.919 267.931 408.043 268.34 407.167 268.69C399.049 271.844 389.413 270.676 382.347 265.595ZM418.321 271.727C416.102 271.727 413.824 272.019 411.839 273.129C409.795 274.355 408.16 277.1 409.152 279.494C409.503 280.254 410.087 281.013 411.021 281.83C413.766 284.108 417.27 284.867 420.073 283.874C421.65 283.29 422.993 282.006 423.694 280.37C424.278 279.027 424.336 277.626 423.869 276.399C423.694 276.049 423.519 275.64 423.343 275.231C422.759 274.005 422 272.486 422.292 271.26C422.175 271.318 422.059 271.435 421.942 271.494C421.241 271.844 420.482 271.786 419.839 271.786C419.314 271.727 418.788 271.727 418.321 271.727Z" fill="black"/>
<path d="M272.673 197.676C278.279 211.517 283.593 238.089 298.544 252.981C317.523 271.961 381.705 293.744 381.705 293.744C381.705 293.744 379.661 287.086 382.581 275.64C383.34 272.545 389.004 265.303 389.004 265.303C389.004 265.303 338.431 239.257 322.721 223.547C307.012 207.838 301.288 166.024 288.324 146.519C275.359 127.013 238.334 125.495 238.334 125.495H200.841C200.841 125.495 163.816 127.013 150.851 146.519C137.887 166.024 132.105 207.896 116.454 223.547C100.803 239.199 50.1123 265.361 50.1123 265.361C50.1123 265.361 55.777 272.603 56.5362 275.698C59.4562 287.145 57.4122 293.802 57.4122 293.802C57.4122 293.802 121.535 272.019 140.573 253.039C155.523 238.089 160.779 211.576 166.444 197.735C166.444 231.665 153.129 294.62 174.912 306.708C196.695 318.797 255.562 315.643 265.49 308.927C281.841 297.773 272.673 197.676 272.673 197.676Z" fill="white"/>
<path d="M223.325 315.527C204.871 315.527 185.249 313.191 174.503 307.292C157.976 298.124 161.071 261.215 163.816 228.687C164.634 219.051 165.393 209.882 165.626 201.998C164.75 204.568 163.816 207.371 162.882 210.291C158.268 224.54 152.487 242.235 141.157 253.565C122.236 272.486 60.3322 293.627 57.7042 294.503C57.4122 294.62 57.1202 294.503 56.945 294.328C56.7698 294.153 56.653 293.861 56.7698 293.569C56.7698 293.51 58.697 286.969 55.8938 275.874C55.3098 273.479 51.1051 267.814 49.5867 265.829C49.4699 265.654 49.4115 265.42 49.4699 265.186C49.5283 264.953 49.6451 264.778 49.8787 264.661C50.4043 264.427 100.511 238.498 115.929 223.08C124.572 214.437 130.236 197.443 135.726 180.974C140.223 167.542 144.427 154.811 150.209 146.168C163.29 126.546 199.265 124.852 200.783 124.794H238.275C239.852 124.852 275.826 126.546 288.908 146.168C294.689 154.87 298.952 167.542 303.391 180.974C308.88 197.443 314.545 214.437 323.188 223.08C338.606 238.498 388.771 264.427 389.238 264.661C389.413 264.778 389.588 264.953 389.647 265.186C389.705 265.42 389.647 265.654 389.53 265.829C387.953 267.814 383.807 273.479 383.223 275.874C380.42 286.911 382.347 293.51 382.347 293.569C382.405 293.861 382.347 294.153 382.172 294.328C381.997 294.503 381.646 294.62 381.413 294.503C378.785 293.627 316.881 272.428 297.96 253.565C286.63 242.235 280.849 224.54 276.235 210.291C275.417 207.78 274.658 205.385 273.841 203.108C275.534 224.482 280.381 299.701 265.84 309.453C260.642 313.016 242.597 315.527 223.325 315.527ZM166.444 196.917C166.502 196.917 166.561 196.917 166.561 196.917C166.911 196.976 167.145 197.268 167.145 197.677C167.145 206.553 166.269 217.357 165.276 228.804C162.59 260.923 159.553 297.306 175.204 305.949C184.665 311.205 202.652 314.184 224.552 314.008C243.181 313.892 260.175 311.439 264.964 308.227C280.79 297.54 271.914 198.728 271.797 197.735C271.738 197.385 272.03 197.034 272.381 196.917C272.731 196.801 273.14 197.034 273.257 197.385C274.658 200.889 276.06 205.21 277.578 209.765C282.133 223.84 287.857 241.359 298.952 252.397C316.122 269.566 371.426 289.364 380.537 292.576C380.069 290.065 379.485 284.108 381.705 275.465C382.347 272.837 386.26 267.522 387.72 265.595C381.179 262.208 336.562 238.615 322.079 224.132C313.202 215.255 307.42 198.085 301.931 181.442C297.493 168.068 293.288 155.512 287.623 146.986C275.009 128.006 238.567 126.254 238.217 126.254H200.783C200.433 126.254 164.05 128.006 151.435 146.986C145.771 155.512 141.566 168.126 137.128 181.442C131.58 198.027 125.856 215.196 116.98 224.132C102.497 238.615 57.8794 262.15 51.3387 265.595C52.7987 267.522 56.7114 272.837 57.3538 275.465C59.573 284.108 58.989 290.065 58.5218 292.576C67.6321 289.364 122.936 269.625 140.106 252.397C151.202 241.301 156.867 223.781 161.48 209.765C162.998 205.152 164.4 200.83 165.802 197.385C165.86 197.093 166.152 196.917 166.444 196.917Z" fill="black"/>
<path d="M236.173 96.0616C236.582 108.442 238.1 120.765 240.67 132.912C240.903 133.904 241.079 134.956 240.787 135.948C240.495 136.941 239.677 137.759 238.918 138.46C233.487 143.307 226.187 146.46 218.887 145.876C211.587 145.351 204.462 140.737 202.418 133.145C203.528 122.692 205.864 107.975 206.74 91.448C215.967 93.6672 225.428 94.8352 236.173 96.0616Z" fill="white"/>
<path d="M220.58 146.694C219.996 146.694 219.471 146.694 218.887 146.636C210.652 146.052 203.703 140.679 201.717 133.379C201.717 133.262 201.659 133.204 201.717 133.087C202.068 130.05 202.477 126.605 202.944 122.925C204.053 114.107 205.455 103.128 206.039 91.4481C206.039 91.2145 206.156 91.0393 206.331 90.8641C206.506 90.7473 206.74 90.6889 206.973 90.7473C215.792 92.8497 224.727 94.076 236.348 95.3024C236.699 95.3608 236.991 95.6528 236.991 96.0032C237.399 108.326 238.918 120.648 241.487 132.737C241.721 133.788 241.955 134.956 241.604 136.182C241.254 137.35 240.378 138.226 239.502 139.044C233.895 143.949 227.121 146.694 220.58 146.694ZM203.177 133.087C205.338 140.737 212.638 144.65 218.945 145.117C225.603 145.584 232.669 142.956 238.392 137.876C239.035 137.292 239.794 136.591 240.027 135.715C240.261 134.897 240.086 133.963 239.852 133.029C237.341 121.115 235.823 108.91 235.355 96.704C224.376 95.4776 215.792 94.3096 207.324 92.3825C206.681 103.829 205.338 114.457 204.287 123.101C203.937 126.721 203.528 130.109 203.177 133.087Z" fill="black"/>
<path d="M253.109 52.3203C252.934 53.8971 252.817 57.9267 252.817 59.5035C253.985 54.5979 264.906 54.8899 263.329 63.1242C262.278 68.5554 257.898 72.001 252.642 70.1906C252.758 73.2273 253.109 74.5705 252.992 77.6073C252.583 86.0168 250.189 94.7767 243.415 100.85C237.399 106.165 228.172 108.793 219.471 107.683C210.769 106.573 202.71 101.668 198.622 95.0688C194.768 88.82 194.768 75.6801 194.476 69.081C190.563 69.4314 186.3 68.0298 184.081 65.1682C181.862 62.365 182.154 58.2771 184.957 55.9411C187.818 53.6635 191.264 53.4883 194.943 57.3427C195.001 51.9115 196.228 46.714 196.753 44.3196C198.272 37.7789 198.914 28.0262 203.703 25.515C206.389 24.055 211.937 23.0038 215.032 22.3614C220.405 21.3102 227.588 25.0478 233.136 25.3398C238.684 25.6318 244.232 28.6101 248.495 31.6469C253.693 35.2093 253.81 46.0716 253.109 52.3203Z" fill="white"/>
<path d="M223.5 108.676C222.099 108.676 220.697 108.559 219.296 108.384C210.302 107.216 202.126 102.252 197.921 95.3607C194.359 89.5792 194.009 78.5417 193.775 71.2418C193.775 70.7162 193.717 70.249 193.717 69.7818C189.629 69.957 185.599 68.2634 183.438 65.5186C180.927 62.2482 181.336 57.7515 184.431 55.2403C187.526 52.7291 190.972 52.8459 194.184 55.5323C194.417 50.8019 195.41 46.422 195.936 44.1444L195.994 43.9692C196.286 42.626 196.578 41.166 196.87 39.5892C197.98 33.5741 199.206 26.7998 203.294 24.639C205.981 23.179 211.295 22.1278 214.507 21.4854L214.857 21.427C218.186 20.7846 222.099 21.8358 225.895 22.887C228.464 23.5878 230.976 24.2886 233.136 24.4054C237.867 24.639 243.181 26.7998 248.904 30.8293C255.328 35.3261 254.102 49.4588 253.81 52.2619C253.693 53.1963 253.635 55.0651 253.576 56.7587C255.094 55.5323 257.43 55.1235 259.416 55.5323C262.102 56.1163 264.906 58.4523 264.03 63.1242C263.446 66.2778 261.752 68.8474 259.358 70.249C257.547 71.3002 255.503 71.5338 253.401 71.0666C253.459 71.7674 253.518 72.3514 253.518 72.9937C253.635 74.3369 253.751 75.6217 253.635 77.5489C253.109 88.0024 249.78 96.0031 243.765 101.317C238.684 106.048 231.151 108.676 223.5 108.676ZM194.476 68.2634C194.651 68.2634 194.826 68.3218 194.943 68.4386C195.118 68.5554 195.177 68.789 195.177 68.9642C195.177 69.665 195.235 70.3658 195.235 71.1834C195.469 77.8993 195.819 89.1704 199.206 94.6016C203.177 101.084 210.944 105.756 219.529 106.865C228.056 107.975 236.991 105.405 242.889 100.208C248.554 95.1271 251.707 87.5352 252.233 77.4905C252.35 75.6801 252.233 74.5121 252.116 73.1689C252.058 72.293 251.941 71.3586 251.941 70.1322C251.941 69.8986 252.058 69.665 252.233 69.4898C252.408 69.3146 252.7 69.3146 252.934 69.373C254.978 70.0738 256.963 69.957 258.657 68.9642C260.642 67.7962 262.102 65.577 262.57 62.8906C263.446 58.3355 260.175 57.2843 259.124 57.0507C256.846 56.5251 254.043 57.4595 253.518 59.5619C253.401 59.9123 253.051 60.2043 252.7 60.1459C252.291 60.0875 252.058 59.7371 252.058 59.3867V58.7443C252.116 56.8171 252.233 53.6051 252.35 52.1451C253.167 44.8452 252.525 35.2093 248.087 32.1141C242.597 28.2597 237.575 26.2158 233.078 25.9822C230.742 25.8654 228.056 25.1062 225.486 24.4054C221.865 23.4126 218.128 22.3614 215.149 22.9454L214.799 23.0038C211.704 23.6462 206.506 24.639 203.995 25.9822C200.549 27.8509 199.381 34.2165 198.33 39.8812C198.038 41.458 197.746 42.918 197.454 44.3196L197.396 44.4948C196.812 46.9476 195.644 51.9699 195.644 57.2259C195.644 57.5179 195.469 57.8099 195.177 57.9267C194.885 58.0435 194.593 57.9851 194.359 57.7515C191.264 54.5395 188.227 54.0723 185.366 56.4083C182.913 58.3939 182.562 61.9562 184.606 64.5842C186.592 67.0954 190.505 68.5554 194.359 68.205C194.417 68.2634 194.417 68.2634 194.476 68.2634Z" fill="black"/>
<path d="M225.311 97.6383C222.8 97.6383 220.347 96.7623 218.42 95.1271C218.128 94.8351 218.069 94.3679 218.361 94.0759C218.653 93.7839 219.12 93.7255 219.412 94.0175C221.924 96.2367 225.72 96.8207 228.756 95.4775C229.165 95.3023 229.574 95.4775 229.749 95.8863C229.924 96.2951 229.749 96.7039 229.34 96.8791C228.114 97.4047 226.712 97.6383 225.311 97.6383Z" fill="black"/>
<path d="M239.619 66.6282C237.633 66.6282 235.647 66.0442 233.954 64.8178C233.604 64.5842 233.545 64.117 233.779 63.7667C234.012 63.4163 234.479 63.3579 234.83 63.5915C237.458 65.4602 241.079 65.577 243.823 63.9419C244.174 63.7083 244.641 63.825 244.875 64.1754C245.108 64.5258 244.991 64.993 244.641 65.2266C243.123 66.161 241.371 66.6282 239.619 66.6282Z" fill="black"/>
<path d="M209.368 65.8106C207.382 65.8106 205.397 65.2266 203.703 64.0002C203.353 63.7666 203.294 63.2994 203.528 62.949C203.761 62.5986 204.229 62.5402 204.579 62.7738C207.207 64.6426 210.828 64.7594 213.572 63.1242C213.923 62.8906 214.39 63.0074 214.624 63.3578C214.857 63.7082 214.74 64.1754 214.39 64.409C212.872 65.3434 211.12 65.8106 209.368 65.8106Z" fill="black"/>
<path d="M224.26 87.1264C222.566 87.1264 220.756 86.6008 218.887 85.6664C218.128 85.2576 217.31 84.7905 216.784 83.9145C216.084 82.8633 216.025 81.4033 216.551 79.9433C216.901 78.9505 217.544 78.0745 218.069 77.2569L218.303 76.9065C221.34 72.4098 223.384 67.1538 224.143 61.7811C224.201 61.3723 224.61 61.0803 225.019 61.1387C225.428 61.1971 225.72 61.5475 225.661 62.0147C224.902 67.621 222.8 73.1106 219.588 77.7825L219.296 78.1913C218.77 79.0089 218.244 79.7097 217.952 80.5857C217.602 81.5785 217.66 82.5713 218.069 83.2137C218.42 83.7393 219.062 84.1481 219.588 84.4401C221.281 85.316 222.858 85.7832 224.318 85.7248C226.012 85.7248 227.588 85.0241 228.581 83.9729C228.873 83.6809 229.34 83.6225 229.632 83.9145C229.924 84.2065 229.983 84.6737 229.691 84.9657C228.406 86.3672 226.479 87.1848 224.318 87.2432C224.318 87.1264 224.26 87.1264 224.26 87.1264Z" fill="black"/>
<path d="M195.118 62.5987C194.709 62.5987 194.417 62.3067 194.359 61.8979C194.242 60.0291 194.242 58.9779 194.184 57.1675C194.184 56.7587 194.476 56.4083 194.943 56.4083C195.352 56.4083 195.702 56.7587 195.702 57.1675C195.761 58.9779 195.761 59.9707 195.877 61.8395C195.877 62.1899 195.585 62.5987 195.118 62.5987Z" fill="black"/>
<path d="M252.992 64.9346C252.583 64.9346 252.291 64.6426 252.233 64.2338C252.116 62.365 252.116 61.3138 252.058 59.5035C252.058 59.0947 252.35 58.7443 252.817 58.7443C253.226 58.7443 253.576 59.0363 253.576 59.5035C253.635 61.3138 253.635 62.3066 253.751 64.1754C253.751 64.5842 253.459 64.9346 252.992 64.9346Z" fill="black"/>
<path d="M242.48 44.4948C244.407 48.466 250.715 48.2908 254.803 46.13C257.547 44.67 260 42.5676 261.226 39.8229C262.453 37.1365 262.336 33.8077 260.467 31.4717C265.49 27.559 267.125 20.0838 263.621 15.0031C260.117 9.92232 251.707 8.28714 246.51 12.0247C246.276 6.47676 241.079 1.4544 235.122 1.104C229.165 0.753606 223.15 5.01677 221.982 10.5063C222.683 4.54957 215.383 -0.355985 209.076 0.987203C202.769 2.33039 198.447 8.40394 198.038 14.3607C193.308 11.8495 186.475 14.0103 184.256 18.6822C182.037 23.3542 185.015 29.4277 190.213 30.8877C188.169 31.7637 187.293 34.1581 187.643 36.2021C187.994 38.2461 189.337 39.9981 190.68 41.6916C192.023 43.3268 193.483 45.0204 195.469 45.9548C199.498 47.8236 205.105 45.6628 206.506 41.6332C207.324 46.8308 214.215 49.5756 219.704 48.1156C225.136 46.5972 229.107 42.1588 231.851 37.6037C231.326 42.5676 237.224 47.0644 242.48 44.4948Z" fill="#ACD4F7"/>
<path d="M216.609 49.2836C214.098 49.2836 211.587 48.5828 209.543 47.298C208.025 46.3052 206.915 45.0788 206.273 43.6188C205.338 44.9036 203.995 45.9548 202.418 46.5972C199.965 47.6484 197.279 47.6484 195.118 46.5972C192.957 45.6044 191.439 43.8524 190.037 42.1588C188.636 40.4653 187.234 38.5965 186.884 36.3189C186.592 34.5669 187.059 32.4061 188.519 31.0629C186.358 30.0701 184.665 28.3182 183.614 26.0406C182.446 23.471 182.446 20.6678 183.555 18.3318C184.665 15.9959 186.942 14.1271 189.745 13.1927C192.373 12.3167 195.06 12.3751 197.396 13.2511C198.272 6.88555 203.002 1.5128 208.901 0.228012C212.58 -0.531182 216.784 0.636808 219.646 3.26479C220.989 4.49117 221.924 5.83436 222.391 7.35275C224.785 3.03119 229.924 0.111212 235.18 0.40321C241.079 0.753606 246.276 5.42556 247.152 10.7983C249.605 9.45513 252.7 8.98793 255.795 9.51353C259.358 10.1559 262.453 12.0247 264.263 14.6527C267.826 19.7918 266.541 27.267 261.518 31.6469C263.095 34.0413 263.27 37.3117 261.986 40.1733C260.467 43.502 257.489 45.6044 255.211 46.8308C252.233 48.4076 248.379 48.8748 245.575 47.9404C244.115 47.4732 242.947 46.5972 242.188 45.4876C239.677 46.4804 236.874 46.13 234.538 44.4948C232.844 43.3268 231.735 41.6916 231.268 39.8813C227.939 44.67 224.143 47.7068 219.88 48.8748C218.828 49.1084 217.719 49.2836 216.609 49.2836ZM206.448 40.8741H206.506C206.857 40.9325 207.149 41.166 207.149 41.5164C207.499 43.7356 209.076 45.1956 210.302 46.0132C212.872 47.6484 216.434 48.2324 219.412 47.4148C223.792 46.1884 227.764 42.8012 231.151 37.1949C231.326 36.9029 231.676 36.7861 232.027 36.8445C232.377 36.9613 232.552 37.3117 232.552 37.6621C232.319 39.7645 233.428 41.8668 235.355 43.21C237.399 44.67 239.969 44.8452 242.13 43.794C242.305 43.6772 242.539 43.6772 242.714 43.7356C242.889 43.794 243.064 43.9108 243.123 44.1444C243.648 45.254 244.641 46.0132 245.984 46.4804C248.379 47.2396 251.766 46.8308 254.452 45.4292C257.314 43.9108 259.474 41.8084 260.526 39.4725C261.694 36.8445 261.46 33.9245 259.825 31.9389C259.708 31.7637 259.65 31.5885 259.65 31.3549C259.65 31.1797 259.766 30.9461 259.942 30.8293C264.73 27.0918 266.074 20.0254 262.92 15.4119C261.343 13.1343 258.598 11.4991 255.445 10.9151C252.291 10.3311 249.196 10.9735 246.919 12.6087C246.685 12.7839 246.393 12.7839 246.159 12.6671C245.926 12.5503 245.751 12.3167 245.751 12.0247C245.517 6.82715 240.611 2.15519 235.063 1.8048C229.457 1.4544 223.792 5.48397 222.683 10.5647C222.624 10.9735 222.216 11.2071 221.807 11.1487C221.398 11.0903 221.164 10.7399 221.164 10.3311C221.398 8.17034 220.522 6.00956 218.595 4.25757C216.084 1.97999 212.346 0.928805 209.134 1.5712C203.586 2.73919 199.089 8.22874 198.681 14.3023C198.681 14.5359 198.505 14.7695 198.272 14.8863C198.038 15.0031 197.805 15.0031 197.571 14.8863C195.469 13.7767 192.724 13.6015 190.154 14.4775C187.701 15.2951 185.774 16.8719 184.84 18.8574C183.906 20.7846 183.964 23.1206 184.957 25.2814C186.008 27.6174 187.993 29.3694 190.329 30.0117C190.621 30.0701 190.855 30.3621 190.855 30.7125C190.855 31.0045 190.68 31.3549 190.388 31.4717C188.636 32.2309 187.993 34.3333 188.285 35.9685C188.636 37.8373 189.862 39.5309 191.147 41.1076C192.432 42.6844 193.833 44.2612 195.702 45.1372C197.454 45.9548 199.732 45.9548 201.776 45.0788C203.703 44.2612 205.105 42.918 205.747 41.2828C205.864 41.1077 206.156 40.8741 206.448 40.8741Z" fill="black"/>
<path d="M223.559 156.155C226.304 177.587 228.815 199.137 231.092 220.686C231.501 224.365 231.851 228.103 231.443 231.724C230.859 236.921 228.698 241.418 226.596 245.681C224.026 250.937 221.515 256.193 218.128 261.332C214.857 251.229 211.937 240.775 209.543 230.205C209.601 206.437 217.193 183.778 218.712 160.126C218.828 158.666 218.887 157.147 219.471 155.863C219.996 154.753 221.223 153.994 223.559 156.155Z" fill="white"/>
<path d="M218.128 262.208C218.069 262.208 218.069 262.208 218.011 262.208C217.719 262.15 217.485 261.974 217.368 261.682C214.04 251.404 211.12 240.892 208.784 230.497C208.784 230.439 208.784 230.38 208.784 230.322C208.842 217.124 211.178 204.042 213.514 191.369C215.383 181.208 217.31 170.696 217.952 160.184V160.067C218.069 158.549 218.128 156.972 218.77 155.687C219.296 154.578 219.996 154.227 220.58 154.111C221.632 153.877 222.741 154.403 224.084 155.629C224.201 155.746 224.318 155.921 224.318 156.096C227.063 177.47 229.574 199.195 231.851 220.686C232.202 224.132 232.611 228.103 232.202 231.899C231.559 237.33 229.282 242.002 227.296 246.09C224.785 251.287 222.157 256.66 218.77 261.858C218.595 262.091 218.361 262.208 218.128 262.208ZM210.302 230.264C212.521 240.075 215.208 250.003 218.361 259.697C221.281 254.967 223.617 250.119 225.953 245.447C227.939 241.418 230.1 236.863 230.742 231.724C231.151 228.044 230.742 224.248 230.391 220.803C228.114 199.429 225.603 177.821 222.916 156.563C221.807 155.571 221.223 155.512 220.931 155.571C220.639 155.629 220.405 155.863 220.23 156.33C219.763 157.439 219.646 158.841 219.529 160.243V160.359C218.828 170.988 216.901 181.5 215.032 191.72C212.696 204.217 210.302 217.182 210.302 230.264Z" fill="black"/>
<path d="M218.595 143.073C220.055 141.963 222.099 141.963 223.734 142.606C226.128 143.54 228.231 144.883 228.756 147.453C228.873 148.095 227.705 150.84 227.063 151.891C226.304 153.059 224.435 155.279 222.741 155.454C221.281 155.629 219.938 154.811 218.828 153.877C216.843 152.183 215.149 149.672 215.733 147.103C216.084 145.467 217.135 144.183 218.595 143.073Z" fill="white"/>
<path d="M222.391 156.155C221.106 156.155 219.821 155.571 218.361 154.344C215.733 152.125 214.448 149.322 214.974 146.811C215.324 145.234 216.317 143.774 218.128 142.431C219.646 141.263 221.865 141.029 224.026 141.847C226.07 142.606 228.873 144.007 229.516 147.219C229.749 148.329 228.172 151.483 227.764 152.183C227.121 153.176 225.019 155.863 222.916 156.096C222.683 156.155 222.566 156.155 222.391 156.155ZM219.062 143.657C217.602 144.767 216.726 145.935 216.492 147.161C215.85 150.023 218.536 152.534 219.354 153.235C220.639 154.286 221.69 154.753 222.683 154.636C223.968 154.519 225.661 152.651 226.42 151.424C227.063 150.373 227.997 148.037 227.997 147.511C227.588 145.643 226.245 144.358 223.442 143.307C222.216 142.781 220.405 142.664 219.062 143.657Z" fill="black"/>
<path d="M192.724 146.051C192.432 146.051 192.198 145.935 192.081 145.643C190.505 142.84 189.045 139.861 187.701 136.941C187.526 136.591 187.701 136.124 188.052 135.948C188.402 135.773 188.869 135.948 189.045 136.299C190.388 139.219 191.789 142.08 193.366 144.883C193.541 145.234 193.425 145.701 193.074 145.935C192.957 145.993 192.841 146.051 192.724 146.051Z" fill="black"/>
<path d="M184.957 143.424C184.665 143.424 184.373 143.248 184.256 142.956L182.212 137.759C182.037 137.35 182.27 136.941 182.621 136.766C183.03 136.591 183.438 136.824 183.614 137.175L185.657 142.372C185.833 142.781 185.599 143.19 185.249 143.365C185.132 143.424 185.015 143.424 184.957 143.424Z" fill="black"/>
<path d="M219.237 142.197C215.733 146.869 212.229 151.599 207.966 156.388C202.36 146.168 196.695 135.656 194.009 124.327C196.228 123.217 201.075 119.83 203.353 118.721C202.769 121.173 203.236 123.334 203.586 124.093C203.703 124.561 213.397 137 219.237 142.197Z" fill="white"/>
<path d="M207.966 157.147H207.908C207.674 157.147 207.441 156.972 207.324 156.739C202.068 147.161 196.111 136.24 193.249 124.502C193.191 124.152 193.308 123.801 193.658 123.626C194.768 123.101 196.52 121.933 198.272 120.823C200.141 119.655 201.834 118.545 203.002 117.961C203.236 117.845 203.586 117.845 203.82 118.02C204.053 118.195 204.17 118.487 204.053 118.779C203.528 120.998 203.937 122.984 204.229 123.626C204.754 124.444 214.04 136.416 219.763 141.496C220.055 141.73 220.113 142.197 219.88 142.489C216.434 147.103 212.813 151.892 208.55 156.739C208.375 157.031 208.141 157.147 207.966 157.147ZM194.826 124.736C197.571 135.715 203.061 145.993 208.083 155.103C211.82 150.782 215.091 146.46 218.244 142.314C212.346 136.883 203.119 125.028 202.827 124.444C202.477 123.685 202.126 122.049 202.301 120.181C201.309 120.765 200.141 121.524 199.031 122.225C197.454 123.159 195.936 124.093 194.826 124.736Z" fill="black"/>
<g opacity="0.1294">
<path d="M221.34 155.629C221.807 155.162 222.332 154.695 222.916 154.636C224.552 154.286 225.428 156.622 223.968 157.498C222.916 158.315 222.332 158.724 222.04 159.075C221.69 159.483 221.34 160.009 220.697 160.067C219.763 160.301 218.887 159.308 218.945 158.374C218.828 157.031 219.004 156.855 218.712 156.096C218.303 154.227 220.989 153.76 221.34 155.629Z" fill="black"/>
</g>
<g opacity="0.1294">
<path d="M208.55 155.279C208.901 154.636 209.718 154.286 210.185 153.702C211.353 152.592 212.638 151.074 212.988 150.548C213.28 150.14 213.572 149.789 213.806 149.322C214.04 148.855 214.332 148.446 214.799 148.271C215.908 147.862 217.018 149.205 216.376 150.256C216.259 150.49 216.084 150.723 215.908 150.957C216.025 150.899 216.142 150.84 216.259 150.84C217.719 150.548 218.478 152.592 217.193 153.41C215.675 154.286 214.215 155.279 212.696 156.271C211.295 157.089 210.185 157.673 209.426 157.907C208.025 158.199 207.265 156.096 208.55 155.279Z" fill="black"/>
</g>
<g opacity="0.1294">
<path d="M227.238 150.782C227.588 150.081 227.88 149.439 228.289 148.796C228.464 148.446 228.581 148.037 228.932 147.803C229.749 147.103 230.8 147.57 231.151 148.387C231.209 148.387 231.268 148.387 231.268 148.387C231.851 148.504 232.202 149.03 232.611 149.439C233.311 150.139 233.253 150.315 233.311 150.548C233.428 150.723 233.487 150.899 233.545 151.074C234.129 151.307 234.713 151.541 235.297 151.775C236.173 152.183 237.224 152.417 237.925 153.118C238.918 154.227 237.516 155.863 236.231 155.162C235.297 154.695 234.187 154.344 232.435 153.702C231.443 153.41 230.392 153.293 229.399 153.059C229.165 153.001 228.932 152.884 228.756 152.767C227.705 153.118 226.596 151.95 227.238 150.782Z" fill="black"/>
</g>
<path d="M238.626 120.706C235.881 127.948 229.866 138.051 223.617 142.08C227.18 145 231.676 149.672 239.151 154.928C241.371 141.963 243.882 135.773 245.167 125.612C243.415 124.444 240.728 121.932 238.626 120.706Z" fill="white"/>
<path d="M239.093 155.687C238.918 155.687 238.801 155.629 238.684 155.571C233.37 151.833 229.574 148.446 226.537 145.701C225.252 144.533 224.143 143.54 223.092 142.723C222.916 142.547 222.8 142.314 222.8 142.08C222.8 141.847 222.916 141.613 223.15 141.496C229.048 137.759 235.005 128.064 237.867 120.472C237.925 120.239 238.1 120.122 238.334 120.005C238.567 119.947 238.743 119.947 238.976 120.064C240.319 120.823 241.896 122.108 243.298 123.276C244.115 123.976 244.933 124.619 245.517 125.028C245.751 125.203 245.867 125.436 245.809 125.728C245.108 131.16 244.115 135.364 242.947 140.27C241.955 144.358 240.845 149.03 239.794 155.045C239.735 155.279 239.56 155.512 239.327 155.629C239.327 155.687 239.21 155.687 239.093 155.687ZM224.844 142.139C225.661 142.839 226.537 143.657 227.53 144.533C230.333 147.103 233.837 150.198 238.567 153.585C239.56 148.037 240.611 143.715 241.546 139.861C242.655 135.131 243.648 131.101 244.349 125.962C243.765 125.495 243.064 124.969 242.363 124.385C241.312 123.509 240.086 122.516 239.035 121.816C236.056 129.174 230.508 138.051 224.844 142.139Z" fill="black"/>
<path d="M218.128 149.088C218.069 149.088 218.011 149.088 217.952 149.03C217.836 148.913 217.836 148.796 217.952 148.68C219.354 147.336 220.697 145.876 221.924 144.358C221.982 144.241 222.157 144.241 222.274 144.3C222.391 144.358 222.391 144.533 222.332 144.65C221.106 146.168 219.763 147.628 218.361 149.03C218.244 149.088 218.186 149.088 218.128 149.088Z" fill="black"/>
<path d="M219.763 151.366C219.704 151.366 219.588 151.308 219.588 151.249C219.529 151.132 219.529 150.957 219.646 150.899C221.456 149.497 223.033 147.745 224.318 145.818C224.376 145.701 224.552 145.643 224.668 145.76C224.785 145.818 224.844 145.993 224.727 146.11C223.442 148.096 221.865 149.848 219.938 151.366C219.88 151.366 219.821 151.366 219.763 151.366Z" fill="black"/>
<path d="M222.508 152.767C222.449 152.767 222.332 152.709 222.332 152.651C222.274 152.534 222.274 152.359 222.391 152.3C223.442 151.483 224.376 150.49 225.194 149.439C225.252 149.322 225.428 149.322 225.544 149.38C225.661 149.439 225.661 149.614 225.603 149.731C224.785 150.84 223.792 151.833 222.741 152.651C222.624 152.767 222.566 152.767 222.508 152.767Z" fill="black"/>
<path d="M219.938 164.564C219.88 164.564 219.821 164.564 219.763 164.506C219.646 164.447 219.646 164.272 219.704 164.155C220.522 163.046 221.398 161.936 222.332 160.885C222.449 160.768 222.566 160.768 222.683 160.827C222.8 160.943 222.8 161.06 222.741 161.177C221.865 162.228 220.989 163.338 220.172 164.447C220.113 164.564 220.055 164.564 219.938 164.564Z" fill="black"/>
<path d="M219.354 170.871C219.296 170.871 219.237 170.871 219.179 170.813C219.062 170.754 219.062 170.579 219.12 170.463L222.332 166.141C222.391 166.024 222.566 166.024 222.683 166.083C222.8 166.141 222.8 166.316 222.741 166.433L219.529 170.755C219.529 170.813 219.412 170.871 219.354 170.871Z" fill="black"/>
<path d="M218.653 178.054C218.595 178.054 218.595 178.054 218.536 177.996C218.42 177.938 218.361 177.762 218.42 177.646C219.88 175.076 221.456 172.565 223.033 170.112C223.092 169.995 223.267 169.995 223.384 170.054C223.5 170.112 223.5 170.287 223.442 170.404C221.807 172.799 220.288 175.31 218.828 177.879C218.828 177.996 218.712 178.054 218.653 178.054Z" fill="black"/>
<path d="M217.018 187.457C216.96 187.457 216.96 187.457 216.901 187.398C216.784 187.34 216.726 187.165 216.784 187.048C218.945 183.077 221.223 179.164 223.5 175.368C223.559 175.251 223.734 175.193 223.851 175.31C223.968 175.368 224.026 175.543 223.909 175.66C221.573 179.456 219.296 183.369 217.193 187.282C217.193 187.457 217.135 187.457 217.018 187.457Z" fill="black"/>
<path d="M215.733 196.742C215.675 196.742 215.675 196.742 215.616 196.742C215.5 196.684 215.441 196.509 215.5 196.392C218.186 191.194 221.106 186.114 224.201 181.208C224.26 181.091 224.435 181.033 224.552 181.15C224.668 181.208 224.727 181.383 224.61 181.5C221.515 186.347 218.595 191.486 215.967 196.625C215.908 196.684 215.85 196.742 215.733 196.742Z" fill="black"/>
<path d="M214.098 205.969C214.04 205.969 213.981 205.969 213.981 205.911C213.864 205.853 213.806 205.677 213.923 205.561L224.61 187.69C224.668 187.574 224.844 187.515 224.96 187.632C225.077 187.69 225.136 187.866 225.019 187.982L214.332 205.853C214.273 205.911 214.215 205.969 214.098 205.969Z" fill="black"/>
<path d="M213.105 214.321C213.047 214.321 212.988 214.321 212.988 214.262C212.872 214.204 212.872 214.029 212.93 213.912C217.252 207.546 221.456 200.947 225.369 194.231C225.428 194.114 225.603 194.056 225.72 194.114C225.836 194.173 225.895 194.348 225.836 194.465C221.924 201.181 217.719 207.78 213.397 214.145C213.28 214.321 213.164 214.321 213.105 214.321Z" fill="black"/>
<path d="M212.463 222.555C212.404 222.555 212.346 222.555 212.346 222.496C212.229 222.438 212.229 222.263 212.288 222.146C217.135 215.08 221.865 207.663 226.362 200.246C226.42 200.129 226.596 200.071 226.712 200.188C226.829 200.246 226.888 200.421 226.771 200.538C222.274 207.955 217.544 215.372 212.696 222.438C212.58 222.555 212.521 222.555 212.463 222.555Z" fill="black"/>
<path d="M211.937 230.614C211.879 230.614 211.821 230.614 211.762 230.556C211.645 230.497 211.645 230.322 211.704 230.205C217.018 222.964 221.982 215.313 226.479 207.313C226.537 207.196 226.712 207.137 226.829 207.196C226.946 207.254 227.004 207.429 226.946 207.546C222.449 215.488 217.485 223.197 212.113 230.439C212.113 230.556 212.054 230.614 211.937 230.614Z" fill="black"/>
<path d="M213.689 236.863C213.631 236.863 213.572 236.863 213.572 236.804C213.456 236.746 213.456 236.571 213.514 236.454L227.355 216.131C227.413 216.014 227.588 216.014 227.705 216.073C227.822 216.131 227.822 216.306 227.764 216.423L213.923 236.746C213.864 236.804 213.748 236.863 213.689 236.863Z" fill="black"/>
<path d="M215.383 243.053C215.324 243.053 215.266 243.053 215.266 242.995C215.149 242.936 215.091 242.761 215.208 242.644C219.354 236.045 223.676 229.563 228.172 223.314C228.231 223.197 228.406 223.197 228.523 223.256C228.64 223.314 228.64 223.489 228.581 223.606C224.084 229.855 219.704 236.337 215.616 242.878C215.558 242.995 215.5 243.053 215.383 243.053Z" fill="black"/>
<path d="M217.076 247.783C217.018 247.783 216.96 247.783 216.901 247.725C216.784 247.667 216.784 247.491 216.843 247.375C220.814 242.002 224.785 236.454 228.639 230.906C228.698 230.789 228.873 230.789 228.99 230.848C229.107 230.906 229.107 231.081 229.048 231.198C225.194 236.746 221.223 242.294 217.252 247.667C217.252 247.725 217.135 247.783 217.076 247.783Z" fill="black"/>
<path d="M218.478 253.74C218.42 253.74 218.361 253.74 218.361 253.682C218.244 253.623 218.186 253.448 218.303 253.331L224.668 243.462C224.727 243.345 224.902 243.287 225.019 243.404C225.136 243.462 225.194 243.637 225.077 243.754L218.712 253.623C218.653 253.682 218.595 253.74 218.478 253.74Z" fill="black"/>
<path d="M241.546 355.297L272.322 357.925L294.339 402.133C294.339 402.133 285.053 406.571 273.724 397.987C262.394 389.402 246.685 367.152 236.64 366.626C226.596 366.101 241.546 355.297 241.546 355.297Z" fill="white"/>
<path d="M288.09 404.06C284.236 404.06 278.98 402.951 273.257 398.571C269.052 395.417 264.38 390.512 259.416 385.314C251.182 376.671 242.655 367.736 236.582 367.385C234.246 367.269 232.844 366.568 232.494 365.283C231.501 361.837 239.443 355.822 241.079 354.654C241.254 354.538 241.429 354.479 241.604 354.538L272.381 357.166C272.614 357.166 272.848 357.341 272.965 357.574L294.981 401.783C295.098 401.958 295.098 402.192 295.04 402.367C294.981 402.542 294.806 402.717 294.631 402.776C294.456 402.951 291.945 404.06 288.09 404.06ZM241.721 356.056C238.1 358.742 233.428 363.122 233.954 364.874C234.129 365.458 235.063 365.809 236.699 365.867C243.356 366.217 252.116 375.386 260.526 384.263C265.431 389.402 270.045 394.249 274.133 397.403C283.185 404.236 290.952 402.542 293.288 401.783L271.797 358.684L241.721 356.056Z" fill="black"/>
<path d="M186.3 355.764L155.523 358.392L133.507 402.6C133.507 402.6 142.792 407.039 154.122 398.454C165.451 389.869 181.161 367.619 191.205 367.093C201.192 366.568 186.3 355.764 186.3 355.764Z" fill="white"/>
<path d="M139.756 404.527C135.843 404.527 133.39 403.418 133.215 403.301C133.04 403.243 132.864 403.067 132.806 402.892C132.748 402.717 132.748 402.483 132.864 402.308L154.881 358.1C154.998 357.866 155.231 357.691 155.465 357.691L186.241 355.063C186.417 355.063 186.592 355.122 186.767 355.18C188.402 356.348 196.345 362.363 195.352 365.809C195.001 367.093 193.6 367.794 191.264 367.911C185.19 368.203 176.664 377.197 168.43 385.84C163.466 391.037 158.794 395.943 154.589 399.096C148.807 403.418 143.551 404.527 139.756 404.527ZM134.5 402.191C136.836 403.009 144.486 404.761 153.655 397.812C157.743 394.716 162.414 389.869 167.262 384.672C175.73 375.795 184.431 366.626 191.089 366.276C192.665 366.217 193.658 365.809 193.833 365.283C194.359 363.531 189.687 359.151 186.066 356.465L155.991 359.034L134.5 402.191Z" fill="black"/>
<path d="M276.001 365.458C328.094 354.537 380.653 308.168 349.293 282.414C321.203 259.405 252.817 298.007 211.178 298.007C178.766 298.007 110.965 252.981 81.648 291.174C52.2731 329.367 173.394 379.708 245.634 379.24C246.685 376.496 247.795 373.692 249.255 369.371C251.123 364.699 253.051 359.969 254.803 355.297C254.803 355.355 254.802 355.413 254.919 355.647C260.876 355.822 266.891 356.231 272.906 356.757C274.133 358.859 275.242 361.02 276.235 363.239C276.469 363.823 276.702 364.407 276.001 365.458Z" fill="#ACD4F7"/>
<path d="M245.342 380.525C216.96 380.525 179.934 372.758 146.355 359.735C111.14 346.07 86.612 329.367 78.9616 313.892C74.8737 305.657 75.5745 297.89 81.0056 290.824C90.0575 279.027 103.431 274.005 121.944 275.406C137.945 276.633 155.874 282.531 171.642 287.729C186.65 292.693 200.841 297.364 211.12 297.364C226.946 297.364 247.094 291.641 266.658 286.093C298.836 276.925 332.123 267.464 349.76 281.947C357.994 288.663 361.089 297.423 358.695 307.117C352.855 331.061 315.012 358.1 276.177 366.276C275.768 366.393 275.359 366.101 275.301 365.692C275.242 365.283 275.476 364.874 275.885 364.816C293.988 361.02 313.202 352.552 328.619 341.631C344.329 330.477 354.49 318.096 357.294 306.767C359.571 297.481 356.71 289.539 348.884 283.115C331.831 269.158 298.952 278.501 267.125 287.553C247.503 293.16 227.238 298.883 211.178 298.883C200.666 298.883 186.358 294.153 171.233 289.189C138.704 278.443 101.854 266.296 82.232 291.758C77.1512 298.357 76.5089 305.599 80.3048 313.249C96.6567 346.42 188.11 378.89 244.816 379.065C252.7 357.341 255.562 350.566 256.379 348.639C249.138 345.077 184.606 313.775 151.085 308.052C150.676 307.993 150.384 307.584 150.443 307.176C150.501 306.767 150.91 306.475 151.319 306.533C186.884 312.607 256.963 347.179 257.664 347.53C257.839 347.646 257.956 347.763 258.073 347.997C258.131 348.172 258.131 348.406 258.014 348.581C257.956 348.756 255.97 352.61 246.043 380C245.926 380.292 245.692 380.525 245.342 380.525Z" fill="black"/>
<path d="M230.041 336.142C229.749 336.142 229.516 335.967 229.399 335.733C229.224 335.383 229.34 334.915 229.749 334.74C253.109 322.827 276.235 313.6 300.412 306.475C300.821 306.358 301.23 306.592 301.347 307C301.464 307.409 301.23 307.818 300.821 307.935C276.702 315.001 253.693 324.228 230.392 336.083C230.275 336.142 230.158 336.142 230.041 336.142Z" fill="black"/>
<g opacity="0.1294">
<path d="M258.014 43.6772C256.262 44.4948 255.503 45.838 253.343 46.9476C253.226 47.006 253.167 47.006 253.109 47.0644C252.992 47.1228 252.875 47.1812 252.759 47.1812C252.116 47.4148 251.415 47.6484 250.773 47.8236C250.131 47.9404 249.488 48.0572 249.021 48.466C248.379 48.466 248.554 48.466 247.327 48.1156C245.459 47.0644 245.634 47.1228 244.466 46.0716C243.765 45.254 242.772 44.7284 241.663 45.0204C241.137 45.1956 240.67 45.4876 240.319 45.8964C240.261 45.8964 240.203 45.8964 240.144 45.9548C240.027 45.9548 239.911 45.9548 239.794 45.9548C237.691 45.546 238.1 45.6044 236.173 44.4948C236.115 44.4364 236.056 44.4364 235.998 44.378C235.472 43.9108 235.005 43.3852 234.538 42.8596C233.545 41.6333 233.078 39.6477 231.559 39.1805C229.924 38.6549 228.406 40.2901 228.698 41.8669C228.406 42.2757 228.231 42.4509 227.53 43.21C226.888 43.8524 226.245 44.5532 225.486 45.1372C224.61 45.838 223.617 46.3636 222.566 46.8308C222.508 46.8308 222.508 46.8308 222.449 46.8892C222.508 46.8892 222.508 46.8892 222.391 46.9476C221.048 47.4732 219.704 47.882 218.244 48.1156C217.544 48.2324 216.668 48.3492 214.916 48.2908C213.806 48.0572 212.696 47.7068 211.587 47.298C211.528 47.298 211.528 47.2396 211.47 47.2396C209.309 45.8964 210.419 46.5388 208.842 45.4292C208.725 45.3708 208.667 45.254 208.55 45.1956C208.492 45.1372 208.433 45.0788 208.317 44.962C208.141 44.67 208.025 44.378 207.733 44.1444C207.674 44.086 207.674 44.086 207.616 44.0276C206.798 43.1516 205.455 43.21 204.637 43.9692C204.462 44.086 204.404 44.2028 204.345 44.2612C204.287 44.3196 204.229 44.378 204.112 44.4364C204.053 44.4948 203.761 44.67 203.528 44.8452L203.469 44.9036C203.177 45.1372 202.827 45.254 202.477 45.4292C202.418 45.4292 202.36 45.4876 202.36 45.4876C201.951 45.6044 200.725 46.0716 200.316 46.0716C200.141 46.13 199.907 46.13 199.732 46.1884C199.673 46.1884 199.557 46.1884 199.381 46.1884C199.206 46.1884 199.031 46.1884 198.856 46.1884C198.797 46.1884 198.739 46.1884 198.681 46.13C197.805 45.8964 196.812 45.7212 195.994 46.2468C195.936 46.3052 195.877 46.3052 195.819 46.3636C194.943 45.7796 194.359 45.0788 193.133 43.6188C191.264 41.5165 191.089 40.9909 189.629 39.3557C187.935 37.9541 185.599 40.1149 186.709 41.9253C189.045 45.0204 191.205 48.6412 194.943 50.1596C195.118 50.218 195.293 50.2764 195.469 50.3932C195.761 50.7436 196.169 50.9772 196.637 51.094C198.973 51.5612 201.309 51.2108 203.469 50.1596C203.528 50.1012 203.645 50.1012 203.703 50.0428C203.528 50.1012 203.294 50.218 203.119 50.2764C203.878 49.9844 204.637 49.5756 205.338 49.1084C205.455 49.2836 205.63 49.4588 205.747 49.5756C207.324 50.8604 206.331 50.2764 208.433 51.4444C214.04 53.8971 220.814 53.3716 225.953 49.9844C227.997 48.5828 229.34 47.006 230.508 45.3708C231.618 47.0644 232.961 48.5828 234.888 49.4004C235.939 49.8676 237.049 50.218 238.159 50.3348C238.042 50.3348 237.925 50.2764 237.867 50.2764C237.983 50.2764 238.042 50.2764 238.159 50.3348C238.217 50.3348 238.275 50.3348 238.334 50.3348C238.451 50.3348 238.509 50.3348 238.334 50.3348C238.392 50.3348 238.451 50.3348 238.567 50.3348C239.619 50.4516 240.728 50.3932 241.779 50.0428C242.013 50.2764 242.305 50.51 242.597 50.7436C244.232 52.1452 246.276 52.9628 248.437 52.9628C249.722 52.9628 250.948 52.4956 252.116 51.97C252.291 51.9116 252.408 51.7948 252.525 51.678C253.634 51.386 254.686 50.9772 255.678 50.4516C257.255 49.5172 258.657 48.2908 259.942 46.9476C261.226 45.4876 259.883 43.1516 258.014 43.6772Z" fill="black"/>
</g>
<g opacity="0.1294">
<path d="M232.611 42.1005C232.494 42.2173 232.435 42.3341 232.319 42.4509C232.494 42.3341 232.552 42.2173 232.611 42.1005Z" fill="black"/>
</g>
<g opacity="0.1294">
<path d="M235.005 105.931C234.187 105.873 233.603 106.457 232.903 106.866C231.852 107.45 230.333 107.975 227.939 108.501C226.596 108.793 223.384 108.968 220.405 108.734C219.237 108.559 218.069 108.267 216.96 107.917C215.149 107.333 215.85 107.566 214.74 107.041C213.28 106.282 211.82 105.698 210.419 104.822C209.485 104.354 208.725 103.303 207.557 103.186C205.221 102.719 203.703 105.873 205.397 107.508C208.55 110.136 212.346 112.005 216.376 112.997C220.522 114.049 224.902 113.873 228.99 112.881C231.209 112.238 233.428 111.596 235.414 110.428C236.173 110.019 236.932 109.552 237.166 108.676C237.516 107.391 236.407 105.931 235.005 105.931Z" fill="black"/>
</g>
<g opacity="0.1294">
<path d="M273.899 280.837C273.257 280.253 272.322 280.02 271.505 280.312H271.563C271.33 280.37 271.096 280.429 270.804 280.487C267.767 280.604 262.453 282.239 258.014 283.115C248.846 285.685 239.735 288.605 230.567 291.233C225.953 292.284 223.676 292.693 219.646 292.868C215.149 292.985 210.653 292.401 206.156 291.875C205.572 291.875 201.192 290.941 197.513 289.889C194.125 288.955 190.797 287.67 187.293 286.969C185.541 286.619 183.847 286.035 182.095 285.626C179 285.042 175.905 284.633 172.926 283.699C171.174 283.115 169.422 282.414 167.671 281.772C166.853 281.538 166.035 280.954 165.159 281.188C162.648 281.421 162.356 285.159 164.867 285.801C168.021 286.969 171.058 288.371 174.386 289.072C176.372 289.539 178.358 289.831 180.402 290.181C180.46 290.882 180.869 291.525 181.745 291.758C186.475 293.744 191.439 295.029 196.345 296.547C201.893 297.89 210.419 298.941 214.273 297.832C214.682 297.715 214.974 297.423 215.149 297.073H215.208C222.741 297.248 230.333 296.255 237.575 294.153C243.006 292.693 248.262 290.707 253.693 289.305C256.438 288.488 259.124 287.437 262.044 287.028C265.198 286.385 268.293 285.334 271.446 284.692C271.622 284.692 271.797 284.692 271.972 284.692C272.089 284.692 272.206 284.692 272.381 284.692C274.25 284.75 275.359 282.181 273.899 280.837Z" fill="black"/>
</g>
<g opacity="0.1294">
<path d="M253.051 357.633C251.941 361.078 250.598 364.465 249.722 367.969C249.371 369.137 248.963 370.247 248.554 371.357C248.379 371.824 248.145 372.291 248.262 372.817C248.495 375.094 251.824 375.269 252.35 373.109C253.693 369.721 255.737 361.954 256.438 360.553C256.554 360.319 256.671 360.086 256.788 359.852C259.299 356.99 254.394 354.012 253.051 357.633Z" fill="black"/>
</g>
<g opacity="0.1294">
<path d="M179.642 369.546C177.306 369.722 175.496 369.196 172.401 368.32C167.962 367.386 160.487 364.758 159.261 363.998C158.093 363.531 156.925 362.947 155.815 362.363C155.173 362.013 154.472 361.604 153.713 361.838C152.019 362.246 151.727 364.699 153.246 365.517C157.626 368.028 162.531 369.138 167.32 370.598C170.24 371.59 175.963 373.109 177.365 373.109C178.474 373.284 179.642 374.043 180.752 373.401C182.504 372.408 181.745 369.488 179.642 369.546Z" fill="black"/>
</g>
<g opacity="0.1294">
<path d="M182.854 316.987C182.854 316.987 208.784 326.447 231.618 325.571C254.452 324.695 266.716 319.556 266.716 319.556L231.443 336.083L182.854 316.987Z" fill="black"/>
</g>
<g opacity="0.1294">
<path d="M51.2219 268.165C53.0907 273.654 54.0835 279.436 54.1419 285.276C54.1419 286.969 54.0835 288.721 53.2659 290.24C54.7843 289.773 56.1859 289.13 57.529 288.313C57.7042 288.196 57.8794 288.079 57.9962 287.904C58.113 287.67 58.113 287.378 58.0546 287.086C57.7626 284.692 57.529 282.239 57.237 279.845C57.1202 278.969 57.0618 278.151 56.8282 277.334C56.653 276.633 56.361 275.99 56.0691 275.406C54.8427 272.778 53.3243 270.326 51.2219 268.165Z" fill="black"/>
</g>
<g opacity="0.1294">
<path d="M388.012 268.398C386.143 275.581 384.274 283.057 385.851 290.298C384.858 290.123 383.924 289.889 382.931 289.714C382.464 289.597 381.938 289.481 381.588 289.13C381.179 288.78 381.121 288.196 381.004 287.67C380.069 280.429 382.756 272.837 388.012 268.398Z" fill="black"/>
</g>
</svg>
