<svg width="71" height="44" viewBox="0 0 71 44" fill="none" xmlns="http://www.w3.org/2000/svg">
<path d="M59.3998 42.8399C54.6856 35.7007 51.9483 30.5362 50.4276 21.7262C33.2433 31.7514 17.1235 30.0805 0.699588 29.4729C0.395441 26.7388 1.00377 23.8527 2.06828 21.1186C4.95768 14.587 8.45529 9.11867 18.34 4.71364C25.3354 1.67569 34.6119 -0.450865 42.0635 0.612417C49.5151 1.6757 55.9022 5.77693 61.2247 10.4858C65.3307 14.2832 68.8284 20.6629 70.1971 26.8907C71.2616 32.2071 69.8929 36.1564 67.6118 41.6247C66.2432 40.8652 65.0266 40.1058 63.5058 40.4095C61.681 40.8652 60.6164 41.6247 59.3998 42.8399Z" fill="#ACD4F7"/>
<path d="M59.3998 43.4475C59.2477 43.4475 59.2477 43.4475 59.3998 43.4475C59.0957 43.4475 58.9436 43.2956 58.9436 43.1437C54.8376 36.6121 51.6442 31.2957 49.9713 22.6375C34.4599 31.5995 19.4046 30.84 4.80557 30.2324C3.43691 30.2324 2.06823 30.0805 0.69957 30.0805C0.395424 30.0805 0.243313 29.9286 0.0912401 29.6248C-0.212906 26.8907 0.24335 24.0046 1.45994 21.1186C4.04518 15.1946 7.39083 9.11867 18.036 4.40985C24.271 1.67569 33.8516 -0.90656 42.0635 0.308619C48.7547 1.22 55.2939 4.71363 61.5289 10.3338C65.939 14.4351 69.4367 20.8148 70.6533 27.0426C71.7178 32.8147 70.1971 37.0678 67.916 42.0804C67.916 42.2323 67.7639 42.3842 67.6118 42.3842C67.4597 42.3842 67.3077 42.3842 67.1556 42.3842L67.0035 42.2323C65.7869 41.6247 64.7224 41.0171 63.3538 41.169C61.833 41.4728 60.9206 42.2323 59.704 43.2956C59.5519 43.2956 59.5519 43.4475 59.3998 43.4475ZM50.2754 21.2705C50.4275 21.2705 50.4275 21.2705 50.5796 21.2705C50.7317 21.4223 50.8838 21.5743 50.8838 21.7261C52.4045 30.3843 55.4459 35.7007 59.3998 42.0804C60.4643 41.169 61.5289 40.4095 63.0496 40.1058C64.5703 39.802 65.7869 40.4095 67.0035 41.0171C69.4367 35.5488 70.3491 32.0552 69.2846 27.1945C68.068 21.2705 64.7225 14.8908 60.6165 11.0933C54.5335 5.47312 48.2985 2.28328 41.7594 1.3719C33.6995 0.156717 24.423 2.73896 18.34 5.32122C8.15112 9.87814 4.80551 15.8022 2.37234 21.4224C1.30783 24.0046 0.699589 26.5869 1.00374 28.8653C2.22032 28.8653 3.43685 29.0172 4.65344 29.0172C19.2525 29.6248 34.4599 30.3843 49.9713 21.1186C50.1234 21.2705 50.2754 21.2705 50.2754 21.2705Z" fill="black"/>
</svg>
