<svg width="16" height="31" viewBox="0 0 16 31" fill="none" xmlns="http://www.w3.org/2000/svg">
<path d="M7.12559 24.2851C6.82002 24.2851 6.51451 24.1324 6.51451 23.8272C6.20894 20.4698 6.0561 16.8073 8.65344 14.3655C9.11179 13.9077 9.72293 13.6025 10.1813 13.1447C10.4869 12.8394 10.9452 12.6868 11.2508 12.3816C13.6954 10.3977 14.6121 7.19297 13.3898 4.59864C12.1675 2.0043 8.65344 0.325579 5.59774 1.08862C4.0699 1.39384 2.54205 2.46208 1.77812 3.98817C1.16698 5.20903 0.861433 6.42992 1.31979 7.49818C1.47257 7.8034 1.31977 8.10861 1.0142 8.26122C0.708629 8.41383 0.40306 8.2612 0.250275 7.95599C-0.208079 6.58251 -0.0552574 4.90383 0.861452 3.53036C1.77816 1.85167 3.45879 0.630786 5.445 0.172962C8.95905 -0.590079 13.0842 1.24124 14.6121 4.2934C15.9871 7.34556 15.0705 11.1608 12.1676 13.4499C11.862 13.7551 11.4036 14.0603 11.0981 14.2129C10.6397 14.5181 10.0285 14.976 9.72295 15.2812C7.43118 17.4177 7.584 20.7751 8.04236 23.8272C7.73679 23.9798 7.58395 24.2851 7.12559 24.2851Z" fill="black"/>
<path d="M7.43119 30.9999C7.12562 30.9999 6.82011 30.6947 6.82011 30.3895L6.66727 28.253C6.66727 27.9477 6.82003 27.6425 7.1256 27.6425C7.43117 27.6425 7.73678 27.7951 7.73678 28.1003L7.88953 30.2368C8.04231 30.8473 7.73676 30.9999 7.43119 30.9999Z" fill="black"/>
</svg>
