<svg width="321" height="271" viewBox="0 0 321 271" fill="none" xmlns="http://www.w3.org/2000/svg">
<path d="M320.107 1.15468C321 89.5861 320.107 179.186 320.107 269.371C77.8169 269.371 74.4245 270.15 1.75519 268.981C0.505353 179.381 -0.0302712 77.12 2.11231 1.93383C78.3525 2.12861 219.406 -0.208802 320.107 1.15468Z" fill="white"/>
<path d="M82.102 270.539C51.5702 270.539 33.1797 270.344 1.75517 269.955C1.39808 269.955 1.04099 269.565 1.04099 269.176C0.148248 206.845 -0.923076 89.0017 1.39805 2.12856C1.39805 1.739 1.7552 1.34944 2.11229 1.34944C28.716 1.34944 63.7115 1.15465 100.671 0.765087C172.626 0.180739 254.223 -0.403603 319.929 0.375528C320.286 0.375528 320.643 0.765081 320.643 1.15465C321.178 59.979 321 120.557 320.821 179.186C320.643 208.793 320.643 239.374 320.643 269.371C320.643 269.76 320.286 270.15 319.929 270.15C230.654 270.15 174.769 270.15 133.881 270.344C112.634 270.344 96.2074 270.539 82.102 270.539ZM2.46936 268.202C47.8207 268.786 66.2112 268.786 134.06 268.786C174.769 268.786 230.476 268.591 319.393 268.591C319.393 238.79 319.572 208.404 319.572 179.186C319.75 120.751 319.929 60.5634 319.393 1.9338C253.866 1.15466 172.626 1.73901 100.85 2.32336C64.0686 2.51814 29.4302 2.90771 2.82648 2.90771C0.505345 89.3913 1.57661 205.871 2.46936 268.202Z" fill="black"/>
<path d="M320.286 32.9043C245.474 30.7617 99.4212 30.7617 12.2895 30.7617H1.75518C1.39808 30.7617 1.04099 30.3721 1.04099 29.9825C1.04099 29.593 1.39808 29.2034 1.75518 29.2034H12.2895C99.5998 29.2034 245.653 29.2034 320.286 31.346C320.643 31.346 321 31.7356 321 32.1251C321 32.5147 320.822 32.9043 320.286 32.9043Z" fill="black"/>
<path d="M302.609 24.9182C298.324 24.9182 294.753 21.0225 294.753 16.3477C294.753 11.6729 298.324 7.77729 302.609 7.77729C306.895 7.77729 310.466 11.6729 310.466 16.3477C310.287 21.2173 306.895 24.9182 302.609 24.9182ZM302.609 9.53033C299.217 9.53033 296.36 12.6469 296.36 16.3477C296.36 20.0486 299.217 23.1651 302.609 23.1651C306.002 23.1651 308.859 20.0486 308.859 16.3477C308.859 12.6469 306.002 9.53033 302.609 9.53033Z" fill="black"/>
<path d="M271.899 24.9182C267.614 24.9182 264.043 21.0225 264.043 16.3477C264.043 11.6729 267.614 7.77729 271.899 7.77729C276.184 7.77729 279.755 11.6729 279.755 16.3477C279.577 21.2173 276.184 24.9182 271.899 24.9182ZM271.899 9.53033C268.507 9.53033 265.65 12.6469 265.65 16.3477C265.65 20.0486 268.507 23.1651 271.899 23.1651C275.292 23.1651 278.148 20.0486 278.148 16.3477C278.148 12.6469 275.292 9.53033 271.899 9.53033Z" fill="black"/>
<path d="M239.582 24.9182C235.297 24.9182 231.726 21.0225 231.726 16.3477C231.726 11.6729 235.297 7.77729 239.582 7.77729C243.867 7.77729 247.438 11.6729 247.438 16.3477C247.259 21.2173 243.867 24.9182 239.582 24.9182ZM239.582 9.53033C236.189 9.53033 233.333 12.6469 233.333 16.3477C233.333 20.0486 236.189 23.1651 239.582 23.1651C242.974 23.1651 245.831 20.0486 245.831 16.3477C245.831 12.6469 242.974 9.53033 239.582 9.53033Z" fill="black"/>
<path d="M35.8579 137.113C35.6794 137.113 35.6794 137.113 35.5008 136.918C35.1437 136.723 34.9652 136.139 35.1438 135.75C46.7494 113.739 57.6408 92.313 68.3538 70.1078C68.5323 69.913 68.7109 69.7182 69.068 69.7182C69.4251 69.7182 69.6036 69.913 69.7822 70.1078C76.2099 82.1843 82.8162 94.6504 89.7796 107.506C102.099 91.9234 114.419 76.5356 127.275 60.3686L130.31 56.6678C130.489 56.473 130.667 56.2782 131.024 56.473C131.203 56.473 131.56 56.6678 131.56 56.8625C137.452 71.2765 143.344 86.2748 149.772 101.857L172.448 79.0678C172.983 78.6782 173.519 78.0939 174.412 77.8991C176.197 77.5095 177.447 79.6521 177.804 80.4313C182.446 88.8069 186.91 97.1826 191.195 105.558C193.695 110.428 196.195 114.908 198.516 119.388C207.086 102.052 216.371 84.9113 225.834 68.16C226.012 67.7704 226.548 67.5756 226.905 67.9652C227.262 68.1599 227.441 68.7443 227.083 69.1339C217.442 86.2748 207.979 103.805 199.23 121.53C199.051 121.725 198.873 121.92 198.516 121.92C198.337 121.92 197.98 121.725 197.801 121.53C195.123 116.661 192.624 111.596 189.767 106.337C185.482 98.1565 181.018 89.5861 176.376 81.4052C175.661 80.0417 174.947 79.6521 174.412 79.6521C174.055 79.6521 173.697 80.0417 173.34 80.4313L149.95 104C149.772 104.195 149.593 104.195 149.236 104.195C149.058 104.195 148.879 104 148.701 103.805C142.273 88.2226 136.202 73.4191 130.489 59.0052L128.168 61.7321C114.955 78.2887 102.457 93.8713 89.9581 109.649C89.7796 109.843 89.6011 110.038 89.4225 109.843C89.244 109.843 88.8868 109.649 88.8868 109.454C82.102 96.5982 75.4957 84.3269 69.068 72.2504C58.5336 94.066 47.8207 115.297 36.5721 136.723C36.3936 136.918 36.215 137.113 35.8579 137.113Z" fill="black"/>
<path d="M72.639 150.748C72.4605 150.748 72.1033 150.553 72.1033 150.358L70.3178 147.242C70.1393 146.852 70.1393 146.463 70.4964 146.073C70.8535 145.878 71.2106 145.878 71.5677 146.268L72.639 148.021C72.8175 147.631 72.9961 147.242 72.9961 146.852C73.1746 146.463 73.5317 146.268 73.8888 146.463C74.2459 146.657 74.4245 147.047 74.2459 147.437C73.8888 148.216 73.5317 149.19 73.1746 149.969C73.1746 150.553 72.9961 150.748 72.639 150.748ZM94.779 149.384C94.6005 149.384 94.6005 149.384 94.779 149.384C94.4219 149.384 94.2434 149.19 94.0648 148.995C93.7077 148.41 93.3506 147.631 92.9935 147.047C92.815 146.657 92.815 146.268 93.1721 145.878C93.5292 145.684 93.8862 145.684 94.2433 146.073C94.4219 146.463 94.6005 146.852 94.779 147.047C95.4932 146.268 96.0289 145.489 96.7431 144.904C97.1002 144.515 97.4572 144.515 97.8143 144.904C98.1714 145.294 98.1714 145.684 97.8143 146.073C96.9216 147.047 96.0288 148.021 95.1361 148.995C95.1361 149.19 94.9576 149.384 94.779 149.384ZM186.731 145.294C186.553 145.294 186.196 145.099 186.017 144.904L183.339 139.45C183.161 139.061 183.339 138.671 183.696 138.282C184.053 138.087 184.41 138.282 184.767 138.671L187.446 144.125C187.624 144.515 187.446 144.904 187.089 145.294C187.089 145.294 186.91 145.294 186.731 145.294ZM76.0314 142.372C75.8529 142.372 75.8528 142.372 75.6743 142.372C75.3172 142.177 75.1387 141.788 75.3172 141.398C76.21 139.45 76.9242 137.503 77.8169 135.555C77.9954 135.165 78.3525 134.97 78.7096 135.165C79.0667 135.36 79.2453 135.75 79.0667 136.139C78.174 138.087 77.4598 140.035 76.567 141.983C76.567 142.177 76.3885 142.372 76.0314 142.372ZM67.8182 142.177C67.6396 142.177 67.2825 141.983 67.2825 141.788C66.2113 140.035 65.1399 138.087 64.2472 136.334C64.0686 135.944 64.0687 135.555 64.4258 135.165C64.7829 134.97 65.14 134.97 65.4971 135.36C66.5683 137.113 67.6396 138.866 68.5324 140.814C68.7109 141.204 68.7109 141.593 68.3538 141.983C67.9967 142.177 67.9967 142.177 67.8182 142.177ZM90.4939 141.983C90.3153 141.983 89.9582 141.788 89.9582 141.593C88.8869 139.645 87.8156 137.892 86.7443 136.334C86.5658 135.944 86.5658 135.555 86.9229 135.165C87.28 134.97 87.637 134.97 87.9941 135.36C89.0654 137.113 90.1367 138.866 91.208 140.814C91.3866 141.204 91.3866 141.593 91.0295 141.983C90.8509 141.983 90.6724 141.983 90.4939 141.983ZM101.207 141.593C101.028 141.593 100.85 141.593 100.671 141.398C100.314 141.009 100.314 140.619 100.671 140.23C101.921 138.671 103.349 137.113 104.599 135.555C104.956 135.165 105.313 135.165 105.67 135.555C106.028 135.944 106.028 136.334 105.67 136.724C104.421 138.282 102.992 139.84 101.742 141.398C101.742 141.593 101.564 141.593 101.207 141.593ZM181.197 134.386C181.018 134.386 180.661 134.191 180.482 133.997L177.626 128.348C177.447 127.958 177.626 127.569 177.983 127.179C178.34 126.984 178.697 127.179 179.054 127.569L181.911 133.217C182.089 133.607 181.911 133.997 181.554 134.386C181.375 134.191 181.375 134.386 181.197 134.386ZM109.241 132.243C109.063 132.243 108.884 132.244 108.706 132.049C108.349 131.659 108.349 131.27 108.706 130.88C109.956 129.322 111.384 127.764 112.634 126.205C112.991 125.816 113.348 125.816 113.705 126.205C114.062 126.595 114.062 126.984 113.705 127.374C112.455 128.932 111.027 130.49 109.777 132.049C109.599 132.244 109.42 132.243 109.241 132.243ZM61.569 131.464C61.3904 131.464 61.0333 131.27 61.0333 131.075C59.9621 129.322 58.8907 127.569 57.8194 125.621C57.6409 125.231 57.6409 124.842 57.998 124.452C58.3551 124.257 58.7122 124.257 59.0693 124.647C60.1406 126.4 61.2119 128.153 62.2832 130.101C62.4617 130.49 62.4617 130.88 62.1046 131.27C61.7475 131.464 61.7475 131.464 61.569 131.464ZM84.0661 131.27C83.8875 131.27 83.5304 131.075 83.5304 130.88C83.1733 130.296 82.8163 129.711 82.4592 129.127C82.2806 129.517 82.102 130.101 81.7449 130.49C81.5664 130.88 81.0308 131.075 80.6737 130.88C80.3166 130.685 80.138 130.101 80.3166 129.711C80.6737 128.932 81.2093 127.958 81.5664 127.179C81.745 126.984 81.9235 126.79 82.1021 126.79C82.2806 126.79 82.6377 126.984 82.8162 127.179C83.3519 128.153 83.8875 129.127 84.6017 130.101C84.7803 130.49 84.7803 130.88 84.4232 131.27C84.4232 131.27 84.2446 131.27 84.0661 131.27ZM175.662 123.089C175.483 123.089 175.126 122.894 174.947 122.699L172.091 117.05C171.912 116.661 172.09 116.271 172.448 115.882C172.805 115.687 173.162 115.882 173.519 116.271L176.376 121.92C176.554 122.31 176.376 122.699 176.019 123.089C175.84 123.089 175.662 123.089 175.662 123.089ZM117.098 122.894C116.919 122.894 116.74 122.894 116.562 122.699C116.205 122.31 116.205 121.92 116.562 121.53C117.812 119.972 119.24 118.414 120.49 116.856C120.847 116.466 121.204 116.466 121.561 116.856C121.918 117.245 121.918 117.635 121.561 118.024C120.311 119.583 118.883 121.141 117.633 122.699C117.633 122.894 117.276 122.894 117.098 122.894ZM55.3198 120.557C55.1412 120.557 54.7841 120.362 54.7841 120.167L51.5702 114.713C51.3917 114.323 51.3917 113.934 51.7488 113.544C52.1059 113.35 52.463 113.35 52.8201 113.739L56.034 119.193C56.2125 119.583 56.2125 119.972 55.8554 120.362C55.4983 120.557 55.4983 120.557 55.3198 120.557ZM125.132 113.544C124.954 113.544 124.775 113.544 124.597 113.35C124.239 112.96 124.239 112.57 124.597 112.181L128.525 107.506C128.882 107.117 129.239 107.117 129.596 107.506C129.953 107.896 129.953 108.285 129.596 108.675L125.668 113.35C125.489 113.35 125.311 113.544 125.132 113.544ZM169.948 111.986C169.769 111.986 169.412 111.791 169.234 111.597L166.377 105.948C166.198 105.558 166.377 105.169 166.734 104.779C167.091 104.584 167.448 104.779 167.805 105.169L170.662 110.817C170.841 111.207 170.662 111.597 170.305 111.986C170.127 111.986 170.127 111.986 169.948 111.986ZM48.892 109.843C48.7135 109.843 48.3564 109.649 48.3564 109.454L45.1425 104C44.9639 103.61 44.9639 103.221 45.321 102.831C45.6781 102.637 46.0352 102.637 46.3923 103.026L49.6062 108.48C49.7847 108.87 49.7848 109.259 49.4277 109.649C49.2491 109.843 49.0706 109.843 48.892 109.843ZM132.988 104C132.81 104 132.631 104 132.453 103.805C132.096 103.416 132.096 103.026 132.453 102.637L136.381 97.9617C136.738 97.5722 137.095 97.5722 137.452 97.9617C137.809 98.3513 137.809 98.7409 137.452 99.1304L133.524 103.805C133.345 104 133.167 104 132.988 104ZM164.234 100.689C164.056 100.689 163.699 100.494 163.52 100.299L160.663 94.6504C160.485 94.2608 160.663 93.8713 161.021 93.4817C161.378 93.287 161.735 93.4817 162.092 93.8713L164.949 99.52C165.127 99.9095 164.949 100.299 164.592 100.689C164.592 100.689 164.413 100.689 164.234 100.689ZM140.845 94.6504C140.666 94.6504 140.487 94.6504 140.309 94.4556C139.952 94.0661 139.952 93.6765 140.309 93.2869C141.559 91.7287 142.987 90.1704 144.237 88.6122C144.594 88.2226 144.951 88.2226 145.308 88.6122C145.665 89.0017 145.665 89.3913 145.308 89.7808C144.058 91.3391 142.63 92.8974 141.38 94.4556C141.202 94.4556 141.023 94.6504 140.845 94.6504ZM158.699 89.5861C158.521 89.5861 158.164 89.3913 157.985 89.1965L155.128 83.5478C154.95 83.1582 155.128 82.7687 155.485 82.3791C155.843 82.1843 156.2 82.3791 156.557 82.7687L159.414 88.4174C159.592 88.8069 159.414 89.1965 159.056 89.5861C158.878 89.5861 158.699 89.5861 158.699 89.5861ZM148.701 85.3009C148.522 85.3009 148.344 85.3009 148.165 85.1061C147.808 84.7165 147.808 84.3269 148.165 83.9374C149.415 82.3791 150.843 80.8208 152.093 79.2626C152.45 78.873 152.807 78.873 153.164 79.2626C153.521 79.6522 153.521 80.0417 153.164 80.4313C151.915 81.9896 150.486 83.5478 149.236 85.1061C149.236 85.1061 148.879 85.3009 148.701 85.3009Z" fill="black"/>
<path d="M245.474 172.563L183.518 171.005C183.16 171.005 182.803 170.616 182.803 170.226C182.803 169.837 183.16 169.447 183.518 169.447L245.474 171.005C245.831 171.005 246.188 171.395 246.188 171.784C246.188 172.174 246.01 172.563 245.474 172.563Z" fill="black"/>
<path d="M173.697 194.769C173.34 194.769 172.983 194.379 172.983 193.99C172.983 193.6 173.34 193.211 173.697 193.211L217.263 193.016C217.62 193.016 217.977 193.405 217.977 193.795C217.977 194.184 217.62 194.574 217.263 194.574L173.697 194.769Z" fill="black"/>
<path d="M231.904 219.701C215.835 219.701 199.587 219.311 183.518 218.532C183.16 218.532 182.803 218.143 182.803 217.753C182.803 217.364 183.16 216.974 183.518 216.974C203.694 217.948 224.048 218.337 244.224 217.948C244.581 217.948 244.938 218.337 244.938 218.727C244.938 219.117 244.581 219.506 244.224 219.506C240.117 219.506 236.011 219.701 231.904 219.701Z" fill="black"/>
</svg>
