<svg width="17" height="25" viewBox="0 0 17 25" fill="none" xmlns="http://www.w3.org/2000/svg">
<path d="M16.1572 17.2313C15.9762 17.2313 15.9761 17.2312 15.7951 17.0338C11.0891 13.8745 5.84011 11.505 0.591122 9.92537C0.229123 9.72791 -0.132854 9.333 0.0481454 8.93808C0.229145 8.54317 0.591144 8.14825 0.953144 8.34571C6.56413 9.92536 11.8131 12.2948 16.7001 15.6516C17.0621 15.8491 17.0621 16.4414 16.8811 16.8364C16.5191 17.0338 16.3382 17.2313 16.1572 17.2313Z" fill="black"/>
<path d="M6.20227 24.3397C5.65928 24.3397 5.47823 23.9448 5.47823 23.3524C6.56423 15.6516 7.83129 8.14822 9.27929 0.644869C9.27929 0.249955 9.82229 -0.144934 10.1843 0.0525229C10.5463 0.0525229 10.9083 0.644893 10.7273 1.03981C9.27927 8.54316 8.0122 16.244 6.92621 23.7473C6.92621 23.9448 6.56427 24.3397 6.20227 24.3397Z" fill="black"/>
</svg>
