<svg width="70" height="84" viewBox="0 0 70 84" fill="none" xmlns="http://www.w3.org/2000/svg">
<path d="M65.0961 47.1873C69.0233 38.5876 69.6275 28.4793 66.1534 19.7287C62.6794 10.9782 54.674 3.73635 45.1581 1.47328C41.2309 0.568053 37.0015 0.417181 32.9233 0.718924C29.1471 1.02067 25.371 1.47326 21.7459 2.68023C13.2874 5.54679 6.18815 12.0343 2.71409 20.0304C-0.608926 28.0266 -0.306833 37.3807 3.46932 44.4716C4.37559 45.6786 5.43295 46.8856 6.33923 47.9417C9.66224 44.019 7.09446 38.2859 6.33923 33.3072C4.97981 25.311 8.90698 16.8621 15.553 11.7325C22.048 6.60289 30.8087 4.33986 39.2672 4.79247C53.9187 5.6977 61.3199 19.2761 63.1325 26.5179C64.4919 31.9493 62.8304 37.6824 61.471 43.2647C61.1689 44.1699 61.0178 45.226 61.3199 46.1312C61.9241 47.1873 62.9814 47.9417 65.0961 47.1873Z" fill="white"/>
<path d="M6.49027 48.5454C6.33922 48.5454 6.1882 48.3945 6.03715 48.3945L3.16724 44.9244C3.16724 44.9244 3.16724 44.9244 3.16724 44.7736C-0.759957 37.5317 -1.06205 27.876 2.41201 19.8798C5.88607 11.7327 13.1364 5.09438 21.746 2.22782C25.069 1.17172 28.6941 0.417372 33.0744 0.115629C37.9079 -0.186114 41.9861 0.115629 45.4601 0.869986C54.825 3.13306 63.1326 10.224 66.7577 19.4272C70.2317 28.0268 69.9296 38.2861 65.7003 47.3384C65.7003 47.4892 65.5493 47.6401 65.3982 47.6401C62.8304 48.5453 61.4711 47.4892 61.0179 46.4331C60.5648 45.377 60.8669 44.321 61.169 43.114L61.4711 41.907C62.6794 36.7774 64.0388 31.6478 62.8304 26.669C61.0179 19.7289 53.9187 6.15048 39.4183 5.39613C30.6576 4.94351 22.199 7.35746 16.0062 12.1853C9.36013 17.4658 5.88612 25.7638 7.09449 33.1565C7.24554 34.2126 7.54763 35.4195 7.84972 36.4756C8.756 40.7 9.81326 44.9244 6.94339 48.2436C6.79234 48.5453 6.64132 48.5454 6.49027 48.5454ZM4.07357 44.1701L6.49027 47.0366C8.45387 44.321 7.54765 40.5492 6.64137 36.9282C6.33928 35.8721 6.03719 34.6652 5.88614 33.4582C4.52673 25.6129 8.3028 16.8624 15.2509 11.431C21.5949 6.45223 30.3555 3.8874 39.4183 4.34001C54.5229 5.24524 62.0752 19.2763 63.8878 26.5181C65.2472 31.7986 63.8878 37.0791 62.5284 42.3596L62.2263 43.5666C61.9242 44.4718 61.7731 45.3771 62.0752 46.1314C62.3773 46.7349 63.1326 47.3384 64.7941 46.7349C68.7213 37.9843 69.0233 28.1777 65.7003 20.0306C62.0752 11.1292 54.2209 4.34001 45.1581 2.07694C41.684 1.32258 37.7569 1.02084 33.0744 1.32258C28.8451 1.62432 25.22 2.22784 22.048 3.28394C13.7405 5.99962 6.79236 12.3362 3.46935 20.1815C0.146337 28.0268 0.448466 37.23 4.07357 44.1701Z" fill="black"/>
<path d="M5.73502 38.437C8.45385 36.1739 12.6832 36.4756 15.0999 38.8896C17.3656 41.3035 17.8187 44.9244 18.876 48.0927C19.6313 50.5067 20.5376 52.7697 21.897 54.8819C22.9543 56.6924 24.3137 58.2011 25.0689 60.1624C25.9752 61.9729 26.2773 64.236 25.6731 66.1973C24.7668 68.6112 22.048 70.1199 19.4803 69.8182C16.9125 69.6673 14.6467 68.0077 12.9852 66.0464C11.3237 64.0851 10.1154 61.6711 9.05805 59.2572C6.03713 52.7697 3.46933 45.2262 5.73502 38.437Z" fill="white"/>
<path d="M19.7823 70.4216C19.6313 70.4216 19.4802 70.4216 19.3292 70.4216C16.9125 70.2707 14.3447 68.762 12.3811 66.4989C10.7196 64.3867 9.51118 61.9728 8.45386 59.5588C5.58399 52.9205 2.8652 45.3769 5.28193 38.286C5.28193 38.1351 5.43294 38.1351 5.43294 37.9842C8.30282 35.5703 12.8342 35.872 15.553 38.5877C17.5166 40.5491 18.1208 43.2647 18.8761 45.9804C19.0271 46.5839 19.1782 47.3382 19.4803 48.0926C20.2355 50.3557 21.1417 52.6187 22.3501 54.7309C22.6522 55.3344 23.1054 55.7871 23.4075 56.3905C24.1627 57.5975 24.918 58.6536 25.5221 60.0114C26.5795 62.2745 26.7304 64.5376 26.1263 66.4989C25.22 68.762 22.6522 70.4216 19.7823 70.4216ZM6.18817 38.8894C4.07353 45.5278 6.64136 52.7696 9.36019 59.1062C10.4175 61.5202 11.4748 63.9341 13.1363 65.7446C14.9489 67.8568 17.0635 69.0637 19.3292 69.3655C21.7459 69.5164 24.1627 68.1585 24.9179 66.0463C25.6731 63.9341 24.9179 61.6711 24.3137 60.4641C23.7095 59.2571 22.9543 58.0501 22.1991 56.994C21.897 56.3905 21.4439 55.9379 21.1418 55.3345C19.7823 53.2223 18.725 50.9592 18.1208 48.3944C17.9698 47.64 17.6677 47.0365 17.5166 46.2822C16.9124 43.7174 16.1572 41.1525 14.4957 39.3421C12.5321 37.2299 8.60491 36.9281 6.18817 38.8894Z" fill="black"/>
<path d="M4.37571 42.2087C2.56316 42.6613 1.35472 44.0191 0.90158 45.6787C0.448442 47.3383 0.750553 48.847 1.20369 50.3557C2.10997 54.2784 3.31835 58.0502 5.28195 61.822C6.33927 63.9342 7.8497 66.0464 9.96434 67.4042C11.9279 68.6112 15.402 68.9129 16.6104 67.2533C17.3656 66.1972 16.9125 64.8394 16.4594 63.4816C13.8916 56.8432 11.0217 50.3558 8.00076 43.8683C7.69867 43.2648 7.3966 42.6613 6.79241 42.3596C6.03718 41.7561 5.28199 42.0578 4.37571 42.2087Z" fill="white"/>
<path d="M13.5895 68.913C12.2301 68.913 10.7196 68.4603 9.66232 67.8568C7.09454 66.3481 5.73505 63.9342 4.67773 62.1238C2.86518 58.8046 1.65688 55.1837 0.599562 50.6575C0.29747 48.9979 -0.155686 47.3383 0.297452 45.6787C0.75059 43.7174 2.26101 42.2087 4.22461 41.9069H4.52672C5.433 41.7561 6.33929 41.4543 7.09452 41.9069C7.84975 42.3596 8.15179 43.1139 8.45388 43.7174C11.6258 50.2049 14.4957 56.8432 17.0635 63.3307C17.5167 64.6886 18.1209 66.1972 17.2146 67.5551C16.3083 68.4603 14.9489 68.913 13.5895 68.913ZM5.88617 42.5105C5.58408 42.5105 5.13087 42.6613 4.67773 42.6613H4.37571C2.86525 42.963 1.65688 44.17 1.35479 45.6787C1.0527 47.0366 1.35472 48.6962 1.65681 50.054C2.71413 54.5802 3.92252 58.0502 5.73507 61.3694C6.64135 63.1799 8.00076 65.2921 10.2665 66.6499C12.079 67.8569 15.1 68.0077 16.1573 66.6499C16.7615 65.7447 16.3083 64.5377 16.0062 63.4816C13.4384 56.8432 10.5686 50.3558 7.54764 43.8683C7.24555 43.2648 6.94344 42.8122 6.4903 42.5105C6.18821 42.5105 6.03722 42.5105 5.88617 42.5105Z" fill="black"/>
<path d="M7.24547 42.5105C7.09442 42.5105 7.09442 42.5105 7.24547 42.5105C7.09442 42.5105 7.09446 42.3596 7.09446 42.2087C7.5476 41.3035 8.1518 40.5491 8.90703 39.7948C8.90703 39.7948 9.058 39.7948 9.20905 39.7948C9.20905 39.7948 9.20905 39.9457 9.20905 40.0965C8.45382 40.8509 8.00075 41.6053 7.39657 42.5105C7.24552 42.5105 7.24547 42.5105 7.24547 42.5105Z" fill="black"/>
<path d="M8.90705 45.5279C8.756 45.5279 8.75595 45.377 8.75595 45.2261C9.05804 44.4718 9.66222 43.8683 10.2664 43.4156C10.4175 43.4156 10.4175 43.4156 10.5685 43.4156C10.5685 43.5665 10.5685 43.5665 10.5685 43.7174C9.96433 44.17 9.51116 44.7735 9.20907 45.377C9.05802 45.5279 8.90705 45.5279 8.90705 45.5279Z" fill="black"/>
<path d="M12.3811 53.8258C12.3811 53.8258 12.23 53.8258 12.23 53.6749C12.23 53.5241 12.23 53.524 12.3811 53.3732L14.4957 52.4679C14.6467 52.4679 14.6467 52.4679 14.7978 52.6188C14.7978 52.7697 14.7978 52.7697 14.6468 52.9206L12.3811 53.8258C12.5321 53.8258 12.5321 53.8258 12.3811 53.8258Z" fill="black"/>
<path d="M10.8706 49.6013C10.7196 49.6013 10.7196 49.6013 10.8706 49.6013C10.7196 49.4504 10.7195 49.2996 10.7195 49.2996C11.1727 48.6961 11.7769 48.2435 12.5321 47.7909C12.6832 47.7909 12.6832 47.7909 12.8342 47.7909C12.8342 47.9418 12.8342 47.9417 12.8342 48.0926C12.079 48.5452 11.4748 48.9978 10.8706 49.6013Z" fill="black"/>
<path d="M16.9125 58.8044L14.3447 58.201C14.1936 58.201 14.1937 58.0501 14.1937 57.8992C14.1937 57.7483 14.3446 57.7483 14.4957 57.7483L16.9125 58.3518C17.0635 58.3518 17.0635 58.5027 17.0635 58.6536C17.0635 58.6536 17.0635 58.8044 16.9125 58.8044Z" fill="black"/>
<path d="M19.3292 63.4817C18.1208 63.4817 16.7614 62.8782 15.8551 61.973C15.8551 61.8221 15.8551 61.8221 15.8551 61.6712C16.0062 61.6712 16.0062 61.6712 16.1572 61.6712C16.9125 62.5765 18.2719 63.0291 19.4803 63.0291C19.6313 63.0291 19.6313 63.0291 19.6313 63.1799C19.6313 63.3308 19.6313 63.3308 19.4803 63.3308C19.4803 63.4817 19.3292 63.4817 19.3292 63.4817Z" fill="black"/>
<path d="M19.6313 67.7061C18.5739 67.5552 17.5166 66.8009 17.0635 65.8956C17.0635 65.7448 17.0635 65.7448 17.0635 65.5939C17.2145 65.5939 17.2145 65.5939 17.3656 65.5939C17.8187 66.3482 18.725 67.1026 19.6313 67.2535C19.7823 67.2535 19.7823 67.4044 19.7823 67.4044C19.7823 67.7061 19.6313 67.7061 19.6313 67.7061Z" fill="black"/>
<path d="M63.8878 38.1351C61.169 35.8721 56.9396 36.1738 54.5229 38.5878C52.2572 41.0017 51.8041 44.6226 50.7468 47.7909C49.9915 50.2049 49.0853 52.468 47.7258 54.5802C46.6685 56.3906 45.3091 57.8993 44.5539 59.8607C43.6476 61.6711 43.3455 63.9342 43.9497 65.8955C44.856 68.3095 47.5749 69.8182 50.1426 69.5164C52.7104 69.3655 54.9761 67.706 56.6376 65.7446C58.2991 63.7833 59.5074 61.3694 60.5648 58.9554C63.5857 52.4679 66.1535 44.9244 63.8878 38.1351Z" fill="white"/>
<path d="M49.6895 70.1199C46.9707 70.1199 44.4028 68.4603 43.4966 66.0464C42.7413 64.2359 43.0435 61.9729 44.1008 59.5589C44.705 58.2011 45.4601 57.145 46.2154 55.938C46.5175 55.3345 46.9706 54.8819 47.2727 54.2784C48.4811 52.1662 49.5384 50.054 50.1426 47.6401C50.2937 47.0366 50.4447 46.2822 50.7467 45.5279C51.502 42.8122 52.1062 40.0965 54.0698 38.1351C56.7886 35.4195 61.32 35.1177 64.1899 37.5317C64.3409 37.5317 64.3409 37.6826 64.3409 37.8334C66.7576 44.7735 64.0388 52.468 61.169 59.1063C60.1116 61.5203 58.9033 64.085 57.2418 66.0464C55.2782 68.4603 52.8614 69.8182 50.2936 69.969C50.1426 70.1199 49.8405 70.1199 49.6895 70.1199ZM59.5075 37.23C57.846 37.23 56.1845 37.8334 54.9761 39.0404C53.3146 40.8508 52.5594 43.4157 51.9552 45.9805C51.8041 46.7348 51.6531 47.3383 51.351 48.0927C50.5957 50.5066 49.6895 52.7697 48.33 55.0328C48.028 55.6363 47.5748 56.2397 47.2727 56.6924C46.5175 57.7485 45.7623 58.9554 45.1581 60.1624C44.5539 61.3694 43.7987 63.6324 44.5539 65.7446C45.3091 67.8568 47.7259 69.2147 50.1426 69.0638C52.2573 68.9129 54.5229 67.706 56.3355 65.4429C57.997 63.4816 59.0543 61.2185 60.1116 58.8046C62.8304 52.468 65.3983 45.0753 63.2836 38.5878C62.2263 37.6826 60.8669 37.23 59.5075 37.23Z" fill="black"/>
<path d="M65.2472 41.9069C67.0598 42.3595 68.2681 43.7174 68.7212 45.377C69.1744 46.8857 68.8723 48.5453 68.4191 50.054C67.5129 53.9766 66.3045 57.7484 64.3409 61.5202C63.2835 63.6324 61.7731 65.7446 59.6585 67.1024C57.6949 68.3094 54.2208 68.6111 53.0124 66.9515C52.2572 65.8954 52.7104 64.5376 53.1635 63.1798C55.7313 56.5414 58.6011 50.054 61.6221 43.5665C61.9241 42.963 62.2262 42.3595 62.8304 42.0578C63.4346 41.4543 64.3409 41.756 65.2472 41.9069Z" fill="white"/>
<path d="M55.8823 68.6111C54.5229 68.6111 53.1634 68.1585 52.5592 67.1024C51.653 65.7446 52.1062 64.2359 52.7103 62.878C55.2781 56.2397 58.1479 49.6013 61.3199 43.2647C61.622 42.6613 61.9241 41.9069 62.6793 41.4543C63.4346 41.0017 64.3409 41.1525 65.2471 41.3034H65.5492C67.3618 41.756 69.0233 43.2647 69.4764 45.0752C69.9295 46.7348 69.6274 48.3944 69.1743 50.054C68.117 54.5801 66.7575 58.3518 65.096 61.5201C64.0387 63.3306 62.6793 65.7446 60.1115 67.2533C58.9032 68.1585 57.3927 68.6111 55.8823 68.6111ZM63.7367 42.2086C63.5856 42.2086 63.4346 42.2086 63.2836 42.3595C62.8304 42.6612 62.5283 43.1139 62.2262 43.7173C59.0543 50.0539 56.1843 56.6923 53.7676 63.3306C53.3144 64.5376 53.0124 65.5937 53.6166 66.4989C54.5229 67.8568 57.5438 67.7059 59.5074 66.4989C61.7731 65.1411 63.1325 62.878 64.0388 61.2184C65.7003 58.0501 67.0596 54.4292 68.117 49.9031C68.4191 48.3944 68.7212 46.8857 68.4191 45.5278C67.9659 44.0191 66.9086 42.8121 65.3981 42.5104H65.096C64.4919 42.3595 64.0388 42.2086 63.7367 42.2086Z" fill="black"/>
<path d="M62.3773 42.2085C62.3773 42.2085 62.2263 42.2085 62.2263 42.0576C61.7732 41.1524 61.1689 40.398 60.4137 39.6437C60.4137 39.6437 60.4137 39.4928 60.4137 39.342C60.4137 39.342 60.5648 39.342 60.7158 39.342C61.4711 40.0963 62.0753 40.8507 62.5284 41.7559C62.5284 42.0577 62.5283 42.0576 62.3773 42.2085Z" fill="black"/>
<path d="M60.7158 45.226C60.7158 45.226 60.5647 45.226 60.5647 45.0752C60.2626 44.4717 59.8095 43.8682 59.2053 43.4156C59.0543 43.4156 59.0543 43.2647 59.2053 43.1139C59.2053 42.963 59.3564 42.963 59.5074 43.1139C60.1116 43.5665 60.7158 44.1699 61.0179 44.9243C60.8668 45.0752 60.8668 45.226 60.7158 45.226Z" fill="black"/>
<path d="M57.0906 53.524L54.9761 52.6187C54.825 52.6187 54.825 52.4679 54.825 52.317C54.825 52.1661 54.976 52.1661 55.1271 52.1661L57.2417 53.0714C57.3928 53.0714 57.3928 53.2222 57.3928 53.3731C57.2417 53.3731 57.2417 53.524 57.0906 53.524Z" fill="black"/>
<path d="M58.7522 49.2996C58.148 48.6961 57.5438 48.2435 56.9396 47.7909C56.7886 47.7909 56.7886 47.64 56.9396 47.4891C56.9396 47.3382 57.0907 47.3382 57.2418 47.4891C57.8459 47.9417 58.4501 48.3943 59.0542 48.9978C58.9032 49.1487 58.9033 49.1487 58.7522 49.2996Z" fill="black"/>
<path d="M52.5593 58.5026C52.4082 58.5026 52.4083 58.5026 52.4083 58.3518C52.4083 58.2009 52.4082 58.2009 52.5593 58.05L54.9761 57.4465C55.1271 57.4465 55.127 57.4465 55.2781 57.5974C55.2781 57.7483 55.2781 57.7482 55.1271 57.8991L52.5593 58.5026Z" fill="black"/>
<path d="M50.2936 63.1798H50.1426C49.9915 63.1798 49.9915 63.0289 49.9915 63.0289C49.9915 62.8781 50.1426 62.8781 50.1426 62.8781C51.351 62.8781 52.7104 62.4254 53.4656 61.5202C53.4656 61.3693 53.6166 61.3693 53.7676 61.5202C53.9187 61.5202 53.9187 61.6711 53.7676 61.822C52.8614 62.5763 51.502 63.1798 50.2936 63.1798Z" fill="black"/>
<path d="M49.9915 67.4042C49.8405 67.4042 49.8405 67.4042 49.8405 67.2534C49.8405 67.1025 49.8405 67.1025 49.9915 67.1025C50.8978 66.9516 51.8041 66.3481 52.2572 65.4429C52.2572 65.292 52.4083 65.292 52.5593 65.4429C52.7104 65.4429 52.7104 65.5938 52.5593 65.7446C52.1062 66.499 51.0488 67.1025 49.9915 67.4042Z" fill="black"/>
<path d="M25.6731 81.737C25.0689 81.737 24.4648 81.737 24.0116 81.737C21.4439 81.5861 18.4229 81.4352 15.553 80.3791C12.5321 79.323 10.1154 77.5126 8.90703 75.0986C7.84971 73.2882 7.69867 71.176 7.39657 69.2147C7.24553 67.7059 6.94338 66.1972 6.49024 64.6885C6.3392 64.3868 6.49026 64.085 6.79235 63.9342C7.09444 63.7833 7.39654 63.9342 7.54758 64.2359C8.15177 65.7446 8.30283 67.4042 8.60492 68.9129C8.90702 70.8743 9.05801 72.8356 9.96428 74.4952C11.0216 76.6074 13.2873 78.267 16.0061 79.1722C18.5739 80.0774 21.4438 80.3791 24.1626 80.3791C26.1262 80.3791 28.392 80.53 30.5066 79.7757C30.8087 79.6248 31.1108 79.9266 31.2618 80.2283C31.4129 80.53 31.1108 80.8318 30.8087 80.9827C28.9962 81.737 27.3346 81.737 25.6731 81.737Z" fill="black"/>
<path d="M37.1526 77.2109C34.5848 76.6074 31.715 76.3057 29.2982 77.3618C28.392 77.8144 27.4856 78.5687 27.1836 79.6248C26.8815 80.8318 27.7878 82.1897 28.9961 82.7931C30.2045 83.3966 31.5639 83.5475 32.9233 83.5475C34.2827 83.5475 35.6422 83.3966 36.8505 82.7931C38.0589 82.1897 39.1162 81.1336 39.1162 79.9266C39.2673 78.5688 38.3609 77.2109 37.1526 77.2109Z" fill="white"/>
<path d="M32.6211 84.0001C31.4128 84.0001 30.0534 83.8492 28.845 83.2458C27.6366 82.4914 26.4283 80.9827 26.8814 79.474C27.1835 78.1161 28.543 77.2109 29.2982 76.9091C32.017 75.5513 35.1889 76.1548 37.4546 76.6074C38.0588 76.6074 38.6631 76.9091 39.1162 77.3617C39.7204 77.9652 40.0225 79.0213 39.8714 79.7757C39.7204 81.1335 38.663 82.4914 37.1525 83.0949C35.7931 83.6984 34.2827 83.8492 33.0744 83.8492C32.7723 84.0001 32.7722 84.0001 32.6211 84.0001ZM33.0744 77.2109C31.7149 77.2109 30.6575 77.5126 29.6002 77.9653C28.694 78.4179 27.9388 79.0213 27.7877 79.7757C27.6367 80.8318 28.3919 81.737 29.2982 82.3405C30.3555 82.944 31.7149 82.944 32.9233 82.944C34.1316 82.944 35.34 82.7931 36.5484 82.3405C37.7568 81.737 38.512 80.8318 38.512 79.9266C38.512 79.3231 38.3609 78.7196 37.9078 78.4179C37.6057 78.1161 37.3036 77.9653 37.0015 77.9653H36.8505C35.6421 77.3618 34.2827 77.2109 33.0744 77.2109Z" fill="black"/>
<g opacity="0.1294">
<path d="M26.1263 62.1236C25.9752 61.5202 26.1262 60.9167 25.8242 60.464C25.5221 60.0114 24.9179 60.0114 24.4648 60.1623C23.8606 60.464 23.8606 61.0675 24.0117 61.5201C24.0117 61.8219 24.1627 62.5762 24.1627 62.7271C24.3137 63.3306 23.7096 64.8393 23.7096 64.8393C23.2564 65.5937 22.9543 65.8954 22.3501 66.1971C21.2928 66.8006 21.7459 66.4989 20.8397 66.8006H20.6886C20.5376 66.8006 20.3866 66.8006 20.2355 66.8006C18.574 66.6497 18.4229 66.6498 17.0635 66.4989C16.9125 66.4989 16.6104 66.348 16.4594 66.348C16.9125 65.7445 17.0636 65.1411 17.2146 64.3867C17.2146 63.9341 17.3656 63.3306 16.9125 62.878C16.4594 62.4254 15.8552 62.4254 15.402 62.878C15.0999 63.1797 15.0999 63.4814 15.0999 63.7832C15.0999 63.9341 14.9489 64.2358 14.9489 64.3867C14.9489 64.5376 14.7978 64.5376 14.7978 64.6884L14.6468 64.8393C14.3447 64.9902 14.3447 64.9902 13.7405 65.1411C12.079 65.2919 11.7769 65.141 10.1154 64.6884C9.96438 64.6884 9.81335 64.5375 9.6623 64.5375C9.20917 64.3867 8.75599 63.9341 8.30285 64.0849C7.39658 64.2358 7.24551 65.5937 8.00074 65.8954C9.5112 66.8007 12.8342 68.3094 15.0999 67.4041C14.9489 68.0076 15.251 68.6111 16.1573 68.9129C17.9698 69.0637 19.9334 69.6672 21.897 69.2146C23.5585 68.762 25.0689 67.555 25.8242 65.8954C26.1262 65.2919 26.1263 64.6884 26.2774 64.0849C26.2774 63.6323 26.2773 62.878 26.1263 62.1236Z" fill="black"/>
</g>
<g opacity="0.1294">
<path d="M39.4183 79.9266C39.2673 79.474 38.6631 79.1722 38.059 79.3231C37.1527 79.7757 37.4548 79.9266 36.8506 80.2283C36.3975 80.681 35.038 80.8318 34.7359 80.8318C33.0744 80.8318 32.6213 80.6809 32.0171 80.6809C30.5067 80.3792 29.9024 80.2283 29.1472 79.9266C27.7878 79.1722 26.5794 81.1335 27.9389 82.0388C30.6577 83.5475 34.2828 83.8493 37.1526 82.4914C37.7568 82.1897 38.21 81.8879 38.6631 81.4353C39.2673 81.1336 39.7204 80.5301 39.4183 79.9266Z" fill="black"/>
</g>
<g opacity="0.1294">
<path d="M60.1116 64.9901C59.6585 64.9901 59.2054 65.4427 58.7523 65.5936C58.7523 65.5936 59.0543 65.4427 58.9033 65.5936C58.4501 65.7445 57.997 65.8953 57.5438 66.0462C57.3928 66.0462 57.0907 66.0462 56.9397 66.0462C56.7886 66.0462 56.7886 66.0462 56.6376 66.0462C56.0334 65.8953 56.0334 65.8954 55.8823 65.8954C55.7313 65.8954 55.7313 65.7445 55.5802 65.7445C55.4292 65.7445 55.4292 65.5936 55.2781 65.4427L55.1271 65.2918C55.1271 65.141 54.9761 65.141 54.9761 64.9901V64.8393C54.9761 64.5375 54.674 64.2358 54.3719 63.934C53.4656 63.3305 52.2572 64.2357 52.5593 65.2918C52.7104 65.8953 53.0125 66.4988 53.4656 66.9514C53.3146 66.9514 53.3146 66.8006 53.1635 66.8006C52.4083 66.6497 51.6531 67.1023 50.8978 67.1023C50.8978 67.1023 50.8978 67.1023 50.7467 67.1023C49.8405 67.2532 49.3874 67.2532 48.33 67.1023C47.8769 66.9515 46.9706 66.348 46.8196 66.1971C46.3664 65.7445 45.9133 65.2919 45.6112 64.8393C45.6112 64.8393 45.6112 64.6884 45.4601 64.6884C45.3091 64.3866 45.1581 64.0849 44.856 63.934C44.1008 63.3305 42.7414 64.2358 43.3455 65.141C44.4029 67.1023 45.7623 69.3654 48.179 69.818C49.5384 70.1197 50.8978 70.1197 52.1062 69.818C53.0125 69.6671 53.9188 69.2145 53.9188 68.1584C53.9188 67.8567 53.9187 67.7058 53.7677 67.4041C54.0698 67.7058 54.3719 67.8567 54.825 68.0076C55.5802 68.3093 56.3355 68.3093 57.0907 68.1584C57.997 68.0076 58.9032 67.7058 59.8095 67.2532C60.2626 67.1023 60.7158 66.8006 60.8668 66.348C61.1689 65.5936 60.7158 64.9901 60.1116 64.9901Z" fill="black"/>
</g>
<path d="M35.189 28.932C33.9806 28.7811 32.7723 29.2337 32.0171 30.1389C31.4129 30.8933 31.4129 31.9493 31.4129 32.8546C31.5639 36.0229 31.7149 39.1912 31.866 42.3595C31.866 43.2647 32.0171 44.3208 32.7723 44.9243C33.2254 45.226 33.6785 45.2261 34.1317 45.3769C35.189 45.5278 36.5484 45.5278 37.1526 44.7735C37.4547 44.3208 37.6058 43.7173 37.6058 43.1139C37.7568 40.0964 37.9079 37.2299 38.0589 34.2125C38.0589 33.3072 38.2099 32.2511 37.9078 31.3459C37.9078 30.4406 37.4547 29.0828 35.189 28.932Z" fill="#ACD4F7"/>
<path d="M35.3401 45.9804C34.8869 45.9804 34.5848 45.9804 34.1316 45.8295C33.5275 45.6786 33.0744 45.6787 32.4702 45.3769C31.4128 44.6226 31.2618 43.1138 31.2618 42.3595L30.8087 32.8546C30.8087 31.9493 30.6576 30.5915 31.4128 29.6863C32.1681 28.6302 33.6786 28.1776 35.038 28.1776C37.7568 28.4793 38.2099 30.2898 38.512 31.0441C38.8141 32.1002 38.663 33.1563 38.663 34.0616L38.2099 42.963C38.2099 43.5664 38.0589 44.3208 37.6058 44.9243C37.1526 45.8295 36.2464 45.9804 35.3401 45.9804ZM34.8869 29.3845C33.9806 29.3845 33.0743 29.8372 32.6212 30.4406C32.168 31.0441 32.1681 31.9493 32.1681 32.8546L32.6212 42.3595C32.6212 43.4156 32.7722 44.0191 33.3764 44.4717C33.6785 44.6225 33.9806 44.7734 34.4338 44.7734C35.7932 44.9243 36.5484 44.7734 37.0016 44.3208C37.3036 44.019 37.3037 43.5664 37.3037 42.963L37.7568 34.0616C37.7568 33.1563 37.9079 32.2511 37.6058 31.3458C37.3037 30.4406 37.0015 29.5354 35.189 29.3845C35.0379 29.3845 35.0379 29.3845 34.8869 29.3845Z" fill="black"/>
<path d="M34.4337 17.7673C33.0743 17.7673 31.7149 18.8234 31.4128 20.0304C30.9597 21.2374 31.4129 22.7461 32.3192 23.6513C32.4702 23.8022 32.7723 24.1039 33.0744 24.2548C33.2254 24.4057 33.5275 24.4057 33.6785 24.4057C34.8869 24.5566 36.2463 24.1039 37.1526 23.1987C38.0588 22.2935 38.3609 20.9357 37.9078 19.7287C37.4547 18.8235 36.3973 17.7673 34.4337 17.7673Z" fill="#ACD4F7"/>
<path d="M34.2828 25.1601C33.9807 25.1601 33.8296 25.1601 33.5275 25.1601C33.2254 25.1601 32.9233 25.0092 32.7723 24.8583C32.4702 24.7074 32.1681 24.5566 31.866 24.104C30.8086 22.897 30.3556 21.2374 30.8087 19.8796C31.2619 18.3709 32.7723 17.3147 34.4338 17.3147C36.3974 17.3147 37.7568 18.22 38.361 19.8796C38.8142 21.2374 38.512 22.7461 37.4547 23.8022C36.6995 24.5566 35.4911 25.1601 34.2828 25.1601ZM34.4338 18.3709C33.3764 18.3709 32.3191 19.1252 31.866 20.1813C31.5639 21.2374 31.866 22.4444 32.6212 23.3496C32.7722 23.5005 32.9233 23.6513 33.2254 23.8022C33.3765 23.8022 33.5275 23.9531 33.6785 23.9531C34.7359 24.1039 35.9443 23.8022 36.5484 23.0478C37.3037 22.2935 37.4547 21.2374 37.1526 20.1813C37.0015 18.9743 35.9442 18.3709 34.4338 18.3709Z" fill="black"/>
</svg>
