<svg width="73" height="78" viewBox="0 0 73 78" fill="none" xmlns="http://www.w3.org/2000/svg">
<path d="M35.8561 78C34.4216 78 33.1665 78 31.7321 77.8044C19.5395 76.2395 8.4226 67.6329 3.2228 55.8965C-1.7977 44.1601 -0.901208 30.0764 5.55372 18.9268C12.1879 7.77728 21.5117 1.51792 33.3458 0.148675C41.0558 -0.63375 50.3796 1.71348 57.1931 6.21243C71.3581 15.9927 72.7925 35.9446 72.4339 40.4435C71.1788 52.9624 67.2342 62.1559 60.4207 68.4153C53.6071 74.6747 44.6419 78 35.8561 78ZM33.5251 1.7135C21.8704 3.08275 13.2638 8.95096 6.80887 19.7093C0.533242 30.2721 -0.363254 43.9645 4.47794 55.114C9.31914 66.4592 20.0774 74.6747 31.7321 76.2395C41.4145 77.4132 51.814 74.0879 59.3448 67.2416C65.979 61.3735 69.7444 52.3756 70.8203 40.248C71.3582 34.5754 68.8478 16.1884 56.2966 7.58169C49.8417 3.27835 40.8766 0.931077 33.5251 1.7135Z" fill="black"/>
</svg>
