<svg width="104" height="21" viewBox="0 0 104 21" fill="none" xmlns="http://www.w3.org/2000/svg">
<path d="M95.3605 8.46731C95.0581 11.0342 93.8488 11.7892 93.5465 14.3561C75.7084 14.3561 51.2188 14.9601 37.9158 14.6581C37.7647 14.6581 36.8577 15.5641 37.4624 8.31631C38.067 7.71233 78.4294 7.71234 95.3605 8.46731Z" fill="white"/>
<path d="M44.8698 15.2623C42.2999 15.2623 39.8812 15.2623 37.7648 15.2623C37.4624 15.4133 37.1601 15.2623 37.1601 15.1113C36.8577 14.8093 36.2531 14.5073 36.7066 8.31648C36.7066 8.16548 36.8578 8.0145 36.8578 7.86351C37.009 7.71251 37.4624 7.2595 60.1379 7.4105C71.1733 7.4105 86.1392 7.56148 95.2094 8.01447C95.3606 8.01447 95.5117 8.16547 95.6629 8.16547C95.8141 8.31647 95.8141 8.46749 95.8141 8.61849C95.6629 9.97744 95.2094 10.8834 94.907 11.7893C94.4535 12.5443 94.1512 13.2993 94.0001 14.5073C94.0001 14.8093 93.6977 14.9603 93.3953 14.9603C85.3833 14.9603 76.0108 15.1113 66.9406 15.1113C59.0797 15.1113 51.3701 15.2623 44.8698 15.2623ZM37.9159 14.0543C45.3232 14.2053 55.9052 14.0543 67.0918 13.9033C76.0108 13.7523 85.081 13.6013 92.9418 13.7523C93.093 12.6953 93.5465 11.9404 93.8488 11.1854C94.1512 10.5814 94.4535 9.82643 94.6047 9.07145C78.2783 8.46747 41.9975 8.46746 37.9159 8.92045C37.6136 12.3933 37.7647 13.6013 37.9159 14.0543Z" fill="black"/>
<path d="M102.768 8.01439C94.3023 5.90046 92.1859 4.99449 89.616 5.74946C87.0461 6.35344 85.8368 9.22237 85.988 12.0913C86.1392 14.9602 88.5579 16.3191 89.9184 16.3191C93.3953 16.4701 99.7445 14.8092 102.617 14.0542C102.768 11.9403 102.768 9.97733 102.768 8.01439Z" fill="white"/>
<path d="M90.2208 16.9231C90.0696 16.9231 90.0696 16.9231 89.9184 16.9231C88.1044 16.9231 85.6857 15.4132 85.3833 12.2423C85.2322 9.37337 86.2904 6.20246 89.4649 5.29649C91.7325 4.69251 93.3953 5.14551 98.2328 6.35347C99.5933 6.65546 101.105 7.10843 102.919 7.56142C103.221 7.56142 103.373 7.8634 103.373 8.16539C103.373 9.07136 103.373 10.1283 103.221 11.1853C103.221 12.0913 103.221 13.1482 103.07 14.2052C103.07 14.5072 102.919 14.6582 102.617 14.8092C102.012 14.9602 101.407 15.1112 100.651 15.2622C97.4769 15.8662 93.093 16.9231 90.2208 16.9231ZM91.279 6.20247C90.6743 6.20247 90.2207 6.20248 89.6161 6.35347C87.1973 6.95745 86.2904 9.67535 86.4415 12.0913C86.5927 14.8092 88.8602 15.7152 89.9184 15.7152C92.6395 15.7152 97.3258 14.6582 100.5 13.9032C101.105 13.7522 101.559 13.6012 102.012 13.6012C102.012 12.6953 102.012 11.7893 102.012 11.0343C102.012 10.1283 102.012 9.37337 102.012 8.4674C100.349 8.01441 98.9886 7.7124 97.7793 7.41041C94.6047 6.65544 92.7907 6.20247 91.279 6.20247Z" fill="black"/>
<path d="M46.9861 18.131C47.2884 17.527 48.0443 8.76929 47.7419 3.63545C45.6256 5.74938 41.3929 5.74939 38.3695 5.2964C35.3461 4.84342 33.2297 4.08845 30.5086 3.18248C23.4036 0.766555 15.3916 -0.592412 7.98423 1.52152C6.6237 1.97451 0.879254 3.78646 0.728084 9.22229C0.576913 11.1852 0.274592 13.1482 1.03044 14.9601C2.54214 18.282 6.92604 19.6409 11.0076 20.0939C16.9033 20.6979 22.9501 20.2449 28.6945 18.735C31.7179 17.98 34.5902 16.923 37.6136 16.47C41.8464 15.8661 43.358 16.1681 46.9861 18.131Z" fill="#ACD4F7"/>
<path d="M15.9963 20.9999C14.3334 20.9999 12.6705 20.849 11.0077 20.698C7.22841 20.245 2.23986 19.037 0.576987 15.2621C-0.178863 13.7522 -0.0277671 11.9402 0.123403 10.4303C0.123403 9.97728 0.123403 9.67531 0.123403 9.22232C0.425743 3.6355 6.17026 1.52157 7.83313 1.06859C14.3334 -0.743358 22.0431 -0.290409 30.6598 2.7295L31.2645 2.8805C33.8344 3.78647 35.7996 4.39048 38.5206 4.84347C41.544 5.29645 45.6257 5.14546 47.4397 3.33351C47.5909 3.18252 47.8932 3.18251 48.0443 3.18251C48.1955 3.33351 48.3467 3.48448 48.3467 3.63548C48.649 8.61832 47.8932 17.6781 47.5908 18.433C47.5908 18.584 47.4396 18.735 47.2885 18.735C47.1373 18.735 46.9862 18.735 46.835 18.735C43.3581 16.9231 41.9975 16.4701 37.9159 17.0741C35.7995 17.376 33.5321 17.98 31.5668 18.584C30.811 18.886 29.9039 19.037 29.1481 19.339C24.613 20.3959 20.229 20.9999 15.9963 20.9999ZM15.8451 1.06859C13.1241 1.06859 10.5542 1.37055 7.98426 2.12552C6.47256 2.57851 1.33282 4.39047 1.03048 9.22232C1.03048 9.67531 1.03048 9.97728 1.03048 10.4303C0.879309 11.9402 0.879327 13.4502 1.33284 14.8091C2.84454 18.131 7.37962 19.188 10.8565 19.641C16.601 20.245 22.6478 19.792 28.3922 18.282C29.1481 18.131 30.0551 17.8291 30.811 17.5271C32.9274 16.9231 35.1949 16.3191 37.3113 16.0171C41.3929 15.4131 43.2069 15.7151 46.3815 17.3761C46.6838 15.4131 47.1373 9.22233 46.9861 4.84347C44.1139 6.65541 39.5788 6.2024 38.0671 5.90041C35.1949 5.44742 33.2297 4.84346 30.6598 3.93749L30.0551 3.78648C25.0665 1.97454 20.2291 1.06859 15.8451 1.06859Z" fill="black"/>
<path d="M10.7053 15.7152C10.5541 15.7152 10.5541 15.7151 10.5541 15.5641C10.1006 12.0913 10.1007 8.46737 10.403 4.99448C10.403 4.84348 10.5541 4.84352 10.5541 4.84352C10.7053 4.84352 10.7053 4.99448 10.7053 4.99448C10.4029 8.46737 10.403 12.0913 10.8565 15.5641C11.0077 15.5641 10.8564 15.7152 10.7053 15.7152Z" fill="black"/>
<path d="M15.694 15.4133C15.5428 15.4133 15.5427 15.2623 15.5427 15.2623C15.3916 11.7894 15.3916 8.31651 15.694 4.84362C15.694 4.69263 15.8451 4.69262 15.8451 4.69262C15.9963 4.69262 15.9962 4.84362 15.9962 4.84362C15.6939 8.31651 15.6939 11.7894 15.8451 15.1113C15.8451 15.4133 15.8451 15.4133 15.694 15.4133Z" fill="black"/>
<path d="M20.3802 15.5641C20.229 15.5641 20.229 15.4132 20.229 15.4132C20.229 11.9403 20.3801 8.46737 20.5313 4.99448C20.5313 4.84348 20.6825 4.84352 20.6825 4.84352C20.8337 4.84352 20.8337 4.99448 20.8337 4.99448C20.6825 8.46737 20.6825 11.9403 20.5313 15.4132C20.6825 15.5642 20.5313 15.5641 20.3802 15.5641Z" fill="black"/>
<path d="M25.0664 14.3561C24.9153 14.3561 24.9153 14.2051 24.9153 14.2051L25.0664 6.35337C25.0664 6.20238 25.2177 6.20237 25.2177 6.20237C25.3688 6.20237 25.3688 6.35337 25.3688 6.35337L25.2177 14.2051C25.2177 14.2051 25.2176 14.3561 25.0664 14.3561Z" fill="black"/>
<path d="M29.4504 13.1484C29.2992 13.1484 29.2992 12.9974 29.2992 12.9974C29.2992 11.4875 29.2992 9.82651 29.2992 8.31656C29.2992 8.16556 29.4504 8.16555 29.4504 8.16555C29.6015 8.16555 29.6015 8.31656 29.6015 8.31656C29.6015 9.82651 29.6015 11.4875 29.6015 12.9974C29.6015 12.9974 29.6015 13.1484 29.4504 13.1484Z" fill="black"/>
<path d="M34.1366 11.7893C33.9854 11.7893 33.9855 11.6384 33.9855 11.6384C33.9855 10.7324 33.9855 9.82638 33.9855 8.92041C33.9855 8.76941 34.1366 8.7694 34.1366 8.7694C34.2878 8.7694 34.2878 8.92041 34.2878 8.92041C34.1367 9.82638 34.1367 10.5814 34.2878 11.4873C34.2878 11.6383 34.2878 11.7893 34.1366 11.7893Z" fill="black"/>
<g opacity="0.1294">
<path d="M45.1722 15.2623C45.1722 14.3564 44.2651 14.0544 43.5092 13.9034C42.7534 13.7524 41.9975 13.6014 41.2417 13.4504C38.9741 13.1484 36.5555 13.2994 34.2879 13.9034C30.6598 14.9603 27.0318 16.1683 23.2525 16.7723C19.3221 17.6782 17.0545 17.9802 13.2752 17.8292C11.0077 17.6782 9.49596 17.5272 6.92607 16.6213C6.32139 16.3193 5.71678 16.0173 5.1121 15.7153C4.05391 15.1113 4.20504 15.2623 3.75153 14.6584C2.84451 13.7524 3.14689 13.7523 2.0887 12.5444C1.03051 11.6384 -0.33004 12.9974 0.274641 14.0543C0.728151 14.8093 1.33279 15.7153 1.93747 16.4703C2.99566 17.3762 4.05384 18.1312 5.41437 18.7352C7.37958 19.6412 9.64715 20.0942 11.7635 20.3962C19.6244 21.4531 27.4852 18.7352 34.8925 16.6213C37.6136 16.0173 38.6718 15.7153 41.3929 16.1683C41.6953 16.1683 42.6023 16.3193 42.9046 16.4703C43.207 16.4703 43.5092 16.7723 43.9627 16.6213C44.5674 16.3193 45.021 15.8663 45.1722 15.2623Z" fill="black"/>
</g>
<g opacity="0.1294">
<path d="M86.4415 13.2993C86.2904 12.2424 86.2903 12.9974 86.1392 11.9404C86.1392 11.0344 86.1391 10.4304 86.2903 10.2794C86.2903 9.82645 86.5927 9.22247 86.5927 8.76949C86.4415 7.56152 84.7787 7.41057 84.4763 8.61853C84.174 10.2795 84.0227 10.5815 84.0227 12.2424C84.0227 12.8464 84.174 13.6013 84.6275 14.2053C85.081 14.8093 86.4415 14.3563 86.4415 13.2993Z" fill="black"/>
</g>
</svg>
