<svg width="39" height="39" viewBox="0 0 39 39" fill="none" xmlns="http://www.w3.org/2000/svg">
<path d="M38.0282 22.397C36.3616 21.035 34.9981 21.035 33.6345 19.9757C33.483 18.3111 33.0285 15.4357 32.877 13.7711C34.5436 12.4091 35.3011 11.9551 36.6647 10.7445C36.6647 10.4418 36.5131 10.2905 36.3616 10.1391C36.0586 9.53382 35.6041 9.07982 35.3011 8.47449C33.9375 6.50718 32.4225 4.84254 30.7559 3.17789C29.2408 4.6912 27.8773 6.05322 26.5137 7.4152C24.5441 6.65854 22.5745 6.20456 20.4534 6.05322C20.3019 4.08591 19.8474 2.26991 19.3929 0.302598C16.6658 0.756592 13.9386 1.51326 11.363 2.72391C11.8175 4.53989 12.2721 5.59921 12.8781 7.26386C11.2115 8.77717 9.69644 10.1391 8.33288 11.6525C6.5148 10.5931 4.99975 10.1392 3.18167 9.07986C1.36358 11.8038 1.53198e-05 14.9818 1.53198e-05 18.1597C1.9696 18.4624 3.18168 18.3111 4.99976 18.4624C5.30278 20.581 5.90878 22.6997 6.81782 24.667C5.30275 26.029 4.54523 27.2396 3.18167 28.2989C4.24221 30.7202 5.90881 32.8389 8.0299 34.3522C9.39346 32.9902 10.151 32.0822 11.363 30.8716C13.0296 31.4769 15.3022 32.5362 17.1203 32.6875C17.7263 34.5035 17.7263 35.5628 18.0293 37.2275C20.9079 37.6815 23.7866 37.5302 26.6652 36.7735C26.3622 34.8062 26.6652 33.5955 26.2107 31.9309C27.8773 30.7202 29.5438 29.0556 30.6044 27.6936C32.4225 27.9963 33.18 28.4503 34.8466 28.9043C36.6646 27.0883 37.5737 24.8183 38.0282 22.397ZM21.817 24.8183C20.6049 25.2723 19.2414 25.7263 16.0597 23.6076C14.6962 22.851 11.9691 19.3704 15.4537 14.9818C16.5143 13.6198 18.3324 12.7118 20.1504 13.0144C21.817 13.3171 23.1805 13.7711 24.2411 14.5278C25.9077 15.8897 26.5137 18.1597 26.0592 20.2784C25.4532 22.397 23.7866 24.213 21.817 24.8183Z" fill="white"/>
<path d="M21.514 38.4382C20.4534 38.4382 19.2414 38.2869 18.1808 38.1355C17.8778 38.1355 17.7263 37.8329 17.7263 37.6816V37.3789C17.5748 35.8656 17.4233 34.9576 16.9688 33.5956C15.3022 33.2929 13.4841 32.5363 11.969 31.9309L11.8176 31.7796C10.757 32.8389 9.84796 33.7469 8.78742 34.9576C8.63591 35.1089 8.3329 35.2602 8.02988 34.9576C5.75728 33.2929 4.09068 31.023 3.03013 28.6017C2.87863 28.299 3.03014 28.1477 3.18165 27.9963C3.78768 27.391 4.39372 26.7857 4.99975 26.1803C5.45427 25.7263 5.90879 25.121 6.51482 24.667C5.75728 22.851 5.15126 20.8837 4.99975 19.2191C4.54523 19.2191 4.09067 19.2191 3.63615 19.2191C2.72711 19.2191 1.6666 19.2191 0.454548 19.0677C0.151534 19.0677 0 18.7651 0 18.4624C0 15.4358 1.06057 12.2579 3.33317 9.07989C3.48467 8.77723 3.78769 8.77722 4.0907 8.92855C4.99974 9.38255 5.75725 9.83652 6.66629 10.1392C7.42382 10.4418 8.02985 10.7445 8.93889 11.1985C9.99943 9.98787 11.2115 8.77723 12.5751 7.56658L12.8781 7.2639C12.272 5.90191 11.8175 4.69128 11.5145 3.02663C11.5145 2.72397 11.5145 2.5726 11.8176 2.42127C14.0902 1.21062 16.9688 0.453995 19.9989 0C20.3019 0 20.6049 0.151313 20.6049 0.453976C21.0594 2.26995 21.3625 3.9346 21.6655 5.75058C23.4836 5.90191 25.3017 6.35589 26.9682 6.96122C28.1803 5.59923 29.3923 4.23727 30.9074 2.87529C31.0589 2.72396 31.5134 2.72396 31.6649 2.87529C33.3315 4.53994 34.9981 6.35593 36.3616 8.32324C36.6646 8.92856 37.1192 9.38252 37.4222 9.98785C37.5737 10.2905 37.8767 10.5932 37.7252 11.0472C37.7252 11.1985 37.7252 11.3498 37.5737 11.5012C36.9677 12.1065 36.3616 12.4092 35.7556 12.8632C35.1496 13.3172 34.695 13.6198 33.9375 14.2252C33.9375 14.8305 34.089 15.4358 34.2405 16.0411C34.392 17.4031 34.5435 18.7651 34.695 19.8244C35.1496 20.1271 35.7556 20.4297 36.2101 20.5811C36.9676 20.8837 37.8767 21.3377 38.7857 22.0944C38.9372 22.2457 39.0888 22.3971 38.9372 22.6997C38.3312 25.4237 37.4222 27.6936 35.9071 29.8123C35.7556 29.9636 35.4526 30.115 35.3011 29.9636C34.8466 29.8123 34.392 29.661 34.089 29.5097C33.18 29.207 32.574 29.0557 31.5134 28.753C30.4529 30.115 28.9378 31.6283 27.5742 32.6876C27.7257 33.5956 27.7257 34.3522 27.8772 35.1089C27.8772 35.7142 27.8772 36.3196 28.0287 37.0762C28.0287 37.3789 27.8773 37.6816 27.5742 37.6816C25.1501 38.1355 23.3321 38.4382 21.514 38.4382ZM18.7868 37.0762C21.2109 37.3789 23.635 37.2275 26.3622 36.7736C26.3622 36.1682 26.2107 35.5629 26.2107 35.1089C26.2107 34.2009 26.2107 33.4443 25.9077 32.5363C25.9077 32.2336 25.9077 32.0823 26.0592 31.9309C27.5742 30.8716 29.2408 29.207 30.3013 27.6937C30.4529 27.5423 30.6043 27.391 30.9074 27.5423C32.2709 27.845 33.18 27.9963 34.089 28.4503C34.392 28.6016 34.5435 28.6017 34.8465 28.753C36.0586 26.937 36.9677 24.9697 37.4222 22.851C36.6646 22.2457 36.0586 22.0944 35.3011 21.7917C34.6951 21.4891 33.9375 21.1864 33.3315 20.7324C33.18 20.5811 33.18 20.4298 33.0285 20.2784C32.877 19.2191 32.7255 17.5544 32.5739 16.1924C32.4224 15.4358 32.4225 14.6791 32.271 14.0738C32.271 13.9225 32.2709 13.7712 32.4224 13.6198C33.3315 12.8632 33.9375 12.4092 34.5436 11.9552C34.9981 11.6525 35.4526 11.3498 35.9071 10.8958L35.7556 10.7445C35.4526 10.2905 34.998 9.68518 34.695 9.23119C33.483 7.41521 32.1194 5.90192 30.6044 4.38861C29.2408 5.75059 28.0288 6.96125 26.8167 8.32324C26.6652 8.47457 26.3622 8.62586 26.2107 8.47453C24.3926 7.71787 22.423 7.26389 20.3019 7.11256C19.9989 7.11256 19.8474 6.80991 19.8474 6.65858C19.6959 4.99393 19.3929 3.17796 18.9383 1.51332C16.3627 1.96731 14.0901 2.72396 11.969 3.63195C12.272 5.14526 12.7266 6.05325 13.3326 7.41524L13.4841 7.56658C13.6356 7.71791 13.4841 8.02056 13.3326 8.1719L12.7266 8.77721C11.363 9.98786 9.99943 11.1985 8.93889 12.5605C8.78738 12.7118 8.48437 12.8632 8.18135 12.7118C7.27231 12.2578 6.51481 11.8038 5.60577 11.5012C4.84823 11.1985 4.24222 10.8959 3.48468 10.4419C1.81811 13.1658 0.90904 15.7384 0.757534 18.3111C1.66657 18.4624 2.42413 18.4624 3.33317 18.4624C3.93919 18.4624 4.5452 18.4624 5.30274 18.6138C5.60575 18.6138 5.75728 18.9164 5.75728 19.0677C6.0603 21.0351 6.51478 23.0024 7.42382 25.121C7.57533 25.2723 7.42386 25.575 7.27235 25.7264C6.66632 26.3317 6.06029 26.937 5.60577 27.5423C5.15125 28.1476 4.54521 28.753 3.93918 29.207C4.84822 31.1743 6.2118 32.9903 8.02988 34.3522C9.09043 33.2929 9.84796 32.3849 11.06 31.3256C11.2115 31.1743 11.5145 31.1743 11.666 31.1743L12.2721 31.3256C13.7871 31.9309 15.7567 32.6876 17.4233 32.8389C17.5748 32.8389 17.8778 32.9903 17.8778 33.2929C18.4838 34.5036 18.6353 35.5629 18.7868 37.0762ZM20.1504 25.8777C19.0899 25.8777 17.7263 25.4237 15.7567 24.2131C14.8476 23.6077 13.6356 22.0944 13.3326 20.2784C13.0296 18.4624 13.6356 16.6465 14.9992 14.8305C16.2112 13.1658 18.3323 12.4092 20.1504 12.7118C22.12 13.0145 23.4836 13.4685 24.5441 14.3765C26.2107 15.8898 27.1197 18.4624 26.5137 20.7324C25.9076 23.0024 24.2411 24.8184 21.9685 25.575C21.3624 25.575 20.7564 25.8777 20.1504 25.8777ZM19.3929 13.6198C18.0293 13.6198 16.6657 14.2251 15.7567 15.4358C14.5446 16.9491 14.0901 18.6138 14.2416 20.1271C14.5446 21.6404 15.6052 22.8511 16.2112 23.3051C19.2414 25.2724 20.4534 24.9697 21.514 24.5157C23.3321 23.9104 24.8471 22.2457 25.3016 20.4298C25.7562 18.6138 25.1501 16.4951 23.6351 15.2845C22.726 14.5278 21.6655 14.0738 19.8474 13.7711C19.6959 13.6198 19.5444 13.6198 19.3929 13.6198Z" fill="black"/>
<g opacity="0.1294">
<path d="M24.0896 33.7469C23.7866 33.8983 23.3321 33.8983 23.1806 33.8983C23.0291 33.8983 23.0291 33.8983 22.8776 33.8983C21.817 34.0496 20.908 33.8983 19.8474 33.7469C19.3929 33.7469 18.9384 33.5956 18.4839 33.8983C16.8173 34.5036 17.1203 36.9249 18.6354 37.3789C20.302 37.6815 22.12 37.8329 23.7866 37.5302C23.9381 37.5302 24.2411 37.5302 24.3926 37.3789C25.3017 37.3789 26.2107 37.0762 26.5137 36.1682C27.5743 34.6549 25.7562 33.1416 24.0896 33.7469Z" fill="black"/>
</g>
<g opacity="0.1294">
<path d="M38.1797 22.3971C37.8767 20.2785 34.9981 20.5812 34.6951 22.6998C34.6951 22.8512 34.5436 23.0025 34.5436 23.1538C34.5436 23.3051 34.3921 23.4564 34.2406 23.6078C33.9375 24.3644 33.3315 24.9698 32.877 25.5751C32.4225 26.1804 31.9679 26.4831 31.6649 27.0884C30.9074 28.7531 33.18 30.115 34.3921 28.9044C35.6041 27.5424 36.6647 26.1804 37.5737 24.5158C37.8767 23.9104 38.3313 23.1538 38.1797 22.3971Z" fill="black"/>
</g>
</svg>
