<svg width="21" height="61" viewBox="0 0 21 61" fill="none" xmlns="http://www.w3.org/2000/svg">
<path d="M2.50113 0.779545L0.714679 60.0256L18.4005 60.2204L19.651 0.779545H2.50113Z" fill="white"/>
<path d="M18.4004 61L0.714624 60.6102C0.535979 60.6102 0.357247 60.6102 0.178602 60.4153C-4.36172e-05 60.2205 0 60.0256 0 59.8307L1.78645 0.779541C1.78645 0.389765 2.14379 0 2.50108 0H19.651C19.8296 0 20.0082 -2.97666e-06 20.1869 0.194885C20.3655 0.389773 20.3656 0.584653 20.3656 0.779541L19.1151 60.2204C19.1151 60.8051 18.7577 61 18.4004 61ZM1.42914 59.246L17.6859 59.6358L18.9363 1.75398H3.21559L1.42914 59.246Z" fill="black"/>
</svg>
