<svg width="98" height="103" viewBox="0 0 98 103" fill="none" xmlns="http://www.w3.org/2000/svg">
<g opacity="0.9882">
<path d="M86.4365 51.4339C84.1148 47.3426 83.2219 42.0823 84.2934 37.4065C85.3649 33.51 87.6866 30.0031 90.544 26.8859C87.1508 21.4308 83.4005 15.9757 79.293 11.105C78.9358 10.7154 78.5786 10.1309 78.0428 9.9361C77.3285 9.35163 76.4355 8.96197 75.5426 8.37749C71.7923 12.8585 66.4346 15.1964 60.8984 15.1964C53.7549 14.2223 47.3257 8.37749 44.8255 0.974117C37.8606 2.14307 31.0743 4.28616 24.8237 7.40337C26.0738 9.74127 26.431 12.6636 26.431 15.586C26.431 18.7032 25.8952 21.6256 24.6451 24.3532C23.395 27.0807 21.4305 29.4186 18.9303 30.5876C17.5016 31.3669 15.8943 31.5617 14.287 31.7566C11.6082 31.9514 8.75079 31.9514 6.07197 31.7566C6.07197 31.7566 0.892918 52.9925 1.42868 52.9925C3.21456 53.3822 4.82183 53.9667 6.42912 54.5512C8.21499 55.1356 10.1795 55.9149 11.7867 57.0839C13.394 58.2528 14.8228 60.0063 15.18 61.9545C15.5371 63.3183 15.3585 64.8769 15.18 66.2407C14.4656 71.3062 11.9653 75.9819 8.39359 79.4888C8.39359 79.4888 21.2519 93.5163 21.6091 93.5163C23.0378 91.1784 25.538 89.6198 27.8596 88.4508C28.9312 87.8663 29.8241 87.2818 30.8957 86.8922C34.646 85.5284 39.1107 86.8922 41.9681 90.0094C44.8255 92.9318 46.4328 97.4128 46.6114 101.894C51.2546 101.699 55.7194 101.309 60.3626 100.725C62.3271 100.53 64.4701 100.335 66.256 98.5817C66.0774 94.1007 66.9704 89.6198 68.7563 85.5284C69.6492 83.5802 70.7207 81.6319 72.1494 80.2681C74.4711 78.125 77.5071 77.3457 80.3645 77.5406C83.2219 77.7354 86.0793 78.9043 88.9367 80.0733C91.9727 73.8388 95.0087 67.4096 95.9016 60.2011C92.5084 58.6425 88.7581 55.5253 86.4365 51.4339ZM64.2916 52.7977C63.9344 55.7201 62.6843 58.4476 61.077 60.7855C60.184 61.9545 59.2911 62.9286 58.2196 63.7079C57.148 64.4872 55.898 65.4614 54.4693 65.6562C53.0406 66.0458 51.6118 65.851 50.1831 65.851C48.7544 65.851 47.1471 65.851 45.7184 65.2666C44.4683 64.6821 43.2182 63.7079 42.1467 62.7338C41.0751 61.7597 40.0037 60.7856 39.2893 59.4218C36.6105 54.1615 37.3248 47.1478 40.5394 42.472C42.3253 39.9392 44.6469 37.991 47.1472 36.6272C49.826 35.0686 53.0406 34.4841 56.0765 35.4582C56.9695 35.8479 57.3267 36.6272 57.1481 37.4065C62.5057 40.134 65.0059 46.9529 64.2916 52.7977Z" fill="white"/>
<path d="M63.9344 31.7566C59.8269 28.8342 54.2906 27.6652 50.3617 28.0549C43.3968 28.8342 38.0391 32.9255 34.4674 39.5496C30.7171 46.1736 30.1813 54.9408 33.0387 61.9545C35.8961 68.9682 42.3252 74.4233 49.4688 75.2026C55.3621 75.9819 61.4342 73.8389 65.8988 69.5527C70.3635 65.2665 72.1494 59.0322 72.8638 52.6029C73.0423 49.2909 71.7922 37.4065 63.9344 31.7566ZM56.0765 65.851C50.3617 67.9941 43.754 65.6562 40.1822 60.3959C39.1107 58.8373 38.3963 57.0839 38.0391 55.1356C37.682 53.1874 38.0392 51.2391 38.3963 49.2909C39.4679 44.615 41.7895 40.3289 45.3613 37.7962C48.933 35.2634 53.7549 34.4841 57.6838 36.6272C62.5057 39.3548 65.3631 45.0047 65.5416 50.6547C65.7202 57.2787 61.6127 63.7079 56.0765 65.851Z" fill="#ACD4F7"/>
<g opacity="0.1294">
<path d="M74.1139 50.0701C73.9353 49.2908 73.5781 48.5116 73.3995 47.7323C72.8637 46.3685 72.328 44.8099 71.9708 43.4461H71.7922C70.3635 44.2254 71.0779 45.3944 71.2565 46.7581C71.4351 48.1219 71.6136 49.6805 71.7922 51.0443C71.9708 52.4081 71.9708 53.9667 71.9708 55.3305C71.9708 55.3305 71.9708 55.3305 71.9708 55.5253C71.7922 56.3046 71.4351 57.0839 71.2565 57.8632C70.3636 61.1752 70.0064 62.1493 68.3991 64.8769C68.2205 65.0717 68.0419 65.2665 68.0419 65.4614C67.8633 65.6562 67.5061 66.4355 67.3275 66.6303C67.3275 66.6303 67.3275 66.8252 67.1489 66.8252C67.1489 67.02 66.9704 67.02 66.9704 67.2148C66.7918 67.6045 65.7203 68.7734 65.7203 68.7734C64.2916 69.9424 64.4701 69.9423 62.8628 71.3061C61.6127 72.0854 60.3626 72.8647 59.1125 73.644C57.5052 74.4234 55.5407 75.3975 53.0405 75.5923C51.0761 75.5923 49.2902 75.5923 47.3257 75.3975C44.4683 74.813 43.7539 74.2285 41.2537 72.6699C40.5394 72.2803 39.825 71.1113 38.7535 71.3061C39.4678 72.0854 40.1822 72.8647 40.8966 73.644C41.7895 74.6182 42.6824 75.5923 43.5754 76.5664C46.4328 77.7354 49.6473 78.5147 52.8619 78.3199C54.6478 78.3199 56.4337 78.125 58.2196 77.7354C61.2555 76.7613 64.113 75.2027 66.6132 73.0596C68.3991 71.3062 70.3635 69.5527 71.7922 67.6044C73.9353 63.7079 74.8282 59.4218 74.8282 56.1097C74.4711 54.3563 74.2925 52.2132 74.1139 50.0701Z" fill="black"/>
</g>
<g opacity="0.1294">
<path d="M97.5089 60.5907C97.3303 59.6166 95.9016 59.4218 95.5444 60.3959C93.58 64.2925 91.4369 68.189 89.2939 71.8906C88.4009 73.4492 87.3294 74.813 86.6151 76.5664C86.4365 76.9561 86.0793 77.3458 86.0793 77.9302C85.7221 79.294 87.508 80.463 88.5795 79.6837C88.9367 79.4888 89.1152 78.9043 89.4724 78.5147C89.651 78.3199 89.8296 78.1251 90.0082 77.9302C92.1513 74.6182 93.0442 70.7217 94.8301 67.2148C95.723 65.4614 96.6159 63.5131 97.5089 61.7597C97.5089 61.37 97.5089 60.9804 97.5089 60.5907Z" fill="black"/>
</g>
<g opacity="0.1294">
<path d="M64.6487 94.88C63.7558 94.6852 63.0415 95.0749 62.3271 95.2697C57.1481 96.8283 53.5763 97.0231 47.6829 96.6334C45.0041 96.6334 45.0041 101.114 47.6829 101.114C52.1476 101.309 56.7909 101.309 61.2556 100.14C62.3271 99.9455 63.3986 99.5559 64.2916 99.361C65.0059 99.1662 65.5417 98.7766 65.8989 98.1921C66.4346 96.8283 65.8988 95.2697 64.6487 94.88Z" fill="black"/>
</g>
<path d="M46.79 102.089C46.4328 102.089 46.0756 101.699 46.0756 101.309C45.897 97.0231 44.1111 92.9318 41.2537 90.0094C40.0036 88.8404 38.2177 87.2818 35.8961 87.087C33.9316 86.8922 31.9672 87.6715 30.1813 88.4508C27.3239 89.6198 24.4665 91.1784 22.502 94.2956C22.3234 94.4904 22.1449 94.6852 21.9663 94.6852C21.7877 94.6852 21.6091 94.6852 21.4305 94.4904C15.8943 89.8146 11.4296 85.1388 8.03645 80.2681C7.85786 79.8785 7.85782 79.4888 8.21499 79.0991C11.6082 75.9819 13.9298 71.501 14.8228 66.8252C15.1799 64.8769 15.1799 63.5131 14.8228 62.1494C14.1084 60.0063 12.5011 58.058 9.46513 56.4994C6.78631 55.1357 3.92892 54.1615 0.71434 53.577C0.535752 53.577 0.357132 53.3822 0.178544 53.1874C-4.36032e-05 52.9925 0 52.7977 0 52.6029C1.07153 45.3944 3.03595 37.991 5.53618 30.9773C5.71476 30.5876 6.07194 30.3928 6.42912 30.5876C10.0009 31.9514 18.7517 32.1462 22.3235 27.4704C28.2169 19.6774 25.538 10.7154 24.4665 8.18267C24.2879 7.79302 24.4665 7.40336 24.8237 7.20854C28.2169 5.45511 33.7531 3.7017 39.825 1.75345C41.6109 1.16897 43.5754 0.584477 45.3613 0C45.5399 0 45.897 1.18883e-05 46.0756 0.194837C46.2542 0.389663 46.2542 0.779302 46.2542 0.974128C45.897 2.53273 49.2902 9.35162 54.2907 12.0792C65.8989 18.7032 73.3995 10.5206 75.364 7.79302C75.5426 7.5982 75.7212 7.5982 75.8998 7.40338C76.0784 7.40338 76.2569 7.40339 76.4355 7.59821C82.1503 14.0275 86.9722 20.2619 91.2583 26.8859C91.4369 27.2756 91.4369 27.6652 91.0798 28.0549C86.0793 31.9514 83.5791 39.3548 84.8292 45.784C86.0793 52.2133 91.0798 57.8632 97.3303 59.6166C97.5089 59.6166 97.6875 59.8114 97.8661 60.0063C98.0446 60.2011 98.0446 60.3959 97.8661 60.5907C95.9016 67.9941 93.0442 75.0078 89.651 81.2422C89.4724 81.6319 89.1153 81.6319 88.7581 81.6319C84.2934 79.4888 80.0073 77.7354 75.8998 79.294C73.0424 80.4629 70.5421 83.3853 69.1134 87.2818C68.0419 90.2042 67.6847 93.5163 67.5061 96.8283C67.5061 97.6076 67.3275 98.1921 67.3275 98.9714C67.3275 99.361 66.9704 99.5558 66.7918 99.7507C59.8269 101.114 53.3977 102.089 46.79 102.089ZM35.3604 85.5284C35.7175 85.5284 35.8961 85.5284 36.2533 85.5284C38.3963 85.7233 40.5394 86.8922 42.5039 88.8404C45.5399 91.9576 47.3257 96.049 47.6829 100.53C53.7549 100.335 59.8269 99.5559 66.256 97.9973C66.256 97.4128 66.4346 96.8283 66.4346 96.4387C66.7918 92.9318 67.149 89.6198 68.2205 86.5026C69.6492 82.2164 72.5066 78.9043 75.8998 77.5406C80.1859 75.982 84.8292 77.7354 89.1153 79.6837C92.1513 74.0337 94.83 67.4096 96.6159 60.7856C90.1868 58.6425 85.0078 52.7977 83.7576 45.9788C82.3289 39.1599 85.0078 31.3669 90.0082 27.0808C86.0793 21.0412 81.6146 15.1964 76.4355 9.35163C73.9353 12.274 65.8989 20.067 54.1121 13.443C49.4688 10.9102 45.897 4.87066 45.3613 1.75345C43.754 2.33792 42.1467 2.72755 40.718 3.31203C35.1818 5.06546 30.0027 6.8189 26.6096 8.3775C27.8597 11.8844 30.0027 20.6515 23.9307 28.4445C20.0018 33.51 11.4296 33.7048 7.14351 32.341C4.82187 38.9651 3.03595 45.5892 1.96442 52.2132C5.00041 52.7977 7.67925 53.7719 10.3581 55.1356C13.7512 56.8891 15.7157 59.0321 16.43 61.7597C16.7872 63.3183 16.9658 64.8769 16.6086 67.02C15.7157 71.8906 13.394 76.5665 10.0009 79.8785C13.2154 84.1647 17.1444 88.4508 22.1449 92.7369C24.1093 89.8146 27.1453 88.256 30.0027 87.087C31.4314 86.1129 33.2173 85.5284 35.3604 85.5284Z" fill="black"/>
<path d="M51.076 67.4096C46.4327 67.4096 41.6109 65.0717 38.9321 60.7856C37.682 59.0321 36.9676 57.0839 36.6105 55.1356C36.2533 53.3822 36.4318 51.4339 36.9676 49.096C38.0391 44.0306 40.718 39.5496 44.2897 37.0168C48.2186 34.0945 53.3977 33.7048 57.3266 35.8479C62.1485 38.5755 65.3631 44.4202 65.5416 50.6547C65.7202 57.4736 61.6127 64.2924 55.5407 66.4355C54.112 67.2148 52.5047 67.4096 51.076 67.4096ZM51.7904 36.2376C49.4688 36.2376 47.1471 37.0169 45.0041 38.5755C41.7895 40.9134 39.2893 45.0047 38.3963 49.6805C37.8606 51.8236 37.8606 53.577 38.0391 55.1356C38.2177 56.6942 38.9321 58.4477 40.0036 60.0063C43.3968 65.0717 49.8259 67.2148 55.1836 65.2666C60.5412 63.3183 64.4701 57.0839 64.113 51.0443C63.9344 45.3943 60.8984 40.1341 56.6123 37.6013C55.1836 36.6272 53.3977 36.2376 51.7904 36.2376Z" fill="black"/>
<path d="M51.076 76.1767C50.1831 76.1767 49.4687 76.1768 48.5758 75.982C41.2537 75.0078 34.646 69.5527 31.61 62.1493C28.574 54.746 29.1098 45.9788 33.0387 38.9651C36.9676 31.9514 42.5038 28.0549 49.4687 27.0807C54.112 26.4963 59.6482 28.0549 63.5772 30.9773C71.9708 37.0169 72.8637 49.6805 72.6852 52.4081C71.9708 60.3959 69.6492 66.0459 65.5416 69.9424C61.6127 74.0337 56.2551 76.1767 51.076 76.1767ZM51.6118 28.8342C51.0761 28.8342 50.3617 28.8342 49.8259 29.029C43.2182 29.8083 38.0391 33.51 34.4674 40.1341C30.8956 46.5633 30.3598 54.9408 33.2173 61.7597C36.0747 68.7734 42.3253 73.644 48.933 74.6182C54.4692 75.3975 60.5412 73.2544 64.8273 69.1631C68.5777 65.4614 70.7207 60.2011 71.4351 52.6029C71.7923 49.096 70.3635 37.7961 63.0414 32.5358C59.6483 30.1979 55.3622 28.8342 51.6118 28.8342Z" fill="black"/>
<path d="M63.9344 31.7566C59.8269 28.8342 54.2906 27.6652 50.3617 28.0549C43.3968 28.8342 38.0391 32.9255 34.4674 39.5496C30.7171 46.1736 30.1813 54.9408 33.0387 61.9545C35.8961 68.9682 42.3252 74.4233 49.4688 75.2026C55.3621 75.9819 61.4342 73.8389 65.8988 69.5527C70.3635 65.2665 72.1494 59.0322 72.8638 52.6029C73.0423 49.2909 71.7922 37.4065 63.9344 31.7566ZM56.0765 65.851C50.3617 67.9941 43.754 65.6562 40.1822 60.3959C39.1107 58.8373 38.3963 57.0839 38.0391 55.1356C37.682 53.1874 38.0392 51.2391 38.3963 49.2909C39.4679 44.615 41.7895 40.3289 45.3613 37.7962C48.933 35.2634 53.7549 34.4841 57.6838 36.6272C62.5057 39.3548 65.3631 45.0047 65.5416 50.6547C65.7202 57.2787 61.6127 63.7079 56.0765 65.851Z" fill="#ACD4F7"/>
<g opacity="0.1294">
<path d="M74.1139 50.0701C73.9353 49.2908 73.5781 48.5116 73.3995 47.7323C72.8637 46.3685 72.328 44.8099 71.9708 43.4461H71.7922C70.3635 44.2254 71.0779 45.3944 71.2565 46.7581C71.4351 48.1219 71.6136 49.6805 71.7922 51.0443C71.9708 52.4081 71.9708 53.9667 71.9708 55.3305C71.9708 55.3305 71.9708 55.3305 71.9708 55.5253C71.7922 56.3046 71.4351 57.0839 71.2565 57.8632C70.3636 61.1752 70.0064 62.1493 68.3991 64.8769C68.2205 65.0717 68.0419 65.2665 68.0419 65.4614C67.8633 65.6562 67.5061 66.4355 67.3275 66.6303C67.3275 66.6303 67.3275 66.8252 67.1489 66.8252C67.1489 67.02 66.9704 67.02 66.9704 67.2148C66.7918 67.6045 65.7203 68.7734 65.7203 68.7734C64.2916 69.9424 64.4701 69.9423 62.8628 71.3061C61.6127 72.0854 60.3626 72.8647 59.1125 73.644C57.5052 74.4234 55.5407 75.3975 53.0405 75.5923C51.0761 75.5923 49.2902 75.5923 47.3257 75.3975C44.4683 74.813 43.7539 74.2285 41.2537 72.6699C40.5394 72.2803 39.825 71.1113 38.7535 71.3061C39.4678 72.0854 40.1822 72.8647 40.8966 73.644C41.7895 74.6182 42.6824 75.5923 43.5754 76.5664C46.4328 77.7354 49.6473 78.5147 52.8619 78.3199C54.6478 78.3199 56.4337 78.125 58.2196 77.7354C61.2555 76.7613 64.113 75.2027 66.6132 73.0596C68.3991 71.3062 70.3635 69.5527 71.7922 67.6044C73.9353 63.7079 74.8282 59.4218 74.8282 56.1097C74.4711 54.3563 74.2925 52.2132 74.1139 50.0701Z" fill="black"/>
</g>
<g opacity="0.1294">
<path d="M97.5089 60.5907C97.3303 59.6166 95.9016 59.4218 95.5444 60.3959C93.58 64.2925 91.4369 68.189 89.2939 71.8906C88.4009 73.4492 87.3294 74.813 86.6151 76.5664C86.4365 76.9561 86.0793 77.3458 86.0793 77.9302C85.7221 79.294 87.508 80.463 88.5795 79.6837C88.9367 79.4888 89.1152 78.9043 89.4724 78.5147C89.651 78.3199 89.8296 78.1251 90.0082 77.9302C92.1513 74.6182 93.0442 70.7217 94.8301 67.2148C95.723 65.4614 96.6159 63.5131 97.5089 61.7597C97.5089 61.37 97.5089 60.9804 97.5089 60.5907Z" fill="black"/>
</g>
<g opacity="0.1294">
<path d="M64.6487 94.88C63.7558 94.6852 63.0415 95.0749 62.3271 95.2697C57.1481 96.8283 53.5763 97.0231 47.6829 96.6334C45.0041 96.6334 45.0041 101.114 47.6829 101.114C52.1476 101.309 56.7909 101.309 61.2556 100.14C62.3271 99.9455 63.3986 99.5559 64.2916 99.361C65.0059 99.1662 65.5417 98.7766 65.8989 98.1921C66.4346 96.8283 65.8988 95.2697 64.6487 94.88Z" fill="black"/>
</g>
<path d="M51.076 67.4096C46.4327 67.4096 41.6109 65.0717 38.9321 60.7856C37.682 59.0321 36.9676 57.0839 36.6105 55.1356C36.2533 53.3822 36.4318 51.4339 36.9676 49.096C38.0391 44.0306 40.718 39.5496 44.2897 37.0168C48.2186 34.0945 53.3977 33.7048 57.3266 35.8479C62.1485 38.5755 65.3631 44.4202 65.5416 50.6547C65.7202 57.4736 61.6127 64.2924 55.5407 66.4355C54.112 67.2148 52.5047 67.4096 51.076 67.4096ZM51.7904 36.2376C49.4688 36.2376 47.1471 37.0169 45.0041 38.5755C41.7895 40.9134 39.2893 45.0047 38.3963 49.6805C37.8606 51.8236 37.8606 53.577 38.0391 55.1356C38.2177 56.6942 38.9321 58.4477 40.0036 60.0063C43.3968 65.0717 49.8259 67.2148 55.1836 65.2666C60.5412 63.3183 64.4701 57.0839 64.113 51.0443C63.9344 45.3943 60.8984 40.1341 56.6123 37.6013C55.1836 36.6272 53.3977 36.2376 51.7904 36.2376Z" fill="black"/>
<path d="M51.076 76.1767C50.1831 76.1767 49.4687 76.1768 48.5758 75.982C41.2537 75.0078 34.646 69.5527 31.61 62.1493C28.574 54.746 29.1098 45.9788 33.0387 38.9651C36.9676 31.9514 42.5038 28.0549 49.4687 27.0807C54.112 26.4963 59.6482 28.0549 63.5772 30.9773C71.9708 37.0169 72.8637 49.6805 72.6852 52.4081C71.9708 60.3959 69.6492 66.0459 65.5416 69.9424C61.6127 74.0337 56.2551 76.1767 51.076 76.1767ZM51.6118 28.8342C51.0761 28.8342 50.3617 28.8342 49.8259 29.029C43.2182 29.8083 38.0391 33.51 34.4674 40.1341C30.8956 46.5633 30.3598 54.9408 33.2173 61.7597C36.0747 68.7734 42.3253 73.644 48.933 74.6182C54.4692 75.3975 60.5412 73.2544 64.8273 69.1631C68.5777 65.4614 70.7207 60.2011 71.4351 52.6029C71.7923 49.096 70.3635 37.7961 63.0414 32.5358C59.6483 30.1979 55.3622 28.8342 51.6118 28.8342Z" fill="black"/>
</g>
</svg>
