<svg width="48" height="47" viewBox="0 0 48 47" fill="none" xmlns="http://www.w3.org/2000/svg">
<path d="M40.2712 19.4035L38.4593 13.2201L42.385 7.63988L32.7216 0.853157C31.5137 2.96458 30.3058 4.92519 28.9469 7.03661C28.9469 7.18743 28.7959 7.18743 28.6449 7.33824C28.4939 7.48906 28.3429 7.48906 28.1919 7.48906C26.0781 7.48906 23.9641 7.48906 21.6993 7.33824C20.6423 5.22682 19.5854 3.26621 18.5285 1.45641C18.3775 1.3056 18.3775 1.15478 18.2265 1.15478C18.0755 1.15478 17.9245 1.15478 17.7735 1.3056C15.2067 2.81376 12.6399 4.47273 10.0731 5.98089L9.922 6.13172C9.77101 6.28254 9.92206 6.58416 10.0731 6.73498C10.979 8.54477 12.1869 10.0529 13.5458 11.5611C12.3379 13.6725 11.1299 15.7839 9.922 17.7446C9.62002 18.197 9.16707 18.6494 8.7141 18.8003C8.26113 18.9511 7.80812 18.8003 7.35515 18.6494C5.54326 18.197 3.73137 17.5937 2.07047 16.8397C0.560566 20.4592 0.258585 24.5313 1.31552 28.3017C1.46651 28.6033 8.1101 27.5476 8.1101 27.5476L12.0359 34.636L8.86505 39.9145L16.1127 45.3439L19.8874 39.7637L26.531 39.9145L29.0978 45.9472L39.0632 42.4784L36.6474 36.2949L40.2712 30.4131L47.0658 29.8098L47.2167 21.3641L40.2712 19.4035ZM28.6449 22.5707C28.6449 22.8723 28.4939 23.4756 28.3429 23.7772C28.1919 24.0788 28.1919 24.2296 28.0409 24.3805C27.7389 24.8329 27.437 25.1345 27.135 25.4362C26.38 26.0394 25.625 26.6427 24.7191 26.9443C24.4171 27.0951 23.9641 27.246 23.5112 27.246C23.2092 27.246 22.9072 27.3968 22.4542 27.246C22.3032 27.246 22.0013 27.0951 21.8503 27.0951C22.4543 27.0951 21.8503 27.0951 21.5483 27.0951C20.4914 26.7935 19.5854 25.8886 18.9814 24.9837C18.6795 24.3805 18.3775 23.7772 18.3775 23.1739C18.3775 22.5707 18.5285 21.9674 18.6794 21.3641C18.9814 20.6101 19.4345 19.856 19.8874 19.1019C20.4914 18.3478 21.0953 17.4429 22.0013 16.9905C22.9072 16.538 23.8132 16.538 24.5681 16.8397C24.8701 16.6888 25.3231 16.6888 25.6251 16.6888C26.229 16.9905 26.833 17.2921 27.135 17.7446C27.5879 18.197 27.8899 18.8003 28.0409 19.4035C28.1919 19.5543 28.1919 19.856 28.1919 20.0068C28.1919 20.1576 28.1919 20.3084 28.1919 20.3084C28.1919 20.4592 28.1919 20.6101 28.1919 20.9117V20.7609C28.1919 20.6101 28.1919 20.6101 28.1919 20.7609C28.1919 20.9117 28.1919 21.2133 28.3429 21.3641C28.3429 21.515 28.3429 21.515 28.3429 21.6658C28.7959 22.1182 28.7959 22.269 28.6449 22.5707Z" fill="white"/>
<path d="M10.828 26.7935C10.677 26.7935 10.677 26.6427 10.677 26.4919C12.6399 19.856 14.7538 13.2201 17.3206 6.73496C17.3206 6.58415 17.4716 6.58415 17.6226 6.58415C17.7736 6.58415 17.7736 6.73497 17.7736 6.88579C15.2067 13.3709 12.9418 19.856 11.1299 26.4919C10.9789 26.7935 10.979 26.7935 10.828 26.7935Z" fill="black"/>
<path d="M13.8478 27.8492C13.6969 27.8492 13.6968 27.6984 13.6968 27.5476C15.5087 21.2133 17.7736 15.1807 20.6424 9.29883C20.6424 9.14801 20.7933 9.14802 20.9443 9.14802C21.0953 9.14802 21.0954 9.29883 21.0954 9.44964C18.2266 15.3315 15.9616 21.3641 14.1498 27.6984C13.9988 27.8492 13.8478 27.8492 13.8478 27.8492Z" fill="black"/>
<path d="M12.6399 39.9145C12.4889 39.9145 12.4889 39.7637 12.4889 39.6129L17.3207 27.6984C17.3207 27.5476 17.4717 27.5476 17.6227 27.5476C17.7737 27.5476 17.7736 27.6984 17.7736 27.8493L12.9419 39.7637C12.7909 39.9145 12.7909 39.9145 12.6399 39.9145Z" fill="black"/>
<path d="M19.1325 37.3505C18.9815 37.3505 18.9815 37.3505 19.1325 37.3505C18.9815 37.3505 18.9815 37.1997 18.9815 37.0489L21.6993 30.2622C21.6993 30.1114 21.8503 30.1114 22.0013 30.1114C22.1523 30.1114 22.1523 30.2622 22.1523 30.413L19.4344 37.1997C19.2835 37.3505 19.1325 37.3505 19.1325 37.3505Z" fill="black"/>
<path d="M24.1152 14.7283C23.9642 14.7283 23.9642 14.5774 23.9642 14.4266L25.3231 10.2038C25.3231 10.053 25.4741 10.053 25.6251 10.053C25.7761 10.053 25.7761 10.2038 25.7761 10.3546L24.4172 14.5774C24.2662 14.7283 24.2662 14.7283 24.1152 14.7283Z" fill="black"/>
<path d="M29.2488 15.9348C29.0978 15.9348 29.0978 15.784 29.0978 15.6332C30.4568 12.0136 31.9667 8.39399 33.6276 5.07604C33.6276 4.92522 33.7786 4.92523 33.9296 4.92523C34.0806 4.92523 34.0805 5.07604 34.0805 5.22685C32.4196 8.69562 30.9097 12.1644 29.5508 15.784C29.3998 15.784 29.2488 15.9348 29.2488 15.9348Z" fill="black"/>
<path d="M24.1152 37.3506C23.9642 37.3506 23.9642 37.1998 23.9642 37.049L36.1945 10.5053C36.1945 10.3545 36.3455 10.3545 36.4965 10.3545C36.6475 10.3545 36.6474 10.5054 36.6474 10.6562L24.2662 37.3506H24.1152Z" fill="black"/>
<path d="M29.0979 38.5572C28.9469 38.5572 28.9469 38.5572 29.0979 38.5572C28.9469 38.5572 28.9469 38.4064 28.9469 38.2556L37.2514 20.1577C37.2514 20.0069 37.4023 20.0069 37.5533 20.0069C37.7043 20.0069 37.7044 20.1577 37.7044 20.3085L29.3999 38.4064C29.2489 38.4064 29.0979 38.5572 29.0979 38.5572Z" fill="black"/>
<path d="M37.8554 29.5082C37.7044 29.5082 37.7044 29.3574 37.7044 29.2066L41.3281 22.4199C41.3281 22.269 41.4791 22.269 41.6301 22.269C41.7811 22.269 41.7812 22.4199 41.7812 22.5707L38.1574 29.3574C38.0064 29.3574 37.8554 29.5082 37.8554 29.5082Z" fill="black"/>
<path d="M31.8157 42.1768C31.6647 42.1768 31.6647 42.1768 31.8157 42.1768C31.6647 42.1768 31.6647 42.0259 31.6647 41.8751L33.3256 38.5572C33.3256 38.4064 33.4766 38.4064 33.6276 38.4064C33.7786 38.4064 33.7785 38.5572 33.7785 38.708L32.1177 42.0259C31.8157 42.1768 31.8157 42.1768 31.8157 42.1768Z" fill="black"/>
<path d="M3.88243 25.2853C3.73144 25.2853 3.73148 25.1345 3.73148 24.9837L5.99634 20.3084C5.99634 20.1576 6.14735 20.1576 6.29834 20.1576C6.44933 20.1576 6.44929 20.3084 6.44929 20.4592L4.18443 25.1345C4.03344 25.1345 4.03342 25.2853 3.88243 25.2853Z" fill="black"/>
<path d="M13.3948 7.63982C13.2438 7.63982 13.2438 7.63982 13.3948 7.63982C13.2438 7.63982 13.2438 7.48899 13.2438 7.33818L14.9047 4.32186C14.9047 4.17104 15.0557 4.17104 15.2067 4.32186C15.3577 4.32186 15.3577 4.47268 15.2067 4.6235L13.5458 7.63982C13.3949 7.489 13.3948 7.63982 13.3948 7.63982Z" fill="black"/>
<g opacity="0.1294">
<path d="M30.6078 23.7772C30.4568 22.7215 28.9469 22.5707 28.6449 23.6264C28.3429 24.6821 28.4939 24.3805 27.437 25.4362C26.3801 26.1903 26.833 26.0395 25.1722 26.6427C23.6622 27.0952 24.2662 26.9444 23.0582 26.9444C22.9073 26.9444 22.7563 26.9444 22.6053 26.7936C22.0013 26.4919 22.1523 26.6427 21.0954 26.0395C20.6424 25.7378 20.1894 25.2854 19.5855 25.2854C17.9246 24.9838 17.1696 27.3968 18.5285 28.3017C21.0954 30.1115 23.8132 31.0164 26.6821 29.5082C28.192 28.6033 29.3999 27.246 29.8528 25.587C30.4568 24.9838 30.7588 24.3805 30.6078 23.7772Z" fill="black"/>
</g>
<g opacity="0.1294">
<path d="M35.1375 40.6685C34.2315 40.9701 33.7786 41.2718 31.9667 41.5734C31.0608 41.875 30.0038 41.7242 29.2488 42.3275C27.7389 43.534 28.9468 46.0979 30.7587 45.4946C32.8726 45.0422 35.4394 44.8914 37.1003 43.2324C38.6102 41.7242 36.9494 39.7636 35.1375 40.6685Z" fill="black"/>
</g>
<g opacity="0.1294">
<path d="M47.5188 26.1902C47.5188 25.8886 47.3677 25.4361 47.2168 25.1345C46.4618 23.6263 44.197 23.9279 43.744 25.4361C43.744 25.4361 43.7439 25.5869 43.5929 25.7377C43.442 26.0394 43.291 26.341 43.291 26.6426C43.14 26.9443 42.989 27.2459 42.989 27.3967C42.838 27.6984 42.687 28.1508 42.687 28.4524C42.687 30.8655 46.1598 31.3179 46.7638 29.0557C47.0658 28.3016 47.3678 27.5475 47.5188 26.6426C47.5188 26.4918 47.5188 26.341 47.5188 26.1902Z" fill="black"/>
</g>
<path d="M28.7958 46.2488C28.4939 46.2488 28.3429 46.098 28.3429 45.9472C27.5879 44.1374 26.833 42.1768 25.776 40.367C23.6622 40.6686 21.3973 40.5178 19.4344 40.367C18.8304 41.4227 18.2265 42.6292 17.6226 43.8357C17.3206 44.439 16.8676 45.1931 16.5656 45.7963C16.4146 46.098 16.1127 46.098 15.8107 46.098C12.6399 44.8914 9.77107 42.78 7.80819 40.2161C7.6572 40.0653 7.6572 39.7637 7.80819 39.6129C8.86513 38.1047 10.073 36.4457 11.281 34.4851C9.92205 32.8262 8.71408 30.7147 7.65715 28.1509C7.20418 28.3017 6.60021 28.3017 6.14724 28.4525C4.63734 28.7541 2.97646 29.0557 1.16457 29.3574C0.862588 29.3574 0.56057 29.2066 0.56057 28.9049C-0.345374 25.2854 -0.194383 21.0625 1.31552 16.6888C1.46651 16.3872 1.76853 16.2364 1.91952 16.3872C4.18438 16.9905 6.44921 17.5937 8.86506 18.0462C9.771 15.9347 10.979 13.9741 12.3379 11.8627C11.281 10.3546 10.073 8.69558 8.86506 6.58415C8.71407 6.28252 8.71412 6.1317 9.0161 5.83007C11.432 3.71864 14.4517 1.75804 17.9245 0.249879C18.2265 0.0990628 18.5285 0.249874 18.6794 0.551506C19.7364 2.51212 20.7933 4.62354 21.6993 6.73496C23.9641 6.43333 26.38 6.28252 28.6449 6.43334C29.7018 4.47273 30.7587 2.3613 32.1177 0.249879C32.2686 -0.0517533 32.5706 -0.051751 32.8726 0.0990651C35.4394 1.45641 38.0063 3.11538 40.1201 5.07599C40.7241 5.52844 41.3281 6.1317 41.932 6.58415C42.234 6.88578 42.536 7.18742 42.687 7.63987C42.687 7.79069 42.687 7.9415 42.536 8.09231C42.0831 8.84639 41.4791 9.60047 40.8751 10.3546C40.1201 11.4103 39.3652 12.6168 38.6102 13.8233C39.3652 15.6331 39.9692 17.2921 40.7241 19.1019C42.687 19.2527 45.1028 19.7052 47.6697 20.7609C47.8207 20.9117 47.9717 21.0625 47.9717 21.2133C48.1227 24.5313 47.6696 27.6984 46.6127 30.7147C46.4617 31.0164 46.3108 31.0164 46.0088 31.0164H45.2539C43.593 31.0164 41.781 30.8655 39.8181 31.0164C39.0632 32.8262 38.0063 34.6359 36.3454 36.5966C37.4023 38.4064 38.4592 40.2161 39.3652 42.4784C39.5162 42.78 39.3652 43.0817 39.0632 43.2325C35.8924 44.7406 32.4196 45.7963 28.7958 46.2488ZM25.9271 39.1604C26.0781 39.1604 26.229 39.3113 26.38 39.4621C27.588 41.4227 28.3429 43.2325 29.0978 45.1931C32.1177 44.7406 35.2884 43.8357 38.3082 42.1767C37.4023 40.0653 36.3454 38.2555 35.4395 36.5966C35.2885 36.4457 35.2885 36.1441 35.4395 35.9933C37.2514 33.8819 38.3082 31.9213 39.0632 30.1115C39.2142 29.9606 39.3652 29.8098 39.5162 29.8098C41.6301 29.659 43.5929 29.659 45.4048 29.8098H45.7068C46.6128 27.246 47.0657 24.5313 46.9147 21.5149C44.3479 20.4592 41.9321 20.1576 40.2712 20.0068C40.1202 20.0068 39.8181 19.856 39.8181 19.7052C39.0632 17.7445 38.3082 15.7839 37.5533 13.8233C37.5533 13.6725 37.5533 13.5217 37.5533 13.3709C38.4592 12.0135 39.2142 10.807 40.1201 9.60047C40.5731 8.84639 41.0261 8.24314 41.4791 7.63987C41.3281 7.48905 41.3281 7.48905 41.1771 7.33823C40.5731 6.88578 39.9691 6.28252 39.3652 5.83007C37.2513 4.02028 35.1375 2.51212 32.7217 1.30559C31.5137 3.41701 30.4568 5.37762 29.3998 7.33823C29.2488 7.48905 29.0978 7.63987 28.7958 7.63987C26.229 7.33824 23.8131 7.48905 21.2463 7.9415C20.9443 7.9415 20.7934 7.79069 20.6424 7.63987C19.8874 5.52845 18.8305 3.56784 17.7735 1.60723C14.7537 2.96457 12.0359 4.62354 9.92201 6.58415C10.9789 8.54476 12.1869 10.2037 13.2438 11.5611C13.3948 11.7119 13.3948 12.0135 13.2438 12.1644C11.8849 14.4266 10.526 16.538 9.46905 18.9511C9.31806 19.2527 9.01605 19.4035 8.86506 19.2527C6.44921 18.6494 4.18438 18.0462 1.91952 17.5937C0.711598 21.5149 0.409616 24.9837 1.16457 28.1509C2.67448 27.8492 4.18442 27.5476 5.54334 27.246C6.29829 27.0951 6.90223 26.9443 7.5062 26.7935C7.80818 26.7935 8.1101 26.9443 8.1101 27.0951C9.31803 29.8098 10.526 32.0721 11.8849 33.8819C12.0359 34.0327 12.0359 34.3343 11.8849 34.4851C10.6769 36.4457 9.46904 38.1047 8.4121 39.7637C10.224 41.8751 12.6398 43.6849 15.2067 44.8914C15.5087 44.2882 15.8106 43.8357 15.9616 43.3833C16.7166 42.0259 17.3205 40.8194 17.9245 39.6129C18.0755 39.4621 18.2265 39.3113 18.5285 39.3113C21.2463 39.3113 23.5112 39.4621 25.9271 39.1604Z" fill="black"/>
<path d="M22.9074 27.2461C22.0014 27.2461 21.0954 27.0952 20.3405 26.6428C19.5855 26.3412 19.1326 25.8887 18.8306 25.4363C18.3776 24.833 18.2266 24.0789 18.2266 23.3248C18.0756 21.2134 18.5286 19.102 19.7365 17.7446C21.0954 16.0857 23.3603 15.3316 25.1722 15.9349C25.3232 15.9349 25.3231 16.0857 25.4741 16.0857C25.4741 16.0857 25.4742 16.0857 25.6252 16.0857C27.588 16.6889 28.9469 18.6495 29.0979 20.9118C29.2489 23.0232 28.041 25.1346 26.3801 26.1903C25.1722 26.9444 23.9643 27.2461 22.9074 27.2461ZM23.6623 16.9906C22.4544 16.9906 21.2464 17.5938 20.4914 18.6495C19.5855 19.8561 19.1325 21.515 19.2835 23.4757C19.2835 23.9281 19.4345 24.5314 19.7365 24.9838C19.8875 25.2855 20.3405 25.5871 20.7934 25.7379C22.3034 26.492 24.1153 26.3412 25.6252 25.4363C26.9841 24.5314 27.89 22.8724 27.89 21.2134C27.739 19.5544 26.6821 17.8955 25.1722 17.443H25.0212C24.8702 17.443 24.5682 17.2922 24.5682 17.1414C24.1152 16.9906 23.8133 16.9906 23.6623 16.9906Z" fill="black"/>
</svg>
