<svg width="12" height="19" viewBox="0 0 12 19" fill="none" xmlns="http://www.w3.org/2000/svg">
<path d="M8.89664 19C7.82064 19 6.74459 18.693 5.6686 18.5395C5.05374 18.3859 4.13152 18.2324 3.51666 17.7718C2.7481 17.1576 2.13318 16.3899 1.82576 15.6223C-0.633659 10.8626 -0.633603 4.87476 1.97953 0.115152C1.97953 -0.038384 2.13326 -0.038384 2.28697 0.115152C2.44069 0.115152 2.44069 0.268683 2.28697 0.422219C-0.326157 5.02829 -0.326213 10.8626 2.1332 15.6223C2.44063 16.2364 3.05548 17.1576 3.67034 17.6182C4.28519 18.0788 4.90003 18.2324 5.6686 18.3859C7.66687 18.8465 9.6652 19.3071 11.2023 18.2324C11.3561 18.2324 11.3561 18.2324 11.5098 18.2324C11.5098 18.3859 11.5098 18.3859 11.5098 18.5395C10.7412 18.8465 9.81892 19 8.89664 19Z" fill="black"/>
</svg>
