<svg width="64" height="69" viewBox="0 0 64 69" fill="none" xmlns="http://www.w3.org/2000/svg">
<path d="M0.680807 15.1674C1.58946 22.2769 3.10391 29.689 1.28661 36.7985C0.226518 40.7315 0.377942 60.3961 16.1279 65.993C24.4572 68.8671 33.998 68.262 42.4787 63.119C48.2335 59.6398 55.3513 48.5973 53.9883 37.8574C58.8345 39.2188 63.5292 35.8909 63.5292 31.6555C63.5292 29.2352 60.8032 26.0586 57.9258 26.2099C55.6542 26.3611 55.3513 26.3611 53.6854 27.5713C52.4739 22.4282 51.8681 17.2851 51.8681 11.3857C46.4162 5.33504 37.6326 2.30971 28.849 0.948312C25.9716 0.494512 22.9427 0.191983 20.0653 0.645783C11.736 1.85592 -0.379286 7.90657 0.680807 15.1674Z" fill="white"/>
<path d="M26.2745 68.4133C22.7914 68.4133 19.3082 67.8082 15.825 66.5981C0.0750655 61.0012 -0.682107 41.4878 0.529428 36.7985C2.19529 30.7479 1.28658 24.2434 0.377931 17.8902C0.226489 16.9826 0.0750287 16.075 0.0750287 15.3187C-0.227855 13.2009 0.377986 11.2345 2.04385 9.26799C5.82989 4.42745 14.1591 0.948319 20.0654 0.191985C23.2456 -0.261815 26.5774 0.19198 29.0005 0.494514C36.2697 1.55338 46.1133 4.27618 52.3225 11.0832C52.4739 11.2345 52.474 11.3857 52.474 11.537C52.3225 16.5288 52.9283 21.3693 53.9884 26.6637C55.1999 25.7561 55.8057 25.7561 57.7744 25.6048C59.1374 25.6048 60.6518 26.2099 62.0148 27.42C63.2263 28.6301 64.1349 30.2941 63.9835 31.6555C63.9835 33.7732 62.9235 35.7397 61.1062 37.1011C59.2889 38.4625 56.8657 39.0675 54.4427 38.6137C55.5028 49.6562 48.385 60.2449 42.6302 63.724C37.6327 66.7494 31.8779 68.4133 26.2745 68.4133ZM22.9428 1.09959C22.0341 1.09959 21.1255 1.09958 20.0654 1.25085C14.3106 2.00718 6.28422 5.18378 2.80106 9.87305C1.43808 11.537 0.832256 13.3522 1.13514 15.1674C1.28658 16.075 1.43804 16.8313 1.43804 17.7389C2.34669 24.0921 3.25531 30.7479 1.58945 37.1011C0.832238 39.8239 0.0750828 59.7911 16.1279 65.5392C24.7601 68.5646 33.998 67.657 42.0244 62.6652C47.4763 59.3373 54.5941 48.5973 53.2312 37.8574C53.2312 37.7061 53.2311 37.5549 53.3826 37.4036C53.534 37.2523 53.6854 37.2523 53.8369 37.2523C56.1085 37.8574 58.5316 37.4036 60.3489 36.0422C61.8634 34.8321 62.772 33.3194 62.772 31.5042C62.772 30.4453 62.1662 29.0839 61.1062 28.0251C60.0461 27.1175 58.8345 26.5124 57.7744 26.6637C55.6542 26.8149 55.5027 26.8149 53.8369 28.0251C53.6854 28.1763 53.534 28.1763 53.2312 28.1763C53.0797 28.1763 52.9283 28.0251 52.9283 27.7225C51.5653 22.1257 51.1109 16.9826 51.1109 11.6883C45.2047 5.33506 35.6639 2.61225 28.5462 1.70465C27.1832 1.40212 25.063 1.09959 22.9428 1.09959Z" fill="black"/>
</svg>
