<svg width="166" height="164" viewBox="0 0 166 164" fill="none" xmlns="http://www.w3.org/2000/svg">
<path d="M79.273 163.417C78.9159 163.417 78.5587 163.028 78.5587 162.638C78.2017 155.626 75.1664 148.809 70.1672 144.134C68.0247 142.187 64.811 139.655 60.7045 139.265C57.3122 138.875 53.9199 140.044 50.7061 141.408C45.7069 143.355 40.7077 145.887 37.4939 150.952C37.3154 151.146 37.1369 151.341 36.9583 151.341C36.7798 151.341 36.6013 151.341 36.4227 151.146C26.96 143.55 19.4612 136.149 13.7478 128.358C13.5693 128.163 13.5693 127.968 13.5693 127.773C13.5693 127.578 13.7478 127.384 13.9263 127.189C19.8182 122.125 23.9247 114.723 25.3531 107.127C25.8887 104.011 25.8887 101.673 25.1746 99.5307C24.1033 95.8299 20.8895 92.9082 15.7117 90.1814C11.0696 87.8441 6.07049 86.2859 0.714214 85.312C0.535671 85.312 0.357151 85.1172 0.178608 84.9225C6.53816e-05 84.7277 0 84.5329 0 84.3381C1.78543 72.8463 4.99917 61.1597 9.46274 49.6679C9.64128 49.2784 9.99836 49.0836 10.3554 49.2784C16.4259 51.6157 31.7806 51.8105 38.0296 44.0194C48.2065 31.359 43.3859 16.9455 41.779 12.6605C41.6005 12.2709 41.779 11.8814 42.1361 11.6866C47.8495 8.95971 57.3122 6.03806 67.4891 2.92164C70.5243 1.94776 73.7382 0.973881 76.9519 0C77.1305 0 77.4875 1.18853e-05 77.666 0.194788C77.8446 0.389564 77.8446 0.779105 77.8446 0.973881C77.1305 3.70075 83.0223 14.803 91.7709 19.4776C111.946 30.1903 124.801 16.7507 128.372 12.4657C128.551 12.2709 128.729 12.2709 128.908 12.2709C129.086 12.2709 129.265 12.2709 129.443 12.4657C139.085 22.594 147.298 32.7224 154.439 43.2404C154.618 43.4351 154.618 43.6299 154.618 43.8247C154.618 44.0194 154.439 44.2142 154.261 44.409C145.691 50.8366 141.227 62.718 143.548 73.4307C145.691 83.9486 154.439 93.103 165.331 96.0247C165.509 96.0247 165.688 96.2195 165.866 96.4142C166.045 96.609 166.045 96.8038 165.866 96.9985C162.474 108.685 157.653 120.177 151.94 130.111C151.761 130.5 151.404 130.5 151.047 130.5C143.37 126.994 135.871 124.072 128.908 126.605C123.73 128.358 119.445 133.227 117.124 139.655C115.339 144.524 114.803 149.783 114.267 155.237C114.089 156.405 114.089 157.574 113.91 158.743C113.91 159.132 113.553 159.327 113.375 159.522C101.412 161.664 90.3426 163.028 79.273 163.417ZM59.6333 137.512C59.9904 137.512 60.526 137.512 60.8831 137.512C65.3467 137.902 68.9174 140.628 71.0599 142.771C76.0591 147.64 79.2729 154.458 79.8086 161.664C90.3426 161.275 101.055 160.106 112.303 157.574C112.482 156.6 112.482 155.626 112.66 154.652C113.196 149.004 113.91 143.745 115.696 138.681C118.195 131.864 122.837 126.605 128.372 124.657C135.692 122.125 143.191 124.852 151.047 128.358C156.403 119.008 161.045 108.101 164.259 96.9985C153.368 93.6874 144.441 84.3381 142.12 73.4307C139.799 62.3284 144.262 50.0575 152.833 43.2404C145.869 33.112 138.013 23.5679 128.908 13.8291C126.944 16.1664 122.659 20.6463 116.231 22.9836C108.375 26.1 99.8053 25.3209 91.0567 20.6463C83.2008 16.3612 76.5948 6.42762 76.2377 1.55822C73.381 2.5321 70.5244 3.31121 67.6677 4.09031C58.0264 7.01196 48.9207 9.7388 43.2073 12.4657C45.1713 17.5299 49.2777 31.9433 38.9223 44.7985C32.3162 52.9791 17.3186 52.9792 10.3554 50.8366C6.24897 61.7441 3.21374 72.8463 1.42832 83.7538C6.60605 84.7277 11.6053 86.2859 16.0688 88.6232C21.6037 91.3501 24.996 94.856 26.2458 98.9463C26.96 101.284 26.9599 104.011 26.4243 107.322C24.9959 115.113 20.8895 122.709 15.1761 127.968C20.7109 135.175 27.6741 142.187 36.4227 149.199C39.815 144.134 44.9928 141.797 49.8134 139.655C53.0272 138.681 56.4195 137.512 59.6333 137.512Z" fill="black"/>
</svg>
