<svg width="95" height="101" viewBox="0 0 95 101" fill="none" xmlns="http://www.w3.org/2000/svg">
<path d="M85.1143 50.5C82.7908 46.4054 81.8972 41.1409 82.9695 36.4614C84.0419 32.5618 86.3654 29.0521 89.2251 25.9324C85.8292 20.473 82.0759 15.0135 77.9651 10.139C77.6077 9.74904 77.2502 9.16409 76.714 8.96911C75.9991 8.38417 75.1055 7.99421 74.2118 7.40927C70.4585 11.8938 65.0966 14.2336 59.556 14.2336C52.4068 13.2587 45.9725 7.40927 43.4703 0C36.4998 1.16988 29.708 3.31468 23.4525 6.43437C24.7036 8.77414 25.0611 11.6988 25.0611 14.6236C25.0611 17.7432 24.5249 20.668 23.2738 23.3977C22.0227 26.1274 20.0566 28.4672 17.5544 29.6371C16.1246 30.417 14.5161 30.612 12.9075 30.807C10.2265 31.0019 7.36679 31.0019 4.68584 30.807C4.68584 30.807 -0.497283 52.0599 0.0389069 52.0599C1.82621 52.4498 3.43475 53.0347 5.04332 53.6197C6.83062 54.2046 8.79665 54.9846 10.4052 56.1544C12.0138 57.3243 13.4437 59.0792 13.8011 61.029C14.1586 62.3938 13.9799 63.9537 13.8011 65.3185C13.0862 70.388 10.5839 75.0676 7.00931 78.5772C7.00931 78.5772 19.8779 92.6158 20.2354 92.6158C21.6652 90.2761 24.1674 88.7162 26.4909 87.5463C27.5633 86.9614 28.457 86.3764 29.5294 85.9865C33.2827 84.6216 37.7509 85.9865 40.6106 89.1062C43.4703 92.0309 45.0788 96.5154 45.2576 101C49.9045 100.805 54.3728 100.415 59.0198 99.8301C60.9858 99.6351 63.1306 99.4401 64.9179 97.6853C64.7391 93.2008 65.6328 88.7162 67.4201 84.6216C68.3138 82.6718 69.3861 80.722 70.8159 79.3571C73.1394 77.2124 76.1779 76.4324 79.0376 76.6274C81.8972 76.8224 84.7569 77.9923 87.6166 79.1622C90.655 72.9228 93.6933 66.4884 94.587 59.2741C91.1911 57.5193 87.4378 54.5946 85.1143 50.5ZM62.9519 51.8649C62.5944 54.7896 61.3432 57.5193 59.7346 59.8591C58.841 61.029 57.9474 62.0039 56.875 62.7838C55.8026 63.5637 54.5516 64.5386 53.1217 64.7336C51.6919 65.1236 50.262 64.9286 48.8322 64.9286C47.4023 64.9286 45.7938 64.9286 44.3639 64.3436C43.1128 63.7587 41.8617 62.7838 40.7893 61.8089C39.7169 60.834 38.6446 59.8591 37.9297 58.4942C35.2487 53.2297 35.9636 46.2104 39.1807 41.5309C40.968 38.9961 43.2915 37.0463 45.7937 35.6815C48.4747 34.1216 51.6918 33.5367 54.7302 34.5116C55.6239 34.9016 55.9814 35.6815 55.8027 36.4614C60.9858 39.1911 63.4881 45.8205 62.9519 51.8649Z" fill="white"/>
</svg>
