<svg width="65" height="73" viewBox="0 0 65 73" fill="none" xmlns="http://www.w3.org/2000/svg">
<path d="M56.0252 54.1948C65.4386 43.1241 67.2606 23.864 58.1508 12.6415C49.041 1.26745 34.1617 -2.37225 20.497 2.784C6.52869 8.0919 0.455479 17.0395 0.455479 29.9301C0.455479 43.2757 5.46581 54.3465 22.3189 59.5027C28.2403 61.3226 34.769 61.3226 40.9941 60.4127C42.3605 60.261 43.8788 59.9577 45.2453 60.4127C47.0673 60.8676 48.4337 62.3842 49.8002 63.749C53.1404 67.0854 56.0252 71.3318 60.8837 72.3933C63.1612 72.8483 55.8733 61.4742 56.0252 54.1948Z" fill="white"/>
<path d="M61.0355 72.9999C60.8837 72.9999 60.8838 72.9999 60.7319 72.9999C56.6325 72.09 53.7477 69.0569 51.0148 66.0239C50.4075 65.4172 49.8002 64.8106 49.3447 64.204L49.041 63.9007C47.8264 62.6875 46.6117 61.3226 45.0934 61.0193C43.8788 60.716 42.5123 60.8676 41.2976 61.0193H41.1459C33.858 61.9292 27.633 61.6259 22.3189 60.1093C14.1201 57.6829 8.3506 53.7399 4.70669 48.2803C1.51826 43.4274 0 37.5128 0 30.0818C0 16.5845 6.68046 7.63694 20.3451 2.32904C34.4653 -2.97887 49.4965 0.964148 58.6063 12.3382C63.0094 17.7978 65.135 25.3805 64.6795 33.5698C64.224 41.4559 61.3392 49.0386 56.6325 54.4981C56.6325 58.4411 58.7581 63.5974 60.2764 67.2371C61.7947 70.8768 62.2502 72.09 61.6429 72.6966C61.6429 72.8483 61.3392 72.9999 61.0355 72.9999ZM43.5751 59.5027C44.1824 59.5027 44.7898 59.5027 45.3971 59.806C47.219 60.261 48.5855 61.7775 49.952 62.9908L50.2556 63.2941C50.863 63.9007 51.4703 64.5073 52.0776 65.1139C54.6587 67.8437 57.2398 70.7251 60.8837 71.6351C60.7319 70.8768 59.9728 69.0569 59.3654 67.5404C57.6953 63.5974 55.5697 58.2895 55.5697 54.0432C55.5697 53.8915 55.5697 53.7399 55.7215 53.7399C65.4386 42.3658 66.5014 23.7123 57.8471 12.7932C49.041 1.72242 34.4653 -2.06894 20.8006 3.08731C7.43959 8.0919 1.21462 16.5845 1.21462 29.7785C1.21462 45.2472 8.04698 54.3465 22.7745 58.7444C28.0885 60.261 34.0099 60.5643 41.1459 59.6544H41.2976C41.905 59.6544 42.8159 59.5027 43.5751 59.5027Z" fill="black"/>
<path d="M25.9629 24.1673C23.3817 24.0157 21.2561 21.7408 21.1043 19.3144C20.9524 16.8879 22.3189 14.6131 24.4446 13.2482C26.5702 11.8833 29.3031 11.58 31.8843 11.7317C35.2245 12.035 38.4129 13.7032 40.2349 16.1296C42.0569 18.7078 42.3605 22.1958 40.3867 24.7739C38.7166 27.0487 35.5282 28.4136 34.9209 31.1434C34.4654 32.9633 35.3763 35.3897 33.858 36.7546C32.6434 37.8162 30.5177 37.5129 29.4549 36.2997C28.3921 35.2381 28.0885 33.5699 28.0885 32.0533C28.0885 31.1434 28.2403 30.2335 28.544 29.4752C30.0623 26.1388 34.9208 24.319 35.0726 20.6793C35.0726 19.0111 33.858 17.1912 32.036 16.7362C30.6696 16.2813 28.6958 16.8879 28.3921 18.2528C28.2403 19.1627 28.8476 20.0726 28.9995 20.9826C28.9995 22.3475 28.2403 23.7123 25.9629 24.1673Z" fill="#ACD4F7"/>
<path d="M32.0361 38.1195C30.9733 38.1195 29.7586 37.6645 28.9995 36.9062C27.9367 35.8446 27.3294 34.1764 27.4812 32.2049C27.4812 31.1434 27.6331 30.2334 28.0886 29.4752C28.6959 27.9586 30.0623 26.7454 31.4287 25.5322C32.947 24.0156 34.4654 22.6507 34.6172 20.8309C34.6172 19.3143 33.5544 17.9494 31.8843 17.4945C31.1252 17.3428 30.2142 17.3428 29.6069 17.7978C29.3032 17.9494 28.9995 18.2527 28.9995 18.556C28.8477 19.011 28.9995 19.466 29.3032 19.9209C29.455 20.2242 29.6069 20.6792 29.6069 20.9825C29.7587 22.3474 28.9995 24.0156 26.2666 24.7739H26.1147C23.3818 24.4706 20.9525 22.1958 20.6489 19.466C20.497 17.0395 21.8635 14.3097 24.2928 12.7932C26.4184 11.4283 29.1513 10.9733 32.0361 11.2766C35.68 11.7316 39.0202 13.3998 40.8422 15.9779C42.9678 18.8594 42.9679 22.6507 40.9941 25.2288C40.2349 26.1388 39.4757 26.897 38.5648 27.6553C37.1983 28.8685 35.9837 29.9301 35.68 31.295C35.5282 31.9016 35.5282 32.5083 35.5282 33.2665C35.5282 34.6314 35.5282 36.148 34.3135 37.0579C33.5544 37.8162 32.7952 38.1195 32.0361 38.1195ZM30.9733 16.1296C31.2769 16.1296 31.7324 16.1296 32.0361 16.2812C34.0099 16.8879 35.5282 18.8594 35.5282 20.8309C35.5282 23.1057 33.7062 24.7739 32.0361 26.2904C30.8215 27.352 29.6068 28.5652 28.9995 29.9301C28.6958 30.5367 28.544 31.4467 28.544 32.3566C28.544 33.5698 28.6958 35.0864 29.7586 36.148C30.6696 37.0579 32.4916 37.3612 33.4026 36.4513C34.1617 35.693 34.1617 34.6314 34.1617 33.4182C34.1617 32.6599 34.1617 31.9016 34.3135 31.1434C34.769 29.3235 36.2873 28.1103 37.6538 26.897C38.413 26.1388 39.3239 25.5321 39.9313 24.6222C41.6014 22.3474 41.4495 19.1627 39.7794 16.5845C38.1093 14.3097 35.2246 12.7932 31.8843 12.3382C29.1514 12.0349 26.7221 12.4899 24.7483 13.7031C22.6227 15.068 21.408 17.1912 21.5598 19.3143C21.7116 21.4375 23.6855 23.409 25.8111 23.5606C27.4812 23.1057 28.3922 22.1958 28.2403 21.1342C28.2403 20.8309 28.0885 20.5276 27.9367 20.2243C27.7848 19.6176 27.4812 19.011 27.633 18.2527C27.7848 17.6461 28.2404 17.0395 28.8477 16.7362C29.455 16.2812 30.2141 16.1296 30.9733 16.1296Z" fill="black"/>
<path d="M32.947 41.1527C31.7324 40.6977 30.2141 41.001 29.1513 41.6076C28.0885 42.3659 27.4811 43.5791 27.633 44.7924C27.7848 46.4606 29.3032 47.8255 31.1251 47.9771C32.9471 48.1288 34.769 47.0672 35.2245 45.399C35.6799 43.7308 34.769 41.7593 32.947 41.1527Z" fill="#ACD4F7"/>
<path d="M31.4287 48.5836C31.2768 48.5836 31.125 48.5836 30.9732 48.5836C28.8476 48.432 27.1775 46.7638 27.0257 44.7923C26.8738 43.4274 27.633 41.9108 28.8476 41.1526C30.0623 40.3943 31.7324 40.091 33.0988 40.5459C35.3763 41.3042 36.2873 43.7307 35.68 45.5505C35.0727 47.3704 33.2506 48.5836 31.4287 48.5836ZM31.5805 41.4559C30.8214 41.4559 30.0622 41.6075 29.4549 42.0625C28.5439 42.6691 28.0885 43.7307 28.0885 44.6406C28.2403 46.0055 29.4549 47.2187 30.9732 47.3704C32.4915 47.522 34.0098 46.6121 34.4653 45.2472C34.9207 43.8823 34.1617 42.0625 32.6434 41.6075C32.3397 41.6075 32.036 41.4559 31.5805 41.4559Z" fill="black"/>
<g opacity="0.1294">
<path d="M0.9109 36.603C1.82188 35.8447 2.88467 36.7546 2.88467 37.6645C3.18833 38.8778 3.49201 40.091 3.9475 41.3042C4.25116 42.3658 5.46583 44.6406 6.07315 45.3989C8.50243 48.1287 10.4762 49.7969 13.0573 51.6167C14.5756 52.6783 16.0939 53.5883 17.764 54.3465C21.4079 55.8631 26.2665 56.9246 31.1251 57.0763C35.2245 57.228 39.1721 56.4697 43.2715 56.9246C45.8526 57.3796 47.8263 59.1995 49.6483 60.8677C51.3184 62.5359 53.1403 63.9007 54.9623 65.4173C56.7843 67.2371 58.7581 67.9954 61.1874 69.8153C62.0984 71.0285 60.7319 72.6967 59.3654 71.9384C57.2398 70.5735 55.1142 69.3603 53.2922 67.6921C50.1038 64.9623 47.6745 62.2325 44.7898 60.5644C43.1196 59.3511 37.5019 60.4127 33.4025 60.261C25.9629 60.1094 18.3713 58.5928 12.2981 54.1949C9.26154 52.2234 5.76944 49.0386 4.40297 46.9155C4.40297 46.9155 2.88465 44.944 2.58099 44.1857C1.97367 42.9724 1.51824 41.7592 1.21458 40.546C1.06275 39.6361 0.759052 38.8778 0.607222 37.9679C0.303562 37.5129 0.455411 36.9063 0.9109 36.603Z" fill="black"/>
</g>
</svg>
