<svg width="71" height="77" viewBox="0 0 71 77" fill="none" xmlns="http://www.w3.org/2000/svg">
<path d="M56.0445 6.04489C48.8745 1.15617 39.7327 -0.603769 32.7419 0.178425C20.7321 1.54727 11.7696 7.80481 5.49582 18.56C-0.777947 29.3152 -1.85343 43.1991 3.16559 54.7365C8.18461 66.2739 19.1188 74.6825 31.1286 76.2468C41.1667 77.6157 51.5632 73.9002 59.271 67.056C66.9788 60.2118 70.0261 50.0433 70.9223 39.6792C71.4601 34.2039 69.4883 15.2357 56.0445 6.04489ZM42.4215 60.9941C32.742 64.3184 21.2699 60.603 15.1754 51.9988C13.3829 49.4567 12.1281 46.5234 11.5904 43.5902C11.0526 40.4614 11.4111 37.3327 12.1281 34.3994C13.9206 26.9686 17.8642 19.9288 24.1379 15.8223C30.2325 11.7158 38.478 10.5425 45.1103 14.0624C53.1766 18.3645 58.1956 27.5552 58.5541 36.746C59.0918 47.3056 52.1011 57.6697 42.4215 60.9941Z" fill="#ACD4F7"/>
</svg>
