<svg width="104" height="109" viewBox="0 0 104 109" fill="none" xmlns="http://www.w3.org/2000/svg">
<path d="M92.9996 109C85.6019 109 69.4478 104.778 41.0648 78.6895C36.3846 74.3163 30.0437 73.7131 23.7028 73.8639C22.4951 73.8639 21.4383 73.8639 20.2305 74.0147C16.9091 74.1655 13.2856 74.3163 9.96421 73.2607C9.51129 73.1099 8.90745 72.9591 8.6055 72.5067C8.00161 71.9035 7.8506 71.1495 8.00157 70.5463C8.45449 69.4907 9.81324 69.0384 12.2288 68.7368C14.3424 68.586 17.211 68.2844 19.9285 67.6812C18.7207 67.5304 17.3619 67.2288 16.0031 67.078C13.7385 66.7764 11.474 66.324 9.51131 66.1732C7.24671 66.0224 4.83119 65.57 3.6234 63.4588C3.32145 63.0064 3.17046 62.4032 3.32143 61.9508C3.47241 61.3476 3.92533 60.5936 5.58604 60.5936C8.15258 60.4428 10.8701 60.7444 13.5876 60.8952C15.3993 61.046 17.2109 61.1968 19.0226 61.1968C15.0973 59.538 11.172 58.6332 8.00157 57.8792C3.3214 56.8236 0 56.0696 0 53.2045C0 52.7521 0.15101 52.2997 0.603931 51.9981C1.96269 50.9425 5.13313 51.6965 10.4172 52.7521C13.1347 53.3553 15.8522 53.9585 18.1168 54.2601C16.4561 53.5061 14.3424 52.9029 12.2288 52.2997C7.39766 50.7917 3.3214 49.5853 3.47237 47.0217C3.47237 46.5693 3.77435 46.2677 4.0763 45.9661C5.73701 44.7597 11.172 45.9661 16.0031 47.3233C16.4561 47.4741 16.758 47.4741 17.06 47.6249C18.5697 47.9265 19.7775 48.3789 21.1363 48.8313C23.4009 49.5853 25.3635 50.1885 27.9301 50.3393C26.8733 48.5297 24.7596 46.2677 22.7969 44.3073C19.9285 41.4421 18.4187 39.6326 18.5697 38.4262C18.5697 38.1246 18.8717 37.823 19.1736 37.6722C22.1931 35.8626 26.1184 39.6326 29.8927 43.101C30.7986 44.0057 31.8554 44.9105 32.6102 45.5137C34.8748 47.4741 37.1395 49.7361 39.1022 51.6965C41.2158 53.9584 43.1784 55.768 44.2352 56.3712C48.3115 58.3316 54.8033 62.1016 60.5403 65.4192C63.8617 67.3796 67.0322 69.1892 69.2968 70.3956C69.7498 70.6972 70.2026 70.848 70.6555 71.1496C70.6555 70.9988 70.5046 70.9987 70.5046 70.8479C70.2027 70.3955 70.0517 70.094 69.7497 69.4908C66.7303 64.3636 60.2384 51.3949 55.4073 38.577C51.029 26.9655 46.4998 11.7348 49.9722 4.34562C51.029 1.93284 52.9917 0.424866 55.5582 0.123268C61.2952 -0.781525 67.6361 3.29004 74.5809 12.4888C83.1864 23.9495 91.9428 42.4978 97.8308 61.9508C103.87 81.5547 105.379 97.3885 102.209 104.174C101.152 106.436 99.0385 107.794 96.0191 108.397C95.2642 108.849 94.2074 109 92.9996 109ZM24.0048 72.5067C30.4967 72.5067 37.1394 73.1099 41.9706 77.6339C54.6524 89.2454 66.1264 97.6901 76.0906 102.667C86.3568 107.794 92.3957 108.095 95.8681 107.341C98.4347 106.889 100.397 105.532 101.152 103.722C107.795 89.6978 91.7918 37.2198 73.675 13.092C67.1832 4.34562 60.9933 0.274062 55.7092 1.17886C53.4446 1.48045 51.9349 2.68684 50.8781 4.79802C44.8391 17.7667 64.7676 58.9348 70.6555 68.7368C70.9575 69.1892 71.2594 69.6415 71.4104 70.0939C72.1653 71.4511 72.4672 71.9035 72.1653 72.3559C71.7124 72.8083 71.1085 72.5067 68.6929 71.3003C66.4283 70.0939 63.2579 68.2844 59.9365 66.324C54.1995 63.0064 47.7076 59.2364 43.6314 57.276C42.4236 56.6728 40.6118 54.8632 38.1963 52.4505C36.2336 50.4901 34.12 48.2281 31.8554 46.4185C30.9495 45.6645 30.0437 44.7597 28.9869 43.8549C25.6655 40.6882 21.7402 37.2198 19.4756 38.577C19.3246 39.1802 21.7402 41.7438 23.4009 43.4025C25.6655 45.8153 28.232 48.5297 29.1379 50.6409C29.1379 50.7917 29.1379 50.9425 29.1379 51.2441C28.9869 51.3949 28.8359 51.5457 28.685 51.5457C25.5145 51.5457 23.0989 50.7917 20.5323 49.8869C19.3246 49.4345 17.9658 49.1329 16.6071 48.6805C16.3051 48.6805 16.0032 48.5297 15.5502 48.3789C12.9837 47.6249 5.88796 45.8153 4.5292 46.8709C4.37823 47.0217 4.37827 47.0217 4.37827 47.1725C4.22729 48.8313 8.45447 50.1885 12.2288 51.2441C15.2483 52.1489 18.4187 53.2045 20.5323 54.5617C20.6833 54.7125 20.8343 55.0141 20.8343 55.1649C20.8343 55.4665 20.5324 55.6172 20.3814 55.6172C17.6639 55.768 13.7385 54.8632 9.96421 54.1093C6.18987 53.2045 1.96267 52.2997 1.05683 53.0537C0.905859 53.0537 0.905804 53.2045 0.905804 53.3553C0.905804 55.1648 3.3214 55.7681 8.00157 56.8237C11.9269 57.7285 16.6071 58.784 21.5892 61.1968C21.8911 61.3476 21.8911 61.4984 21.8911 61.8C21.8911 62.1016 21.5892 62.2524 21.2872 62.2524C18.7207 62.4032 16.0032 62.1016 13.2856 61.9508C10.5681 61.8 7.85058 61.4984 5.43501 61.6492C4.98209 61.6492 4.37821 61.8 4.22724 62.1016C4.22724 62.2524 4.22729 62.554 4.37827 62.7048C5.28411 64.2128 7.39772 64.6652 9.36037 64.816C11.474 64.9668 13.7385 65.4192 16.0031 65.7208C18.2677 66.0224 20.5324 66.4748 22.4951 66.6256C22.797 66.6256 22.948 66.7764 22.948 67.078C22.948 67.3796 22.797 67.5304 22.646 67.6812C19.1736 69.0383 15.0973 69.34 12.0779 69.4908C9.96425 69.6416 9.05844 70.0939 8.90747 70.5463C8.7565 70.8479 9.05837 71.1495 9.20934 71.3003C9.36031 71.6019 9.81329 71.6019 10.1152 71.7527C13.4367 72.6575 16.758 72.5067 20.0794 72.5067C21.5892 72.6575 22.646 72.5067 24.0048 72.5067C23.8538 72.5067 23.8538 72.5067 24.0048 72.5067Z" fill="black"/>
</svg>
